<svg xmlns="http://www.w3.org/2000/svg" width="20" height="21" fill="none" viewBox="0 0 20 21">
  <path stroke="#8552D2" stroke-linejoin="round" stroke-width="1.505" d="m1.37 11.752 1.768 1.767v2.513a1.49 1.49 0 0 0 1.49 1.49H7.14l1.768 1.768a1.48 1.48 0 0 0 2.106 0l1.768-1.768h2.512a1.49 1.49 0 0 0 1.49-1.49V13.52l1.768-1.767a1.481 1.481 0 0 0 0-2.106l-1.768-1.768V5.365a1.49 1.49 0 0 0-1.49-1.49h-2.512l-1.768-1.767a1.48 1.48 0 0 0-2.106 0L7.14 3.876H4.628a1.49 1.49 0 0 0-1.49 1.49v2.512L1.37 9.646a1.48 1.48 0 0 0 0 2.106Z"/>
  <path stroke="#8552D2" stroke-linecap="round" stroke-linejoin="round" stroke-width="1.505" d="m6.09 10.885 2.58 2.4 5.463-5.164"/>
</svg>
