<svg xmlns="http://www.w3.org/2000/svg" width="177" height="133" fill="none" viewBox="0 0 177 133">
  <path fill="#FCF8FF" d="M31.288 75.271a3.696 3.696 0 0 1 5.284-.107L60.842 99c4.968 4.878 11.025 12.063 6.09 16.975-.48.478-1.029.974-1.645 1.501-26.876 21.928-39.967 20.559-59.744-3.696-2.54-4.329-3.116-6.756 0-11.086L31.288 75.27Z"/>
  <path fill="#FCF8FF" d="m92.387 87.297 53.324-53.976c.774-.784 2.108-.236 2.108.865v25.651c0 .98-.388 1.918-1.08 2.611l-33.002 33.058a9.832 9.832 0 0 0-2.873 6.944c0 14.484 10.883 26.655 25.277 28.27l3.099.347c3.041.341 6.111.341 9.152 0l3.342-.375c14.255-1.598 25.033-13.653 25.033-27.997V38.772c0-5.42-.147-10.894-1.64-16.103-1.189-4.15-3.113-8.65-6.367-12.423-1.285-1.49-2.736-2.897-4.291-4.226-11.064-9.45-27.874-6.235-38.477 3.729L90.478 43.12a2.464 2.464 0 0 1-3.474-.1L62.11 16.802C48.939 2.93 28.598-5.128 14.428 7.724c-3.55 3.22-6.653 6.823-9.092 10.548C.401 25.811 0 35.171 0 44.181v25.462c0 1.083 1.296 1.64 2.08.893l23.172-22.041c7.318-6.393 10.581-4.987 16.014 0L84.38 87.297c3.105 2.521 4.91 2.64 8.007 0Z"/>
</svg>
