<svg xmlns="http://www.w3.org/2000/svg" width="14" height="13" fill="none" viewBox="0 0 14 13">
  <path fill="#000" d="M10.816 12.841c-2.154.368-3.339-2.232-3.339-4.418V7.325c0-1.65.386-3.087 1.158-4.31.758-1.212 2.202-2.13 4.33-2.755v3.054c-.612.212-1.05.445-1.317.698a2.904 2.904 0 0 0-.639.898c-.114.26-.208.523-.281.791-.04.143.105.436.2.549.178.207.442.177.715.177h.591c.462 0 .879.29 1.007.735.3 1.042.383 1.891.247 2.858-.18 1.272-1.063 2.408-2.304 2.74a3.86 3.86 0 0 1-.368.081Zm-7.398.039C1.241 13.29.082 10.616.082 8.4V7.324c0-1.65.386-3.087 1.157-4.31C1.998 1.802 3.441.884 5.57.26v3.054c-.612.212-1.051.445-1.317.698a2.903 2.903 0 0 0-.639.898c-.114.26-.208.523-.282.791-.039.143.105.436.202.549.176.207.441.177.714.177h.58c.466 0 .884.3 1.006.75.31 1.14.392 2.016.257 2.948-.174 1.211-1.025 2.27-2.194 2.634-.162.05-.322.091-.479.12Z"/>
</svg>
