<svg xmlns="http://www.w3.org/2000/svg" width="29" height="29" fill="none" viewBox="0 0 29 29">
  <g clip-path="url(#a)">
    <path stroke="#6A6471" stroke-linecap="round" stroke-linejoin="round" stroke-width="1.973" d="M3.731 17.225v8.877a.987.987 0 0 0 .986.987h19.729a.987.987 0 0 0 .986-.987v-8.877m-8.878 0v9.864M3.731 20.184h12.823M1.759 8.348l2.959-6.905h19.728l2.96 6.905H1.758Zm8.443 0v1.972a3.946 3.946 0 0 1-3.945 3.946h-.553A3.946 3.946 0 0 1 1.76 10.32V8.348"/>
    <path stroke="#6A6471" stroke-linecap="round" stroke-linejoin="round" stroke-width="1.973" d="M19.021 8.348v1.972a3.946 3.946 0 0 1-3.946 3.946h-.986a3.946 3.946 0 0 1-3.946-3.946V8.348"/>
    <path stroke="#6A6471" stroke-linecap="round" stroke-linejoin="round" stroke-width="1.973" d="M27.405 8.348v1.972a3.946 3.946 0 0 1-3.945 3.946h-.494a3.946 3.946 0 0 1-3.945-3.946V8.348"/>
  </g>
  <defs>
    <clipPath id="a">
      <path fill="#fff" d="M.772.455h27.62v27.62H.772z"/>
    </clipPath>
  </defs>
</svg>
