<svg xmlns="http://www.w3.org/2000/svg" width="500" height="500" fill="none" viewBox="0 0 500 500">
  <path fill="#E4EFEE" d="M150.218 417.582c18.864 0 34.156-2.107 34.156-4.705 0-2.599-15.292-4.705-34.156-4.705-18.864 0-34.156 2.106-34.156 4.705 0 2.598 15.292 4.705 34.156 4.705Zm95.268 0c18.864 0 34.156-2.107 34.156-4.705 0-2.599-15.292-4.705-34.156-4.705-18.864 0-34.156 2.106-34.156 4.705 0 2.598 15.292 4.705 34.156 4.705Zm116.049 0c18.864 0 34.156-2.107 34.156-4.705 0-2.599-15.292-4.705-34.156-4.705-18.864 0-34.156 2.106-34.156 4.705 0 2.598 15.292 4.705 34.156 4.705Z"/>
  <path fill="#865FCE" d="M417.271 396.2c-13.91-36.167-49.221-39.196-49.221-39.196-.117 16.778 3.211 29.518 8.275 39.196h40.946Z"/>
  <path fill="#B773E5" d="M441.447 396.201c15.648-34.798-1.835-65.236-1.835-65.236-31.768 21.743-41.035 45.722-41.818 65.236h43.653Z"/>
  <path fill="#865FCE" d="M417.271 396.201s11.191-39.235 19.048-52.486c0 0-8.871 37.368-15.461 52.486h-3.587Zm-245.993.002c-7.672-19.946-27.146-21.617-27.146-21.617-.064 9.253 1.771 16.28 4.564 21.617h22.582Z"/>
  <path fill="#B773E5" d="M189.97 396.202c8.283-16.94 4.602-33.03 4.602-33.03-24.342 7.639-35.704 20.691-40.771 33.03h36.169Z"/>
  <path fill="#865FCE" d="M173.866 396.201c7.318-10.501 15.854-25.096 15.854-25.096-5.387 4.913-14.184 17.393-19.404 25.096h3.55Zm-53.573-.002c4.791-12.272 6.144-28.667-.641-50.246 0 0-31.916 12.876-35.417 50.246h36.058Z"/>
  <path fill="#B773E5" d="M102.332 396.197c-4.033-16.126-16.23-35.244-49.366-45.584 0 0-5.388 23.67 9.88 45.584h39.486Z"/>
  <path fill="#865FCE" d="M78.195 396.199s-13.413-21.393-17.811-32.168c0 0 15.392 21.457 21.329 32.168h-3.518Z"/>
  <path fill="#CECAFF" d="M350.8 119.526a12.758 12.758 0 0 0-9.25-8.299c-2.377-7.974-9.761-13.79-18.507-13.79-6.775 0-12.731 3.492-16.178 8.771-.098-.002-.193-.015-.292-.015-5.903 0-11.001 3.396-13.483 8.333a9.703 9.703 0 0 0-8.275 5H350.8Zm-208.336 80.521a15.52 15.52 0 0 0-11.252-10.095c-2.891-9.699-11.873-16.772-22.512-16.772-8.241 0-15.486 4.247-19.68 10.667-.118-.002-.234-.018-.354-.018-7.18 0-13.381 4.131-16.4 10.137a11.8 11.8 0 0 0-10.066 6.081h80.264Zm295.462 82.313a15.52 15.52 0 0 0-11.252-10.095c-2.891-9.699-11.873-16.773-22.512-16.773-8.241 0-15.486 4.247-19.679 10.667-.119-.002-.235-.018-.355-.018-7.18 0-13.381 4.131-16.4 10.137a11.8 11.8 0 0 0-10.066 6.081l80.264.001Z"/>
  <path fill="#B773E5" d="M81.404 331.258c-.846 0-.845-1.313 0-1.313.846 0 .845 1.313 0 1.313Zm8.57-15.773c-.905 0-.906 1.406 0 1.406.905 0 .906-1.406 0-1.406Zm-16.133-7.448c-.335-.456-.899-.456-1.235 0-.236.321-.217.589-.15.962.133.76 1.402.761 1.536 0 .067-.378.082-.645-.15-.962Zm15.354-24.682c-1.146 0-1.148 1.781 0 1.781 1.146.001 1.148-1.781 0-1.781Zm340.497-54.034c0 .484-.304.919-.742 1.103-.482.203-.927.059-1.319-.25l-.109-.086c-.423-.333-.425-1.2 0-1.535l.109-.086c.428-.338.954-.486 1.463-.189.359.21.598.627.598 1.043Zm-14.451-8.269c-1.116 0-1.118 1.734 0 1.734 1.116.001 1.118-1.734 0-1.734Zm5.24-11.072-.156.066c-.733.31-.733 1.622 0 1.932l.156.066c.803.339 1.799-.038 1.799-1.032-.001-.994-.996-1.371-1.799-1.032Zm-1.345-19.312c-1.116 0-1.118 1.734 0 1.734 1.116 0 1.118-1.734 0-1.734Z"/>
  <path fill="#53129E" d="M276.308 357.657c0 17.342-14.058 31.4-31.4 31.4s-31.4-14.058-31.4-31.4 14.058-31.4 31.4-31.4c17.341 0 31.4 14.058 31.4 31.4Zm-79.482-49.344a20.266 20.266 0 0 0 7.732 4.834c5.006 1.723 10.601 1.44 15.427-1.21a51.621 51.621 0 0 1 24.921-6.384 51.625 51.625 0 0 1 24.922 6.384c5.604 3.076 12.243 2.964 17.793.224a20.286 20.286 0 0 0 5.366-3.847c5.01-5.01 6.688-11.877 5.362-18.127-1.135-5.349-4.469-10.247-9.795-13.145-12.985-7.065-27.854-11.084-43.649-11.084-15.794 0-30.663 4.019-43.648 11.084-6.287 3.421-9.798 9.628-10.193 16.074-.328 5.396 1.525 10.96 5.762 15.197Zm-86.471-86.471.069.07a19.79 19.79 0 0 0 16.359 5.666 19.292 19.292 0 0 0 9.849-4.162c29.626-23.948 67.3-38.313 108.273-38.313 40.974 0 78.648 14.365 108.275 38.313 3.897 3.15 8.678 4.546 13.37 4.268a19.792 19.792 0 0 0 12.839-5.773l.069-.069c4.419-4.419 6.296-10.383 5.695-16.097-.522-4.96-2.912-9.732-7.131-13.141-36.424-29.439-82.743-47.096-133.117-47.096-50.373 0-96.692 17.657-133.116 47.097-6.809 5.503-8.854 14.555-5.97 22.219a19.785 19.785 0 0 0 4.536 7.018Zm42.924 42.924.062.062a19.43 19.43 0 0 0 10.2 5.383c5.298.992 10.972-.195 15.637-3.575 18.491-13.396 41.2-21.307 65.729-21.307 24.529 0 47.239 7.911 65.73 21.308 5.24 3.796 11.752 4.827 17.576 3.109a19.416 19.416 0 0 0 8.26-4.917l.062-.062c4.915-4.915 6.669-11.711 5.409-17.949a19.398 19.398 0 0 0-7.603-11.882c-25.106-18.352-56.023-29.202-89.434-29.202-33.41 0-64.327 10.849-89.433 29.202-6.806 4.975-9.336 13.407-7.328 20.945a19.707 19.707 0 0 0 5.133 8.885Z"/>
  <path fill="#A265ED" d="M282.164 357.657c0 17.342-14.058 31.4-31.4 31.4s-31.4-14.058-31.4-31.4 14.058-31.4 31.4-31.4 31.4 14.058 31.4 31.4Zm-79.482-49.344a20.266 20.266 0 0 0 7.732 4.834c5.006 1.723 10.601 1.44 15.427-1.21a51.621 51.621 0 0 1 24.921-6.384 51.625 51.625 0 0 1 24.922 6.384c5.604 3.076 12.243 2.964 17.793.224a20.286 20.286 0 0 0 5.366-3.847c5.01-5.01 6.688-11.877 5.362-18.127-1.135-5.349-4.468-10.247-9.795-13.145-12.985-7.065-27.855-11.084-43.649-11.084s-30.663 4.019-43.648 11.084c-6.287 3.421-9.798 9.628-10.193 16.074-.328 5.396 1.525 10.96 5.762 15.197Zm-86.471-86.471.069.07a19.79 19.79 0 0 0 16.359 5.666 19.299 19.299 0 0 0 9.85-4.162c29.626-23.948 67.3-38.313 108.273-38.313 40.974 0 78.648 14.365 108.275 38.313 3.898 3.15 8.678 4.546 13.37 4.268a19.792 19.792 0 0 0 12.839-5.773l.069-.069c4.418-4.419 6.296-10.383 5.695-16.097-.522-4.96-2.912-9.732-7.131-13.141-36.424-29.439-82.743-47.096-133.117-47.096-50.373 0-96.691 17.657-133.116 47.097-6.808 5.503-8.854 14.555-5.97 22.219a19.769 19.769 0 0 0 4.535 7.018Zm42.924 42.924.062.062a19.433 19.433 0 0 0 10.2 5.383c5.298.992 10.972-.195 15.637-3.575 18.491-13.396 41.2-21.307 65.729-21.307 24.529 0 47.239 7.911 65.73 21.308 5.24 3.796 11.752 4.827 17.576 3.109a19.425 19.425 0 0 0 8.261-4.917l.062-.062c4.915-4.915 6.669-11.711 5.409-17.949a19.395 19.395 0 0 0-7.604-11.882c-25.106-18.352-56.023-29.202-89.434-29.202-33.41 0-64.327 10.849-89.433 29.202-6.806 4.975-9.336 13.407-7.328 20.945a19.707 19.707 0 0 0 5.133 8.885Z"/>
  <path fill="#494949" d="M174.104 156.956s10.246 3.904 23.125-.381v-12.92l-16.095-1.835-7.641 5.146.611 9.99Z"/>
  <path fill="#EF4B4B" d="M178.106 188.986s-2.525 12.139 3.613 15.62a2.189 2.189 0 0 0 2.975-.808c.593-1.03 1.044-2.754.608-5.585-.915-5.948-2.852-9.567-4.336-10.066-1.484-.499-2.86.839-2.86.839Z"/>
  <path fill="#FFBB7D" d="m176.816 183.493 2.171 9.249a1.605 1.605 0 0 0 1.75 1.226 1.602 1.602 0 0 0 1.4-1.806l-1.324-9.846-3.997 1.177Z"/>
  <path fill="#44287C" d="m177.168 133.252-.052-.265-2.671-.198 2.723.463Zm19.833-.463-2.671.198-.052.265 2.723-.463Z"/>
  <path fill="#FF871A" d="M200.886 114.032c-4.582-6.988-10.254-6.477-10.254-6.477l-4.91 1.863-4.91-1.863s-5.671-.511-10.254 6.477c-4.582 6.988-14.201 19.379-11.74 22.954 2.461 3.576 14.024 8.936 14.024 8.936l1.58-3.741s-9.916-6.806-9.638-7.635c.276-.823 9.864-13.753 9.863-14.364.054.538 2.115 11.016 2.467 12.802l8.561.634v.007l.046-.004.046.004v-.007l8.561-.634c.352-1.787 2.413-12.265 2.467-12.802-.001.611 9.587 13.541 9.863 14.364.278.829-9.638 7.635-9.638 7.635l1.58 3.741s11.564-5.361 14.024-8.936c2.463-3.575-7.155-15.966-11.738-22.954Z"/>
  <path fill="#C5EEF9" d="M183.647 104.546s-5.73-.504-5.654 11.078c0 0 3.628-2.836 7.877-1.622 0 0 4.977-.81 7.411 1.539 0 0 .333-9.104-5.829-11.123l-3.805.128Z"/>
  <path fill="#E59553" d="M183.274 103.164c-.001-.047-1.169 3.967-.889 5.767.28 1.8 2.719 5.451 3.485 5.073.766-.377 2.491-4.414 2.494-5.243.004-1.102-.522-3.814-1.542-5.831l-3.548.234Z"/>
  <path fill="#494949" d="M179.08 99.533c-3.611-3.74-2.895-9.036-.226-9.324 0 0 1.688-5.012 6.507-5.014 5.083-.002 12.146 6.065 6.304 13.998l-12.585.34Z"/>
  <path fill="#FFBB7D" d="M192.029 98.544c-.544-.513-1.027-.088-1.324.33.121-.736.211-1.535.236-2.459 0 0-.945-3.028-2.973-2.58-2.028.449-5.548 2.096-6.81-.397 0 0-1.942 1.156-1.213 5.308l.006.038c-.3-.385-.752-.716-1.257-.239-.874.826.515 3.581 1.904 2.503.691 1.691 2.056 3.723 4.673 3.901 0 0 3.312.323 4.876-3.886 1.38 1.033 2.751-1.698 1.882-2.519Z"/>
  <path fill="#999" d="M186.474 129.41h-16.138c-.541 0-1.022.221-1.367.573a1.91 1.91 0 0 0-.522 1.666l3.075 18.051a1.915 1.915 0 0 0 1.89 1.595h24.919a1.917 1.917 0 0 0 1.89-1.595l3.075-18.051a1.907 1.907 0 0 0-.336-1.445 1.912 1.912 0 0 0-1.554-.794h-14.932Z"/>
  <path fill="#494949" d="M176.21 186.612s-10.997-35.564-8.174-41.106c3.006-5.902 9.626-4.336 10.818 3.488 1.192 7.824 3.6 36.174 3.6 36.174l-6.244 1.444Z"/>
  <path fill="#EF4B4B" d="M195.839 188.986s2.525 12.139-3.612 15.62a2.189 2.189 0 0 1-2.975-.808c-.593-1.03-1.044-2.754-.608-5.585.915-5.948 2.852-9.567 4.336-10.066 1.482-.499 2.859.839 2.859.839Z"/>
  <path fill="#FFBB7D" d="m197.129 183.493-2.171 9.249a1.605 1.605 0 0 1-1.75 1.226 1.602 1.602 0 0 1-1.4-1.806l1.324-9.846 3.997 1.177Z"/>
  <path fill="#494949" d="M197.734 186.612s10.997-35.564 8.174-41.106c-3.006-5.902-9.626-4.336-10.818 3.488-1.192 7.824-3.6 36.174-3.6 36.174l6.244 1.444Z"/>
  <path fill="#FFBB7D" d="m284.169 371.593 2.181-1.927s.007-1.838.535-3.489c.528-1.651-.244-2.265.509-2.194.752.071.817 1.183.742 2.023-.075.839.206.976.77.434.564-.542 1.314-3.306 1.885-3.148.571.158 1.273 1.381 1.214 2.994-.059 1.612-.718 3.958-3.682 5.342l-2.397 2.56-1.757-2.595Z"/>
  <path fill="#494949" d="m284.252 370.814-11.119 7.931c-1.289-.387-13.496-12.495-13.496-12.495-3.695-3.184-7.15-2.89-7.15-2.89l-4.91 1.863-4.91-1.863s-5.671-.511-10.254 6.477c-4.582 6.988-14.201 19.379-11.74 22.954 2.461 3.576 14.024 8.936 14.024 8.936l1.58-3.741s-9.916-6.806-9.638-7.635c.276-.823 9.864-13.753 9.863-14.364.055.538 2.115 11.016 2.467 12.802l8.561.634v.007l.046-.003.046.003v-.007l8.561-.634c.309-1.571 1.939-9.855 2.365-12.201l.788.579s12.664 8.347 14.082 8.796c1.418.449 13.669-11.539 13.669-11.539l-2.835-3.61Zm-43.178-15.816s-2.289-4.625.319-8.386c2.803-4.041 10.152-3.196 12.251.363 2.251 3.817-.2 8.428-.2 8.428l-9.248.059-3.122-.464Z"/>
  <path fill="#44287C" d="m239.023 389.053-.052-.265-2.671-.198 2.723.463Zm19.833-.463-2.671.198-.052.265 2.723-.463Z"/>
  <path fill="#EF4B4B" d="M245.502 360.351s-5.729-.504-5.654 11.078c0 0 3.628-2.836 7.877-1.622 0 0 4.977-.81 7.411 1.539 0 0 .333-9.104-5.829-11.123l-3.805.128Z"/>
  <path fill="#E59553" d="M245.13 358.968c-.001-.047-1.169 3.967-.889 5.767.28 1.8 2.719 5.451 3.485 5.073.766-.377 2.491-4.414 2.494-5.243.004-1.102-.522-3.814-1.542-5.831l-3.548.234Z"/>
  <path fill="#FFBB7D" d="M253.884 354.349c-.544-.514-1.027-.089-1.324.329.121-.735.211-1.535.236-2.458 0 0 .036-2.971-1.992-2.523-1.884.416-3.052 1.872-6.868.028a1.386 1.386 0 0 0-1.137-.033 1.252 1.252 0 0 0-.637.589c-.408.802-.736 2.143-.363 4.27l.006.038c-.3-.384-.753-.715-1.257-.238-.874.826.515 3.58 1.904 2.502.691 1.691 2.056 3.723 4.673 3.901 0 0 3.312.324 4.876-3.885 1.382 1.033 2.752-1.698 1.883-2.52Z"/>
  <path fill="#999" d="M248.329 382.898h-16.138c-.541 0-1.022.222-1.367.573a1.91 1.91 0 0 0-.522 1.666l3.075 18.051a1.912 1.912 0 0 0 1.89 1.595h24.919a1.916 1.916 0 0 0 1.89-1.595l3.075-18.051a1.907 1.907 0 0 0-.336-1.445 1.909 1.909 0 0 0-1.554-.794h-14.932Z"/>
  <path fill="#494949" d="M226.268 410.118c-.099-.133-3.728-.885-7.887-3.152-4.159-2.267-6.748-1.147-6.906 1.811-.157 2.958 3.298 5.585 7.449 5.795 4.151.211 5.896.604 6.6-.604.705-1.206.744-3.85.744-3.85Z"/>
  <path fill="#FFBB7D" d="m229.31 408.465-5.174 1.242c-.476.114-.869.4-1.126.777a1.895 1.895 0 0 0-.307 1.37 1.9 1.9 0 0 0 1.969 1.601l5.219-.249-.581-4.741Z"/>
  <path fill="#D33737" d="M228.235 413.535s35.842-2.896 44.159-5.993c8.317-3.097 3.829-11.045-2.639-10.221-5.575.711-42.648 11.314-42.648 11.314l1.128 4.9Z"/>
  <path fill="#494949" d="M270.233 410.118c.099-.133 3.728-.885 7.887-3.152 4.159-2.267 6.748-1.147 6.906 1.811.157 2.958-3.298 5.585-7.449 5.795-4.151.211-5.896.604-6.6-.604-.705-1.206-.744-3.85-.744-3.85Z"/>
  <path fill="#FFBB7D" d="m267.191 408.465 5.174 1.242c.476.114.869.4 1.126.777.265.388.386.873.307 1.37a1.9 1.9 0 0 1-1.969 1.601l-5.219-.249.581-4.741Z"/>
  <path fill="#EF4B4B" d="M268.266 413.535s-35.842-2.896-44.159-5.993c-8.317-3.097-3.829-11.045 2.639-10.221 5.576.711 42.648 11.314 42.648 11.314l-1.128 4.9Z"/>
  <path fill="#FFBB7D" d="m318.509 218.333.804 3.059s-2.239 2.942-1.256 4.179c.982 1.237 1.459-1.774 2.361-1.681.902.093 7.039 4.894 7.152 3.278.253-3.636-3.687-5.257-4.88-6.665-1.194-1.408-.714-.586-.714-.586l-.608-3.394-2.859 1.81Z"/>
  <path fill="#494949" d="M273.646 265.54s-9.125 9.762-6.951 11.466c3.837 3.007 11.773-5.723 11.987-7.349.383-2.912-.775-5.339-2.252-5.138-1.478.201-2.784 1.021-2.784 1.021Zm-30.948-63.312s-9.795-1.333-13.247-.484c-3.452.848-.609 2.465 5.963 5.456 6.214 2.828 7.285 2.749 8.369 1.265 1.221-1.672 2.342-2.935 1.276-3.776-1.067-.842-2.361-2.461-2.361-2.461Z"/>
  <path fill="#FFBB7D" d="m245.458 199.652-4.464 3.885a1.658 1.658 0 0 0-.57 1.199 1.659 1.659 0 0 0 2.733 1.325l7.39-5.531-5.089-.878Zm27.292 60.115.633 7.428a1.635 1.635 0 0 0 1.643 1.497h.048a1.637 1.637 0 0 0 1.625-1.632v-7.345l-3.949.052Z"/>
  <path fill="#F2F2F2" d="m259.846 158.767-2.605.642a.756.756 0 0 1-.9-.499l-3.185-9.692a.755.755 0 0 1 .589-.982l5.044-.881a.756.756 0 0 1 .854.524l2.245 7.302a.763.763 0 0 1 .034.223v2.168a.757.757 0 0 1-.535.724l-1.499.461-.042.01Z"/>
  <path fill="#FFBB7D" d="m262.804 161.918-.619-2.864s1.597-2.336 1.201-3.188c-.396-.852-2.049-4.534-2.312-3.484-.263 1.05.949 2.203.464 3.484-.485 1.281-2.03.961-1.672 2.896l-2.56.631s.479 1.351 2.194 1.127l.583 1.856 2.721-.458Z"/>
  <path fill="#494949" d="M286.335 199.286s-11.412-11.305-17.174-16.154c-4.723-3.975-25.056 16.374-25.056 16.374l4.474 3.066s15.161-9.923 17.86-12.528c6.485 5.106 12.238 16.966 20.818 20.409 0 0-14.407 18.832-15.572 25.817-1.165 6.985 0 25.083 0 25.083h7.567s.159-20.638.476-24.131c0 0 18.323-20.134 20.651-24.274 2.328-4.14 2.027-8.056 2.027-8.056l-5.532-7.643-10.539 2.037Z"/>
  <path fill="#57407F" d="M287.256 176.99s.797 11.159-.921 22.298c0 0 9.887 7.098 16.07 5.606 0 0 2.016-16.834 2.574-23.408 0 0 10.628 29.803 12.779 38.025 0 0 3.275.449 4.931-1.176 0 0-10.572-40.372-14.434-44.85-3.862-4.478-11.152-7.029-11.152-7.029h-3.419s-20.679 9.766-22.692 9.789c-2.014.023-7.532-15.722-7.532-15.722l-4.769 1.137s6.254 19.619 9.705 20.658c3.45 1.038 18.86-5.328 18.86-5.328Z"/>
  <path fill="#C5EEF9" d="M293.602 166.79s-2.233 1.634-.69 7.033c0 0 5.947-2.629 6.018-5.328.071-2.7-3.694-3.623-5.328-1.705Z"/>
  <path fill="#E59553" d="M292.257 164.675s1.066 1.304 1.426 6.385c0 0 3.805-.965 4.18-3.562 0 0-.852-2.253-1.048-4.854-.197-2.601-4.558 2.031-4.558 2.031Z"/>
  <path fill="#EF4B4B" d="M287.256 159.771s-3.05.415-4.343-3.903c-1.293-4.318 2.971-7.679 5.183-6.232 0 0 1.86-4.834 7.902-3.189 5.838 1.589 10.82 11.244 2.927 15.932l-6.014.756-5.655-3.364Z"/>
  <path fill="#FFBB7D" d="M286.012 156.344s-.935 6.378 2.653 8.994c3.588 2.616 7.576.156 8.18-1.973 0 0 2.802.12 3.057-1.815.256-1.945-2.106-1.187-2.106-1.187l.69-2.404s-7.544-2.56-7.97-6.018c0 0-4.234.335-4.504 4.403Z"/>
  <path fill="#5E51BD" d="M154.041 403.033s1.204-.549 1.626 0c.422.549 2.942 6.246 2.745 6.8-.197.553-5.134 3.273-5.134 3.273l-4.566-.706 5.329-9.367Z"/>
  <path fill="#E59553" d="m147.555 398.397 3.404 7.001 1.923-6.312-2.142-5.27-3.185 4.581Z"/>
  <path fill="#57407F" d="M151.768 406.198s-1.945-.028-2.316 1.083c-.74 2.212-9.308 2.965-9.308 5.687 0 3.094 10.815 1.336 13.897 1.386 2.212.036 1.673-.954 1.626-3.992-.048-3.038.215-4.106-.771-4.395-.985-.29-3.128.231-3.128.231Z"/>
  <path fill="#FFBB7D" d="M150.363 398.395v8.154a2.111 2.111 0 0 0 2.013 2.108 2.107 2.107 0 0 0 2.203-2.02l.317-7.681-4.533-.561Z"/>
  <path fill="#D33737" d="M146.804 331.814s-13.82 27.302-12.465 35.321c1.355 8.019 12.924 33.087 12.924 33.087l5.001-1.65-1.118-4.444s-7.633-26.931-6.967-29.678c.665-2.747 10.718-21.069 10.718-21.069v-6.651l-6.158-8.054-1.935 3.138Z"/>
  <path fill="#EF4B4B" d="M159.759 320.18c-.145.434 5.777 4.984 3.421 17.951-1.708 9.403-7.365 61.628-7.365 61.628l-6.904.126s-2.308-52.744.779-62.431c3.087-9.687 10.069-17.274 10.069-17.274Z"/>
  <path fill="#999" d="m127.048 303.228-.862.944a.696.696 0 0 1-.969.058l-4.676-4.024a.698.698 0 0 1-.028-1.031l2.463-2.357a.693.693 0 0 1 .956-.006l3.744 3.491a.698.698 0 0 1 .184.736l-.669 1.945a.675.675 0 0 1-.143.244Z"/>
  <path fill="#FFBB7D" d="M146.11 293.555s-6.119 13.677-7.124 14.26c-1.005.582-10.549-5.757-10.549-5.757l-1.133 2.392s8.748 6.737 11.683 7.596c2.935.859 8.441-11.682 8.441-11.682l-1.318-6.809Z"/>
  <path fill="#57407F" d="M148.074 288.913s-5.086 5.613-4.68 11.451c.406 5.838 4.725 9.964 4.158 15.588-.566 5.624-6.75 17.063-7.066 24.977 0 0 19.055-.898 25.049-11.795 0 0-6.746-12.792-6.374-20.044.373-7.253-1.663-18.46-2.886-19.528-1.223-1.068-4.863-1.066-4.863-1.066l-3.338.417Z"/>
  <path fill="#E59553" d="m145.167 286.918 1.049 1.759s.726-.699 1.343.237c.617.936-2.504 3.581-1.196 7.452 0 0 5.349-4.952 5.633-8.708.285-3.756-3.923-6.033-3.923-6.033l-2.907 3.472v1.821h.001Z"/>
  <path fill="#FF871A" d="M143.385 287.346s-3.837 3.133-6.541.306-.868-9.027 1.108-11.462c1.976-2.435 5.35-5.187 8.566-4.561 4.099.797 12.795 8.082 11.211 12.626-1.584 4.544-6.981 4.739-6.981 4.739s-.857-3.311-3.196-4.354c-2.339-1.043-4.167 2.706-4.167 2.706Z"/>
  <path fill="#FFBB7D" d="M138.917 279.358s-.678 4.787 1.569 7.165 3.832 2.719 5.73 2.155c1.898-.564 2.528-2.954 2.107-4.491 0 0 1.467-.972 1.038-2.474-.429-1.502-1.757-.787-1.809.215l-.851-2.596s-5.944 2.693-7.784.026Zm17.359 10.205s12.941 13.848 13.22 16.548c.279 2.7-5.047 17.625-5.047 17.625l-2.217-1.497s3.726-15.143 2.609-16.613c-1.117-1.47-11.132-10.779-11.566-13.415-.503-3.06 1.336-3.714 3.001-2.648Z"/>
  <path fill="#FFBB7D" d="M162.232 322.237s-1.266-.634-2.439-.195-2.575 1.665-2.063 2.628c.511.962 3.018.186 4.666.349 1.648.163 2.053-1.284 2.053-1.284l-.929-1.692-1.288.194Zm-33.796-20.18s.428-1.693-.787-1.964c-1-.223-1.936-.593-2.091-.241-.208.47.15.824 1.027 1.025.732.167.598.32.598.32s-.409 1.437-.038 1.925l-.985 1.163 1.143.165 1.155-.638-.022-1.755Z"/>
  <path fill="#494949" d="M347.273 405.344s1.584-1.056 2.258 0c.674 1.056 1.607 3.374 3.525 4.074 1.918.7 6.907 2.648 6.669 4.359-.277 1.995-17.72.717-18.04-.72-.32-1.438.278-7.257 1.32-7.923 1.041-.666 2.906 1.046 2.906 1.046l1.362-.836Zm26.781-1.588s1.512-1.157 2.253-.148c.741 1.01 1.824 3.261 3.784 3.835 1.96.573 7.065 2.191 6.94 3.914-.146 2.009-17.635 1.874-18.049.46-.414-1.414-.197-7.259.799-7.992.996-.733 2.968.853 2.968.853l1.305-.922Z"/>
  <path fill="#FFBB7D" d="m370.204 397.847 1.234 8.175c.083.549.386 1.009.804 1.304a1.953 1.953 0 0 0 3.082-1.664l-.303-8.865-4.817 1.05Zm-25.021-1.648-1.44 10.728a1.954 1.954 0 0 0 1.487 2.162l.412.098a1.947 1.947 0 0 0 1.597-.319c.39-.282.678-.709.774-1.222l2.154-11.447h-4.984Z"/>
  <path fill="#FF871A" d="M346.735 327.397s-1.825 1.588.063 20.544-3.072 50.957-3.072 50.957 4.398 1.135 7.834 1.215c0 0 7.587-28.428 9.429-49.429 0 0 5.544 41.781 7.607 49.491 0 0 4.161 1.852 7.902-1.024 0 0-1.098-55.329-7.383-70.45-6.285-15.121-22.38-1.304-22.38-1.304Z"/>
  <path fill="#999" d="m381.271 283.049 3.666-13.302a1.115 1.115 0 0 1 1.229-.811l8.314 1.129c.341.046.622.24.791.505.17.265.229.6.128.93l-3.945 12.964a1.121 1.121 0 0 1-1.18.788l-8.034-.791a1.116 1.116 0 0 1-.969-1.412Z"/>
  <path fill="#FFBB7D" d="M374.234 299.189s6.807-7.079 9.361-13.685l3.342 1.671s-6.757 17.817-11.832 19.699c-5.075 1.882-8.168-2.931-8.168-2.931l7.297-4.754Z"/>
  <path fill="#494949" d="M353.444 281.118s-12.173 2.587-13.7 22.614l2.727.078s1.382 2.234 1.273 7.328c-.139 6.526-1.653 16.428-.199 18.252 2.588 3.247 25.701 5.55 28.333.39 2.632-5.16-1.136-26.996-1.136-26.996l3.492-3.593s-7.623-15.966-12.162-17.376c-4.54-1.41-8.628-.697-8.628-.697Z"/>
  <path fill="#494949" d="M364.566 272.333s2.34-1.826 1.024-4.609c0 0 1.451-2.13-.453-4.276-1.828-2.061-5.031-1.632-6.53-.281 0 0-5.66-1.469-7.781 4.557 0 0-2.759 1.362-1.265 5.62s-1.468 6.195-1.468 6.195 4.029 3.601 8.677.14c2.986-2.224 7.796-7.346 7.796-7.346Z"/>
  <path fill="#57407F" d="M355.329 279.866s-2.953-.29-3.54 2.696c-.588 2.987 1.103 9.45 4.759 12.728 0 0 .537-6.219 3.878-7.587 0 0 3.873 1.163 5.693 4.444 0 0-1.171-11.171-5.839-12.289-4.669-1.117-4.951.008-4.951.008Z"/>
  <path fill="#E59553" d="M361.161 278.387s-1.881 2.846.374 6.684c0 0-.639 1.433-1.109 2.63 0 0-4.805-1.777-5.694-4.749 0 0 .638-4.728 0-6.536-.638-1.809 6.429 1.971 6.429 1.971Z"/>
  <path fill="#FFBB7D" d="M364.221 270.13s1.497 7.739-2.687 9.781c-4.183 2.043-6.605-.774-7.432-3.595 0 0-1.925.06-2.196-1.413-.251-1.367.702-2.017 1.808-1.232 0 0 .549-2.25-.539-3.465 0 0 6.368-5.536 11.046-.076Zm-21.751 33.679s-1.089 21.361 10.139 36.399l2.664-2.986s-8.23-15.214-6.783-33.413h-6.02Zm44.467-16.632s3.109-1.593 3.616-3.169c.466-1.447 1.535-4.689.327-5.119-1.208-.43-2.584-.721-3.036 1.041-.453 1.761-1.458 2.966-2.369 3.61-.911.644-1.792.204-1.88 1.965-.088 1.762 3.342 1.672 3.342 1.672Z"/>
</svg>
