<svg xmlns="http://www.w3.org/2000/svg" width="91" height="92" fill="none" viewBox="0 0 91 92">
  <path fill="#F5F6F7" d="m5.636 48.902.532.11.823 1.858-.22 1.06s.811.221 1.002-1.187c.19-1.41.223-1.033.223-1.033s1.747.363 1.923.234c.127-.09.544-1.815.75-2.747a1.041 1.041 0 0 0-.509-1.174.757.757 0 0 0-.181-.064c-.434-.09-2.723-.2-2.723-.2l-.917-.18-.703 3.323Zm-1.581-.022 1.082-3.566.91.19-.741 3.56-1.25-.184Zm76.915-5.565.779 1.577 1.74.252-1.259 1.23.298 1.733-1.558-.819-1.555.819.295-1.734-1.26-1.229 1.742-.252.778-1.578Zm0-14.573.516 1.044 1.15.167-.832.811.195 1.148-1.029-.541-1.029.54.196-1.147-.831-.811 1.15-.167.514-1.044Zm-23.882-2.774-.511.084-1.373-1.378-.165-1.024s-.8.08-.49 1.405c.31 1.326.154 1 .154 1s-1.683.278-1.799.447c-.083.124.14 1.803.269 2.712a.993.993 0 0 0 .857.875c.06.008.121.008.181 0 .42-.069 2.509-.757 2.509-.757l.886-.143-.518-3.22Zm1.424-.517.252 3.558-.879.142-.555-3.437 1.182-.263Zm17.462-14.127-1.447.008.04 7.2 1.446-.009-.039-7.199Zm-10.234.019-3.747.02.022 3.976 3.746-.02-.021-3.976Z"/>
  <path fill="#F5F6F7" d="m69.47 11.323-3.747.02.022 3.976 3.747-.02-.022-3.976Z"/>
  <path fill="#F5F6F7" d="M61.999 12.465c2.488.02 4.986 0 7.475-.034a.04.04 0 0 0 .04-.04.04.04 0 0 0-.04-.04c-2.49-.015-4.983 0-7.477.045a.035.035 0 0 0-.035.035.034.034 0 0 0 .035.034h.002Zm4.465 2.785-6.807.037.017 3.239 6.807-.037-.017-3.239Z"/>
  <path fill="#F5F6F7" d="m73.24 15.215-6.807.037.017 3.238 6.807-.037-.017-3.238Z"/>
  <path fill="#F5F6F7" d="M59.66 16.193c4.523.05 9.063 0 13.584-.068a.04.04 0 1 0 0-.08c-4.523-.023-9.061-.021-13.583.079a.035.035 0 0 0-.025.01.035.035 0 0 0 .024.059Zm23.832 2.338H57.116v1.16h26.376v-1.16Z"/>
  <path fill="#F5F6F7" d="M62.503 19.088h-1.07v3.959h1.07v-3.96Zm15.984 0h-1.071v3.959h1.071v-3.96ZM77.386 8.639l-1.446.007.053 9.903 1.447-.008-.054-9.902Zm2.261 1.843-2.249.012.044 8.025 2.249-.012-.044-8.025Z"/>
  <path fill="#F5F6F7" d="M79.632 12.032a8.154 8.154 0 0 1-1.123.038 8.3 8.3 0 0 1-1.126-.038c.75-.053 1.5-.053 2.25 0Zm0-.342c-.373.04-.748.053-1.123.04-.376.013-.752 0-1.126-.04.75-.05 1.5-.05 2.25 0Zm0 5.614c-.748.05-1.5.05-2.249 0 .75-.054 1.5-.054 2.25 0Zm0-.338c-.748.05-1.5.05-2.249 0 .75-.051 1.5-.051 2.25 0Zm-1.087-.738c-.022 0-.04-.81-.04-1.815 0-1.006.018-1.815.04-1.815.022 0 .038.81.038 1.815 0 1.006-.018 1.815-.038 1.815Zm3.558-3.771h-2.447v6.058h2.447v-6.058Zm-5.045-2.123a.417.417 0 1 1-.833.004.417.417 0 0 1 .833-.004Zm-.287 1.143h-.257v5.89h.257v-5.89Zm-.131 24.711.516 1.043 1.151.167-.833.812.198 1.147-1.031-.541-1.03.541.198-1.147-.833-.812 1.151-.167.514-1.044Z"/>
  <path fill="#263238" d="M85.209 86.436c0 .027-17.833.047-39.825.047-21.992 0-39.83-.02-39.83-.047s17.828-.047 39.83-.047c22 0 39.825.022 39.825.047Z"/>
  <path fill="#F5F6F7" d="M50.84 45.328H12.258v15.21H50.84v-15.21Z"/>
  <path fill="#263238" d="M50.84 60.538v-4.077c0-2.621-.01-6.42-.018-11.133l.033.033-38.58.014.047-.047v15.21l-.045-.045 27.64.029 8.028.012h2.891-2.864l-8.018.013-27.69.022h-.045V45.273h.049l38.58.015h.032v.033c0 4.72-.013 8.531-.016 11.153 0 1.309 0 2.323-.01 3.013v.78c0 .178-.014.271-.014.271Z"/>
  <path fill="#263238" d="M34.16 53.442c0 .025-4.132.047-9.227.047-5.096 0-9.227-.022-9.227-.047 0-.026 4.13-.05 9.227-.05s9.227.03 9.227.05Zm.052 1.848c0 .027-4.155.047-9.28.047-5.124 0-9.28-.02-9.28-.048 0-.027 4.155-.047 9.28-.047 5.127 0 9.28.015 9.28.047Z"/>
  <path fill="#A26DF2" d="m16.871 48.1.412.836.924.135-.668.65.158.918-.826-.434-.824.434.156-.918-.666-.65.922-.135.412-.836Z"/>
  <path fill="#F5F6F7" d="m19.924 48.1.413.836.922.135-.668.65.158.918-.825-.434-.825.434.157-.918-.668-.65.922-.135.414-.836Zm3.052 0 .412.836.924.135-.668.65.158.918-.826-.434-.824.434.156-.918-.666-.65.922-.135.412-.836Zm3.051 0 .414.836.922.135-.668.65.158.918-.826-.434-.824.434.158-.918-.668-.65.922-.135.412-.836Zm3.053 0 .413.836.924.135-.668.65.158.918-.826-.434-.825.434.157-.918-.667-.65.923-.135.412-.836Zm-6.825 9.627c0 .027-1.425.047-3.184.047-1.759 0-3.184-.02-3.184-.047s1.427-.047 3.184-.047c1.757 0 3.184.022 3.184.047Z"/>
  <path fill="#A26DF2" d="M43.365 58.75a5.213 5.213 0 1 0 0-10.428 5.213 5.213 0 0 0 0 10.427Z"/>
  <path fill="#263238" d="M42.138 47.704c.11-.532.49-.813.993-1.018a1.69 1.69 0 0 1 1.556.16c.303.203.544.51.896.608.576.163 1.213-.298 1.768-.077a.772.772 0 0 1-.28 1.49c.377.112.522.63.326.97a1.023 1.023 0 0 1-1.019.441 2.161 2.161 0 0 1-1.047-.508c-.307-.245-.585-.526-.908-.746a1.695 1.695 0 0 0-1.105-.334c-.528.06-.959.486-1.167.975a3.938 3.938 0 0 0-.23 1.566 6.523 6.523 0 0 1-.104 1.587c-.015.062-.038.129-.097.15-.085.033-.163-.054-.21-.13a7.805 7.805 0 0 1-1.062-2.846c-.095-.583-.11-1.14.181-1.654.293-.514 1.09-.924 1.507-.636"/>
  <path fill="#FFBE9D" d="m41.258 50.224.076 5.961c.012 1.013.24 2.5 1.84 2.405 1.384-.181 1.72-1.508 1.705-2.454v-.87s1.516-.161 1.605-1.664c.043-.726.012-2.231-.033-3.59a2.803 2.803 0 0 0-2.67-2.707h-.145c-1.576.009-2.43 1.352-2.379 2.919Z"/>
  <path fill="#EB996E" d="M44.876 55.244a3.5 3.5 0 0 1-1.936-.65s.413 1.103 1.921 1.04l.015-.39Z"/>
  <path fill="#263238" d="M45.84 50.918a.216.216 0 0 1-.218.207.205.205 0 0 1-.196-.125.205.205 0 0 1-.017-.08.218.218 0 0 1 .218-.207.205.205 0 0 1 .196.125.22.22 0 0 1 .016.08Z"/>
  <path fill="#263238" d="M46.086 50.736c-.029.025-.181-.102-.416-.113-.234-.01-.406.097-.43.068-.023-.03.018-.062.095-.113a.595.595 0 0 1 .344-.089c.121.005.237.05.33.125.068.057.099.106.077.122Zm-2.47.106a.213.213 0 0 1-.216.207.202.202 0 0 1-.196-.123.202.202 0 0 1-.017-.08.214.214 0 0 1 .216-.207.202.202 0 0 1 .196.123.205.205 0 0 1 .017.08Z"/>
  <path fill="#263238" d="M43.812 50.67c-.028.025-.182-.102-.416-.113-.234-.01-.407.098-.43.067-.024-.03.018-.062.094-.112a.595.595 0 0 1 .345-.09c.12.007.236.05.33.126.07.058.091.109.077.121Zm.757 1.753a1.63 1.63 0 0 1 .38-.05c.057 0 .115-.011.126-.051a.301.301 0 0 0-.03-.182l-.153-.457a7.894 7.894 0 0 1-.338-1.195c.175.377.32.766.432 1.166l.146.459a.34.34 0 0 1 .02.234.152.152 0 0 1-.102.082.523.523 0 0 1-.1.009 1.62 1.62 0 0 1-.381-.015Zm.108.804c-.032.02-.15-.203-.424-.26-.275-.056-.496.093-.514.062-.018-.03.029-.07.127-.125a.62.62 0 0 1 .423-.066.544.544 0 0 1 .341.225c.058.09.062.157.047.164ZM43.9 50.3c-.027.062-.255.02-.528.04-.272.02-.495.083-.528.025-.016-.027.026-.085.116-.142a.897.897 0 0 1 .398-.117c.14-.01.28.013.408.067.098.045.145.098.135.127Zm2.132-.24c-.042.051-.2-.012-.39-.023-.191-.011-.364.018-.39-.038-.015-.028.012-.078.087-.126a.566.566 0 0 1 .628.05c.065.057.085.112.065.137Z"/>
  <path fill="#FFBE9D" d="M41.326 51.343c-.025-.012-1.018-.353-1.034.676-.017 1.03 1.022.833 1.023.804.002-.03.011-1.48.011-1.48Z"/>
  <path fill="#EB996E" d="M41.007 52.427s-.018.013-.05.025a.181.181 0 0 1-.133 0 .45.45 0 0 1-.2-.4c0-.09.018-.178.054-.259a.209.209 0 0 1 .138-.134.09.09 0 0 1 .106.05c.012.03 0 .05.01.052.011.002.024-.017.015-.06a.112.112 0 0 0-.038-.066.141.141 0 0 0-.1-.027.248.248 0 0 0-.181.156.59.59 0 0 0-.068.287.468.468 0 0 0 .255.448.195.195 0 0 0 .165-.023c.025-.024.03-.047.027-.05Z"/>
  <path fill="#263238" d="M46.778 49.716a2.179 2.179 0 0 1-1.91-.527c-.35-.328-.612-.788-1.064-.951a1.228 1.228 0 0 0-.94.084 2.368 2.368 0 0 0-.739.617c.254.778.018 1.623-.218 2.407a.402.402 0 0 1-.13.23.325.325 0 0 1-.405-.109 1.27 1.27 0 0 1-.247-.684 4.232 4.232 0 0 1 .089-1.668 2.904 2.904 0 0 1 .86-1.416 2.74 2.74 0 0 1 1.948-.632 3.36 3.36 0 0 1 1.904.788c.26.199.464.459.598.757"/>
  <path fill="#F5F6F7" d="M50.864 8.451H12.282v15.21h38.582V8.451Z"/>
  <path fill="#263238" d="M50.864 23.67v-4.075c0-2.622-.011-6.421-.018-11.133l.032.032-38.58.015.048-.047v15.21l-.046-.046 27.658.02 8.029.013h2.895-2.866l-8.018.013-27.689.021h-.045V8.404h.049l38.55.018h.034v.033c0 4.72-.013 8.532-.019 11.153v3.794c0 .178-.014.269-.014.269Z"/>
  <path fill="#263238" d="M34.16 16.26c0 .027-4.132.047-9.227.047-5.096 0-9.227-.02-9.227-.047s4.13-.047 9.227-.047 9.227.014 9.227.047Zm.052 1.844c0 .027-4.155.047-9.28.047-5.124 0-9.28-.02-9.28-.047s4.155-.047 9.28-.047c5.127 0 9.28.021 9.28.047Z"/>
  <path fill="#A26DF2" d="m16.871 10.914.412.837.924.134-.668.65.158.919-.826-.434-.824.434.156-.919-.666-.65.922-.134.412-.837Zm3.053 0 .413.837.922.134-.668.65.158.919-.825-.434-.825.434.157-.919-.668-.65.922-.134.414-.837Zm3.052 0 .412.837.924.134-.668.65.158.919-.826-.434-.824.434.156-.919-.666-.65.922-.134.412-.837Zm3.051 0 .414.837.922.134-.668.65.158.919-.826-.434-.824.434.158-.919-.668-.65.922-.134.412-.837Zm3.053 0 .413.837.924.134-.668.65.158.919-.826-.434-.825.434.157-.919-.667-.65.923-.134.412-.837Z"/>
  <path fill="#F5F6F7" d="M22.255 20.541c0 .026-1.425.047-3.184.047-1.759 0-3.184-.021-3.184-.047 0-.025 1.427-.047 3.184-.047 1.757 0 3.184.022 3.184.047Z"/>
  <path fill="#A26DF2" d="M43.365 21.564a5.213 5.213 0 1 0 0-10.427 5.213 5.213 0 0 0 0 10.427Z"/>
  <path fill="#EB996E" d="m40.756 12.763.409 6.535a1.919 1.919 0 0 0 3.832-.134c0-.8-.015-1.536-.015-1.536s1.503-.234 1.522-1.738c.009-.711-.091-2.165-.196-3.498a2.884 2.884 0 0 0-2.874-2.65h-.069a2.782 2.782 0 0 0-2.609 3.02Z"/>
  <path fill="#D1734A" d="M44.986 17.612a3.506 3.506 0 0 1-1.964-.557s.465 1.089 1.962.945l.002-.388Z"/>
  <path fill="#263238" d="M45.955 13.36c-.027.029-.181-.093-.42-.09-.24 0-.4.115-.425.086-.026-.029.014-.063.088-.116a.584.584 0 0 1 .674.004c.072.054.096.103.083.116Zm-2.247 0c-.027.029-.181-.09-.42-.09-.237 0-.4.115-.426.086-.025-.029.015-.062.09-.116a.586.586 0 0 1 .674.004c.071.054.095.103.082.116Zm.839 1.452c.121-.037.247-.06.374-.067.06 0 .114-.018.125-.058a.294.294 0 0 0-.04-.181 8.986 8.986 0 0 0-.181-.449 7.911 7.911 0 0 1-.393-1.174c.193.366.356.747.487 1.14l.167.452a.347.347 0 0 1 .03.23.152.152 0 0 1-.097.088.431.431 0 0 1-.1.012 1.39 1.39 0 0 1-.372.007Zm-.779-2.615c-.024.062-.254.033-.525.066-.27.032-.49.107-.526.05-.015-.027.023-.087.11-.147a.862.862 0 0 1 .39-.136.876.876 0 0 1 .411.047c.1.04.149.09.14.12Zm2.124.192c-.04.053-.198 0-.39 0-.193 0-.353.035-.39-.02-.039-.054.008-.08.08-.129a.544.544 0 0 1 .317-.085.532.532 0 0 1 .312.105c.067.05.089.104.07.129Zm-3.503-1.272c-.247.187-.41.463-.456.77v.03c-.058.429-.05.864-.11 1.293a1.951 1.951 0 0 1-.53 1.158c-.13.122-.362.205-.466.062a.364.364 0 0 1-.054-.196c-.08-1.035-.363-1.954-.363-3.035a.92.92 0 0 1 .38-.743c.226-.161.502-.33.755-.21.252.12.577.59.773.79"/>
  <path fill="#EB996E" d="M41.263 13.444c-.026-.011-1.031-.307-.998.726.032 1.033 1.056.782 1.058.753.002-.029-.06-1.48-.06-1.48Z"/>
  <path fill="#D1734A" d="M40.996 14.538s-.018.013-.047.029a.181.181 0 0 1-.134 0 .443.443 0 0 1-.218-.39.595.595 0 0 1 .041-.258.206.206 0 0 1 .131-.142.091.091 0 0 1 .107.046c.015.029 0 .049.015.05.014.002.022-.018.013-.06a.122.122 0 0 0-.044-.063.14.14 0 0 0-.1-.022.25.25 0 0 0-.181.165.592.592 0 0 0-.053.287.463.463 0 0 0 .276.436.182.182 0 0 0 .162-.033c.03-.02.036-.043.032-.045Z"/>
  <path fill="#263238" d="M41.515 10.403c-.254-.41.44-1 .946-1.16.507-.16 1.177.087 1.68.254.319.105.637.254.97.24a2.29 2.29 0 0 0 .652-.165 1.65 1.65 0 0 1 .657-.131.62.62 0 0 1 .545.343.388.388 0 0 1-.26.525.503.503 0 1 1 .135.934c.145-.11.363.071.352.255a.53.53 0 0 1-.358.388 1.91 1.91 0 0 1-1.37-.022c-.443-.149-.855-.38-1.295-.544-.439-.164-1.176-.449-1.617-.293-.325.115-.545.507-.726.42a.622.622 0 0 1-.325-.461 1.768 1.768 0 0 1 .02-.587"/>
  <path fill="#455A64" d="M46.834 10.279c-.01 0-.053.076-.163.196a1.42 1.42 0 0 1-.57.363c-.32.115-.671.102-.98-.038-.35-.158-.649-.47-.994-.766a2.124 2.124 0 0 0-1.154-.545 1.187 1.187 0 0 0-.982.34.897.897 0 0 0-.24.658.723.723 0 0 0 .044.182c.018.04.03.06.034.058a1.401 1.401 0 0 1-.038-.249.88.88 0 0 1 .243-.604 1.13 1.13 0 0 1 .92-.296 2.08 2.08 0 0 1 1.099.545c.338.288.646.61 1.02.773a1.392 1.392 0 0 0 1.618-.389.829.829 0 0 0 .107-.16c.021-.045.036-.066.036-.068Zm-5.832 3.12s.045-.03.083-.111a.688.688 0 0 0 .05-.363c-.02-.33-.315-.686-.351-1.142a1.016 1.016 0 0 1 .114-.613.773.773 0 0 1 .381-.33.696.696 0 0 1 .343-.048.726.726 0 0 0 .131.026s-.036-.037-.123-.064a.648.648 0 0 0-.376.018.826.826 0 0 0-.438.35 1.09 1.09 0 0 0-.134.67c.027.226.094.444.198.646.083.157.144.325.181.498a.782.782 0 0 1-.06.463Z"/>
  <path fill="#F5F6F7" d="M43.768 15.096c.036.226.148.434.318.588a.633.633 0 0 0 .642.114 1.04 1.04 0 0 0 .412-.423l-1.372-.28Zm7.096 11.777H12.282v15.21h38.582v-15.21Z"/>
  <path fill="#263238" d="M50.864 42.082v-4.075c0-2.623-.011-6.42-.018-11.133l.032.032-38.58.015.048-.047v15.208l-.046-.045 27.658.021 8.029.013h2.895-2.866l-8.018.013-27.689.022h-.045V26.805h.049l38.58.012h.033v.035c0 4.72-.013 8.532-.019 11.153v3.792c0 .176-.043.285-.043.285Z"/>
  <path fill="#263238" d="M34.16 34.98c0 .026-4.132.048-9.227.048-5.096 0-9.227-.022-9.227-.047 0-.026 4.13-.047 9.227-.047s9.227.02 9.227.047Zm.052 1.84c0 .028-4.155.048-9.28.048-5.124 0-9.28-.02-9.28-.047 0-.028 4.155-.048 9.28-.048 5.127 0 9.28.022 9.28.048Z"/>
  <path fill="#A26DF2" d="m16.871 29.633.412.835.924.134-.668.65.158.919-.826-.433-.824.433.156-.919-.666-.65.922-.134.412-.835Zm3.053 0 .413.835.922.134-.668.65.158.919-.825-.433-.825.433.157-.919-.668-.65.922-.134.414-.835Zm3.052 0 .412.835.924.134-.668.65.158.919-.826-.433-.824.433.156-.919-.666-.65.922-.134.412-.835Z"/>
  <path fill="#F5F6F7" d="m26.027 29.633.414.835.922.134-.668.65.158.919-.826-.433-.824.433.158-.919-.668-.65.922-.134.412-.835Zm3.053 0 .413.835.924.134-.668.65.158.919-.826-.433-.825.433.157-.919-.667-.65.923-.134.412-.835Zm-6.825 9.625c0 .027-1.425.047-3.184.047-1.759 0-3.184-.02-3.184-.047s1.427-.047 3.184-.047c1.757 0 3.184.022 3.184.047Z"/>
  <path fill="#A26DF2" d="M48.444 36.252a5.213 5.213 0 1 0-10.155-2.367 5.213 5.213 0 0 0 10.155 2.367Z"/>
  <path fill="#263238" d="M48.733 34.425c-.142-.114-.343-.129-.489-.24-.3-.224-.214-.686-.28-1.054-.068-.403-.342-.735-.56-1.09-.218-.353-.47-.847-.309-1.223l-2.933 5.379h4.602s.14-.846.163-1.09c.024-.242 0-.527-.194-.682Z"/>
  <path fill="#263238" d="M42.637 29.083c.142-.432.614-.677 1.066-.726.451-.05.673.13 1.118.03.611-.137.965-.344 1.37-.279.44.041.85.238 1.157.556.241.277.25.933.148 1.288-.09.324-.343.59-.41.92-.067.331.042.618.11.923.202.917.044 1.942-.562 2.657-.606.716-1.7 1.032-2.541.61"/>
  <path fill="#A36957" d="m45.128 37.98-.026-1.338s1.33-.196 1.634-1.922c.153-.857.134-2.27.082-3.424-.047-1.038-1.148-2.095-2.179-1.997l-3.365.58v.557l.093 7.61a1.88 1.88 0 1 0 3.76-.066Z"/>
  <path fill="#263238" d="M46.244 32.35a.221.221 0 0 1-.22.22.212.212 0 0 1-.225-.204.224.224 0 0 1 .218-.221.215.215 0 0 1 .227.205Zm.256-.329c-.027.03-.194-.098-.432-.102-.238-.003-.416.113-.441.084-.026-.029.016-.065.092-.12a.603.603 0 0 1 .354-.101.588.588 0 0 1 .345.117c.071.06.096.122.082.122Zm-2.57.29a.221.221 0 0 1-.218.22.213.213 0 0 1-.225-.204.223.223 0 0 1 .217-.221.21.21 0 0 1 .156.055.212.212 0 0 1 .07.15Zm.223-.291c-.03.03-.194-.097-.434-.1-.24-.004-.416.112-.441.08-.026-.03.016-.063.094-.117a.617.617 0 0 1 .354-.104.59.59 0 0 1 .343.118c.073.066.097.124.084.124Zm.835 1.796c.126-.038.257-.06.389-.064.061 0 .12-.016.13-.058a.313.313 0 0 0-.038-.182l-.172-.466a8.045 8.045 0 0 1-.383-1.222c.191.383.352.78.48 1.187l.164.47a.363.363 0 0 1 .029.24.162.162 0 0 1-.103.09.361.361 0 0 1-.104.01c-.13.014-.262.012-.392-.005Z"/>
  <path fill="#7C3B29" d="M45.102 36.643a4.398 4.398 0 0 1-2.305-.659s.545 1.198 2.274 1.068l.031-.409Zm-.227-2.261a.431.431 0 0 0-.533-.125.388.388 0 0 0-.122.1.245.245 0 0 0-.024.282.285.285 0 0 0 .31.086.92.92 0 0 0 .378-.253.08.08 0 0 0 0-.089"/>
  <path fill="#263238" d="M44.282 33.967c.038 0 .034.258.254.445s.494.165.495.201c.002.036-.061.05-.181.05a.648.648 0 0 1-.414-.152.57.57 0 0 1-.196-.373c-.006-.11.023-.173.042-.171Zm-.051-2.873c-.025.066-.263.03-.545.058-.281.03-.51.102-.544.044-.015-.03.025-.09.118-.15a.908.908 0 0 1 .405-.135.906.906 0 0 1 .423.058c.103.043.154.094.143.125Zm2.193.24c-.042.052-.205 0-.403-.013-.198-.013-.363.03-.403-.027-.018-.027.01-.082.083-.131a.545.545 0 0 1 .33-.084.572.572 0 0 1 .322.115c.069.058.09.114.07.14Z"/>
  <path fill="#263238" d="M43.269 28.46a2.41 2.41 0 0 1-.85 3.364c-.205.085-.387.22-.528.392-.149.238-.085.545-.058.826a2.88 2.88 0 0 1-.663 2.12c-.33-.642-.662-1.294-.808-1.996a6.822 6.822 0 0 0-.228-1.07c-.077-.203-.19-.392-.258-.599a1.902 1.902 0 0 1 .05-1.17 2.765 2.765 0 0 1 3.486-1.734"/>
  <path fill="#263238" d="M40.26 29.662c-.778 1.14-.398 1.883-.702 2.467-.218.423-.726.592-1.089.908-.49.423-.69 1.109-.672 1.757.019.648.227 1.27.434 1.888l4.188.02c.323-1.02-.486-2.126-.227-3.164.09-.363.3-.683.313-1.048a2.792 2.792 0 0 0-.128-.717 3.224 3.224 0 0 1 .195-2.01"/>
  <path fill="#455A64" d="M47.5 29.158s-.027-.054-.094-.141a.996.996 0 0 0-.363-.276 1.453 1.453 0 0 0-.666-.122 2.92 2.92 0 0 0-.82.182c-.282.098-.544.205-.807.267-.226.059-.46.08-.693.061a1.231 1.231 0 0 1-.452-.127.9.9 0 0 1-.144-.096s.053.033.15.08c.142.063.293.1.447.11.23.015.46-.009.681-.07.253-.064.52-.17.804-.27.267-.101.547-.163.832-.182.235-.01.469.035.682.134a.964.964 0 0 1 .363.296.722.722 0 0 1 .08.154Zm-.604 2.93.038.027a.271.271 0 0 1 .045.038.635.635 0 0 1 .053.06c.1.138.163.3.181.468.018.116.026.232.026.349v.398c-.002.145.015.29.049.432a.81.81 0 0 0 .223.394c.123.096.256.179.396.248a.82.82 0 0 1 .32.312c.112.23.14.492.076.74a2.543 2.543 0 0 1-.171.475l-.06.123a.16.16 0 0 1-.024.042s0-.016.017-.045c.016-.03.03-.077.05-.127a2.75 2.75 0 0 0 .155-.476c.025-.111.033-.226.023-.34a.765.765 0 0 0-.41-.664 2.271 2.271 0 0 1-.403-.256.823.823 0 0 1-.236-.416 1.892 1.892 0 0 1-.049-.442c0-.14 0-.274.01-.398a2.273 2.273 0 0 0-.02-.345.978.978 0 0 0-.168-.461c-.07-.094-.125-.13-.121-.136Zm-7.127 4.429-.013-.021c-.012-.022-.018-.037-.03-.066a2.538 2.538 0 0 1-.2-.692 1.934 1.934 0 0 1 0-.586c.037-.236.128-.46.265-.657.173-.21.375-.393.6-.544a1.8 1.8 0 0 0 .315-.298c.093-.118.159-.255.192-.401a2.257 2.257 0 0 0-.043-.944 3.814 3.814 0 0 1-.135-.959 1.27 1.27 0 0 1 .102-.452 1.19 1.19 0 0 1 .261-.363 2.19 2.19 0 0 1 .696-.423c.234-.098.459-.181.655-.265a2.13 2.13 0 0 0 .495-.296c.113-.092.21-.203.287-.326a.937.937 0 0 0 .111-.253c.016-.061.02-.094.022-.094a.54.54 0 0 1-.013.096.924.924 0 0 1-.103.26 1.327 1.327 0 0 1-.287.337c-.152.125-.32.228-.5.307-.195.09-.42.17-.653.269-.25.097-.481.24-.68.42a1.088 1.088 0 0 0-.346.785c.005.32.049.636.133.944.083.315.098.645.042.966a1.029 1.029 0 0 1-.202.417 1.953 1.953 0 0 1-.321.305 2.824 2.824 0 0 0-.597.545c-.135.191-.226.41-.265.64-.051.337-.023.68.081 1.005.035.116.068.203.091.263l.027.067.013.014Z"/>
  <path fill="#455A64" d="M43.309 28.875h-.111c-.073 0-.181-.018-.32-.023a3.55 3.55 0 0 0-1.158.127c-.261.078-.507.2-.726.363a1.876 1.876 0 0 0-.577.706c-.126.318-.18.66-.158 1 .025.37.012.74-.038 1.106a1.55 1.55 0 0 1-.196.532c-.1.157-.232.29-.389.39-.3.2-.63.32-.878.53a1.34 1.34 0 0 0-.447.78 1.89 1.89 0 0 0 .019.8c.052.215.132.424.237.62a4.3 4.3 0 0 0 .26.432c.078.115.142.202.181.26l.05.067.014.025-.02-.021-.053-.064c-.043-.058-.11-.143-.181-.258a4.155 4.155 0 0 1-.269-.428 2.665 2.665 0 0 1-.245-.626 1.894 1.894 0 0 1-.023-.814 1.38 1.38 0 0 1 .455-.807c.256-.217.586-.338.88-.534a1.22 1.22 0 0 0 .374-.376 1.52 1.52 0 0 0 .191-.515c.048-.361.06-.726.038-1.09a2.37 2.37 0 0 1 .165-1.018c.134-.288.338-.538.594-.726a2.31 2.31 0 0 1 .726-.363c.38-.105.776-.143 1.17-.114.137 0 .244.021.317.03l.083.013.035-.004Z"/>
  <path fill="#455A64" d="M41.101 36.699a1.07 1.07 0 0 0 .274-.198 1.18 1.18 0 0 0 .222-.328c.07-.162.112-.333.123-.509a2.01 2.01 0 0 0-.061-.633 6.91 6.91 0 0 0-.227-.7 5.56 5.56 0 0 1-.244-.783 1.948 1.948 0 0 1 0-.88c.037-.147.099-.285.182-.411.084-.12.18-.23.287-.328.21-.195.437-.35.644-.507.202-.142.385-.308.545-.496.135-.164.244-.348.325-.544a2.28 2.28 0 0 0 .149-1.16l-.01-.066v-.021c.028.111.044.225.048.34a2.209 2.209 0 0 1-.481 1.469c-.16.19-.343.36-.545.505-.207.16-.434.314-.639.507a1.99 1.99 0 0 0-.28.321c-.082.12-.143.254-.181.396a1.878 1.878 0 0 0 0 .858c.06.265.14.524.238.777.088.231.163.467.223.706a2 2 0 0 1 .058.645 1.554 1.554 0 0 1-.132.517 1.167 1.167 0 0 1-.233.33.853.853 0 0 1-.205.151l-.06.028-.02.014Z"/>
  <path fill="#263238" d="M43.489 29.622c.443.31.933.633 1.472.595.316-.053.624-.144.918-.272.305-.102.66-.149.931.02.182-.015.26-.254.182-.414a.686.686 0 0 0-.42-.301c-.969-.33-1.936.043-3.025.114"/>
  <path fill="#455A64" d="M47.46 29.904a.561.561 0 0 0 .037-.181.468.468 0 0 0-.23-.394.651.651 0 0 0-.311-.093.951.951 0 0 0-.373.062c-.255.085-.499.27-.794.394a1.826 1.826 0 0 1-.445.13 1.974 1.974 0 0 1-.432.033 2.081 2.081 0 0 1-1.148-.378 1.15 1.15 0 0 1-.138-.116c.18.133.375.24.583.32a2.2 2.2 0 0 0 1.126.098c.15-.027.295-.07.435-.129.289-.122.534-.307.799-.394.125-.045.258-.065.39-.06a.695.695 0 0 1 .327.104.495.495 0 0 1 .223.424.362.362 0 0 1-.03.131.139.139 0 0 1-.019.05Z"/>
  <path fill="#263238" d="M68.216 38.232a1.964 1.964 0 0 0 2.489-1.94c-.013-.57-.27-1.151-.093-1.692.122-.372.434-.663.545-1.04.156-.563-.181-1.133-.51-1.618a3.768 3.768 0 0 0-.712-.865 1.29 1.29 0 0 0-1.043-.309m-5.935.052c.033.43-.252.815-.544 1.139-.293.323-.607.658-.668 1.089-.11.757.631 1.452.479 2.209-.082.401-.41.726-.47 1.129s.154.777.415 1.076c.262.3.578.545.808.87 0 0 .48.788 1.959.283"/>
  <path fill="#263238" d="M69.572 31.477c.011-.39-.348-.691-.713-.833-.365-.141-.766-.198-1.09-.416-.286-.192-.479-.493-.725-.74a2.404 2.404 0 0 0-4.041 1.103c-.14.556-.046 1.213.394 1.581.508.43 1.261.335 1.913.202.652-.133 1.389-.265 1.933.116.329.233.516.606.717.955.202.349.452.7.832.831.38.131.893-.094.907-.495"/>
  <path fill="#FFBE9D" d="M68.033 31.559a.65.65 0 0 1 .584.663l-.388 8.82c-.016 1.042-1.54 1.634-2.654 1.601-1.127-.025-1.164-.579-1.178-1.57-.024-1.656-.02-2.276-.022-2.267-.002.009-1.423-.24-1.714-2.097-.143-.924-.094-2.438-.012-3.676.072-1.113.813-2.478 1.922-2.36l3.462.886Z"/>
  <path fill="#263238" d="M62.99 34.16a.24.24 0 0 0 .23.242.23.23 0 0 0 .246-.215.238.238 0 0 0-.23-.24.228.228 0 0 0-.246.213Zm-.016-.46c.029.03.208-.102.464-.1.256.002.445.129.472.098.028-.03-.016-.069-.098-.129a.651.651 0 0 0-.377-.118.606.606 0 0 0-.363.12c-.082.06-.113.116-.098.129Zm2.576.534a.238.238 0 0 0 .228.242.228.228 0 0 0 .247-.214.24.24 0 0 0-.23-.242.226.226 0 0 0-.246.214Zm-.059-.36c.03.03.21-.102.467-.1.256.002.445.129.472.098.027-.031-.017-.07-.098-.13a.658.658 0 0 0-.75.001c-.078.06-.105.116-.09.13Zm-.934 1.9a1.638 1.638 0 0 0-.416-.077c-.065 0-.127-.02-.138-.065a.349.349 0 0 1 .043-.194l.197-.498c.178-.422.325-.857.437-1.301-.029-.011-.272.555-.545 1.27-.063.182-.127.342-.181.502a.364.364 0 0 0-.035.255.162.162 0 0 0 .108.097c.036.01.073.015.11.016.14.016.28.014.42-.005Z"/>
  <path fill="#EB996E" d="M64.373 38.806a4.72 4.72 0 0 0 2.489-.658s-.63 1.271-2.489 1.09v-.432Zm.291-2.416a.462.462 0 0 1 .576-.12c.05.027.094.064.13.108a.267.267 0 0 1 .02.305.313.313 0 0 1-.338.084.975.975 0 0 1-.4-.273.09.09 0 0 1 0-.094"/>
  <path fill="#263238" d="M65.377 33.425c.026.07.281.037.581.075.3.038.544.118.585.056.018-.029-.024-.096-.122-.163a1.018 1.018 0 0 0-.89-.102c-.109.046-.165.1-.154.135Zm-2.309-.346c.046.058.221 0 .434 0 .212 0 .392.04.434-.022.018-.029 0-.087-.09-.142a.578.578 0 0 0-.351-.096.596.596 0 0 0-.347.116c-.075.057-.1.115-.08.144Z"/>
  <path fill="#263238" d="M69.33 37.666a1.65 1.65 0 0 1-1.962-1.816c.059-.455.304-.918.146-1.35-.21-.572-1.01-.746-1.222-1.316-.124-.33-.013-.726-.153-1.042-.14-.316-.451-.481-.764-.594-.312-.112-.646-.181-.907-.396-.262-.214-.425-.588-.256-.873 1.386.166 2.748.497 4.057.986.303.113.62.249.8.517.18.269.182.654.165.997L69 37.78"/>
  <path fill="#455A64" d="M70.311 31.632a.146.146 0 0 1 .031.076.283.283 0 0 1-.07.223.465.465 0 0 1-.333.17 1.068 1.068 0 0 1-.47-.142 1.335 1.335 0 0 0-.545-.16 2.77 2.77 0 0 0-.655.06 4.428 4.428 0 0 1-.743.094 1.065 1.065 0 0 1-.758-.276 2.218 2.218 0 0 1-.44-.679 3.283 3.283 0 0 0-.354-.637 1.037 1.037 0 0 0-1.07-.392c-.27.071-.5.243-.647.48-.051.088-.097.18-.136.273a.205.205 0 0 1 .013-.08 1.089 1.089 0 0 1 .751-.739c.196-.051.403-.048.597.012.224.068.42.204.563.39.144.203.266.422.363.651.1.24.242.46.42.65a.968.968 0 0 0 .695.253 4.51 4.51 0 0 0 .726-.087c.222-.045.449-.063.675-.053.2.018.394.08.567.181.133.082.283.133.439.15a.44.44 0 0 0 .305-.139.278.278 0 0 0 .082-.198c.003-.056-.011-.08-.006-.081Z"/>
  <path fill="#263238" d="M69.27 31.098a1.364 1.364 0 0 1 .068-2.67.826.826 0 0 1 .815.256c.17.23.16.577.376.766.216.189.588.114.89.181a1.01 1.01 0 0 1 .725 1.09 1.37 1.37 0 0 1-.858 1.058 2.154 2.154 0 0 1-1.402.027 5.263 5.263 0 0 1-1.281-.623"/>
  <path fill="#455A64" d="M71.504 29.758a.85.85 0 0 1-.136.34 1.903 1.903 0 0 1-1.465.907.833.833 0 0 1-.363-.027c0-.017.14 0 .363-.04.283-.045.554-.146.798-.296.243-.152.452-.352.616-.587.057-.102.12-.201.187-.297Z"/>
  <path fill="#A26DF2" d="M70.52 31.81a2.924 2.924 0 0 0-1.997-1.144.883.883 0 0 1 .354 0 2.307 2.307 0 0 1 1.456.837.854.854 0 0 1 .187.307Z"/>
  <path fill="#263238" d="M65.548 36.164c-.12.164-.28.293-.465.376a1.27 1.27 0 0 1-.564.198c.165-.108.338-.202.519-.282a5.19 5.19 0 0 1 .51-.292Z"/>
  <path fill="#A26DF2" d="M70.346 31.597a.198.198 0 0 1 .068-.026c.068-.02.136-.035.206-.045.256-.038.517-.03.771.026.178.035.349.1.506.19a.313.313 0 0 1 .146.289.245.245 0 0 1-.095.156.422.422 0 0 1-.161.069 1.117 1.117 0 0 1-.34 0 2.58 2.58 0 0 1-.69-.165.725.725 0 0 1-.314-.23.493.493 0 0 1-.074-.382c.022-.125.055-.236.082-.35a2.27 2.27 0 0 1 .247-.638.428.428 0 0 1 .27-.203.265.265 0 0 1 .294.134.406.406 0 0 1-.014.298 1.842 1.842 0 0 1-.634.812 1.92 1.92 0 0 1-.181.11c-.044.02-.068.031-.07.027-.001-.003.086-.054.226-.166a1.918 1.918 0 0 0 .58-.805.334.334 0 0 0 .013-.24.181.181 0 0 0-.209-.083.339.339 0 0 0-.212.167 2.359 2.359 0 0 0-.23.612c-.046.221-.157.474-.019.657.164.163.375.268.603.301.11.027.22.046.332.058.104.015.209.015.313 0 .098-.018.181-.07.192-.152a.239.239 0 0 0-.109-.212 1.637 1.637 0 0 0-.475-.182 2.323 2.323 0 0 0-.754-.054c-.169.01-.267.036-.269.027Z"/>
  <path fill="#455A64" d="M68.436 30.568s0 .02-.026.054a.56.56 0 0 1-.12.127.815.815 0 0 1-.613.136 1.547 1.547 0 0 1-.804-.479c-.253-.245-.485-.56-.826-.755a1.465 1.465 0 0 0-1.066-.134 1.396 1.396 0 0 0-.744.48c-.13.161-.227.346-.283.545-.04.14-.05.222-.056.222-.008 0 0-.022 0-.06a.973.973 0 0 1 .023-.17 1.48 1.48 0 0 1 1.04-1.099 1.528 1.528 0 0 1 1.135.138c.363.209.599.534.842.775.198.23.46.396.753.474.2.043.408.008.581-.1a1.09 1.09 0 0 0 .164-.154Z"/>
  <path fill="#A26DF2" d="M61.345 42.316s-1.307.82-1.461 2.865c-.154 2.044-.603 6.31-.603 6.31l-4.986 1.223.555 2.992 8.227-2.295-1.732-11.095Z"/>
  <path fill="#A26DF2" d="m68.407 39.943.815.928s2.122.503 2.583.7c.461.199-.726 4.539-.726 4.539l.181 8.922a1.124 1.124 0 0 1-1.225 1.142l-8.061-.717-.694-10.066.069-3.075 1.922-.665 1.111-1.1.88 1.974 3.145-2.582Z"/>
  <path fill="#A26DF2" d="M71.805 41.57s1.643.63 1.782 3.108c.093 1.634.665 4.417 1.046 6.128a3.689 3.689 0 0 1-.5 2.8 3.697 3.697 0 0 1-2.949 1.697l-3.492.154-1.474-2.347 3.915-1.14.93-5.647.742-4.753Z"/>
  <path fill="#263238" d="M72.511 53.323a2.475 2.475 0 0 1-.049-.27 3.278 3.278 0 0 0-.207-.715 1.942 1.942 0 0 0-.668-.846 1.409 1.409 0 0 0-.585-.24 1.95 1.95 0 0 0-.684.033c-.806.17-1.602.388-2.383.653l-.712.242a1.628 1.628 0 0 1-.267.076c.081-.045.166-.082.254-.11l.701-.271c.78-.284 1.578-.513 2.389-.685.238-.053.484-.064.726-.03.224.039.435.128.62.26.307.226.543.535.678.892.092.236.153.484.182.735.014.092.016.184.005.276Zm-2.207-6.991a.64.64 0 0 1 .029.182c.013.118.023.29.034.502.02.447.048 1.02.075 1.654a12.8 12.8 0 0 0 .181 1.634c.08.414.165.662.15.668a.679.679 0 0 1-.073-.17 1.532 1.532 0 0 1-.068-.208 4.619 4.619 0 0 1-.074-.277 9.816 9.816 0 0 1-.212-1.647c-.035-.648-.04-1.234-.046-1.657v-.503a.726.726 0 0 1 .004-.178Zm3.483 7.859a1.33 1.33 0 0 1-.181.182 4.37 4.37 0 0 1-.578.423 4.935 4.935 0 0 1-2.241.704 4.695 4.695 0 0 1-1.302-.098c-.394-.083-.726-.225-1.016-.292a4.646 4.646 0 0 0-.703-.098.935.935 0 0 1-.258-.053s.095 0 .262.017c.24 0 .478.024.713.069.3.061.634.196 1.02.272a4.83 4.83 0 0 0 1.271.089 5.137 5.137 0 0 0 2.215-.668c.275-.169.542-.351.798-.547Zm-4.611-4.801c-.044.073-.096.14-.154.202a6.538 6.538 0 0 1-.47.505c-.244.24-.503.464-.773.673a9.938 9.938 0 0 1-1.05.694 9.598 9.598 0 0 1-1.134.544c-.32.124-.645.229-.977.314-.222.06-.447.107-.675.142a1.347 1.347 0 0 1-.252.029c.079-.03.161-.052.245-.065a9.74 9.74 0 0 0 .664-.17 9.8 9.8 0 0 0 .962-.331c.384-.16.759-.342 1.122-.545.36-.207.708-.434 1.042-.68.303-.233.568-.455.78-.652a9.65 9.65 0 0 0 .489-.483c.054-.065.115-.124.181-.176Z"/>
  <path fill="#000" d="M64.193 52.319c-.225-.182-.087-.581.17-.726.255-.146.564-.11.854-.117a3.268 3.268 0 0 0 1.986-.744c.412-.341.782-.806 1.313-.877-.122.434-.645.857-1.013 1.117-1.07.755-2.248 1.038-3.49 1.468" opacity=".2"/>
  <path fill="#263238" d="M69.042 40.973a.752.752 0 0 1-.125.134c-.085.082-.209.196-.363.338-.31.283-.743.668-1.222 1.089a3.634 3.634 0 0 1-.726.544 1.17 1.17 0 0 1-.388.12.849.849 0 0 1-.353-.042.66.66 0 0 1-.392-.314.363.363 0 0 1-.043-.13.15.15 0 0 1 0-.05c.009 0 .018.066.076.162.09.134.225.23.381.269a.83.83 0 0 0 .325.027c.127-.019.25-.06.363-.12.256-.153.492-.335.704-.544.482-.421.92-.799 1.242-1.07.16-.134.29-.24.383-.314a.72.72 0 0 1 .138-.1Zm-4.022 1.643a.94.94 0 0 1-.266.314c-.11.098-.232.182-.363.25a.364.364 0 0 1-.283.053.416.416 0 0 1-.198-.236 29.663 29.663 0 0 1-.399-.895 1.6 1.6 0 0 1-.142-.381c.081.11.149.228.202.354.112.223.265.544.427.882.038.085.081.167.143.181a.28.28 0 0 0 .212-.045c.129-.062.25-.138.363-.225.193-.136.29-.263.303-.252Zm.012 4.031c-.025 0 0-.92.056-2.053.057-1.132.126-2.05.151-2.05.025.003 0 .921-.056 2.054-.057 1.133-.126 2.051-.15 2.05Zm-3.474-.417a3.445 3.445 0 0 1 0-1.138 3.45 3.45 0 0 1 0 1.138Z"/>
  <path fill="#F5F6F7" d="M68.628 42.672c.005.005.01.008.017.01a.02.02 0 0 0-.017-.01Z"/>
  <path fill="#F5F6F7" d="M68.946 42.758c.016 0 0 0 .018.011s.024 0 .03 0h.02c.06.013.121.022.182.027h-.014.014c.004 0 .017 0 .02.015h.1c-.005 0 .015 0 0 0h.061-.01a.105.105 0 0 0 .034 0 .973.973 0 0 0 .108-.018h.012v.014h.182c.009 0 0 .01 0 .01h.014v-.013h-.01s0-.011.018-.01h.063-.009.01s.034 0 .046-.01c.013-.011.013-.155.013-.166h.01-.026.014-.016a.028.028 0 0 1-.018 0c-.015 0-.022.01-.037 0h-.049l-.208.011h-.222a.079.079 0 0 0-.029 0h-.03a1.144 1.144 0 0 1-.182-.025h-.05c-.016 0-.105-.022-.123-.024-.016 0-.012 0-.025-.01-.013-.011-.015.009-.02 0a.149.149 0 0 1-.04 0 .127.127 0 0 1-.04 0 .243.243 0 0 0-.067-.02l-.013-.017s-.062.127-.036.164h.01-.01.014c.004 0 0 0 .01.009.047.017.095.03.145.041h.043a.614.614 0 0 1 .093.011Zm-.214.681h.01a.01.01 0 0 0-.005-.002.01.01 0 0 0-.005.002Zm.232.06c.01 0 0 .009.013 0 .013-.01.016 0 .02 0a.763.763 0 0 0 .13.01h-.012.01c.002 0 .013 0 .017.013h.071c-.004 0 .01 0 0 0h.036a.04.04 0 0 0 .026 0c.01 0 .065-.016.074-.025h.009v.014l.127-.018v.01h.01v-.011h.03s0-.011.013-.011h.045s.024 0 .033-.015c.009-.014-.017-.152-.018-.163h.009-.022c-.011 0-.015.01-.026 0h-.032c-.026 0-.118.025-.144.027a.989.989 0 0 0-.15.018h-.043a.48.48 0 0 1-.127-.009h-.035c-.01 0-.072-.01-.085-.01h-.018c-.007 0-.011.008-.015.008a.113.113 0 0 1-.027 0h-.027c-.005 0-.03-.016-.047-.014l-.01-.013s-.05.13-.034.165h.013c.035.013.07.022.107.027h.03a.312.312 0 0 1 .048-.003Zm-.514 1.171a.013.013 0 0 0 .013 0 .016.016 0 0 0-.006-.002l-.007.001Z"/>
  <path fill="#F5F6F7" d="M68.703 44.676h.174-.013.011c.011 0 .013 0 .016.012h.028c.027 0 .018-.01.025 0h.02c-.004 0 .011 0 0 0H69a.064.064 0 0 0 .026 0c.01 0 .069-.014.08-.023v.016c0-.002.12-.01.136-.009v.01h.01v-.014h.01s0-.01.014 0a.368.368 0 0 0 .047 0s.026 0 .037-.008a.816.816 0 0 0 .013-.164h-.021.013-.014a.02.02 0 0 1-.015 0h-.067c-.029 0-.142.013-.17.015-.044 0-.135.009-.182.018a.04.04 0 0 0-.026 0h-.023a1.003 1.003 0 0 1-.147 0h-.163c-.011 0-.01.01-.015.012a.106.106 0 0 1-.03.01h-.032a.124.124 0 0 0-.058 0l-.013-.011s-.012.14.015.169h.161a.21.21 0 0 1 .117-.033Zm-.086 1.12.006.001.005-.001s-.01-.002-.01 0Z"/>
  <path fill="#F5F6F7" d="M68.83 45.774h.031s.097-.013.116-.018c.018-.005 0 0-.011 0 0 0 .013 0 .018.01.02-.008 0 0 .023 0 .024 0 .015-.01.022-.008h.01c.008 0 .01 0 0-.01-.011-.008.01 0 0 0h.032a.047.047 0 0 0 .022-.008.164.164 0 0 0 .063-.033v.014c0-.001.1-.021.117-.021h.009v-.013h.009s0-.01.01-.01h.04s.022 0 .03-.014a.816.816 0 0 0-.013-.163h.009-.024c-.01 0-.014.01-.025 0h-.035c-.023 0-.118.027-.141.033-.05.01-.099.021-.147.036a.047.047 0 0 0-.022 0l-.018.01a.779.779 0 0 1-.125.017c-.01.01-.024 0-.033.013a.537.537 0 0 0-.085.014h-.019c-.009 0 0 .013-.01.015l-.026.015a.097.097 0 0 1-.027.009.086.086 0 0 0-.047 0l-.013-.01s0 .138.036.164h.01a.907.907 0 0 0 .1-.013h.027a.232.232 0 0 1 .087-.029Zm-.11 1.155h.031a.834.834 0 0 0 .117 0h-.011s.01 0 .016.009h.024c.023 0 .014-.011.02-.01h.009c.009 0 .01 0 0 0-.011 0 .009 0 0 0h.033a.045.045 0 0 0 .021 0c.01-.008.058-.02.066-.028v.014c0-.002.1-.014.114-.014v.009h.009v-.013s0-.01.01-.01h.04s.025 0 .032-.012c.007-.01 0-.152 0-.163h-.01.011-.081c-.026 0-.118.018-.144.022a.747.747 0 0 0-.15.025h-.04a.578.578 0 0 1-.125.011c-.01 0-.022 0-.033.01-.011 0-.075 0-.085.008h-.02c-.01 0 0 .013-.011.015a.173.173 0 0 1-.026.01.089.089 0 0 1-.027 0 .086.086 0 0 0-.047 0l-.013-.01s0 .14.026.167h.009a.89.89 0 0 0 .098 0h.027a.158.158 0 0 1 .11-.04Zm-.188.969h.01a.013.013 0 0 0-.01 0Z"/>
  <path fill="#F5F6F7" d="M68.753 47.955c.01 0 0 .009.011.009h.02c.04.011.08.02.122.025v-.009s.01 0 .013.015h.068c-.001 0 .01 0 0 0h.126v.012c0-.002.107.015.123.022.017.007 0 0 0 .01 0 .008 0 0 .011 0v-.014s0-.009.015 0h.078a.894.894 0 0 0 .049-.156h-.01.013-.012c-.013 0 0 0 0-.009s-.01 0-.013 0h-.062l-.152-.02a1.527 1.527 0 0 0-.16-.02.047.047 0 0 0-.022-.009h-.023a.757.757 0 0 1-.131-.027h-.036c-.013 0-.078-.016-.091-.016-.013 0-.011 0-.02-.01-.01-.008-.011.012-.015.012h-.029a.089.089 0 0 1-.03 0 .13.13 0 0 0-.05-.011v-.015s-.043.133-.025.165h.01c.035.01.07.02.104.026h.03a.182.182 0 0 1 .088.02Zm-.083.965a.02.02 0 0 0 .013 0 .015.015 0 0 0-.013 0Z"/>
  <path fill="#F5F6F7" d="M68.899 48.904h.165-.011.01c.012 0 .012 0 .015.01h.026c.025 0 .018-.008.023 0h.018c-.003 0 .011 0 0 0h.035a.047.047 0 0 0 .024 0c.01 0 .065 0 .076-.014v.014a.714.714 0 0 1 .125.015v.01h.011v-.014s0-.009.014 0l.044.01h.034l.057-.155h-.01.013-.012c-.004 0 0 0 0-.009s-.011 0-.017 0h-.067c-.029 0-.141-.014-.169-.016a1.446 1.446 0 0 0-.205 0h-.023a1.335 1.335 0 0 1-.147 0c-.013 0-.028 0-.04.01a.957.957 0 0 0-.1.012h-.022c-.009 0 0 .012-.013.014 0 0-.02.011-.029.013a.1.1 0 0 1-.03.009.12.12 0 0 0-.055 0h-.014s.01.14.041.163h.018c.01 0 .07 0 .106-.012h.029a.172.172 0 0 1 .08-.06Zm-.051 1.594.005.001.006-.001h-.011Zm.192-.089h.013c.013 0 .014 0 .014-.013 0 0 .088-.044.102-.055.015-.01 0 0-.013 0h.019c.016-.014 0 0 .02-.012.02-.013.01-.017.016-.017 0 0 .01 0 0-.009s.01 0 0 0c0 0 .014 0 .016-.01h.013a.045.045 0 0 0 .018-.015c0-.011.046-.04.05-.053v.015c0-.002.084-.053.099-.058v-.01l-.01-.008v-.015l.035-.018s.02-.013.024-.024a.984.984 0 0 0-.065-.149h-.01v-.009h-.008c-.011 0-.01.015-.02.015h-.031c-.022.01-.102.063-.122.076-.03.022-.098.058-.127.084-.03.025-.014 0-.02 0l-.016.014a.65.65 0 0 1-.111.06c0 .01-.02.013-.026.02-.009.01-.065.034-.076.042 0 .009-.009 0-.018 0s0 .014 0 .016a.157.157 0 0 1-.018.022.064.064 0 0 1-.022.014.109.109 0 0 0-.043.022h-.017s.053.13.087.145h.01a.672.672 0 0 0 .088-.043l.024-.017.125-.01Zm-.043.771c0-.008.01 0 .01 0a.489.489 0 0 0 .073 0l.011.011h.015c.014 0 0-.009.012 0h.033s.036-.014.04-.023v.014a.326.326 0 0 1 .072 0v-.023h.08s.015 0 .02-.011c.006-.011 0-.153 0-.162h-.036c-.016 0-.074.013-.089.015a.595.595 0 0 0-.093.016h-.025a.227.227 0 0 1-.078 0h-.082a.015.015 0 0 1 0 .013.137.137 0 0 1-.017.01.027.027 0 0 1-.016 0h-.03l-.008-.01a.63.63 0 0 0 .02.167.31.31 0 0 0 .061 0 .05.05 0 0 0 .019 0 .144.144 0 0 1 .009-.016Z"/>
  <g opacity=".6">
    <path fill="#F5F6F7" d="M66.348 43.94h.01c.008 0-.006-.002-.01 0Z"/>
    <path fill="#F5F6F7" d="M66.517 43.95s0 .01.011 0c.01-.009.01 0 .013 0 .03.003.06.003.09 0h-.009s.01 0 .013.011h.018c.018 0 .011-.01.017 0 0 0 .009 0 0-.009h.025a.029.029 0 0 0 .016-.009c0-.009.042-.024.046-.035v.015c.012 0 .074-.027.085-.029v-.024l.031-.009s.016 0 .02-.016a.969.969 0 0 0-.05-.154v-.01s0 .012-.015 0h-.022l-.093.039c-.023.01-.076.023-.101.034-.026.011 0 0-.015 0h-.014a.283.283 0 0 1-.088 0s-.016 0-.021.01H66.4c-.013 0 0 .01 0 .012a.05.05 0 0 1-.04.01c-.009 0-.022-.01-.034 0v-.012a.584.584 0 0 0 0 .167.363.363 0 0 0 .078 0h.021l.091.01Z"/>
  </g>
  <path fill="#F5F6F7" d="M66.42 44.728c0-.009.01 0 .013 0a.368.368 0 0 0 .078.013v-.009l.01.014h.043a.023.023 0 0 0 .016 0s.042 0 .048-.014v.014a.378.378 0 0 1 .078 0v.01-.013s0-.011.009 0h.049c.007 0 .027-.149.029-.16h-.147a.662.662 0 0 0-.104 0h-.029a.257.257 0 0 1-.083-.013h-.024s-.049-.009-.058 0h-.013c0 .003 0 .006-.002.008a.01.01 0 0 1-.007.003h-.018a.033.033 0 0 1-.018 0c-.01 0-.022-.01-.033 0v-.012a.601.601 0 0 0-.014.167.406.406 0 0 0 .067.014h.018l.093-.022Zm.068.789h.01a.01.01 0 0 0-.01 0Zm.171.009h.025c.03.004.062.004.093 0h-.01s.01 0 .013.01c.017-.008 0 0 .018 0 .019 0 .011-.008.017 0h.041s.044-.021.05-.03v-.053a.827.827 0 0 1 .088-.023v.009-.023l.033-.01s.016 0 .02-.014a1.13 1.13 0 0 0-.036-.16v-.01c-.01 0 0-.008 0 0-.01 0-.01.012-.016.01h-.024l-.1.03c-.025.01-.08.019-.105.03-.026.01-.011 0-.017 0h-.014a.383.383 0 0 1-.09 0h-.102a.01.01 0 0 1 .001.006l-.001.006a.1.1 0 0 1-.02.011h-.056l-.009-.01a.543.543 0 0 0 0 .168h.01a.534.534 0 0 0 .077 0h.022l.09.053Zm-.22 1.341h.01a.013.013 0 0 0-.005-.002c-.002 0-.003 0-.005.002Zm.181-.05h.026a.586.586 0 0 0 .1-.033h-.011.016c.016-.013 0 0 .02 0s.011-.013.016-.013c0 0 .011 0 0-.009-.01-.009.011 0 0 0 0 0 .015 0 .017-.009h.013a.033.033 0 0 0 .016-.01c0-.01.045-.032.05-.043v.015c0-.002.084-.034.099-.036v-.022l.034-.013s.02 0 .024-.018a1.001 1.001 0 0 0-.04-.158v-.009c0-.009-.01 0-.01 0s0 .01-.008 0c-.011 0-.011.011-.022.01h-.03c-.022 0-.1.043-.12.05a1.24 1.24 0 0 0-.125.055h-.018l-.015.01a.531.531 0 0 1-.107.035c0 .009-.02.009-.027.016 0 0-.064.02-.073.026h-.018c-.01 0 0 .012 0 .014a.196.196 0 0 1-.02.017l-.022.012a.076.076 0 0 0-.041.011h-.013a.502.502 0 0 0 .063.156h.01a.758.758 0 0 0 .085-.023l.022-.011a.241.241 0 0 1 .108-.02Z" opacity=".6"/>
  <g opacity=".6">
    <path fill="#F5F6F7" d="M66.285 48.152h.011a.013.013 0 0 0-.011 0Z"/>
    <path fill="#F5F6F7" d="M66.532 48.177c.01 0 0 .009.014 0 .015-.01.018 0 .02 0a.886.886 0 0 0 .136-.011h-.013.01c.009 0 .012 0 .018.009.023-.011 0 0 .027 0s.018-.011.025-.01h.011c.011 0 .013 0 0 0-.012 0 .013 0 0 0h.062c.01-.008.064-.026.073-.037v.014l.127-.036v.009l.009-.01v-.01h.009s0-.01.01-.013l.044-.014s.024-.011.031-.02a.763.763 0 0 0-.04-.16h-.009c-.009 0 0 0 0-.009s-.009 0-.009 0 0 .01-.013 0c-.01 0-.012.013-.023.01h-.033c-.025.01-.12.044-.145.05l-.156.042a.045.045 0 0 0-.022 0h-.02a.489.489 0 0 1-.134.01c-.01 0-.024 0-.035.01h-.11c-.01 0 0 .01-.013.01a.091.091 0 0 1-.03.01.09.09 0 0 1-.03 0 .144.144 0 0 0-.051 0l-.01-.013s-.028.138 0 .169h.012c.038 0 .074.009.114.009h.033a.32.32 0 0 1 .11-.01Z"/>
  </g>
  <g opacity=".6">
    <path fill="#F5F6F7" d="M66.267 49.408h.01a.01.01 0 0 0-.005-.002.01.01 0 0 0-.005.002Z"/>
    <path fill="#F5F6F7" d="M66.474 49.447h.04l.112.02-.01-.01c-.008-.011 0 0 .01 0s.01 0 .013.014h.056c-.002 0 0 0 0 .01h.018s.01 0 .011.008h.082v.015a.7.7 0 0 1 .11.025v.01h.011v-.015h.01s0-.01.014 0c.012.005.025.01.038.012h.033l.067-.148h.01-.01c-.011 0 0 0 0-.01 0-.009-.011 0-.015 0h-.056c-.023 0-.121-.027-.147-.03a1.496 1.496 0 0 0-.156-.024h-.042a.978.978 0 0 1-.127-.022h-.036c-.011 0-.076-.01-.09-.009h-.017c-.008 0-.011.011-.015.011h-.057a.135.135 0 0 0-.048 0l-.011-.01a.464.464 0 0 0 0 .166h.01c.03.006.062.01.094.011h.027a.161.161 0 0 1 .07-.023Z"/>
  </g>
  <g opacity=".6">
    <path fill="#F5F6F7" d="M66.659 50.25h.01a.01.01 0 0 0-.01 0Z"/>
    <path fill="#F5F6F7" d="M66.846 50.246h.025a.868.868 0 0 0 .102 0h-.011s.009 0 .013.01c.018-.008 0 0 .02 0s.012-.01.018-.008c-.011 0 .009 0 0 0h.027a.037.037 0 0 0 .02 0c.01 0 .051-.017.059-.026v.017c.033-.006.066-.01.1-.013v.01-.012s0-.01.01-.01a.22.22 0 0 0 .035 0s.02 0 .027-.012c.007-.01 0-.152 0-.163h-.078c-.022 0-.103.016-.125.02a1.181 1.181 0 0 0-.13.024h-.035a.55.55 0 0 1-.11 0c-.008 0-.02 0-.028.009h-.091c-.007 0 0 .01-.01.012a.144.144 0 0 1-.023.011.038.038 0 0 1-.023 0 .085.085 0 0 0-.042 0l-.011-.01a.53.53 0 0 0 .024.166.676.676 0 0 0 .109 0 .125.125 0 0 1 .127-.025Z"/>
  </g>
  <path fill="#F5F6F7" d="M66.163 52.254a.021.021 0 0 0 .02 0 .03.03 0 0 0-.02 0Zm.316-.044h.018c.018 0 .022 0 .025-.01h.01a.912.912 0 0 0 .166-.044c.024-.01-.01 0-.016 0h.037c.029-.016 0 0 .032-.012.033-.013.02-.017.03-.017h.012c.003 0 .016 0 .01-.009-.005-.009.015 0 .01 0h.009c.013 0 .022 0 .029-.01h.02l.029-.015c.01-.011.078-.042.087-.055h.01v.017c0-.002.135-.06.157-.067v-.01l-.009-.009h.011s0-.012.013-.016l.056-.024h.009s.03-.014.038-.027a.597.597 0 0 0-.049-.156h.01-.024c-.011 0 0 0 .01-.01.011-.012-.012 0-.014 0 0 0 0 .01-.015.01-.014 0-.016.017-.03.018h-.044c-.03.013-.153.073-.181.086l-.2.08a.083.083 0 0 0-.03 0l-.026.012a.826.826 0 0 1-.173.044c-.013.01-.03.01-.045.018-.015 0-.102.02-.12.025h-.027c-.013 0-.01.013-.015.015a.227.227 0 0 1-.074.025.227.227 0 0 0-.067.01l-.019-.01s0 .14.033.165h.01a.021.021 0 0 1 .014 0h.01a.988.988 0 0 0 .146-.02l.04-.012c.029 0 .058.003.087.009Z" opacity=".6"/>
  <path fill="#F5F6F7" d="m63.667 51.707.015.01a.017.017 0 0 0-.006-.007.018.018 0 0 0-.009-.003Z"/>
  <path fill="#F5F6F7" d="M63.956 51.807c.012 0 0 .01.014.011.015.002.02 0 .027 0h.021c.052.02.105.035.159.05 0 0-.01 0-.013-.012-.002-.01.011 0 .015 0s.013 0 .016.018h.091c-.002 0 .013 0 0 .01.013 0 .018.01.027 0 0 0 .015 0 .015.008a.1.1 0 0 0 .03 0c.015 0 .086.011.1 0h.011s-.009.015-.01.013c-.002-.002.141.035.16.044.017.009 0 .009 0 .009h.014v-.013h.03c.011 0 .039.011.057.018h-.011.009c-.01 0 .03.01.045 0a.775.775 0 0 0 .07-.149h.008a.011.011 0 0 0-.012 0h-.01.015-.014c-.004 0 0 0 0-.009s-.013 0-.018 0h-.088l-.2-.049c-.052-.012-.155-.041-.21-.05a.091.091 0 0 0-.027-.013h-.03a1.459 1.459 0 0 1-.172-.053.338.338 0 0 1-.047 0c-.016 0-.1-.03-.118-.034-.016 0-.012 0-.023-.013s-.015.009-.02 0a.148.148 0 0 1-.04 0 .117.117 0 0 1-.038 0 .212.212 0 0 0-.066-.022l-.012-.014s-.062.127-.039.163h.01-.01.017c.005 0 0 0 0 .01.043.015.087.032.132.045h.04a.368.368 0 0 1 .095.032Zm-.135-.697a.013.013 0 0 0 .011 0h-.01Z"/>
  <path fill="#F5F6F7" d="M64.02 51.141h.027s.093.013.11.011c.016-.002 0 0 0-.009 0 0 .008 0 .012.013h.053c-.002 0 .009 0 0 0h.03a.215.215 0 0 0 .085-.016v.016a.707.707 0 0 1 .11 0v.009c0 .009 0 0 .009 0v-.013s0-.01.013 0h.067a.83.83 0 0 0 .027-.161h.01-.01c-.002 0 0 0 0-.01 0-.009 0 0-.013 0h-.368a.493.493 0 0 1-.117-.01h-.13c-.017 0-.01.01-.013.01a.083.083 0 0 1-.025 0 .06.06 0 0 1-.026 0 .09.09 0 0 0-.045 0v-.01a.488.488 0 0 0 0 .169c.03.006.06.01.09.012h.026a.138.138 0 0 1 .076-.01Zm-.259-1.031h.011a.013.013 0 0 0-.01 0Z"/>
  <path fill="#F5F6F7" d="M63.956 50.07h.027a.737.737 0 0 0 .105-.028h-.012.016c.016-.01 0 0 .02 0s.01-.013.018-.01c-.01 0 .01 0 0 0h.031a.028.028 0 0 0 .018 0c0-.01.049-.028.054-.039v.015a.739.739 0 0 1 .102-.033v.01-.012s0-.01.01-.012l.035-.01s.02 0 .026-.014a.95.95 0 0 0-.033-.162h-.019c-.012 0-.013.011-.023.01h-.03c-.022 0-.104.038-.126.045-.032.013-.1.032-.132.049a.03.03 0 0 0-.018 0l-.017.01a.505.505 0 0 1-.11.032c0 .009-.02 0-.03.014a.405.405 0 0 0-.076.022h-.018c-.007 0 0 .013 0 .014 0 0-.014.013-.022.015 0 0-.018 0-.021.01a.078.078 0 0 0-.044.012h-.013c.009.056.027.11.055.16h.009a.699.699 0 0 0 .089-.022l.023-.011s.104-.066.106-.066Zm-.08-.976h.013a.011.011 0 0 0-.007-.002c-.002 0-.004 0-.006.002Zm.204-.099h.014c.014 0 .014 0 .014-.013 0 0 .093-.034.11-.043.016-.01 0 0-.014 0h.019c.018-.015 0 0 .021-.011.022-.011.013-.013.019-.013h.009c.009 0 .01 0 0-.009-.011-.009.01 0 0 0h.03l.02-.01c0-.01.055-.03.062-.039v.016a.625.625 0 0 1 .115-.029v-.012s0-.011.01-.011h.042s.024 0 .031-.011v-.163h-.02.01-.025c-.013 0-.017.009-.028 0h-.038a1.568 1.568 0 0 0-.158.041 1.066 1.066 0 0 0-.16.058h-.023l-.02.013a.973.973 0 0 1-.13.053c-.01.01-.024.014-.033.023-.011.01-.075.037-.087.046-.01.01-.011 0-.022 0s0 .014 0 .016l-.022.024a.068.068 0 0 1-.024.018.158.158 0 0 0-.047.027h-.018s.065.123.102.134h.009c.03-.014.06-.03.089-.047l.023-.018a.272.272 0 0 1 .12-.04Zm-.765-1.206h.016a.018.018 0 0 0-.016 0Z"/>
  <path fill="#F5F6F7" d="M63.585 47.83h.057c.05.003.099.003.148 0h-.012.01c.003 0 .015 0 .019.01h.03c.032 0 .019-.01.028 0h.022c-.006 0 .012 0 0 0h.069a.3.3 0 0 0 .083-.033h.01v.017l.143-.031v.01h.01v-.012h.01s0-.01.012-.01l.051-.013s.027 0 .036-.017a.683.683 0 0 0-.023-.163h-.011.01-.012s0 .009-.013 0c-.014 0-.016.01-.028.009h-.04c-.028 0-.137.036-.164.04l-.181.033H63.8a.685.685 0 0 1-.148 0h-.163c-.009 0-.01.01-.014.01h-.033a.1.1 0 0 1-.033 0 .18.18 0 0 0-.056-.047l-.01-.012s-.04.134-.017.167h.009-.01.014c.003 0 0 0 0 .009a.93.93 0 0 0 .125.018h.034a.39.39 0 0 1 .087.014Zm.302-1.125a.018.018 0 0 0 .013 0 .012.012 0 0 0-.007-.002c-.002 0-.004 0-.006.002Z"/>
  <path fill="#F5F6F7" d="M64.114 46.686h.03c.042-.002.083-.007.124-.014h-.013.01c.008 0 .01 0 .016.01h.025c.025 0 .014-.01.022 0h.01c.012 0 .012 0 0 0-.01 0 .012 0 0 0h.036a.048.048 0 0 0 .022-.009c.009-.009.06-.021.069-.032v.014c0-.002.105-.02.121-.02.017 0 0 .01 0 .01h.01v-.013s0-.011.01-.011h.044s.024 0 .033-.013c.009-.013 0-.152 0-.163h-.01c-.008 0 0 0 .011-.01.011-.008-.01 0-.01 0H64.6l-.149.032c-.038.009-.118.021-.156.032h-.044a.822.822 0 0 1-.13.017c-.011.009-.026 0-.035.01-.01 0-.076 0-.089.015h-.02c-.009 0 0 .013-.01.015l-.028.012h-.029a.124.124 0 0 0-.05 0l-.013-.009s0 .14.03.165h.01a.997.997 0 0 0 .103-.01h.03a.415.415 0 0 1 .094-.028Zm-.378-.912.007.001.006-.001a.01.01 0 0 0-.006-.002.01.01 0 0 0-.007.002Z"/>
  <path fill="#F5F6F7" d="M63.91 45.683h.013c.013 0 .01 0 .01-.013a.963.963 0 0 0 .093-.054h-.012.018c.013-.015 0 0 .016-.013.017-.013.01-.015.015-.017h.009c.009 0 .009 0 0 0h.009s.013 0 .013-.01h.012a.03.03 0 0 0 .015-.015c0-.01.04-.04.042-.05v-.01.017a.844.844 0 0 1 .089-.059h-.01v-.012l.033-.02s.016-.013.02-.022a.992.992 0 0 0-.074-.145h-.01c-.008 0 0 .009 0 .009-.01 0-.008.013-.02.014h-.025c-.019.011-.09.064-.108.077-.027.021-.085.058-.112.083h-.018l-.013.015a.492.492 0 0 1-.098.058c0 .01-.018.014-.024.022 0 0-.058.034-.067.041 0 .01-.009 0-.016 0a.014.014 0 0 1 .002.008c0 .003 0 .006-.002.009l-.017.02-.02.016c-.003.004-.028.009-.038.022h-.014s.062.125.094.14a.494.494 0 0 0 .08-.044l.02-.016a.29.29 0 0 1 .096-.051Zm-.172-1.003a.014.014 0 0 0 .013 0 .011.011 0 0 0-.007-.002c-.002 0-.004 0-.006.002Zm.209-.114h.014c.014 0 .014 0 .014-.015 0 0 .097-.054.113-.067.016-.013-.009 0-.014 0h.02c.016-.018 0 0 .021-.016.022-.017.011-.017.019-.019 0 0 .01 0 0-.01-.011-.011.012 0 0 0 0 0 .016 0 .018-.015h.014a.04.04 0 0 0 .018-.016c0-.011.05-.047.053-.058v-.01.015c0-.002.093-.063.109-.07l-.011-.01v-.014l.04-.024s.022-.015.025-.025a.985.985 0 0 0-.07-.147h-.011v-.011c0-.011-.011 0-.011 0s0 .01-.01.01c-.012 0-.012.015-.023.017 0 0-.009 0-.016.009h-.018a1.985 1.985 0 0 0-.133.093c-.033.023-.103.07-.136.098-.033.027-.016 0-.022.009l-.016.016a.642.642 0 0 1-.12.073c0 .012-.022.016-.03.025 0 .01-.068.042-.079.05-.009.012-.01 0-.02 0-.009 0 0 .015 0 .017 0 0-.013.017-.022.024l-.023.018a.157.157 0 0 0-.047.027h-.017s.058.127.096.138v-.009h.01c.032-.016.065-.034.096-.054l.025-.02.144-.03Zm.257-.905v-.01a.291.291 0 0 0 .047-.035h-.009.013c0-.013 0 0 .01-.01.008-.008 0-.012 0-.012s.008 0 0-.01h.008v-.01s.015-.029.013-.038c0 0 .009.013 0 .013a.445.445 0 0 1 .043-.04h-.009v-.011l.017-.013s.009 0 0-.016a2.175 2.175 0 0 0-.098-.13v.01h-.01l-.05.053a.536.536 0 0 0-.055.056h-.01v.01a.149.149 0 0 1-.051.039s0 .009-.01.014c0 0-.03.02-.034.028h-.01a.013.013 0 0 1 0 .012v.027c0 .011-.017 0-.02.015h-.012c.033.045.07.087.111.125a.205.205 0 0 0 .042-.027l.009-.01.065-.03Zm2.769-1.487a.016.016 0 0 0 .013 0 .011.011 0 0 0-.013 0Zm.192-.114h.015c.014 0 .014 0 .014-.016 0 0 .09-.055.104-.067.014-.013 0 0-.013 0h.018c.015-.018 0 0 .02-.017.02-.016.01-.016.016-.018 0 0 .01 0 0-.01-.009-.012.011 0 0 0 0 0 .015 0 .017-.015h.014a.074.074 0 0 0 .017-.018c0-.011.045-.046.049-.059v.015a.928.928 0 0 1 .101-.07v-.012h-.009v-.014a.439.439 0 0 0 .038-.024s.02-.014.024-.025a.915.915 0 0 0-.076-.145h-.018c-.01 0 0 0 0-.011s-.01 0-.01 0 0 .01-.01.01c-.011 0-.01.015-.02.017 0 0-.01 0-.017.009h-.018a2.09 2.09 0 0 0-.123.093c-.033.023-.1.07-.131.098 0 0-.013 0-.02.009l-.015.016a.753.753 0 0 1-.112.073c0 .012-.02.016-.027.025 0 .01-.066.042-.077.05 0 .012-.009 0-.018 0s0 .015 0 .017a.104.104 0 0 1-.018.024.074.074 0 0 1-.023.02.109.109 0 0 0-.044.025h-.016s.061.125.098.136v-.009c0-.009 0 0 .01 0a.555.555 0 0 0 .09-.054l.021-.02.15-.033Zm-.241-.48h.009a.173.173 0 0 0 .041-.03h-.009.013v-.01s.013-.026 0-.035c0 0 .01.012 0 .012a.208.208 0 0 1 .038-.032h-.009v-.011a.043.043 0 0 0 .015-.011v-.015c0-.014-.093-.121-.098-.13-.01 0-.037.038-.044.045a.39.39 0 0 0-.045.05h-.01v.008a.13.13 0 0 1-.043.033v.013s-.025.018-.029.023h-.01a.025.025 0 0 1 0 .013v.013s-.015 0-.017.01h-.011c.033.046.07.09.109.13a.257.257 0 0 0 .038-.023v-.01s.06-.044.062-.044Z"/>
  <g opacity=".6">
    <path fill="#F5F6F7" d="M63.898 42.088a.01.01 0 0 0 0 .01v-.01Z"/>
    <path fill="#F5F6F7" d="M63.965 42.223v.011c0 .011 0 .01.012 0a.294.294 0 0 0 .053.066v-.011.016c.015 0 0 0 .013.01.012.012.012 0 .014 0h.01s0 .012.01.01v.01h.015c.01 0 .04.02.05.019l-.01.01s.056.04.063.05h.01v-.011h.012c.004 0 .015.01.022.018 0 0 .013.01.022 0l.1-.129h-.01c0-.009-.012 0-.014 0v-.009l-.073-.05c-.018-.013-.052-.046-.072-.059-.02-.012 0 0 0-.01h-.013a.221.221 0 0 1-.05-.06c-.008 0-.008-.011-.015-.013 0 0-.024-.038-.031-.044v-.012c0-.013-.013 0-.015 0a.056.056 0 0 1-.018-.01s-.009-.009-.01-.012c-.003-.004 0-.02-.015-.027v-.011a.66.66 0 0 0-.142.09v.01a.93.93 0 0 0 .034.061l.015.015.033.072Z"/>
  </g>
  <path fill="#F5F6F7" d="M64.326 41.693a.01.01 0 0 0-.001.005l.001.005s.002-.008 0-.01Zm.069.161v.01c0 .012 0 .012.013 0a.47.47 0 0 0 .056.079v-.013.018c.014.01 0 0 .013.013.012.013.016 0 .018.01h.009c0 .008.009 0 0 0 0 0 0 .01.014.008v.011h.015c.01 0 .045.022.056.02 0 0-.013.01-.013 0s.066.047.075.056h.009v-.01h.013c.012 0 .018.01.027.018h.023c.01 0 .09-.124.095-.135h.009v-.009h-.016v-.009c-.013-.009-.068-.042-.08-.053l-.08-.063v-.013c0-.01 0 0-.013 0a.252.252 0 0 1-.049-.069c-.01 0-.01-.012-.018-.014 0 0-.025-.044-.033-.051v-.013a.013.013 0 0 1-.014 0s-.013 0-.017-.013c0 0-.009-.01-.01-.014-.002-.004 0-.024-.013-.03v-.012a.556.556 0 0 0-.15.076c.006.026.017.05.032.073l.014.018.015.11Z" opacity=".6"/>
  <g opacity=".6">
    <path fill="#F5F6F7" d="M61.476 43.957a.01.01 0 0 0-.001.005l.001.005s.004-.01 0-.01Z"/>
    <path fill="#F5F6F7" d="M61.623 44.066v.011c0 .011.011 0 .016 0 .026.02.053.039.082.055v-.011.018h.047c.002 0 0 .01 0 .01h.015v.008a.035.035 0 0 0 .018 0c.01 0 .049.017.06.013l-.011.01c.03.016.058.032.085.052h.01v-.013h.012c.004 0 .02.01.03.018 0 0 .02.01.028 0l.096-.133h.011-.009c-.009 0 0 0 0-.009s-.009 0-.01 0c0-.009-.015 0-.02-.009h-.012l-.009-.01a1.811 1.811 0 0 0-.107-.057 1.137 1.137 0 0 0-.114-.058s-.01 0-.013-.013h-.018a.417.417 0 0 1-.089-.058c-.01 0-.018 0-.027-.009-.01 0-.051-.034-.062-.038-.01 0 0 0-.01-.01a.014.014 0 0 1-.009.002.011.011 0 0 1-.008-.003h-.024a.042.042 0 0 1-.022-.01s-.018-.02-.032-.024v-.015a.541.541 0 0 0-.084.145h.01a.43.43 0 0 0 .067.05h.021l.082.088Z"/>
  </g>
  <path fill="#F5F6F7" d="M62.017 43.527h.013a.332.332 0 0 0 .072.018v-.01.014h.053s.04 0 .047-.011v.012a.428.428 0 0 1 .073.015v.009-.013s0-.009.009 0h.047c.007 0 .043-.147.045-.158v-.009h-.034a.772.772 0 0 0-.09-.012.849.849 0 0 0-.099-.011h-.024a.287.287 0 0 1-.08-.022h-.021a.477.477 0 0 1-.055-.013h-.01a.01.01 0 0 1-.01 0h-.034c-.002 0-.018-.013-.031-.01v-.014a.624.624 0 0 0-.03.166c.02.008.04.015.06.02h.02s.079.027.079.029Z" opacity=".6"/>
  <g opacity=".6">
    <path fill="#F5F6F7" d="M61.984 42.75a.013.013 0 0 0 .011 0h-.01Z"/>
    <path fill="#F5F6F7" d="M62.153 42.72h.024a.557.557 0 0 0 .089-.023h-.01.015c.015-.011 0 0 .016 0 .017 0 .011-.011.017-.011-.01 0 .009 0 0 0h.025a.03.03 0 0 0 .017 0c0-.01.043-.026.047-.036v.014a.83.83 0 0 1 .089-.027v-.022l.03-.01s.017 0 .022-.014a.931.931 0 0 0-.032-.16c-.01 0-.01.012-.019 0h-.027c-.02 0-.09.033-.109.039-.027.01-.085.027-.112.041a.024.024 0 0 0-.017 0l-.014.01a.363.363 0 0 1-.096.025c0 .01-.018 0-.024.013 0 0-.058.014-.067.02h-.015a.011.011 0 0 1 .002.006c0 .002 0 .005-.002.006a.209.209 0 0 1-.027.021.027.027 0 0 1-.01.003c-.012 0-.028 0-.039.01l-.01-.01c.009.056.026.11.052.16 0 0 .053-.01.078-.017h.02s.087-.04.087-.038Z"/>
  </g>
  <g opacity=".6">
    <path fill="#F5F6F7" d="M61.785 45.676a.012.012 0 0 0 .01 0h-.01Z"/>
    <path fill="#F5F6F7" d="M61.952 45.663h.023a.521.521 0 0 0 .09-.011h-.008s.009 0 .014.01c.015-.009 0 0 .019 0 .018 0 .01-.01.016-.009 0 0 .009 0 0-.009h.042s.041-.02.047-.029v.017a.461.461 0 0 1 .087-.017v-.023h.033s.016 0 .021-.013a1.198 1.198 0 0 0-.014-.162v-.009c0-.009-.01 0-.01 0h-.008c-.01 0-.011.01-.018 0h-.026c-.018 0-.09.02-.109.026a1.188 1.188 0 0 0-.114.029.027.027 0 0 0-.017 0h-.014a.452.452 0 0 1-.096.012s-.018 0-.026.01c0 0-.056 0-.065.01h-.015a.01.01 0 0 1 0 .013s-.012.01-.02.011h-.067a.583.583 0 0 0 .032.165.495.495 0 0 0 .077 0h.021l.106-.021Z"/>
  </g>
  <path fill="#F5F6F7" d="M62.219 46.274a.18.18 0 0 0 .043-.016l.01.009v-.01s.016-.021.016-.03v.014a.18.18 0 0 1 .041-.02v-.009h.017V46.2c0-.012-.057-.141-.06-.15a.361.361 0 0 0-.051.029.492.492 0 0 0-.05.032h-.012a.105.105 0 0 1-.047.017l-.01.01s-.028 0-.032.014h-.009a.011.011 0 0 1 0 .012v.013h-.029c.02.052.044.103.07.152a.263.263 0 0 0 .04-.01h.01s.053-.046.053-.044Zm-.042 1.32c0-.009 0 0 .01 0a.22.22 0 0 0 .06.024v-.009.013h.029v.009h.065v.013c.021.004.042.01.062.018v.009-.013s0-.01.01 0l.02.01h.02a.986.986 0 0 0 .057-.153h-.024a.594.594 0 0 1-.078-.019.409.409 0 0 0-.081-.018h-.024a.257.257 0 0 1-.065-.023h-.02s-.037-.017-.046-.017h-.009a.01.01 0 0 1 .001.005.01.01 0 0 1 0 .004h-.032c-.003 0-.014-.012-.025-.01v-.013a.789.789 0 0 0-.046.161.23.23 0 0 0 .05.024h.014l.053-.015Zm.109 1.33h.009c.009 0 0 0 0-.009a.425.425 0 0 0 .067-.021l.013.009c.009-.011 0 0 .012 0 .013 0 0-.011.01-.01h.02l.01-.009c0-.009.03-.025.031-.034v.016a.411.411 0 0 1 .066-.029v.01-.022h.023s.013 0 .015-.015a1.291 1.291 0 0 0-.051-.154v-.01s0 .011-.013 0h-.022l-.08.04a.9.9 0 0 0-.081.044h-.013c-.01 0 0 0-.01.01a.267.267 0 0 1-.074.025s-.012 0-.016.012a.39.39 0 0 1-.049.018h-.013a.013.013 0 0 1 0 .015l-.01.015s-.011 0-.015.009-.02 0-.027 0h-.011a.735.735 0 0 0 .065.154.3.3 0 0 0 .058-.017l.015-.008s.069-.04.07-.039Zm.172.808h.018a.316.316 0 0 0 .071-.02h-.01.014c.01-.011 0 0 .014 0 .015 0 0-.013.01-.011h.02a.018.018 0 0 0 .01 0c0-.01.027-.028.027-.038v.014c0-.002.051-.034.06-.038h-.009v-.013l.02-.014s.011-.01 0-.018c-.01-.01-.089-.124-.096-.131h-.01c-.008 0-.04.036-.052.042-.014.01-.047.027-.062.04-.014.012 0 0-.009 0v.009a.128.128 0 0 1-.058.016s-.01 0-.014.01c0 0-.035 0-.04.008h-.011c-.01 0 0 .013 0 .013l-.01.01h-.037v-.01c0 .056.005.112.018.167.02.003.041.003.062 0h.016l.058-.036Zm-.208 1.349v.01c0 .008.008 0 .012 0a.373.373 0 0 0 .06.03v-.009.015h.027v.009h.011a.01.01 0 0 0 .013 0h.043v.012a.369.369 0 0 1 .062.026v.009-.013h.01l.021.011h.018c.007 0 .07-.136.075-.145v-.01c0-.008 0 0-.01 0h-.014L62.5 51a.63.63 0 0 0-.084-.028h-.021a.17.17 0 0 1-.066-.032h-.02s-.036-.02-.045-.02l-.01-.01a.012.012 0 0 1-.01.01h-.018a.023.023 0 0 1-.017 0s-.012-.015-.023-.015v-.012a.753.753 0 0 0-.064.156.269.269 0 0 0 .05.029h.016l.061.003Zm.322 1.037h.018a.31.31 0 0 0 .071 0v.01h.051s.033-.018.036-.027v.015a.423.423 0 0 1 .07-.013v-.013h.025s.013 0 .018-.01a1.18 1.18 0 0 0-.016-.162h-.037a.733.733 0 0 0-.085.02.326.326 0 0 0-.089.023.017.017 0 0 0-.013 0h-.01a.218.218 0 0 1-.077.01s-.012 0-.018.009h-.065a.013.013 0 0 1 .002.007c0 .002 0 .005-.002.007a.051.051 0 0 1-.015.011h-.046v-.01a.725.725 0 0 0 .032.164.3.3 0 0 0 .06 0h.016s.073-.043.074-.041Z" opacity=".6"/>
  <g opacity=".6">
    <path fill="#F5F6F7" d="M62.59 53.38a.012.012 0 0 0 .01 0 .012.012 0 0 0-.01 0Z"/>
    <path fill="#F5F6F7" d="M62.71 53.367c0-.009.01 0 .01 0a.397.397 0 0 0 .065 0l.009.011h.013c.012 0 0-.009.01 0h.011a.014.014 0 0 0 .013 0s.033-.014.038-.023v.014a.396.396 0 0 1 .067 0v.01-.023h.042l.026-.16h-.04a.782.782 0 0 0-.192.015h-.026a.31.31 0 0 1-.081 0c0 .01-.015 0-.02.011 0 0-.047 0-.055.011h-.012a.016.016 0 0 1 0 .015l-.015.012h-.047l-.01-.009a.67.67 0 0 0 .054.158.247.247 0 0 0 .054 0h.015l.07-.042Z"/>
  </g>
  <path fill="#F5F6F7" d="M70.694 42.065a.011.011 0 0 0 .007.002c.002 0 .004 0 .006-.002 0 0-.01-.002-.013 0Zm.211-.06h.014c.015 0 .015 0 .016-.01a.882.882 0 0 0 .113-.034h-.013.027c.019-.012 0 0 .024-.01.024-.012.011-.013.018-.013h.01c.008 0 .01 0 0 0-.012 0 .01 0 0 0 0 0 .014 0 .017-.01h.013a.04.04 0 0 0 .018-.01s.053-.031.058-.042v.016a.81.81 0 0 1 .111-.04v-.01s0-.011.01-.013a.332.332 0 0 0 .04-.013s.02 0 .026-.018a.83.83 0 0 0-.036-.16v-.009c0-.009-.009 0-.009 0s0 .01-.01 0c-.012 0-.014.013-.025.01h-.032c-.024 0-.113.046-.136.055-.035.015-.107.04-.142.058a.045.045 0 0 0-.022 0l-.018.013a.786.786 0 0 1-.121.038s-.022 0-.031.017a.4.4 0 0 0-.082.029h-.02c-.009 0 0 .014 0 .016l-.024.018a.078.078 0 0 1-.025.011.166.166 0 0 0-.047.013h-.015s.03.138.06.158h.018a.828.828 0 0 0 .097-.027l.025-.013a.39.39 0 0 1 .093-.02Zm.297.451a.013.013 0 0 0 .011 0s-.007-.002-.01 0Zm.202-.016h.026a.74.74 0 0 0 .109-.015h-.011.009c.01 0 .01 0 .014.009.019-.01 0 0 .022 0s.013-.011.02-.01h.01c.008 0 .01 0 0-.008-.011-.01.01 0 0 0h.05s.053-.022.06-.031v.016a.748.748 0 0 1 .107-.02v-.01h.01s0-.014.008-.012h.04s.02 0 .027-.013a.938.938 0 0 0-.01-.161h-.01c-.008 0 0 0 .01-.01.009-.008-.01 0-.01 0h-.065l-.118.012c-.034.009-.105.02-.14.032h-.038a.669.669 0 0 1-.116.017c-.009 0-.022 0-.03.01-.01 0-.07 0-.08.013h-.019c0 .004 0 .007-.002.01a.013.013 0 0 1-.007.005l-.023.013a.048.048 0 0 1-.026 0h-.045l-.013-.01a.47.47 0 0 0 .033.166h.009a.778.778 0 0 0 .092-.01h.026a.13.13 0 0 1 .08.006Zm.512.956h.021a.552.552 0 0 0 .079-.02h-.01l.013.009h.015c.014 0 .009-.01.012-.01v-.01h.037c0-.01.036-.022.041-.03v.014a.61.61 0 0 1 .079-.017v.01-.024h.027s.016 0 .02-.011c.003-.011 0-.153 0-.163h-.018c-.01 0-.013.009-.02 0h.036-.015a1.07 1.07 0 0 0-.109.027.635.635 0 0 0-.112.036.023.023 0 0 0-.015 0h-.012a.47.47 0 0 1-.093.026s-.016 0-.023.014c0 0-.055.016-.062.022h-.015a.015.015 0 0 1 0 .016l-.016.016-.016.013a.064.064 0 0 0-.035.011h-.013a.617.617 0 0 0 .077.15.533.533 0 0 0 .065-.021l.016-.011s.044-.047.046-.047Z" opacity=".6"/>
  <g opacity=".6">
    <path fill="#F5F6F7" d="M71.868 44.275a.011.011 0 0 0 .007.002c.002 0 .004 0 .006-.002a.015.015 0 0 0-.013 0Z"/>
    <path fill="#F5F6F7" d="M72.08 44.24h.028a.83.83 0 0 0 .113-.024h-.013.025c.018-.011 0 0 .022 0s.013-.013.02-.011h.01c.008 0 .01 0 0 0-.012 0 .008 0 0 0h.03l.02-.011c0-.01.055-.027.062-.036v.016a.902.902 0 0 1 .11-.029v.01-.012h.01v-.01l.041-.01s.02 0 .027-.016a.764.764 0 0 0-.021-.162h-.01s0 .01-.01 0c-.011 0-.015.011-.024.01h-.034l-.136.041a1.473 1.473 0 0 0-.144.045h-.02l-.018.011a.58.58 0 0 1-.122.026c-.009 0-.021 0-.03.014l-.084.019h-.02c-.009 0 0 .014-.009.014 0 0-.015.01-.024.014a.108.108 0 0 1-.025 0 .09.09 0 0 0-.047 0h-.015s.017.14.046.164h.018a.593.593 0 0 0 .096-.016h.027l.1-.048Z"/>
  </g>
  <g opacity=".6">
    <path fill="#F5F6F7" d="M72.055 44.985h.014c.013 0-.002-.002-.014 0Z"/>
    <path fill="#F5F6F7" d="M72.284 44.959h.033s.105-.013.125-.019c.02-.005-.01 0-.013 0 0 0 .011 0 .019.01.02-.011 0 0 .023 0 .024 0 .016-.011.024 0h.009c.009 0 .012 0 .009-.01-.004-.009.01 0 0 0h.036a.047.047 0 0 0 .022 0 .19.19 0 0 0 .069-.034v.016c.04-.01.08-.02.121-.025h.01v-.013s0-.01.01-.01h.044s.025 0 .033-.015a.49.49 0 0 0-.011-.164h.01-.085c-.026 0-.126.03-.151.035a.659.659 0 0 0-.16.038h-.022l-.02.009a.912.912 0 0 1-.134.022c-.01 0-.025 0-.034.01a.88.88 0 0 0-.091.017h-.022c-.01 0 0 .013-.01.014a.126.126 0 0 1-.028.013.095.095 0 0 1-.027 0 .137.137 0 0 0-.053 0h-.013s0 .14.037.164h.043c.034 0 .068 0 .105-.013l.03-.01a.374.374 0 0 1 .062-.035Z"/>
  </g>
  <g opacity=".6">
    <path fill="#F5F6F7" d="M72.248 45.94h.01a.011.011 0 0 0-.01 0Z"/>
    <path fill="#F5F6F7" d="M72.438 45.937h.139-.011.008c.01 0 .01 0 .015.011h.022c.022 0 .014-.01.02-.01h.009c.009 0 .01 0 0 0-.011 0 .009 0 0 0h.048s.055-.017.063-.026v.014c.035-.006.07-.01.107-.013v-.012s0-.011.009 0h.04s.022 0 .029-.011c.007-.011 0-.153 0-.163h-.066l-.134.02a1.247 1.247 0 0 0-.14.023h-.038a.646.646 0 0 1-.118 0c-.009.01-.02 0-.03.01h-.099c-.009 0 0 .012-.01.012a.094.094 0 0 1-.024.01.057.057 0 0 1-.026 0 .078.078 0 0 0-.045 0l-.01-.01a.473.473 0 0 0 .023.165.53.53 0 0 0 .092 0h.026l.101-.02Z"/>
  </g>
  <path fill="#F5F6F7" d="M72.582 46.701h.028s.089.042.107.047c.018.006 0 0 0-.012 0-.013 0 0 .01 0 .012 0 .01 0 0 .018.023 0 0 0 .023.009.021.009.018 0 .021 0h.011v.009s.011.01.02 0c0 0 .01 0 0 .01a.035.035 0 0 0 .022 0c.011 0 .058.019.07.017h.01l-.01.01a.73.73 0 0 1 .1.063h.012v-.013h.014l.035.025s.018.013.03.013l.113-.118h.015c.014 0 0-.009-.011 0-.011.01 0 0 0-.009a.016.016 0 0 1-.008.002c-.002 0-.005 0-.007-.002 0-.01-.018 0-.025-.016 0 0-.01 0-.013-.011 0 0-.01-.01-.013-.015a1.83 1.83 0 0 0-.294-.15l-.02-.013H72.8a1.104 1.104 0 0 1-.127-.055h-.037c-.01 0-.076-.027-.09-.029-.013 0 0 0-.019-.01-.018-.011-.01 0-.016 0h-.029a.07.07 0 0 1-.029 0 .111.111 0 0 0-.05-.015l-.012-.015s-.045.131-.029.166h.011c.011 0 0 0 0 .009l.096.03h.028c.032.01.062.03.085.055Z" opacity=".6"/>
  <g opacity=".6">
    <path fill="#F5F6F7" d="M72.462 47.404a.01.01 0 0 0 .005.002.01.01 0 0 0 .005-.002h-.01Z"/>
    <path fill="#F5F6F7" d="M72.644 47.45c.009 0 0 .01.01 0 .011-.008.013 0 .017 0a.378.378 0 0 0 .1.02l-.01-.008c-.008-.01 0 0 .01 0 .009 0 0 0 .01.014h.05c-.002 0 0 0 0 .01h.016a.036.036 0 0 0 .02 0s.053 0 .062-.012v.015a.82.82 0 0 1 .1.014v.01-.013s0-.01.012 0h.065c.01 0 .039-.147.04-.158h.011-.009c-.009 0 0 0 0-.01 0-.008-.009 0-.01 0h-.051l-.127-.012c-.033 0-.098-.013-.133-.01h-.035a.42.42 0 0 1-.107-.02h-.03c-.01 0-.064-.014-.075-.014h-.014c-.015 0-.01.011-.013.011a.09.09 0 0 1-.025 0h-.024a.102.102 0 0 0-.042-.01v-.013a.502.502 0 0 0-.022.167h.01c.008 0 0 0 0 .009a.796.796 0 0 0 .083.018h.023l.088-.007Z"/>
  </g>
  <path fill="#F5F6F7" d="M72.874 48.923h.011c.011 0-.007-.002-.011 0Zm.151-.061h.012c.013 0 .01 0 .01-.01a.46.46 0 0 0 .08-.039h-.011.016c.01-.013 0 0 .014-.009.015-.01 0-.015.013-.015v-.009c0-.009.01 0 0 0h.011a.029.029 0 0 0 .013-.012c0-.01.032-.033.034-.044v.015a.766.766 0 0 1 .076-.044v-.019l.028-.015s.014-.01.016-.019-.06-.14-.065-.148v-.01c-.01 0 0-.009 0 0-.01 0 0 .011-.017.011h-.023l-.093.06c-.023.017-.074.044-.098.062h-.014l-.011.01a.338.338 0 0 1-.086.043c0 .01-.016.01-.02.018 0 0-.05.023-.058.03h-.014a.01.01 0 0 1 0 .015s-.01.015-.015.018l-.018.013c-.004.002-.025 0-.033.015h-.012a.57.57 0 0 0 .083.145.328.328 0 0 0 .07-.031l.017-.013a.206.206 0 0 1 .095-.018Zm.058 1.028c.002.002.004.002.006.002l.007-.001a.01.01 0 0 0-.007-.002.01.01 0 0 0-.006.002Zm.197-.051h.013c.013 0 .015 0 .017-.011a.84.84 0 0 0 .107-.035h-.013.018c.017-.012 0 0 .02-.009s.013-.014.018-.012c0 0 .011 0 0-.011-.01-.011.01 0 0 0 0 0 .015 0 .019-.01h.012a.043.043 0 0 0 .018-.01c0-.01.05-.031.055-.042v.014c0-.001.089-.036.103-.038v-.023a.321.321 0 0 0 .038-.013s.02 0 .026-.018a.803.803 0 0 0-.04-.158h-.01s0 .009-.01 0c-.01 0-.013.01-.022.009h-.031c-.021 0-.105.045-.127.054-.032.015-.1.04-.132.058a.036.036 0 0 0-.02 0l-.016.013a.554.554 0 0 1-.115.036c0 .011-.022.01-.029.017a.488.488 0 0 0-.076.027h-.018c-.008 0 0 .015 0 .016 0 0-.015.013-.022.017l-.024.012a.085.085 0 0 0-.043.013h-.015a.489.489 0 0 0 .062.156h.009a.758.758 0 0 0 .09-.027l.024-.013a.197.197 0 0 1 .115-.012Zm.044.879v.009c0 .009 0 0 .013 0a.41.41 0 0 0 .067.04v-.011.016h.031v.01s0 .008.013 0v.008a.02.02 0 0 0 .014 0h.05l-.011.011c.024.01.047.022.07.035v.009-.013s0-.009.011 0l.026.013h.021l.086-.14h.009v-.009h-.017l-.088-.038a.866.866 0 0 0-.095-.038l-.009-.01h-.014a.359.359 0 0 1-.073-.041h-.022s-.042-.025-.05-.027c-.01 0 0 0-.01-.011a.013.013 0 0 1-.013 0h.004-.016c-.004 0-.016-.017-.027-.017V50.5a.67.67 0 0 0-.073.153v.009a.377.377 0 0 0 .056.034h.018l.03.022Zm.142 1.172v.01c.008.02.019.038.03.056v-.01.013c.013 0 0 0 .01.011.009.011.012 0 .01 0h.01v.01h.009c.009 0 .029.02.038.02h-.015a.356.356 0 0 1 .037.054l.009-.01h.01a.11.11 0 0 0 .011.02s0 .011.017.011l.142-.078h.009s-.011 0-.01-.01v-.019l-.049-.063c-.014-.017-.036-.051-.052-.066-.017-.014 0-.009 0-.012h-.01a.23.23 0 0 1-.034-.062c-.009 0-.009-.009-.014-.013 0 0-.02-.036-.026-.04v-.01a.018.018 0 0 1-.012 0h-.017s0-.01-.01-.011c-.011-.002 0-.02-.011-.026v-.01a.828.828 0 0 0-.14.092.258.258 0 0 0 .023.05s0 .01.011.012l.024.081Z" opacity=".6"/>
  <g opacity=".6">
    <path fill="#F5F6F7" d="M73.17 52.668v.013a.01.01 0 0 0 .002-.007.01.01 0 0 0-.002-.006Z"/>
    <path fill="#F5F6F7" d="M73.204 52.864v.027c.006.035.014.07.024.105v-.01V53c.011.019 0 0 0 .022s.013.013.011.018v.01c0 .008 0 0 .01 0 0 .008.008 0 0 0v.03a.034.034 0 0 0 .008.018s.026.049.035.054h-.017a.74.74 0 0 1 .03.104h.02s0 .025.01.036c0 0 0 .02.014.027l.161-.027v-.018c0-.01 0 0 .01.009.008.009 0-.011 0-.011v-.011c0-.01-.01-.013 0-.022v-.029c0-.022-.035-.105-.042-.127a1.277 1.277 0 0 0-.046-.134v-.018l-.009-.017a.5.5 0 0 1-.025-.112c-.01-.01 0-.022-.015-.03a.454.454 0 0 0-.02-.077v-.017c0-.007-.012 0-.014-.009a.143.143 0 0 1-.013.046s0-.02-.009-.024a.096.096 0 0 0-.01-.044l.01-.012s-.138.02-.16.047v.009c.004.03.01.06.016.089v.024c.01.019.016.039.02.06Z"/>
  </g>
  <path fill="#F5F6F7" d="M73 53.599v.009a.133.133 0 0 0-.032.032h.01-.013v.044l-.011-.011a.172.172 0 0 1-.025.035h.01v.009s0 .009-.01.012v.013l.123.105v-.009l.027-.047c0-.013.024-.034.03-.049v-.01a.085.085 0 0 1 .032-.034v-.014s.02-.02.02-.026h.009a.01.01 0 0 1 0-.01v-.025c0-.012.014 0 .014-.014h.011a1.053 1.053 0 0 0-.134-.101c-.01 0-.02.016-.027.025v.011l-.035.055Z" opacity=".6"/>
  <g opacity=".6">
    <path fill="#F5F6F7" d="M72.316 53.873h-.01a.013.013 0 0 0 .01 0Z"/>
    <path fill="#F5F6F7" d="M72.233 54.029h-.01c-.011 0 0 .01 0 .015a.745.745 0 0 0-.04.087h.01c.011 0 0 0 0 .009s0 0-.016 0v.047h-.01s-.008.009 0 .015h-.008a.031.031 0 0 0 0 .018v.06l-.013-.01a.408.408 0 0 1-.034.09v.008h.012s.01 0 0 .013a.242.242 0 0 0-.014.031v.027l.145.073v.01-.008c0-.01 0 0 .01 0 .008 0 0 0 0-.011v-.043c0-.019.03-.095.035-.113 0-.03.031-.087.037-.118a.02.02 0 0 0 .007-.006.023.023 0 0 0 .004-.009v-.016a.337.337 0 0 1 .041-.095v-.027c0-.009.026-.054.028-.065 0-.011 0 0 .01-.013.011-.012-.009-.01 0-.012v-.046c0-.003.019-.022.019-.036h.014a.556.556 0 0 0-.156-.058v.009a.553.553 0 0 0-.036.072v.024s-.033.078-.035.078Z"/>
  </g>
  <path fill="#F5F6F7" d="M71.522 54.095a.013.013 0 0 0-.011 0 .01.01 0 0 0 .005.002.01.01 0 0 0 .006-.002Zm-.162.188h-.014c-.006 0-.011.012 0 .02v.018a1.004 1.004 0 0 0-.078.11h.014c.015 0 0 0 0 .011s-.009 0-.02 0c0 .024 0 0-.014.024-.015.024 0 .022 0 .025v.02h-.01s-.012.011-.01.02c0 0 0 .011-.011.01a.044.044 0 0 0-.01.023c0 .013-.023.065-.02.078v.011s-.014-.013-.012-.013-.05.106-.061.12c-.011.015-.01 0-.01 0v.011h.013v.027a.502.502 0 0 0-.022.042s-.009.024 0 .036l.14.086v-.01.013-.01c0-.012 0 0 .01 0 .008 0 0-.012 0-.015.008 0 0-.02.008-.027 0 0 0-.011.01-.015 0 0 0-.01.01-.015l.067-.145c.017-.036.058-.11.077-.148l.014-.019v-.021a.58.58 0 0 1 .08-.115c0-.014.013-.023.016-.034 0-.011.051-.064.057-.077 0-.012.009 0 .018-.012.009-.013 0-.015 0-.018a.306.306 0 0 1 .01-.031.087.087 0 0 1 .017-.026c.01-.01.03-.022.036-.04h.017s-.095-.101-.135-.101v.012a.864.864 0 0 0-.076.088.23.23 0 0 0-.016.029.402.402 0 0 1-.095.058Zm-.709-.211a.024.024 0 0 0-.015 0 .019.019 0 0 0 .016 0Zm-.191.201c-.01.01-.01 0-.017 0-.007 0-.012.015-.01.022v.01s-.088.094-.1.114c-.013.02.009 0 .014 0 .006 0 0 0 0 .01 0 .011-.01.01-.02 0-.013.026 0 0-.018.026-.018.025 0 .022-.014.025v.01c0-.002-.011.01 0 .012.01.002-.013 0-.011 0 0 .01-.015.011-.015.02 0 0 0 .011-.014.01a.072.072 0 0 0-.015.025c0 .014-.04.067-.04.081v.01-.013s-.08.103-.094.116v.013h.012v.018l-.034.041v-.01c0-.01-.018.023-.02.036l.109.121v.015c0 .005.01 0 .009-.01-.002-.012 0 0 .009 0 .01 0 0-.014.01-.016.012 0 0-.02.02-.027 0 0 0-.009.014-.014 0 0 0-.011.016-.015.022-.023.096-.123.114-.149.03-.038.093-.114.12-.156 0 0 .015-.012.02-.018l.013-.022c.033-.043.069-.084.107-.123 0-.015.018-.024.023-.038 0-.013.062-.073.071-.085 0-.013.011 0 .02-.015.01-.015 0-.016 0-.02l.015-.033.02-.029a.213.213 0 0 0 .043-.045h.017s-.093-.105-.135-.104a.013.013 0 0 1 0 .011h-.01c-.011 0-.06.06-.088.093l-.022.029a.28.28 0 0 1-.12.074Zm-.935-.024h-.011c-.01 0 0 0 0 .012a.599.599 0 0 0-.06.058h.01-.015c0 .017 0 0-.011.015-.011.014 0 .014 0 .014v.01c-.01 0 0 .009 0 0 0 0-.01 0 0 .01h-.011a.033.033 0 0 0-.01.015c0 .01-.02.04-.017.05 0 0-.01-.014 0-.012a.64.64 0 0 1-.059.062v.009h.011v.013l-.02.02s-.01.01-.01.021c0 .011.101.113.11.12v.011c0 .011.01 0 0 0v-.009c.01 0 0-.013.011-.014h.021c.014-.013.057-.068.068-.082a.82.82 0 0 0 .07-.087.018.018 0 0 0 .014 0v-.015a.361.361 0 0 1 .065-.063c0-.01.01-.013.013-.022 0 0 .04-.036.043-.044 0-.009 0 0 .013 0a.01.01 0 0 1-.003-.007.01.01 0 0 1 .003-.007v-.02a.04.04 0 0 1 .013-.017s.021-.01.025-.023h.015s-.093-.105-.126-.113a.47.47 0 0 0-.054.047.129.129 0 0 1-.011.017s-.087.032-.087.03Z" opacity=".6"/>
  <g opacity=".6">
    <path fill="#F5F6F7" d="M69.028 54.096h-.01s.009.004.01 0Z"/>
    <path fill="#F5F6F7" d="M68.922 54.196h-.01c-.012 0 0 0 0 .013a.552.552 0 0 0-.055.06h.01-.016c0 .014 0 0-.009.013-.009.012 0 .014 0 .016h-.009s-.009 0 0 .013h-.009a.018.018 0 0 0 0 .014c0 .01-.016.038-.014.05l-.01-.012a.548.548 0 0 1-.049.062v.01h.011v.01l-.018.022s-.009.013 0 .022l.118.112h.01c.008 0 0-.009 0-.009v-.014h.018l.056-.082c.014-.022.047-.062.06-.085a.034.034 0 0 0 .012-.01v-.012a.324.324 0 0 1 .058-.064c0-.01.01-.014.011-.022 0-.009.035-.038.038-.045 0-.009 0 0 .013 0v-.033s0-.012.01-.016c.008-.004.02-.01.023-.024h-.01a.648.648 0 0 0-.132-.103.304.304 0 0 0-.049.047l-.01.017-.048.05Z"/>
  </g>
  <path fill="#F5F6F7" d="M68.254 54.221h-.009c-.009 0 0 .013 0 .016 0 .013-.034.078-.038.093-.004.014 0 0 .01 0 .012 0 0 0 0 .009 0 .01 0 0-.015 0v.048c0 .008-.01.01 0 .016h-.01a.021.021 0 0 0 0 .018v.061l-.012-.009a.666.666 0 0 1-.044.09h-.009v.01h.013v.015a.102.102 0 0 1-.018.03s-.01.019 0 .028l.132.096v.013-.011c0-.011 0 0 .01 0 .008 0 0-.01 0-.011 0 0 0-.016.008-.022 0 0 0-.009.01-.013 0 0 0-.01.01-.012.013-.02.047-.104.057-.124a.952.952 0 0 0 .05-.132s0-.011.011-.015v-.02a.732.732 0 0 1 .044-.109v-.03c0-.011.024-.066.025-.077 0-.01 0 0 .01-.014a.01.01 0 0 1 0-.015v-.052a.084.084 0 0 0 .014-.044h.013a.483.483 0 0 0-.166-.035v.01a.725.725 0 0 0-.029.08v.025l-.067.087Z" opacity=".6"/>
  <path fill="#F5F6F7" d="M67.971 52.897a.012.012 0 0 0-.001.004l.001.005.001-.005-.001-.005Z"/>
  <path fill="#F5F6F7" d="M68.073 52.978v.01c0 .008 0 0 .01 0l.042.052c.008.007 0 0 0-.01v.015c.013 0 0 0 .01.011.009.011.012 0 .012 0v.021s.027.025.036.028h-.014c.01.022.019.044.024.067h-.01.024v.04h.164v.01-.068a.579.579 0 0 0-.111-.216v-.016l-.013-.01a.687.687 0 0 1-.064-.08c-.009-.012-.014-.012-.023-.014a.674.674 0 0 0-.054-.045c-.011 0 0 0-.01-.015a.013.013 0 0 1-.008.003.013.013 0 0 1-.008-.003h-.024a.05.05 0 0 1-.02-.009c-.009 0-.02-.02-.032-.021v-.013a.691.691 0 0 0-.07.152s.03.026.046.037h.015s.078.072.078.074Zm.561-.494a.014.014 0 0 0 0 .013.014.014 0 0 0 0-.013Zm.061.179v.012c0 .013 0 .011.011.013 0 0 .03.08.038.094.01.015 0 0 0-.012v.016c.013.015 0 0 .011.018s.013.01.013.015h.009c0 .009.01 0 0 0 0 0 0 .012.01.014a.011.011 0 0 1 0 .013c.002.006.007.01.012.014.009 0 .032.042.042.046h-.015c.016.03.03.06.042.093h.023l.015.034s0 .018.018.022l.154-.053v-.009h.01c.009 0 0-.009 0-.009s-.01 0 0-.01c0-.01-.011-.008-.011-.02v-.025c0-.02-.05-.095-.059-.113-.016-.029-.043-.089-.063-.118-.02-.029 0-.013 0-.018l-.013-.015a.5.5 0 0 1-.041-.101c-.01 0-.01-.018-.017-.024 0 0-.023-.06-.03-.069v-.016a.013.013 0 0 1-.009.003.013.013 0 0 1-.008-.003.163.163 0 0 1-.018-.018l-.011-.02a.094.094 0 0 0-.017-.04v-.015s-.132.044-.15.075c0 0 .018.054.03.08l.015.021.01.126Zm.543-.13v.013c0 .013 0 .013.011.013a.66.66 0 0 0 .047.094v-.01.017c.015.015 0 0 .011.019.011.018.015.009.015.014v.01c0 .008 0 .008.009 0 0 .008.009-.01 0 0 0 0 0 .012.009.014v.012a.035.035 0 0 0 .013.015c.01 0 .038.042.049.045h-.015c0 .013.047.078.05.091h.024c.005.011.01.022.017.033 0 0 .01.018.02.022l.15-.064h.01c0-.01.008 0 0 0v-.01c0-.008-.013-.008-.013-.017v-.031c0-.02-.056-.093-.067-.11-.019-.03-.051-.09-.073-.117a.035.035 0 0 0 0-.02l-.013-.013a.666.666 0 0 1-.05-.101c-.01 0-.011-.018-.02-.026 0 0-.028-.06-.037-.069v-.016a.015.015 0 0 1-.008.002c-.003 0-.006 0-.008-.002l-.026.01-.014-.02a.078.078 0 0 0-.018-.04v-.014s-.13.053-.146.086v.009c.01.028.022.055.037.081a.145.145 0 0 1 .036.08Zm.65-.468v.012a.014.014 0 0 0 0-.012Z"/>
  <path fill="#F5F6F7" d="M69.984 52.235v.013c0 .013 0 .013.013.011l.045.098v-.013.018c.015.015 0 0 .011.019.011.018.013.01.013.016v.009c0 .01 0 0 .009 0 0 .01.009 0 0 0v.029a.043.043 0 0 0 .01.018c.01 0 .03.047.04.053h-.014c.013.034.023.07.03.105h-.01.022c-.002 0 0 .027 0 .04 0 0 0 .02.013.027h.163v-.018.011-.024c0-.01-.009-.016 0-.025v-.035a1.475 1.475 0 0 0-.105-.295.06.06 0 0 0 0-.02l-.015-.017a.723.723 0 0 1-.056-.12c-.007-.02-.013-.02-.022-.027-.009-.009-.038-.067-.049-.078v-.02c0-.009-.014 0-.018 0l-.023-.018c-.01 0-.017-.016-.02-.022a.117.117 0 0 0-.03-.041v-.015s-.116.078-.125.113h.01v.009c0 .009.03.052.048.078l.017.02a.18.18 0 0 1 .043.101Zm.743-.205v.01c0 .012.002-.007 0-.01Z"/>
  <path fill="#F5F6F7" d="M70.807 52.206v.012c0 .013 0 .013.012.013 0 .014.033.083.04.098.008.014 0 0 0-.013v.017c.013.016 0 0 .01.02.008.02.014.009.012.016v.029a.036.036 0 0 0 .01.016s.03.047.04.051h-.016a.714.714 0 0 1 .033.1h.011s.013 0 .013.009a.268.268 0 0 0 .009.036s0 .02.014.026l.162-.022v-.02c0-.01-.011-.015 0-.024v-.032c0-.024-.04-.111-.05-.135a1.01 1.01 0 0 0-.06-.136v-.02l-.013-.016a.98.98 0 0 1-.048-.113c-.009 0-.01-.02-.02-.027a.745.745 0 0 0-.038-.074c-.009 0 0 0 0-.018 0-.019-.014 0-.016 0a.171.171 0 0 1-.022-.019.036.036 0 0 1-.016-.021.115.115 0 0 0-.022-.042v-.015s-.125.06-.14.093v.009c0 .01.024.055.04.08l.015.022a.22.22 0 0 1 .04.1Zm.715-.109v.01c0 .012 0 .012.01.012.01.028.023.055.037.081v.017c.013.01 0 0 0 .014 0 .015.013.01.013.015 0 0 0 .009.009 0v.025c.002.006.006.01.01.015.01 0 .028.038.039.041h-.015a.809.809 0 0 1 .03.086h.02v.03s0 .017.013.022l.161-.027v-.019c0-.008-.009-.01 0-.02v-.028c0-.02-.038-.095-.045-.114a.95.95 0 0 0-.055-.117.03.03 0 0 0 0-.018l-.012-.013a.742.742 0 0 1-.044-.096c-.009 0-.01-.018-.018-.023 0 0-.027-.055-.035-.064v-.016c0-.016-.012 0-.014 0 0 0-.014-.01-.018-.015a.044.044 0 0 1-.015-.018s0-.027-.02-.036v-.013s-.121.067-.136.098v.01a.6.6 0 0 0 .035.066l.014.017.035.078Zm.241-1.015v.012c0 .011.004-.002 0-.012Zm.122.121v.011c0 .01 0 0 .013 0 .02.02.043.04.067.058v-.013.017c.014 0 0 0 .014.009.015.009.015 0 .017 0h.009s0 .009.013 0v.01h.014c.01 0 .044.019.054.017l-.01.01a.32.32 0 0 1 .069.052h.009v-.011h.014a.121.121 0 0 0 .024.02s.014.009.023.009l.111-.12h.01v-.009c0-.01 0 0-.01 0 0-.01-.013 0-.016-.01v-.01l-.01-.01a.958.958 0 0 0-.088-.063c-.024-.014-.07-.05-.095-.063-.025-.013 0-.01-.009-.013h-.016a.385.385 0 0 1-.07-.062c-.012 0-.017 0-.025-.01 0 0-.041-.037-.05-.04v-.013c0-.013-.011 0-.015 0h-.022s-.014 0-.018-.01a.047.047 0 0 0-.027-.025v-.014a.611.611 0 0 0-.1.134.773.773 0 0 0 .055.053s.01.009.018.01l.047.086Zm-.111-.655s0 .01.01 0c.008-.009.01 0 .012 0a.619.619 0 0 0 .081 0v-.009l.01.013h.016c.016 0 .01-.01.014 0h.039s.041-.011.049-.02v.015a.619.619 0 0 1 .081 0v-.013s0-.013.01-.01h.05c.006 0 .013-.152.013-.16h-.141a1.027 1.027 0 0 0-.106 0h-.029a.277.277 0 0 1-.087 0H71.7a.01.01 0 0 1-.009.01h-.071v-.013a.597.597 0 0 0 0 .17.44.44 0 0 0 .069 0h.02l.065.017Zm-.65-.615h.01a.013.013 0 0 0-.005-.001h-.005Z"/>
  <path fill="#F5F6F7" d="M71.287 49.907h.022a.364.364 0 0 0 .086-.027h-.01.015c.013-.011 0 0 .016 0 .017 0 0-.013.013-.011 0 0 .01 0 0-.01-.009-.009.01 0 0 0h.023a.018.018 0 0 0 .015-.01c0-.01.035-.031.037-.042v.014c0-.001.065-.04.076-.043v-.022l.027-.014s.014-.011.016-.02c.002-.01-.074-.133-.078-.144-.009 0 0 .013-.012.013h-.022l-.082.053c-.022.012-.067.036-.089.05-.022.015-.01 0-.014 0l-.011.01a.24.24 0 0 1-.082.027c0 .009-.014 0-.02.012 0 0-.049.013-.056.017h-.015a.012.012 0 0 1 .003.007.01.01 0 0 1-.003.007.11.11 0 0 1-.014.015h-.049l-.011-.01a.543.543 0 0 0 .04.164.36.36 0 0 0 .074-.013.238.238 0 0 1 .105-.024Zm-.29-.565h.013a.011.011 0 0 0-.007-.002c-.002 0-.004 0-.006.002Zm.202-.068h.012c.013 0 .015 0 .015-.013a.635.635 0 0 0 .103-.054h-.012.018c.014-.015 0 0 .02-.013s.009-.016.014-.016h.01c.008 0 .008 0 0-.01-.01-.008.01 0 0 0 0 0 .012 0 .014-.012h.013a.067.067 0 0 0 .016-.016c0-.011.042-.044.044-.057v.015l.089-.073v-.01h-.011V49l.03-.027s.017-.017.019-.028a.945.945 0 0 0-.1-.129v-.01c-.01 0 0-.011 0 0h-.01s0 .014-.014.016h-.027c-.016.013-.078.073-.096.085-.026.024-.08.062-.107.086a.05.05 0 0 0-.019 0l-.014.012a.406.406 0 0 1-.1.053c0 .01-.018.01-.025.02l-.07.03h-.017c-.008 0 0 .014 0 .015a.1.1 0 0 1-.02.018s-.019.01-.022.013a.08.08 0 0 0-.044.013h-.013s.031.136.062.156h.01a.579.579 0 0 0 .094-.03.162.162 0 0 1 .023-.015l.115-.004Zm-.339-.784a.013.013 0 0 0 .012 0s-.01-.004-.011 0Zm.153-.09h.013c.013 0 .011 0 .01-.014a.776.776 0 0 0 .08-.054h-.012.019c.01-.015 0 0 .014-.013s0-.014.013-.016v-.011c0-.01.009 0 0 0 0 0 .01 0 .01-.01h.013l.013-.015c0-.01.033-.039.033-.05v.015a.566.566 0 0 1 .076-.058l-.01-.01v-.012l.028-.02s.015-.01.016-.02c.002-.009-.078-.132-.083-.141v.009c-.01 0 0 .013-.015.013h-.027c-.016.01-.076.063-.092.074a1 1 0 0 0-.097.082H71l-.01.014a.373.373 0 0 1-.086.058c0 .011-.015.013-.02.022 0 0-.051.033-.058.042 0 .009 0 0-.015 0a.016.016 0 0 1 .002.008c0 .003 0 .006-.002.008 0 0-.009.016-.014.02 0 0-.013.013-.017.015a.083.083 0 0 0-.034.021h-.013s.071.12.104.133h.009a.55.55 0 0 0 .069-.044l.018-.016a.234.234 0 0 1 .081-.03Zm-.244-.792h.01c.012 0-.007-.002-.01 0Zm.145-.068h.01c.011 0 .011 0 .01-.01a.595.595 0 0 0 .074-.043h-.01.014c.01-.014 0 0 .014-.01.015-.011 0-.015.011-.015v-.009c0-.01.01 0 0 0 0 0 .013 0 .013-.01h.01a.029.029 0 0 0 .013-.014c0-.009.031-.034.033-.045v.014a.622.622 0 0 1 .073-.047l-.01-.01v-.013l.028-.015s.013-.01.014-.02a1.2 1.2 0 0 0-.074-.143v-.01c-.01 0 0-.008 0 0 0 0 0 .014-.014.014h-.024c-.016 0-.073.052-.087.061a.774.774 0 0 0-.091.067h-.016l-.01.013a.418.418 0 0 1-.081.047s-.015.011-.018.018c0 0-.05.026-.056.033 0 .01 0 0-.015 0a.011.011 0 0 1 .003.007.011.011 0 0 1-.003.008.055.055 0 0 1-.013.018s-.013.01-.014.014c-.002.004-.026 0-.033.017h-.013a.575.575 0 0 0 .093.141.272.272 0 0 0 .065-.032l.017-.013.087-.013Zm-.236-.59h.01s-.008-.002-.01 0Zm.162-.073h.01c.011 0 .013 0 .011-.013a.383.383 0 0 0 .082-.05h-.011.016c.01-.015 0 0 .015-.014.014-.012 0-.014.01-.014v-.01s.011 0 .011-.012h.011a.038.038 0 0 0 .011-.014s.031-.04.031-.051c0 0 .01.014 0 .014a.753.753 0 0 1 .07-.063h-.012v-.013l.026-.022s.012-.013.012-.023l-.105-.124v-.009c-.009 0 0-.009 0 0h-.009c-.01 0 0 .013-.013.015h-.021l-.077.078c-.02.02-.065.054-.085.078-.02.023-.01 0-.015 0l-.01.012a.367.367 0 0 1-.08.051s-.015.011-.019.018c0 0-.049.026-.056.033h-.014a.016.016 0 0 1 .002.008c0 .003 0 .006-.002.008a.085.085 0 0 1-.013.019s-.013 0-.016.012a.068.068 0 0 0-.035.013h-.013s.051.129.082.147a.388.388 0 0 0 .075-.033l.018-.014.112-.027Zm-.035-.537a.183.183 0 0 0 .043-.012h.01s.017-.02.017-.03v.015a.282.282 0 0 1 .042-.016v.009-.022h.015v-.012c0-.013-.046-.146-.05-.155h-.008l-.051.026a.364.364 0 0 0-.053.027h-.009a.107.107 0 0 1-.047.012h-.011s-.027 0-.03.011h-.01c-.009 0 0 .011 0 .013v.013h-.029v-.01c.015.055.035.108.058.159a.143.143 0 0 0 .038 0h.01s.065-.03.065-.028Zm-1.692-4.36s.01 0 .01-.01a.414.414 0 0 0 .077-.024h-.009.014c.011-.01 0 0 .015 0s0-.01.01-.01h.024a.022.022 0 0 0 .013-.01s.035-.023.037-.034v.014a.624.624 0 0 1 .074-.027v-.022h.027s.015 0 .018-.014a1.025 1.025 0 0 0-.045-.158v-.01h-.04l-.089.04c-.022.012-.07.03-.094.044h.007l-.01.01a.267.267 0 0 1-.083.025c0 .009-.014 0-.02.013 0 0-.047.012-.054.018h-.015a.013.013 0 0 1 0 .014l-.014.015h-.018a.042.042 0 0 0-.031 0h-.011a.685.685 0 0 0 .06.158.247.247 0 0 0 .065-.017l.018-.009s.062-.009.064-.007Zm-.314-.414h.01c.012 0 0 0 0-.01a.357.357 0 0 0 .052-.043h.014c0-.01 0 0 .01-.009.008-.009 0-.012 0-.012h.008v-.011c0-.01.016-.031.015-.042 0 0 .009.013 0 .013a.532.532 0 0 1 .047-.046h-.011v-.012a.07.07 0 0 0 .018-.015s.01 0 0-.016a2.092 2.092 0 0 0-.102-.127v-.01s0 .013-.009.013h-.009c-.01 0-.045.05-.056.06a.648.648 0 0 0-.056.066h-.013v.01a.182.182 0 0 1-.054.046s-.01.01-.011.018c0 0-.035.025-.038.033h-.011a.016.016 0 0 1 0 .014v.017l-.011.012c-.011.013-.018 0-.022.017h-.013a.76.76 0 0 0 .117.121.287.287 0 0 0 .045-.032l.009-.013s.07-.044.07-.042Zm-8.713 4.472h.012a.378.378 0 0 0 .078 0l.011.011c.013-.009 0 0 .015 0 .014 0 .009-.01.014 0h.027s.037-.022.04-.03v.014a.44.44 0 0 1 .073-.022c.01 0 0 .01 0 .01v-.022h.027s.013 0 .017-.015a1.033 1.033 0 0 0-.051-.154v-.01s0 .011-.013 0h-.009l-.073.03c-.02 0-.06.014-.08.023a.016.016 0 0 0-.006-.001l-.006.001h-.011a.182.182 0 0 1-.07 0h-.064a.011.011 0 0 1 0 .011l-.017.009h-.014c-.002 0-.018-.01-.027 0v-.01a.674.674 0 0 0-.017.166c.022.006.043.01.066.011h.018l.06-.022Zm-.058-.746c.02.003.04.003.06 0v.013h.012c.013 0 .01-.009.011 0h.022s.03-.013.036-.022v.015a.315.315 0 0 1 .06 0v-.022h.036c.004 0 .011-.15.011-.161h-.096a.538.538 0 0 0-.087 0h-.011a.178.178 0 0 1-.063 0h-.074a.01.01 0 0 1 0 .01h-.051v-.01a.881.881 0 0 0 0 .168.254.254 0 0 0 .051 0h.014l.07.01Zm.11-.766h.01a.134.134 0 0 0 .043.015v-.01.015h.027s.026 0 .03-.014v.014c0-.002.037 0 .043.01v-.014h.027c.004 0 .04-.147.044-.157h-.137a.103.103 0 0 1-.047-.015h-.014s-.028-.01-.033 0a.011.011 0 0 1 0 .011h-.022c-.002 0-.01-.01-.018 0v-.01a1.16 1.16 0 0 0-.034.164.11.11 0 0 0 .036.015h.01s.035-.026.035-.024Zm.202-.593s.027.014.032.012v.013h.01s.02 0 .025-.013v.015h.034a.04.04 0 0 1 0-.011h.022c.011 0 .047-.145.051-.156a.344.344 0 0 0-.045 0 .368.368 0 0 0-.047 0 .071.071 0 0 1-.037-.015h-.01s-.02-.01-.026 0a.018.018 0 0 1 0 .011h-.011s0-.01-.014 0v-.01a1.512 1.512 0 0 0-.046.16.072.072 0 0 0 .027.017h.01s.025-.025.025-.023Z"/>
  <path fill="#000" d="M63.337 41.691a5.73 5.73 0 0 0 .582 1.534.742.742 0 0 0 .334.363c.28.115.574-.112.792-.32a.525.525 0 0 0 .456.511c.255.024.511-.04.726-.182a4.54 4.54 0 0 0 1.386-1.346 9.5 9.5 0 0 1-1.014.726c-.247.154-.56.301-.82.17-.262-.13-.377-.475-.656-.495-.363-.026-.572.544-.93.486-.205-.029-.319-.247-.399-.437l-.434-1.035m3.954 14a.661.661 0 0 1 .069-.516.544.544 0 0 1 .412-.161c.344.017.682.089 1.004.212.748.22 1.527.317 2.307.285a2.074 2.074 0 0 1-1.205.45 6.16 6.16 0 0 1-1.304-.09l-1.348-.182" opacity=".2"/>
  <path fill="#FFBE9D" d="m57.855 75.188.052 7.628 3.426-.246.766-7.43-4.244.048Z"/>
  <path fill="#A26DF2" d="M61.452 81.074s-2.41 1.712-3.578.23l-.304.718-1.373 5.115a.687.687 0 0 0 .387.82.66.66 0 0 0 .7-.134c.994-.944 4.624-4.432 4.59-4.9l-.015-1.257a.639.639 0 0 0-.407-.588v-.004Z"/>
  <path fill="#F5F6F7" d="m56.702 87.992 5.173-5.506v.274c.026.298-.103.414-.245.605-.419.565-1.577 1.828-4.324 4.464a.66.66 0 0 1-.602.169l-.002-.006Zm4.415-6.328a.402.402 0 0 0-.113.523.387.387 0 0 0 .52.116.425.425 0 0 0 .115-.555.401.401 0 0 0-.553-.06" opacity=".6"/>
  <path fill="#263238" d="M58.192 85.168c-.036.018-.181-.321-.564-.506-.383-.185-.737-.105-.745-.145-.007-.04.077-.066.227-.087a1.059 1.059 0 0 1 1.015.504c.075.133.084.229.067.234Zm-.466.865c-.031.03-.238-.181-.572-.28-.334-.098-.62-.043-.632-.085-.01-.042.294-.169.674-.05.38.117.566.399.53.415Zm1.33-1.972c-.03.031-.347-.296-.855-.493-.508-.198-.958-.182-.958-.227 0-.046.47-.124 1.01.094.542.218.834.608.803.626Zm.122-1.558c-.018.038-.374-.112-.84-.13-.467-.019-.834.09-.848.05-.015-.04.363-.217.855-.192.492.025.846.243.833.272Z"/>
  <path fill="#263238" d="M58.065 82.358a.593.593 0 0 1 .037-.241c.063-.217.168-.42.31-.596a.754.754 0 0 1 .385-.294.264.264 0 0 1 .283.115.43.43 0 0 1 .047.305.939.939 0 0 1-.967.702 1.09 1.09 0 0 1-.946-.757.374.374 0 0 1 .041-.31.261.261 0 0 1 .295-.087.93.93 0 0 1 .377.297c.149.17.265.365.343.576a.579.579 0 0 1 .058.237 3.05 3.05 0 0 0-.473-.746.844.844 0 0 0-.336-.25.14.14 0 0 0-.162.045.27.27 0 0 0-.014.207.97.97 0 0 0 .827.645.814.814 0 0 0 .83-.583.315.315 0 0 0-.024-.216.145.145 0 0 0-.156-.064.67.67 0 0 0-.33.244c-.186.23-.33.491-.425.771Z"/>
  <path fill="#FFBE9D" d="m49.787 68.623-4.191 7.956 3.346 2.004 5.41-7.622-4.565-2.338Z"/>
  <path fill="#A26DF2" d="m46.119 75.516-.136.22s-4.673-.795-5.15-.11l7.466 4.539 1.407-2.541c-1.42-.171-2.62-.82-3.587-2.108Z"/>
  <path fill="#F5F6F7" d="M48.468 77.947a.363.363 0 0 1 0 .476.343.343 0 0 1-.472 0 .376.376 0 0 1 0-.505.363.363 0 0 1 .49.05m-.187 2.192.34-.614-7.282-4.119s-.419-.058-.524.2l7.466 4.533Z" opacity=".6"/>
  <path fill="#263238" d="M45.943 75.743c-.02.038.152.165.26.39.106.225.11.437.154.443.043.005.116-.238-.02-.508-.137-.271-.382-.364-.394-.325Zm-.979-.155c-.03.03.091.182.12.418.03.236-.032.413 0 .433.033.02.182-.172.142-.455-.04-.283-.24-.427-.262-.396Zm-1.014.669c.029.03.181-.123.217-.38.037-.255-.094-.438-.129-.418-.034.02 0 .192-.018.403-.018.21-.103.37-.07.395Z"/>
  <path fill="#F5F6F7" d="M53.74 70.12v16.316h1.11V68.822l-1.11 1.298Zm17.21-2.554h-1.08v18.872h1.08V67.566Zm-1.08 2.554H54.85v1.204h15.02V70.12Z"/>
  <path fill="#A26DF2" d="M70.79 64.15H55.531a.68.68 0 0 0-.68.681v2.053c0 .376.304.68.68.68h15.26a.68.68 0 0 0 .68-.68v-2.053a.68.68 0 0 0-.68-.68Z"/>
  <path fill="#263238" d="M70.23 56.052s2.258 4.009 1.924 6.81c-.334 2.8-.952 2.8-.952 2.8l-7.32-.403-1.052-8.802 1.785-1 5.614.595Z"/>
  <path fill="#455A64" d="m51.15 46.93 1.83 8.72 8.641.8 5.571-.383-2.018-1.931-2.344.5-.833-8.437-10.846.732Z"/>
  <path fill="#FFBE9D" d="M63.195 54.11c.252.697 1.441.042 1.441.042l-.081 1.242-.741.528s0 .334.488.363c.23.03.464.014.686-.05l.028.164a.388.388 0 0 0 .374.329.485.485 0 0 0 .23-.038s.52.376 1.01.103c.301-.178.523-.465.619-.802l.08-1.026.627-.435s.518-.957-.13-1.616a1.29 1.29 0 0 0-1.325-.29l-1.006.334a1.028 1.028 0 0 0-.715.19 7.654 7.654 0 0 1-.56.376c0 .005-1.078.441-1.025.586Z"/>
  <path fill="#EB996E" d="M65.531 55.137c.013 0 .031.08.047.209.03.172.03.348 0 .52a.559.559 0 0 1-.136.267.47.47 0 0 1-.21.13c-.144.035-.225-.024-.218-.032.007-.007.085.013.196-.032a.485.485 0 0 0 .278-.354 2.44 2.44 0 0 0 .025-.496c-.009-.13-.002-.21.018-.212Zm-.895-.985c.032.207.032.417 0 .623a2.09 2.09 0 0 1-.088.619 4.19 4.19 0 0 1 .081-1.242h.007Zm1.73 1.286a.614.614 0 0 1 .048.24c.024.205-.014.412-.11.595a.933.933 0 0 1-.47.379c-.145.056-.24.065-.243.053.068-.045.14-.083.216-.113.17-.081.313-.206.416-.363a1.16 1.16 0 0 0 .124-.545c.003-.156.005-.246.02-.246Z"/>
  <path fill="#263238" d="M67.733 54.894c.066-.158.145-.31.234-.454.081-.162.131-.338.148-.518a1.286 1.286 0 0 0-.49-1.156 1.467 1.467 0 0 0-.48-.241 3.554 3.554 0 0 0-.499-.08.364.364 0 0 1 .138-.022 1.422 1.422 0 0 1 .893.274 1.323 1.323 0 0 1 .525 1.233 1.442 1.442 0 0 1-.182.544 3.705 3.705 0 0 1-.207.316c-.045.073-.074.113-.08.104Z"/>
  <path fill="#F5F6F7" d="M57.393 51.023a.545.545 0 1 1-1.09 0 .545.545 0 0 1 1.09 0Z"/>
  <path fill="#263238" d="m58.452 60.586-.05.03a3.449 3.449 0 0 0-1.668 3.118l.545 11.8 5.299.533.17-10.674 2.203-.267-3.67-4.115a2.242 2.242 0 0 0-2.83-.425Z"/>
  <path fill="#263238" d="m48.413 70.765 7.064-14.172s1-1.469 2.401-1.401c1.402.067 10.138 2.868 10.138 2.868v7.138l-3.067-.068-6.938-.666-4.682 9.047-4.916-2.746Z"/>
  <path fill="#455A64" d="M65.277 65.138a.344.344 0 0 1-.056-.062l-.158-.181-.597-.726-2.148-2.661c-.519-.835-1.708-1.331-2.904-1.128-.62.1-1.195.38-1.656.806-.238.222-.43.488-.564.785a3.1 3.1 0 0 0-.236.967c-.03.404-.04.808-.027 1.213 0 .4 0 .797.01 1.183.015.777.028 1.525.04 2.238.031 1.425.073 2.71.113 3.787.04 1.077.082 1.944.107 2.554l.03.694v.181a.318.318 0 0 1 0 .062.3.3 0 0 1 0-.06c0-.045 0-.105-.015-.182-.013-.163-.028-.395-.048-.691-.038-.603-.088-1.474-.136-2.552a204.11 204.11 0 0 1-.134-3.789l-.045-2.238c0-.389-.005-.783-.013-1.184-.012-.408-.003-.816.027-1.223.027-.343.109-.68.243-.997.14-.307.34-.583.589-.813a3.268 3.268 0 0 1 1.704-.828c1.22-.205 2.443.307 2.975 1.176l2.124 2.674c.247.318.443.567.58.741l.148.194a.545.545 0 0 1 .047.06Z"/>
  <path fill="#455A64" d="M62.661 70.143c-.027 0-.047-1.485-.047-3.317 0-1.831.02-3.314.047-3.314.028 0 .048 1.485.048 3.314 0 1.83-.022 3.317-.048 3.317Zm7.029-11.121a.336.336 0 0 1-.1-.033l-.278-.11-1.02-.418a66.639 66.639 0 0 0-3.4-1.271 89.465 89.465 0 0 0-3.46-1.11l-1.058-.306-.287-.085a.347.347 0 0 1-.098-.037c.035.004.07.01.104.018l.292.07c.252.06.617.154 1.066.277.907.245 2.13.617 3.472 1.09 1.342.471 2.542.941 3.395 1.306.428.182.773.336 1.009.445l.27.129c.032.008.064.02.093.035Z"/>
  <path fill="#455A64" d="M69.903 57.491a4.976 4.976 0 0 1-.652-.025c-.4-.024-.953-.053-1.567-.067l-1.568-.031a4.467 4.467 0 0 1-.65-.035.59.59 0 0 1 .182-.018c.112 0 .276-.01.475-.014.403 0 .959-.013 1.572 0 .614.012 1.17.052 1.569.094.2.02.363.04.473.058a.726.726 0 0 1 .166.038ZM54.191 71.713c-.014 0-.201-.256-.557-.637a7.418 7.418 0 0 0-1.572-1.273 7.576 7.576 0 0 0-1.864-.797c-.503-.136-.824-.181-.822-.192a.89.89 0 0 1 .226.016c.09.008.178.022.265.04.104.02.222.038.347.073.3.071.595.164.882.278.35.141.69.309 1.015.5.323.198.63.42.919.663.233.2.453.416.657.646.09.097.161.193.227.275.057.067.11.139.16.214.046.06.086.125.117.194Zm8.63 2.678c0 .017-.294-.141-.78-.343a8.985 8.985 0 0 0-4.018-.653c-.524.036-.847.096-.85.078.073-.026.148-.044.224-.055.205-.04.413-.07.62-.088a8.146 8.146 0 0 1 4.05.657 5.7 5.7 0 0 1 .56.283c.07.033.134.074.194.121Z"/>
  <path fill="#263238" d="M28.507 77.613H18.006v1.443h10.501v-1.443Z"/>
  <path fill="#263238" d="M28.527 79.073h-10.54v-1.477h10.54v1.477Zm-10.503-.036H28.5v-1.409H18.024v1.409Z"/>
  <path fill="#263238" d="m18.98 78.576 1.51 7.457h5.595l1.462-6.976-8.567-.48Z"/>
  <path fill="#263238" d="m18.98 85.328.806 1.107h6.799l.962-1.107H18.98Zm3.892-6.535c-.021 0-.047-3.45-.06-7.717-.012-4.268 0-7.717.017-7.717.016 0 .047 3.45.058 7.717.01 4.268-.004 7.717-.015 7.717Zm2.331-8.653a.505.505 0 0 1-.029.08l-.094.224-.067.161-.071.196-.082.225c-.027.08-.049.168-.076.256a10.17 10.17 0 0 0-.294 1.288c-.082.532-.137 1.07-.164 1.608-.038.98-.01 1.96.084 2.937.034.374.067.677.093.886l.027.241a.369.369 0 0 1 0 .085.443.443 0 0 1-.02-.083c0-.062-.024-.142-.04-.238a18.357 18.357 0 0 1-.116-.886 19.317 19.317 0 0 1-.106-2.946 14.87 14.87 0 0 1 .17-1.617c.074-.436.178-.867.311-1.29.03-.09.053-.18.084-.255.03-.075.058-.154.087-.225l.075-.194c.027-.06.052-.113.076-.16l.105-.218c.03-.045.044-.074.047-.074Z"/>
  <path fill="#263238" d="M24.935 67.353a.74.74 0 0 1-.035.113l-.109.321c-.023.071-.05.15-.08.233-.029.083-.054.181-.085.28-.062.199-.132.426-.196.682l-.105.4c-.037.139-.064.284-.098.435-.073.301-.127.628-.195.97a29.094 29.094 0 0 0-.288 2.245c-.07.793-.095 1.565-.105 2.261-.011.698 0 1.324.036 1.85.009.263.025.501.04.71.014.209.025.389.038.536.013.147.02.254.025.337a.53.53 0 0 1 0 .118.774.774 0 0 1-.018-.116l-.04-.338a14.856 14.856 0 0 1-.05-.535c-.017-.209-.039-.447-.051-.71a28.948 28.948 0 0 1-.053-1.852 26.456 26.456 0 0 1 .396-4.519c.069-.342.125-.668.201-.97l.102-.437c.032-.14.076-.273.11-.4.068-.256.142-.483.207-.68l.091-.278c.028-.085.06-.162.087-.23l.122-.318a.493.493 0 0 1 .053-.108ZM22.199 79.4a.133.133 0 0 1 0-.043c0-.03 0-.069-.01-.118 0-.11-.019-.263-.032-.457l-.105-1.683c-.09-1.421-.223-3.383-.461-5.542a71.3 71.3 0 0 0-.412-3.033c-.078-.465-.149-.908-.23-1.316-.082-.409-.153-.793-.226-1.142-.072-.349-.147-.66-.209-.937-.061-.276-.12-.514-.168-.706a25.975 25.975 0 0 1-.11-.445l-.027-.116v-.04a.23.23 0 0 1 .013.038l.035.115.121.44c.051.188.118.43.182.703.063.275.147.589.22.937.072.349.16.726.235 1.142.077.416.157.851.238 1.316.15.93.294 1.955.416 3.035.24 2.16.363 4.126.441 5.547.038.712.065 1.288.082 1.685 0 .194.012.349.016.458v.12a.15.15 0 0 1-.009.041Z"/>
  <path fill="#A26DF2" d="M22.778 65.02c-.047-.488-.545-.858-1.033-.864a1.634 1.634 0 0 0-1.25.68 3.903 3.903 0 0 0-.602 1.335 9.06 9.06 0 0 0-.363 3.556c.142 1.193.625 2.36 1.48 3.206a.468.468 0 0 0 .779.067 7.954 7.954 0 0 0 2.581-6.05 2.46 2.46 0 0 0-.323-1.303c-.25-.378-.835-.777-1.27-.627m-3.671-3.92-.692 1.255c-.016.029-.038.062-.07.065-.033.004-.064-.03-.084-.062l-1.83-2.81.421-.238 2.255 1.79Z"/>
  <path fill="#000" d="m19.106 61.1-.692 1.255c-.016.029-.038.062-.07.065-.033.004-.064-.03-.084-.062l-1.83-2.81.421-.238 2.255 1.79Z" opacity=".2"/>
  <path fill="#A26DF2" d="m22.82 63.36-6.245-3.685a.216.216 0 0 1-.04-.403 4.3 4.3 0 0 1 3.337-1.31 3.813 3.813 0 0 1 3.017 1.877c.603 1.076.623 2.5-.07 3.521Z"/>
  <path fill="#263238" d="M17.476 58.5a2.354 2.354 0 0 1 .318-.022 5.037 5.037 0 0 1 3.87 1.77c.485.57.84 1.236 1.038 1.956.077.28.129.566.154.855.011.102 0 .182.013.236a.307.307 0 0 1 0 .084l-.038-.316a5.127 5.127 0 0 0-4.175-4.464 5.383 5.383 0 0 0-.857-.09c-.21-.006-.323-.003-.323-.008Z"/>
  <path fill="#263238" d="M21.974 60.816c-.1.06-.206.108-.316.144-.198.078-.476.181-.788.278a12.45 12.45 0 0 1-.802.228 1.597 1.597 0 0 1-.341.066c.104-.05.214-.09.326-.117l.795-.248.794-.256c.107-.042.218-.074.332-.095Zm-.982-2.64c.055.228.079.462.072.697.02.233.006.469-.038.699a4.378 4.378 0 0 1-.036-.697 4.258 4.258 0 0 1 .002-.7Zm-4.473 1.438c.147-.066.298-.12.454-.16a20.34 20.34 0 0 1 1.118-.305c.44-.107.844-.182 1.136-.238a3.05 3.05 0 0 1 .476-.065 3.12 3.12 0 0 1-.465.116c-.29.065-.69.154-1.129.26-.44.105-.835.208-1.122.283-.153.048-.31.084-.468.109Z"/>
  <path fill="#A26DF2" d="M19.94 63.862c-.544-.406-1.105-.488-1.778-.46a5.448 5.448 0 0 0-1.946.502c-1.053.461-2.042 1.14-2.672 2.102-.63.962-.848 2.237-.376 3.284.036.11.112.203.212.26a.506.506 0 0 0 .352-.028c1.199-.39 2.404-.784 3.506-1.396 1.102-.611 2.102-1.463 2.694-2.576.151-.262.248-.552.283-.853a1.064 1.064 0 0 0-.274-.835Z"/>
  <path fill="#263238" d="M19.952 63.736a.41.41 0 0 1-.087.037l-.25.085-.182.062-.213.081c-.15.062-.326.124-.512.213l-.294.134c-.101.047-.203.105-.312.16-.216.107-.436.243-.67.381a11.27 11.27 0 0 0-1.417 1.051c-.44.392-.85.817-1.224 1.27-.167.215-.33.415-.463.618-.069.1-.14.192-.198.287l-.17.274c-.113.172-.197.34-.276.483-.04.07-.078.136-.11.2l-.083.172-.118.238a.366.366 0 0 1-.045.08.495.495 0 0 1 .033-.086c.025-.063.061-.145.103-.245.024-.054.05-.112.078-.181.027-.07.067-.131.104-.204.078-.145.157-.314.268-.488l.167-.28c.058-.096.127-.19.194-.292.133-.203.296-.406.461-.624.38-.458.793-.885 1.239-1.278.447-.39.926-.743 1.43-1.055.236-.136.46-.272.679-.377.109-.053.21-.111.314-.157l.298-.13c.181-.087.363-.146.519-.204l.214-.076.181-.054.256-.073a.51.51 0 0 1 .086-.022Zm-4.195 2.272c-.428.164-.864.304-1.307.421-.436.14-.88.256-1.327.349a12.54 12.54 0 0 1 1.305-.422c.436-.14.88-.256 1.329-.348Z"/>
  <path fill="#263238" d="M15.702 68.89a2.043 2.043 0 0 1-.029-.406V67.5c0-.383.031-.726.051-.982a1.98 1.98 0 0 1 .053-.405 2.4 2.4 0 0 1 0 .407c0 .276-.018.612-.03.982l-.025.982c.006.136 0 .272-.02.407Zm2.468-1.257c-.02 0-.085-.706-.146-1.58-.062-.873-.093-1.582-.071-1.582.022 0 .085.704.147 1.577.062.873.093 1.583.07 1.585Z"/>
  <path fill="#263238" d="M15.098 64.402c.139-.017.28-.022.419-.013a41.545 41.545 0 0 1 2.015.067c.14 0 .28.014.417.04a2.256 2.256 0 0 1-.419.013c-.258 0-.613-.009-1.007-.023a68.54 68.54 0 0 1-1.01-.044 2.18 2.18 0 0 1-.415-.04Zm6.172 8.868a.45.45 0 0 1 0-.085c0-.065 0-.145-.011-.245 0-.214-.011-.523 0-.907a19.934 19.934 0 0 1 .298-2.972c.101-.581.226-1.115.363-1.603.136-.488.263-.92.388-1.282.125-.36.232-.65.316-.846l.094-.226a.453.453 0 0 1 .038-.077.394.394 0 0 1-.023.082l-.082.232c-.074.2-.181.49-.292.852-.11.361-.247.797-.374 1.283a21.777 21.777 0 0 0-.349 1.598c-.103.57-.181 1.12-.223 1.62-.042.502-.08.954-.094 1.333-.015.38-.02.688-.02.908v.245a.305.305 0 0 1-.03.09Z"/>
  <path fill="#263238" d="M21.602 69.012c-.073.1-.156.19-.249.272a14.93 14.93 0 0 1-1.341 1.174 1.688 1.688 0 0 1-.303.213c.081-.093.172-.177.27-.252l.672-.583.666-.59a1.83 1.83 0 0 1 .285-.234Zm1.973 1.59a3.269 3.269 0 0 1-.265-.363l-.617-.907-.63-.892a3.24 3.24 0 0 1-.252-.376c.109.106.208.221.295.345.182.22.405.53.648.88.244.351.454.676.601.908.086.128.16.264.22.405Zm-1.035-4.999c.011.016-.644.459-1.466.985-.823.527-1.495.943-1.507.926-.013-.016.646-.46 1.467-.987.82-.529 1.495-.95 1.506-.924Zm1.852 1.997a12.22 12.22 0 0 1-.993-.908c-.33-.307-.645-.63-.94-.971.347.287.678.593.993.916.33.304.644.625.94.963Z"/>
  <path fill="#A26DF2" d="m24.856 67.552.565-.045c.4-.035.788-.153 1.138-.349.17-.1.348-.19.53-.267.697-.28 1.474-.23 2.224-.267a9.212 9.212 0 0 0 3.538-.907.348.348 0 0 0 .154-.14c.116-.21-.098-.398-.283-.512-.95-.586-1.917-1.178-2.993-1.468-1.077-.29-2.3-.242-3.219.39-1.078.742-1.47 2.267-1.654 3.563"/>
  <path fill="#263238" d="M33.018 65.511a.611.611 0 0 1-.094-.043l-.269-.142c-.23-.121-.565-.301-.986-.502a9.119 9.119 0 0 0-1.526-.589 5.06 5.06 0 0 0-1.98-.161 3.396 3.396 0 0 0-1.805.775 4.062 4.062 0 0 0-.94 1.32c-.198.422-.32.782-.409 1.027l-.1.285a.464.464 0 0 1-.04.098.748.748 0 0 1 .026-.103l.087-.289a9.11 9.11 0 0 1 .388-1.04c.217-.51.538-.97.942-1.349A3.429 3.429 0 0 1 28.154 64a5.05 5.05 0 0 1 2.008.17 8.93 8.93 0 0 1 1.532.607c.42.209.75.396.977.525l.261.152a.73.73 0 0 1 .087.058Z"/>
  <path fill="#263238" d="M31.666 66.238c-.013.017-.75-.46-1.647-1.065s-1.615-1.11-1.605-1.128c.011-.018.748.46 1.647 1.066.898.606 1.616 1.11 1.605 1.127Zm-.708-2.269c-.184.071-.379.11-.576.116-.195.03-.394.027-.588-.009.191-.039.386-.06.581-.065.193-.03.388-.044.583-.042Zm-3.306-.586a3.913 3.913 0 0 1-.545.93 3.79 3.79 0 0 1 .545-.93Zm.666 3.289a2.101 2.101 0 0 1-.363-.192c-.212-.129-.499-.32-.808-.545a24.87 24.87 0 0 1-.773-.588 1.972 1.972 0 0 1-.305-.263c.119.064.232.138.338.221l.784.57c.307.224.588.418.793.558.118.07.23.15.334.24Z"/>
  <path fill="#A26DF2" d="M25.686 69.947c-.544-.142-1.178.381-1.289.926-.11.544.095 1.102.334 1.605a8.169 8.169 0 0 0 2.222 2.904c.96.79 2.158 1.23 3.4 1.25-.229-1.054.06-2.158-.067-3.229a4.198 4.198 0 0 0-3.721-3.685c-.343-.038-.74-.09-.879.225"/>
  <path fill="#263238" d="M30.353 76.637s-.027 0-.076-.034a1.3 1.3 0 0 1-.201-.137 2.077 2.077 0 0 1-.532-.71c-.086-.165-.182-.346-.274-.544-.093-.198-.182-.414-.29-.639a5.986 5.986 0 0 0-.355-.684 5.297 5.297 0 0 0-.488-.661c-.363-.432-.763-.806-1.106-1.164a7.648 7.648 0 0 1-.842-1.01 3.74 3.74 0 0 1-.412-.787 3.192 3.192 0 0 1-.07-.23.398.398 0 0 1-.019-.084s.038.11.116.303c.116.27.26.528.429.768.255.354.54.686.85.993.342.352.74.726 1.112 1.162a5.357 5.357 0 0 1 .857 1.369l.283.642c.09.198.181.381.265.545.117.269.289.51.503.711.149.135.254.184.25.191Z"/>
  <path fill="#263238" d="M27.572 75.77a1.63 1.63 0 0 1 .051-.363 10.677 10.677 0 0 1 .476-1.694c.036-.117.085-.229.147-.334-.02.12-.052.237-.096.35a30.172 30.172 0 0 0-.476 1.688 1.805 1.805 0 0 1-.102.353Zm2.68-2.6a2.252 2.252 0 0 1-.38-.087c-.232-.06-.544-.144-.907-.223-.363-.08-.681-.144-.908-.182a2.258 2.258 0 0 1-.38-.083c.13-.004.26.006.387.03a11.16 11.16 0 0 1 1.832.412c.122.033.241.078.355.133Zm-4.675.753c.007-.141.026-.281.058-.419a14.997 14.997 0 0 1 .515-1.971c.04-.136.091-.269.155-.394a2.776 2.776 0 0 1-.103.408c-.07.25-.169.597-.27.98-.102.383-.182.727-.244.988a2.467 2.467 0 0 1-.11.408Zm3.44-3.011c0 .02-.673-.035-1.497-.122-.5-.04-.999-.105-1.493-.196 0-.02.674.035 1.5.122s1.492.176 1.49.196Z"/>
  <path fill="#455A64" d="M28.525 79.05c0 .022-2.36.038-5.264.038-2.905 0-5.264-.016-5.264-.038s2.36-.036 5.264-.036c2.904 0 5.264.023 5.264.036Zm-1.641 3.035c0 .022-1.588.038-3.549.038-1.96 0-3.55-.016-3.55-.038s1.59-.036 3.55-.036c1.96 0 3.55.016 3.55.036Zm.062.435c0 .02-1.588.037-3.549.037-1.96 0-3.55-.017-3.55-.037 0-.02 1.59-.038 3.55-.038 1.96 0 3.549.017 3.549.038Zm0-.794c0 .022-1.643.038-3.67.038-2.028 0-3.673-.016-3.673-.038s1.643-.037 3.672-.037c2.03 0 3.67.017 3.67.037Z"/>
</svg>
