<svg xmlns="http://www.w3.org/2000/svg" width="9" height="10" fill="none" viewBox="0 0 9 10">
  <g clip-path="url(#a)">
    <path stroke="#251838" stroke-linecap="round" stroke-linejoin="round" stroke-width=".622" d="M1.23 5.683V8.48a.31.31 0 0 0 .31.31h6.217a.311.311 0 0 0 .311-.31V5.683m-2.798 0V8.79M1.23 6.615h4.04M.608 2.886 1.54.71h6.217l.932 2.176H.608Zm2.661 0v.621a1.243 1.243 0 0 1-1.244 1.244h-.174A1.243 1.243 0 0 1 .608 3.507v-.621"/>
    <path stroke="#251838" stroke-linecap="round" stroke-linejoin="round" stroke-width=".622" d="M6.047 2.886v.621a1.243 1.243 0 0 1-1.243 1.244h-.31A1.243 1.243 0 0 1 3.25 3.507v-.621m5.44 0v.621a1.243 1.243 0 0 1-1.244 1.244h-.155a1.243 1.243 0 0 1-1.243-1.244v-.621"/>
  </g>
  <defs>
    <clipPath id="a">
      <path fill="#fff" d="M.297.398H9v8.703H.297z"/>
    </clipPath>
  </defs>
</svg>
