<svg xmlns="http://www.w3.org/2000/svg" width="86" height="91" fill="none" viewBox="0 0 86 91">
  <path fill="#BA8CFF" fill-opacity=".91" d="M34.702 10.678s9.255-1.719 17.676 0c5.148 1.05 15.998 3.543 18.558 9.192 2.56 5.65-9.767 10.469-3.71 16.2 2.612 2.471 15.151 5.733 14.446 21.768-.705 16.036-19.077 25.812-44.608 25.376-25.532-.436-40.265-21.708-30.39-32.185 9.874-10.477 14.124-10.507 9.648-19.038-4.476-8.53 1.739-18.871 18.38-21.313Z"/>
  <path fill="#F5F6F7" d="M34.702 10.678s9.255-1.719 17.676 0c5.148 1.05 15.998 3.543 18.558 9.192 2.56 5.65-9.767 10.469-3.71 16.2 2.612 2.471 15.151 5.733 14.446 21.768-.705 16.036-19.077 25.812-44.608 25.376-25.532-.436-40.265-21.708-30.39-32.185 9.874-10.477 14.124-10.507 9.648-19.038-4.476-8.53 1.739-18.871 18.38-21.313Z" opacity=".7"/>
  <path fill="#F5F6F7" d="M63.26 70.433v7.033l4.07 2.996 7.365-2.134 1.04-6.168.02-.123-4.723-3.3-7.773 1.696Z"/>
  <mask id="a" width="13" height="13" x="63" y="68" maskUnits="userSpaceOnUse" style="mask-type:luminance">
    <path fill="#fff" d="M63.26 70.433v7.033l4.07 2.996 7.365-2.134 1.04-6.168.02-.123-4.723-3.3-7.773 1.696Z"/>
  </mask>
  <g mask="url(#a)">
    <path fill="#BA8CFF" fill-opacity=".91" d="M63.259 70.44v7.027l4.07 2.996 7.366-2.134 1.04-6.168-7.787 1.853-4.689-3.575Z" opacity=".4"/>
  </g>
  <mask id="b" width="13" height="13" x="63" y="68" maskUnits="userSpaceOnUse" style="mask-type:luminance">
    <path fill="#fff" d="M63.26 70.433v7.033l4.07 2.996 7.365-2.134 1.04-6.168.02-.123-4.723-3.3-7.773 1.696Z"/>
  </mask>
  <g mask="url(#b)">
    <path fill="#BA8CFF" fill-opacity=".91" d="m67.948 74.014-.62 6.45-4.069-2.997v-7.028l4.69 3.576Z" opacity=".4"/>
  </g>
  <mask id="c" width="13" height="13" x="63" y="68" maskUnits="userSpaceOnUse" style="mask-type:luminance">
    <path fill="#fff" d="M63.26 70.433v7.033l4.07 2.996 7.365-2.134 1.04-6.168.02-.123-4.723-3.3-7.773 1.696Z"/>
  </mask>
  <g mask="url(#c)">
    <path fill="#000" fill-opacity=".7" d="m65.36 72.037 3.528-.96-1.953-1.446 1.013-.25 1.94 1.412 2.932-.807.877.614-3 .772 2.123 1.52-.96 6.258-.996.288.636-6.243-1.922-1.4-3.411.858-.63 6.49-.76-.559.583-6.547Z" opacity=".4"/>
  </g>
  <path stroke="#2E2638" stroke-linecap="round" stroke-linejoin="round" stroke-miterlimit="10" stroke-width=".227" d="M63.26 70.433v7.033l4.07 2.996 7.365-2.134 1.04-6.168.02-.123-4.723-3.3-7.773 1.696Z"/>
  <path stroke="#2E2638" stroke-linecap="round" stroke-linejoin="round" stroke-miterlimit="10" stroke-width=".227" d="m63.259 70.432 4.69 3.581 7.04-1.622m-7.041 1.623-.381 5.023"/>
  <path stroke="#2E2638" stroke-linecap="round" stroke-linejoin="round" stroke-miterlimit="10" stroke-width=".227" d="m70.864 79.438.637-6.243-1.923-1.4-3.411.858-.63 5.889"/>
  <path stroke="#2E2638" stroke-linecap="round" stroke-linejoin="round" stroke-miterlimit="10" stroke-width=".227" d="m66.758 69.668 2.13 1.409-3.528.96-.426 5.069m3.014-7.726 1.81 1.45 3.062-.844m.762.532-2.944.98 2.182 1.392-.866 5.651"/>
  <path fill="#F5F6F7" d="M74.293 72.222c-1.36-.534-3.656-.965-3.656-.965s3.108-.145 3.29-.96c.184-.815-.584-1.203-1.498-1.242-.914-.039-2.815 1.774-2.815 1.774s-2.65-1.56-3.29-1.25c-.64.31-.914 1.145-.44 1.955.476.81 3.743.006 3.743.006a6.317 6.317 0 0 1-.415 2.473l1.023-.205c0-1.125-.036-2.368-.036-2.368 1.791.43 3.71 1.66 3.71 1.66l.384-.878Zm-7.494-.897c-.713-.31-.274-1.28.112-1.165.387.115 2.473 1.06 2.473 1.06s-1.872.415-2.585.105Zm5.8-1.494c.635.02 1.036.815-2.4 1.125 0 0 1.767-1.144 2.4-1.125Z"/>
  <mask id="d" width="10" height="6" x="65" y="69" maskUnits="userSpaceOnUse" style="mask-type:luminance">
    <path fill="#fff" d="M74.293 72.222c-1.36-.534-3.656-.965-3.656-.965s3.108-.145 3.29-.96c.184-.815-.584-1.203-1.498-1.242-.914-.039-2.815 1.774-2.815 1.774s-2.65-1.56-3.29-1.25c-.64.31-.914 1.145-.44 1.955.476.81 3.743.006 3.743.006a6.317 6.317 0 0 1-.415 2.473l1.023-.205c0-1.125-.036-2.368-.036-2.368 1.791.43 3.71 1.66 3.71 1.66l.384-.878Zm-7.494-.897c-.713-.31-.274-1.28.112-1.165.387.115 2.473 1.06 2.473 1.06s-1.872.415-2.585.105Zm5.8-1.494c.635.02 1.036.815-2.4 1.125 0 0 1.767-1.144 2.4-1.125Z"/>
  </mask>
  <g mask="url(#d)">
    <path fill="#000" fill-opacity=".7" d="M74.293 72.222c-1.36-.534-3.656-.965-3.656-.965s3.108-.145 3.29-.96c.184-.815-.584-1.203-1.498-1.242-.914-.039-2.815 1.774-2.815 1.774s-2.65-1.56-3.29-1.25c-.64.31-.914 1.145-.44 1.955.476.81 3.743.006 3.743.006a6.317 6.317 0 0 1-.415 2.473l1.023-.205c0-1.125-.036-2.368-.036-2.368 1.791.43 3.71 1.66 3.71 1.66l.384-.878Zm-7.494-.897c-.713-.31-.274-1.28.112-1.165.387.115 2.473 1.06 2.473 1.06s-1.872.415-2.585.105Zm5.8-1.494c.635.02 1.036.815-2.4 1.125 0 0 1.767-1.144 2.4-1.125Z" opacity=".3"/>
  </g>
  <path stroke="#2E2638" stroke-linecap="round" stroke-linejoin="round" stroke-miterlimit="10" stroke-width=".227" d="M74.293 72.222c-1.36-.534-3.656-.965-3.656-.965s3.108-.145 3.29-.96c.184-.815-.584-1.203-1.498-1.242-.914-.039-2.815 1.774-2.815 1.774s-2.65-1.56-3.29-1.25c-.64.31-.914 1.145-.44 1.955.476.81 3.743.006 3.743.006a6.317 6.317 0 0 1-.415 2.473l1.023-.205c0-1.125-.036-2.368-.036-2.368 1.791.43 3.71 1.66 3.71 1.66l.384-.878Zm-7.494-.897c-.713-.31-.274-1.28.112-1.165.387.115 2.473 1.06 2.473 1.06s-1.872.415-2.585.105Zm5.8-1.494c.635.02 1.036.815-2.4 1.125 0 0 1.767-1.144 2.4-1.125Z"/>
  <path fill="#F5F6F7" d="M58.964 67.344v8.02l-4.641 3.417-8.4-2.434-1.185-7.034-.024-.139 5.387-3.764 8.863 1.934Z"/>
  <mask id="e" width="15" height="14" x="44" y="65" maskUnits="userSpaceOnUse" style="mask-type:luminance">
    <path fill="#fff" d="M58.964 67.344v8.02l-4.641 3.417-8.4-2.434-1.185-7.034-.024-.139 5.387-3.764 8.863 1.934Z"/>
  </mask>
  <g mask="url(#e)">
    <path fill="#BA8CFF" fill-opacity=".91" d="M58.964 67.352v8.013l-4.64 3.416-8.4-2.434-1.186-7.033 8.879 2.114 5.347-4.076Z" opacity=".4"/>
  </g>
  <mask id="f" width="15" height="14" x="44" y="65" maskUnits="userSpaceOnUse" style="mask-type:luminance">
    <path fill="#fff" d="M58.964 67.344v8.02l-4.641 3.417-8.4-2.434-1.185-7.034-.024-.139 5.387-3.764 8.863 1.934Z"/>
  </mask>
  <g mask="url(#f)">
    <path fill="#BA8CFF" fill-opacity=".91" d="m53.617 71.428.706 7.353 4.64-3.416v-8.013l-5.346 4.076Z" opacity=".4"/>
  </g>
  <mask id="g" width="15" height="14" x="44" y="65" maskUnits="userSpaceOnUse" style="mask-type:luminance">
    <path fill="#fff" d="M58.964 67.344v8.02l-4.641 3.417-8.4-2.434-1.185-7.034-.024-.139 5.387-3.764 8.863 1.934Z"/>
  </mask>
  <g mask="url(#g)">
    <path fill="#000" fill-opacity=".7" d="m56.567 69.174-4.022-1.095 2.227-1.65-1.155-.285-2.212 1.611-3.343-.92-1.001.7 3.422.88-2.421 1.732 1.095 7.137 1.135.329-.726-7.12 2.192-1.595 3.89.978.719 7.4.865-.637-.665-7.465Z" opacity=".4"/>
  </g>
  <path stroke="#2E2638" stroke-linecap="round" stroke-linejoin="round" stroke-miterlimit="10" stroke-width=".227" d="M58.964 67.344v8.02l-4.641 3.417-8.4-2.434-1.185-7.034-.024-.139 5.387-3.764 8.863 1.934Z"/>
  <path stroke="#2E2638" stroke-linecap="round" stroke-linejoin="round" stroke-miterlimit="10" stroke-width=".227" d="m58.964 67.344-5.347 4.084-8.03-1.85m8.03 1.848.435 5.728"/>
  <path stroke="#2E2638" stroke-linecap="round" stroke-linejoin="round" stroke-miterlimit="10" stroke-width=".227" d="m50.291 77.612-.725-7.12 2.192-1.596 3.89.979.717 6.714"/>
  <path stroke="#2E2638" stroke-linecap="round" stroke-linejoin="round" stroke-miterlimit="10" stroke-width=".227" d="m54.974 66.473-2.43 1.606 4.023 1.095.486 5.78m-3.436-8.81-2.064 1.653-3.491-.962m-.869.606 3.357 1.118-2.488 1.588.987 6.444"/>
  <path fill="#F5F6F7" d="M46.819 70.387s2.189-1.402 4.231-1.894c0 0-.041 1.417-.041 2.7l1.167.234s-.536-1.255-.473-2.82c0 0 3.724.917 4.266-.007.542-.923.23-1.875-.5-2.229-.73-.354-3.752 1.426-3.752 1.426s-2.168-2.067-3.21-2.023c-1.042.044-1.917.487-1.709 1.416.209.929 3.752 1.095 3.752 1.095s-2.617.492-4.169 1.1l.438 1.002Zm5.16-2.145s2.379-1.077 2.82-1.208c.44-.132.941.974.128 1.328-.813.354-2.947-.12-2.947-.12Zm-.929-.3c-3.918-.354-3.46-1.261-2.737-1.283.723-.022 2.737 1.283 2.737 1.283Z"/>
  <mask id="h" width="11" height="7" x="46" y="65" maskUnits="userSpaceOnUse" style="mask-type:luminance">
    <path fill="#fff" d="M46.819 70.387s2.189-1.402 4.231-1.894c0 0-.041 1.417-.041 2.7l1.167.234s-.536-1.255-.473-2.82c0 0 3.724.917 4.266-.007.542-.923.23-1.875-.5-2.229-.73-.354-3.752 1.426-3.752 1.426s-2.168-2.067-3.21-2.023c-1.042.044-1.917.487-1.709 1.416.209.929 3.752 1.095 3.752 1.095s-2.617.492-4.169 1.1l.438 1.002Zm5.16-2.145s2.379-1.077 2.82-1.208c.44-.132.941.974.128 1.328-.813.354-2.947-.12-2.947-.12Zm-.929-.3c-3.918-.354-3.46-1.261-2.737-1.283.723-.022 2.737 1.283 2.737 1.283Z"/>
  </mask>
  <g mask="url(#h)">
    <path fill="#000" fill-opacity=".7" d="M46.819 70.387s2.189-1.402 4.231-1.894c0 0-.041 1.417-.041 2.7l1.167.234s-.536-1.255-.473-2.82c0 0 3.724.917 4.266-.007.542-.923.23-1.875-.5-2.229-.73-.354-3.752 1.426-3.752 1.426s-2.168-2.067-3.21-2.023c-1.042.044-1.917.487-1.709 1.416.209.929 3.752 1.095 3.752 1.095s-2.617.492-4.169 1.1l.438 1.002Zm5.16-2.145s2.379-1.077 2.82-1.208c.44-.132.941.974.128 1.328-.813.354-2.947-.12-2.947-.12Zm-.929-.3c-3.918-.354-3.46-1.261-2.737-1.283.723-.022 2.737 1.283 2.737 1.283Z" opacity=".3"/>
  </g>
  <path stroke="#2E2638" stroke-linecap="round" stroke-linejoin="round" stroke-miterlimit="10" stroke-width=".227" d="M46.819 70.387s2.189-1.402 4.231-1.894c0 0-.041 1.417-.041 2.7l1.167.234s-.536-1.255-.473-2.82c0 0 3.724.917 4.266-.007.542-.923.23-1.875-.5-2.229-.73-.354-3.752 1.426-3.752 1.426s-2.168-2.067-3.21-2.023c-1.042.044-1.917.487-1.709 1.416.209.929 3.752 1.095 3.752 1.095s-2.617.492-4.169 1.1l.438 1.002Zm5.16-2.145s2.379-1.077 2.82-1.208c.44-.132.941.974.128 1.328-.813.354-2.947-.12-2.947-.12Zm-.929-.3c-3.918-.354-3.46-1.261-2.737-1.283.723-.022 2.737 1.283 2.737 1.283Z"/>
  <path fill="#F5F6F7" d="M27.521 71.261v8.599l4.976 3.663 9.005-2.61 1.271-7.54.026-.15-5.776-4.035-9.502 2.073Z"/>
  <mask id="i" width="16" height="15" x="27" y="69" maskUnits="userSpaceOnUse" style="mask-type:luminance">
    <path fill="#fff" d="M27.521 71.261v8.599l4.976 3.663 9.005-2.61 1.271-7.54.026-.15-5.776-4.035-9.502 2.073Z"/>
  </mask>
  <g mask="url(#i)">
    <path fill="#BA8CFF" fill-opacity=".91" d="M27.521 71.268v8.59l4.976 3.664 9.005-2.61 1.271-7.54-9.52 2.266-5.732-4.37Z" opacity=".4"/>
  </g>
  <mask id="j" width="16" height="15" x="27" y="69" maskUnits="userSpaceOnUse" style="mask-type:luminance">
    <path fill="#fff" d="M27.521 71.261v8.599l4.976 3.663 9.005-2.61 1.271-7.54.026-.15-5.776-4.035-9.502 2.073Z"/>
  </mask>
  <g mask="url(#j)">
    <path fill="#BA8CFF" fill-opacity=".91" d="m33.254 75.638-.757 7.884-4.976-3.663v-8.591l5.733 4.37Z" opacity=".4"/>
  </g>
  <mask id="k" width="16" height="15" x="27" y="69" maskUnits="userSpaceOnUse" style="mask-type:luminance">
    <path fill="#fff" d="M27.521 71.261v8.599l4.976 3.663 9.005-2.61 1.271-7.54.026-.15-5.776-4.035-9.502 2.073Z"/>
  </mask>
  <g mask="url(#k)">
    <path fill="#000" fill-opacity=".7" d="m30.09 73.222 4.313-1.173-2.388-1.77 1.239-.304 2.372 1.726 3.584-.987 1.072.75-3.668.944 2.596 1.858-1.175 7.651-1.216.353.778-7.632-2.35-1.711-4.17 1.048-.772 7.934-.928-.683.713-8.004Z" opacity=".4"/>
  </g>
  <path stroke="#2E2638" stroke-linecap="round" stroke-linejoin="round" stroke-miterlimit="10" stroke-width=".227" d="M27.521 71.261v8.599l4.976 3.663 9.005-2.61 1.271-7.54.026-.15-5.776-4.035-9.502 2.073Z"/>
  <path stroke="#2E2638" stroke-linecap="round" stroke-linejoin="round" stroke-miterlimit="10" stroke-width=".227" d="m27.52 71.26 5.733 4.378 8.609-1.983m-8.609 1.984-.466 6.141"/>
  <path stroke="#2E2638" stroke-linecap="round" stroke-linejoin="round" stroke-miterlimit="10" stroke-width=".227" d="m36.819 82.27.778-7.633-2.35-1.711-4.17 1.049-.77 7.199"/>
  <path stroke="#2E2638" stroke-linecap="round" stroke-linejoin="round" stroke-miterlimit="10" stroke-width=".227" d="m31.799 70.326 2.604 1.722-4.313 1.174-.52 6.197m3.683-9.444 2.214 1.771 3.742-1.032m.932.651-3.6 1.198 2.669 1.703-1.06 6.908"/>
  <path fill="#F5F6F7" d="M41.011 73.45c-1.664-.652-4.47-1.18-4.47-1.18s3.8-.177 4.023-1.173c.224-.996-.715-1.47-1.832-1.518-1.118-.047-3.442 2.168-3.442 2.168s-3.24-1.907-4.022-1.528c-.783.38-1.118 1.4-.537 2.39.581.99 4.575.007 4.575.007.067 1.679-.508 3.024-.508 3.024l1.252-.25c0-1.376-.045-2.896-.045-2.896 2.19.527 4.537 2.03 4.537 2.03l.47-1.073Zm-9.162-1.096c-.872-.38-.336-1.566.137-1.424.473.14 3.023 1.295 3.023 1.295s-2.289.508-3.16.129Zm7.091-1.826c.775.023 1.267.996-2.935 1.375 0 0 2.16-1.4 2.935-1.376Z"/>
  <mask id="l" width="12" height="7" x="30" y="69" maskUnits="userSpaceOnUse" style="mask-type:luminance">
    <path fill="#fff" d="M41.011 73.45c-1.664-.652-4.47-1.18-4.47-1.18s3.8-.177 4.023-1.173c.224-.996-.715-1.47-1.832-1.518-1.118-.047-3.442 2.168-3.442 2.168s-3.24-1.907-4.022-1.528c-.783.38-1.118 1.4-.537 2.39.581.99 4.575.007 4.575.007.067 1.679-.508 3.024-.508 3.024l1.252-.25c0-1.376-.045-2.896-.045-2.896 2.19.527 4.537 2.03 4.537 2.03l.47-1.073Zm-9.162-1.096c-.872-.38-.336-1.566.137-1.424.473.14 3.023 1.295 3.023 1.295s-2.289.508-3.16.129Zm7.091-1.826c.775.023 1.267.996-2.935 1.375 0 0 2.16-1.4 2.935-1.376Z"/>
  </mask>
  <g mask="url(#l)">
    <path fill="#000" fill-opacity=".7" d="M41.011 73.45c-1.664-.652-4.47-1.18-4.47-1.18s3.8-.177 4.023-1.173c.224-.996-.715-1.47-1.832-1.518-1.118-.047-3.442 2.168-3.442 2.168s-3.24-1.907-4.022-1.528c-.783.38-1.118 1.4-.537 2.39.581.99 4.575.007 4.575.007.067 1.679-.508 3.024-.508 3.024l1.252-.25c0-1.376-.045-2.896-.045-2.896 2.19.527 4.537 2.03 4.537 2.03l.47-1.073Zm-9.162-1.096c-.872-.38-.336-1.566.137-1.424.473.14 3.023 1.295 3.023 1.295s-2.289.508-3.16.129Zm7.091-1.826c.775.023 1.267.996-2.935 1.375 0 0 2.16-1.4 2.935-1.376Z" opacity=".3"/>
  </g>
  <path stroke="#2E2638" stroke-linecap="round" stroke-linejoin="round" stroke-miterlimit="10" stroke-width=".227" d="M41.011 73.45c-1.664-.652-4.47-1.18-4.47-1.18s3.8-.177 4.023-1.173c.224-.996-.715-1.47-1.832-1.518-1.118-.047-3.442 2.168-3.442 2.168s-3.24-1.907-4.022-1.528c-.783.38-1.118 1.4-.537 2.39.581.99 4.575.007 4.575.007.067 1.679-.508 3.024-.508 3.024l1.252-.25c0-1.376-.045-2.896-.045-2.896 2.19.527 4.537 2.03 4.537 2.03l.47-1.073Zm-9.162-1.096c-.872-.38-.336-1.566.137-1.424.473.14 3.023 1.295 3.023 1.295s-2.289.508-3.16.129Zm7.091-1.826c.775.023 1.267.996-2.935 1.375 0 0 2.16-1.4 2.935-1.376Z"/>
  <path fill="#F5F6F7" d="m41.813 82.775-.425-5.81 9.088-1.822 8.369.381.144 6.7-7.931 2.174-9.245-1.623Z"/>
  <mask id="m" width="18" height="10" x="41" y="75" maskUnits="userSpaceOnUse" style="mask-type:luminance">
    <path fill="#fff" d="m41.813 82.775-.425-5.81 9.088-1.822 8.369.381.144 6.7-7.931 2.174-9.245-1.623Z"/>
  </mask>
  <g mask="url(#m)">
    <path fill="#000" fill-opacity=".7" d="m41.388 76.964 9.45 1.658 8.007-3.099.144 6.7-7.931 2.174-9.245-1.622-.425-5.81Z" opacity=".2"/>
  </g>
  <mask id="n" width="18" height="10" x="41" y="75" maskUnits="userSpaceOnUse" style="mask-type:luminance">
    <path fill="#fff" d="m41.813 82.775-.425-5.81 9.088-1.822 8.369.381.144 6.7-7.931 2.174-9.245-1.623Z"/>
  </mask>
  <g mask="url(#n)">
    <path fill="#000" fill-opacity=".7" d="m50.839 78.622.219 5.775 7.93-2.175-.143-6.699-8.006 3.1Z" opacity=".2"/>
  </g>
  <mask id="o" width="18" height="10" x="41" y="75" maskUnits="userSpaceOnUse" style="mask-type:luminance">
    <path fill="#fff" d="m41.813 82.775-.425-5.81 9.088-1.822 8.369.381.144 6.7-7.931 2.174-9.245-1.623Z"/>
  </mask>
  <g mask="url(#o)">
    <path fill="#BA8CFF" fill-opacity=".91" d="m55.84 76.687-3.803-.176 3.787-1.197-2.18-.027-3.417.97c-.916-.179-2.661-.53-2.661-.53l-1.336.267 2.47.67-4.091.996s.562 5.633.542 5.7l1.844.325-.357-5.706 3.912-.991 4.142.166.291 6.167 1.11-.304-.253-6.33Z" opacity=".6"/>
  </g>
  <path stroke="#2E2638" stroke-linecap="round" stroke-linejoin="round" stroke-miterlimit="10" stroke-width=".227" d="m41.813 82.775-.425-5.81 9.088-1.822 8.369.381.144 6.7-7.931 2.174-9.245-1.623Z"/>
  <path stroke="#2E2638" stroke-linecap="round" stroke-linejoin="round" stroke-miterlimit="10" stroke-width=".227" d="m42.013 77.202 8.826 1.421 7.21-2.75m-7.21 2.75.226 4.566"/>
  <path stroke="#2E2638" stroke-linecap="round" stroke-linejoin="round" stroke-miterlimit="10" stroke-width=".227" d="m54.983 83.321-.292-6.167-4.36-.166-3.694.991.358 5.706"/>
  <path stroke="#2E2638" stroke-linecap="round" stroke-linejoin="round" stroke-miterlimit="10" stroke-width=".227" d="m56.093 83.017-.253-6.33-3.803-.176 3.669-1.13m-2.063-.094c-.216-.01-3.194.852-3.194.852l-2.884-.413m-1.335.268 2.697.65-4.319 1.017.507 5.379"/>
  <path fill="#F5F6F7" d="M50.55 76.989c1.583-.2 2.124-.767 2.124-.767l-.525-.323.582-.612-1.149.095.263-1.068-.939.46-.543-1.157-.493 1.04-.941-.76-.117 1.18-.93-.054.497.624-.648.313.691.28-.656.187s1.526.72 2.784.562Z"/>
  <mask id="p" width="6" height="5" x="47" y="73" maskUnits="userSpaceOnUse" style="mask-type:luminance">
    <path fill="#fff" d="M50.55 76.989c1.583-.2 2.124-.767 2.124-.767l-.525-.323.582-.612-1.149.095.263-1.068-.939.46-.543-1.157-.493 1.04-.941-.76-.117 1.18-.93-.054.497.624-.648.313.691.28-.656.187s1.526.72 2.784.562Z"/>
  </mask>
  <g mask="url(#p)">
    <path fill="#BA8CFF" fill-opacity=".91" d="M50.55 76.989c1.583-.2 2.124-.767 2.124-.767l-.525-.323.582-.612-1.149.095.263-1.068-.939.46-.543-1.157-.493 1.04-.941-.76-.117 1.18-.93-.054.497.624-.648.313.691.28-.656.187s1.526.72 2.784.562Z" opacity=".6"/>
  </g>
  <mask id="q" width="6" height="5" x="47" y="73" maskUnits="userSpaceOnUse" style="mask-type:luminance">
    <path fill="#fff" d="M50.55 76.989c1.583-.2 2.124-.767 2.124-.767l-.525-.323.582-.612-1.149.095.263-1.068-.939.46-.543-1.157-.493 1.04-.941-.76-.117 1.18-.93-.054.497.624-.648.313.691.28-.656.187s1.526.72 2.784.562Z"/>
  </mask>
  <g mask="url(#q)">
    <path stroke="#2E2638" stroke-linecap="round" stroke-linejoin="round" stroke-miterlimit="10" stroke-width=".227" d="m48.927 76.646-.226-.506.5-.145.365-.669.465.388.573-.605s.254.496.348.605c.094.11.657 0 .657 0v.792"/>
  </g>
  <path stroke="#2E2638" stroke-linecap="round" stroke-linejoin="round" stroke-miterlimit="10" stroke-width=".227" d="M50.55 76.989c1.583-.2 2.124-.767 2.124-.767l-.525-.323.582-.612-1.149.095.263-1.068-.939.46-.543-1.157-.493 1.04-.941-.76-.117 1.18-.93-.054.497.624-.648.313.691.28-.656.187s1.526.72 2.784.562Z"/>
  <path fill="#F5F6F7" d="m8.363 73.476 1.26-4.644 7.557 1.387 6.397 2.876-1.723 5.248-6.755-.756-6.736-4.11Z"/>
  <mask id="r" width="16" height="11" x="8" y="68" maskUnits="userSpaceOnUse" style="mask-type:luminance">
    <path fill="#fff" d="m8.363 73.476 1.26-4.644 7.557 1.387 6.397 2.876-1.723 5.248-6.755-.756-6.736-4.11Z"/>
  </mask>
  <g mask="url(#r)">
    <path fill="#000" fill-opacity=".7" d="m9.623 68.832 6.887 4.202 7.067.061-1.723 5.248-6.755-.756-6.736-4.11 1.26-4.645Z" opacity=".2"/>
  </g>
  <mask id="s" width="16" height="11" x="8" y="68" maskUnits="userSpaceOnUse" style="mask-type:luminance">
    <path fill="#fff" d="m8.363 73.476 1.26-4.644 7.557 1.387 6.397 2.876-1.723 5.248-6.755-.756-6.736-4.11Z"/>
  </mask>
  <g mask="url(#s)">
    <path fill="#000" fill-opacity=".7" d="m16.51 73.033-1.41 4.553 6.754.756 1.723-5.247-7.067-.062Z" opacity=".2"/>
  </g>
  <mask id="t" width="16" height="11" x="8" y="68" maskUnits="userSpaceOnUse" style="mask-type:luminance">
    <path fill="#fff" d="m8.363 73.476 1.26-4.644 7.557 1.387 6.397 2.876-1.723 5.248-6.755-.756-6.736-4.11Z"/>
  </mask>
  <g mask="url(#t)">
    <path fill="#BA8CFF" fill-opacity=".91" d="m20.925 73.072-2.906-1.31 3.27.238-1.687-.693-2.92-.3a493.165 493.165 0 0 1-1.921-1.233l-1.111-.204 1.735 1.283-3.45-.488s-1.106 4.548-1.14 4.595l1.344.82 1.284-4.542 3.31.437 3.172 1.405-1.462 4.88.946.106 1.536-4.994Z" opacity=".6"/>
  </g>
  <path stroke="#2E2638" stroke-linecap="round" stroke-linejoin="round" stroke-miterlimit="10" stroke-width=".227" d="m8.363 73.476 1.26-4.644 7.557 1.387 6.397 2.876-1.723 5.248-6.755-.756-6.736-4.11Z"/>
  <path stroke="#2E2638" stroke-linecap="round" stroke-linejoin="round" stroke-miterlimit="10" stroke-width=".227" d="m10.044 69.207 6.466 3.825 6.354.087m-6.354-.086-1.075 3.617"/>
  <path stroke="#2E2638" stroke-linecap="round" stroke-linejoin="round" stroke-miterlimit="10" stroke-width=".227" d="m18.442 77.96 1.462-4.88-3.34-1.472-3.141-.37-1.285 4.542"/>
  <path stroke="#2E2638" stroke-linecap="round" stroke-linejoin="round" stroke-miterlimit="10" stroke-width=".227" d="m19.388 78.065 1.537-4.994-2.906-1.31 3.159.254m-1.576-.709c-.166-.074-2.714-.323-2.714-.323l-2.127-1.21m-1.111-.203 1.917 1.337-3.633-.542-1.08 4.334"/>
  <path fill="#F5F6F7" d="M16.733 71.674c1.285.333 1.86.06 1.86.06l-.32-.413.62-.296-.918-.28.496-.749-.854.067-.105-1.065-.668.655-.524-.88-.413.88-.707-.328.215.637-.59.045.461.43-.561-.057s.988 1.03 2.008 1.294Z"/>
  <mask id="u" width="5" height="4" x="14" y="68" maskUnits="userSpaceOnUse" style="mask-type:luminance">
    <path fill="#fff" d="M16.733 71.674c1.285.333 1.86.06 1.86.06l-.32-.413.62-.296-.918-.28.496-.749-.854.067-.105-1.065-.668.655-.524-.88-.413.88-.707-.328.215.637-.59.045.461.43-.561-.057s.988 1.03 2.008 1.294Z"/>
  </mask>
  <g mask="url(#u)">
    <path fill="#BA8CFF" fill-opacity=".91" d="M16.733 71.674c1.285.333 1.86.06 1.86.06l-.32-.413.62-.296-.918-.28.496-.749-.854.067-.105-1.065-.668.655-.524-.88-.413.88-.707-.328.215.637-.59.045.461.43-.561-.057s.988 1.03 2.008 1.294Z" opacity=".6"/>
  </g>
  <mask id="v" width="5" height="4" x="14" y="68" maskUnits="userSpaceOnUse" style="mask-type:luminance">
    <path fill="#fff" d="M16.733 71.674c1.285.333 1.86.06 1.86.06l-.32-.413.62-.296-.918-.28.496-.749-.854.067-.105-1.065-.668.655-.524-.88-.413.88-.707-.328.215.637-.59.045.461.43-.561-.057s.988 1.03 2.008 1.294Z"/>
  </mask>
  <g mask="url(#v)">
    <path stroke="#2E2638" stroke-linecap="round" stroke-linejoin="round" stroke-miterlimit="10" stroke-width=".227" d="m15.567 70.906-.037-.463.428.042.466-.407.256.445.61-.293s.062.463.105.577c.043.114.51.202.51.202l-.217.615"/>
  </g>
  <path stroke="#2E2638" stroke-linecap="round" stroke-linejoin="round" stroke-miterlimit="10" stroke-width=".227" d="M16.733 71.674c1.285.333 1.86.06 1.86.06l-.32-.413.62-.296-.918-.28.496-.749-.854.067-.105-1.065-.668.655-.524-.88-.413.88-.707-.328.215.637-.59.045.461.43-.561-.057s.988 1.03 2.008 1.294Zm21.307-4.248-.307 1.12m-10.212-4.36 8.204 1.234 1.905 1.652m-10.682 0 .45-2.27m-.743 3.744.133-.671m8.936-2.455-.404 1.878m-.16.577-.151.609m-3.578-.694-.239 1.259m.794-4.192-.408 2.154m-1.851 1.147-.286 1.423m.997-4.958-.623 3.102m1.145-3.369v-.616l.424.273.602-.679.361.679.907-.428v.771h1.15l-.452.499.74.002m6.912 5.69v-6.19l5.164-1.667 5.964 1.323v.844m-5.964-2.167v2.588m-3.411 8.995v.547m0-4.918v3.967m-.001-10.078v5.655m1.061 1.845v2.682m0-10.526v7.099"/>
  <path stroke="#2E2638" stroke-linecap="round" stroke-linejoin="round" stroke-miterlimit="10" stroke-width=".227" d="M44.043 63.12c-.532-.497-.69-1.857.374-1.923 1.064-.067 2.35 1.061 2.35 1.061s1.783-2.066 2.672-1.365c.888.702.294 1.63-.269 1.797"/>
  <path stroke="#2E2638" stroke-linecap="round" stroke-linejoin="round" stroke-miterlimit="10" stroke-width=".227" d="M48.326 62.688s.827-.394.601-1.043c-.226-.649-1.361.522-1.361.522m-1.764.29s-.76-.775-1.088-.388c-.327.388.267.62.267.62M13.21 67.788l-.152-2.123 3.085-.974m54.609.112 2.83.054-.762 2.36m.762-2.36.712 3.13m-60.6-1.69 1.457.822"/>
  <path fill="#F5F6F7" d="M17.72 82.674s-1.135-2.827-.618-7.457c.05-.456.095-.917.134-1.377.36-4.212.264-8.372.264-8.372l9.225-.67s.137 4.17.877 7.928c.457 2.325.676 4.472.776 5.774.063.803 0 4.64 0 4.64"/>
  <mask id="w" width="13" height="20" x="16" y="64" maskUnits="userSpaceOnUse" style="mask-type:luminance">
    <path fill="#fff" d="M17.72 82.674s-1.135-2.827-.618-7.457c.05-.456.095-.917.134-1.377.36-4.212.264-8.372.264-8.372l9.225-.67s.137 4.17.877 7.928c.457 2.325.676 4.472.776 5.774.063.803 0 4.64 0 4.64"/>
  </mask>
  <g mask="url(#w)">
    <path fill="#BA8CFF" fill-opacity=".91" d="M18.3 74.115c-.183.85.375 3.19.375 3.19 0-1.526.708-3.06.708-3.06s.167.206.852.603c.683.398 2.984-.31 3.567.192.585.503.955 2.264.955 2.264v-3.06l1.13 3.052.31-3.052s.357 2.196 1.024 2.771c.337.29.79.926 1.157 1.485-.1-1.302-.32-3.449-.776-5.774-.74-3.757-.877-7.927-.877-7.927l-9.225.67s.097 4.16-.264 8.371c.651.614 1.064.275 1.064.275Z" opacity=".4"/>
  </g>
  <path stroke="#2E2638" stroke-linecap="round" stroke-linejoin="round" stroke-miterlimit="10" stroke-width=".227" d="M17.72 82.674s-1.135-2.827-.618-7.457c.05-.456.095-.917.134-1.377.36-4.212.264-8.372.264-8.372l9.225-.67s.137 4.17.877 7.928c.457 2.325.676 4.472.776 5.774.063.803 0 4.64 0 4.64"/>
  <path fill="#2E2638" d="M17.472 61.498c-1.028.695-.389 2.373-.389 2.373s-.437.361-.534 1.238c-.098.877.777 4.436 0 5.365-.778.928 1.362 3.374 4.957 3.61 2.453.162 4.083-.31 4.083-1.083 0-.773-.146-4.064-.291-5.204-.146-1.14-.243-2.12-.098-2.327.146-.206.632.31.632 1.909s-.03 5.307.204 5.413c.234.106 1.206-.255 1.643-1.854.438-1.6-.243-1.909-.243-2.063 0-.155-.486-2.476-.243-3.456s-.486-1.496-.486-1.496.334-.39.41-1.151c.13-1.3-7.506-2.718-9.645-1.274Z"/>
  <path fill="#2E2638" d="M23.463 50.955s1.476 3.456 2.254 3.55c.777.094 2.064-.872 2.064-1.985 0-1.114 2.624-2.474 3.11.836.487 3.311-1.56 10.466-7.489 11.213-5.93.747-9.132-12.752.06-13.614Z"/>
  <path fill="#BA8CFF" fill-opacity=".91" stroke="#2E2638" stroke-linecap="round" stroke-linejoin="round" stroke-miterlimit="10" stroke-width=".227" d="M25.249 72.286a.227.227 0 0 0 .136-.045c.384-.285 1.037-1.19 1.11-1.292a.262.262 0 0 0-.046-.353.228.228 0 0 0-.332.048c-.186.26-.73.981-1.004 1.184a.261.261 0 0 0-.058.35c.046.07.12.108.194.108Z"/>
  <path fill="#BA8CFF" fill-opacity=".91" stroke="#2E2638" stroke-linecap="round" stroke-linejoin="round" stroke-miterlimit="10" stroke-width=".227" d="M26.306 71.975a.23.23 0 0 0 .16-.066.263.263 0 0 0 .014-.356c-.49-.564-1.418-.692-1.457-.698a.242.242 0 0 0-.264.218.25.25 0 0 0 .205.282c.008 0 .796.112 1.168.54a.23.23 0 0 0 .174.08Z"/>
  <path fill="#BA8CFF" fill-opacity=".91" stroke="#2E2638" stroke-linecap="round" stroke-linejoin="round" stroke-miterlimit="10" stroke-width=".227" d="M24.994 70.894c.05 0 .1-.017.142-.05.46-.367 1.325-1.625 1.362-1.679a.262.262 0 0 0-.053-.351.228.228 0 0 0-.33.055c-.238.347-.928 1.305-1.264 1.572a.262.262 0 0 0-.047.352c.047.066.118.1.19.1Z"/>
  <path fill="#BA8CFF" fill-opacity=".91" stroke="#2E2638" stroke-linecap="round" stroke-linejoin="round" stroke-miterlimit="10" stroke-width=".227" d="M26.306 70.505a.23.23 0 0 0 .168-.074.263.263 0 0 0 0-.355c-.56-.595-1.412-.724-1.448-.73-.13-.02-.25.078-.267.216a.25.25 0 0 0 .202.283c.008 0 .732.113 1.178.586a.23.23 0 0 0 .167.074Zm-1.312-1.237a.226.226 0 0 0 .131-.042c.585-.414 1.247-1.575 1.275-1.624a.26.26 0 0 0-.081-.345.23.23 0 0 0-.325.086c-.175.308-.72 1.173-1.132 1.464a.261.261 0 0 0-.065.35c.045.072.12.111.197.111Z"/>
  <path fill="#BA8CFF" fill-opacity=".91" stroke="#2E2638" stroke-linecap="round" stroke-linejoin="round" stroke-miterlimit="10" stroke-width=".227" d="M26.197 68.881a.23.23 0 0 0 .162-.067.263.263 0 0 0 .011-.356 2.496 2.496 0 0 0-1.34-.773c-.128-.022-.25.072-.27.209-.02.137.067.266.196.288.008.001.623.114 1.067.62.047.052.11.08.174.08Z"/>
  <path fill="#BA8CFF" fill-opacity=".91" stroke="#2E2638" stroke-linecap="round" stroke-linejoin="round" stroke-miterlimit="10" stroke-width=".227" d="M24.994 67.724a.228.228 0 0 0 .147-.054 3.418 3.418 0 0 0 1.128-1.898c.023-.137-.064-.268-.192-.291-.13-.025-.252.067-.275.203a2.95 2.95 0 0 1-.955 1.591.262.262 0 0 0-.04.353.232.232 0 0 0 .187.096Z"/>
  <path fill="#BA8CFF" fill-opacity=".91" stroke="#2E2638" stroke-linecap="round" stroke-linejoin="round" stroke-miterlimit="10" stroke-width=".227" d="M26.197 67.294c.038 0 .076-.01.111-.03a.26.26 0 0 0 .098-.34c-.33-.654-1.537-1.047-1.674-1.09a.236.236 0 0 0-.294.17.254.254 0 0 0 .16.313c.443.139 1.212.49 1.39.845a.235.235 0 0 0 .209.132Z"/>
  <path stroke="#F5F6F7" stroke-linecap="round" stroke-linejoin="round" stroke-miterlimit="10" stroke-width=".227" d="M26.197 64.182s-.682.704-3.828 1.236c-1.952.33-2.916-.233-2.916-.233m-2.06-1.003s.532 1.34 2.841 1.807m5.281-6.761s1.12 2.543-.521 4.56m.565-8.948c-1.118.713-1.209 2.887-1.209 2.887"/>
  <path stroke="#F5F6F7" stroke-linecap="round" stroke-linejoin="round" stroke-miterlimit="10" stroke-width=".227" d="M25.17 55.188s-1.24.613-1.714 1.997m3.199 6.147s-1.879 1.497-5.289 1.348c-3.41-.15-4.16-1.348-4.16-1.348"/>
  <path fill="#BA8CFF" fill-opacity=".91" stroke="#2E2638" stroke-linecap="round" stroke-linejoin="round" stroke-miterlimit="10" stroke-width=".227" d="M16.375 70.046c.038.129.093.27.174.427.35.69 1.626 1.269 2.865 1.633a50.206 50.206 0 0 1-.055-.498 2.367 2.367 0 0 1-.035-.212c-.009-.079-.014-.158-.02-.238-.25-1.374-.226-2.803-.226-4.205 0-.05.011-.093.03-.128a.45.45 0 0 1-.026-.005c-1.907-.332-2.533-1.343-2.533-1.343s-.215 0-.275.524c-.035.3-.02.767.115 1.504.242 1.318-.26 1.705-.014 2.54Z"/>
  <path fill="#F5F6F7" stroke="#2E2638" stroke-linecap="round" stroke-linejoin="round" stroke-miterlimit="10" stroke-width=".227" d="M16.318 69.348a1.69 1.69 0 0 0 .057.696c.638.485 1.476.822 2.163 1.042a5.276 5.276 0 0 0-.012-.165c-.098-1.22-.207-2.435-.209-3.66 0-.027.003-.05.008-.072-.51-.215-1.034-.483-1.36-.63a2.006 2.006 0 0 1-.692-.559c-.026.235-.023.574.045 1.065.019.134.042.28.07.438.167.906-.018 1.372-.07 1.845Z"/>
  <path fill="#2E2638" d="m16.575 69.64.256.133c-.01-.154-.126-1.217-.199-1.415-.072-.196 0-1.062 0-1.172 0-.111-.314-.12-.314-.12.019.135.042.28.071.438.166.906.029 1.224.186 2.136Zm1.261-1.825-.244-.134-.292.563-.094-.74-.24-.21.167 1.25s-.02.841-.041.952c-.021.11.02.43.02.43l.417.233s-.062-.31-.083-.464c-.02-.155.043-.814.043-.814l-.022-.204.369-.862Z"/>
  <path fill="#F5F6F7" d="M30.15 57.185s-.924.41-1.744.178c-.82-.233 0 .173 0 .173l.274.24s-.907.032-1.407-.24c0 0-.051.598.553.992l-1.171-.435.368.663s-.402-.124-.826-.228c0 0 .746 1.357.458 2.684 0 0 .43-.332.587-.763 0 0 .125.63-.125 1.194 0 0 1.282-1.04 1.563-2.229v.338s1.282-.709 1.47-2.567ZM23.457 66.6s-1.434.661-2.19.695c-.758.033.535.642.368.913-.167.27-1.75.179-1 .556.75.378 1.292.97 1.083 1.16-.208.191-.25 1.204-.125 1.162.125-.042-.327.622-.327.622s-1.173.602-.465.81c.709.207-.125.3-.75.21-.625-.091.753 1.059 2.774.705 2.02-.354.992-.857.547-.915-.445-.058-1.111-.061-.382-.414.73-.352 1.655-.673.9-.69-.754-.016-1.088-.41-.671-.766.417-.356.625-.744.459-1.014-.167-.271-.695-.797-.306-1.065.39-.268.278-.716 0-.846s.272-.3.518-.658c.246-.356.096-.353-.433-.465Z" opacity=".2"/>
  <path fill="#F5F6F7" d="M68.993 82.674s1.135-2.827.618-7.457a56.69 56.69 0 0 1-.134-1.377c-.36-4.212-.264-8.372-.264-8.372l-9.225-.67s-.137 4.17-.877 7.928a51.025 51.025 0 0 0-.776 5.774c-.063.803 0 4.64 0 4.64"/>
  <mask id="x" width="12" height="20" x="58" y="64" maskUnits="userSpaceOnUse" style="mask-type:luminance">
    <path fill="#fff" d="M68.993 82.674s1.135-2.827.618-7.457a56.69 56.69 0 0 1-.134-1.377c-.36-4.212-.264-8.372-.264-8.372l-9.225-.67s-.137 4.17-.877 7.928a51.025 51.025 0 0 0-.776 5.774c-.063.803 0 4.64 0 4.64"/>
  </mask>
  <g mask="url(#x)">
    <path fill="#BA8CFF" fill-opacity=".91" d="M68.413 74.115c.183.85-.375 3.19-.375 3.19 0-1.526-.708-3.06-.708-3.06s-.167.206-.852.603c-.683.398-2.984-.31-3.567.192-.585.503-.955 2.264-.955 2.264v-3.06l-1.13 3.052-.31-3.052s-.357 2.196-1.024 2.771c-.337.29-.79.926-1.157 1.485.1-1.302.32-3.449.776-5.774.74-3.757.877-7.927.877-7.927l9.225.67s-.097 4.16.264 8.371c-.651.614-1.064.275-1.064.275Z" opacity=".4"/>
  </g>
  <path stroke="#2E2638" stroke-linecap="round" stroke-linejoin="round" stroke-miterlimit="10" stroke-width=".227" d="M68.993 82.674s1.135-2.827.618-7.457a56.69 56.69 0 0 1-.134-1.377c-.36-4.212-.264-8.372-.264-8.372l-9.225-.67s-.137 4.17-.877 7.928a51.025 51.025 0 0 0-.776 5.774c-.063.803 0 4.64 0 4.64"/>
  <path fill="#2E2638" d="M69.24 61.498c1.03.695.39 2.373.39 2.373s.437.361.534 1.238c.097.877-.777 4.436 0 5.365.778.928-1.362 3.374-4.958 3.61-2.453.162-4.083-.31-4.083-1.083 0-.773.146-4.064.292-5.204.146-1.14.243-2.12.097-2.327-.145-.206-.632.31-.632 1.909s.031 5.307-.203 5.413c-.234.106-1.206-.255-1.644-1.854-.437-1.6.243-1.909.243-2.063 0-.155.487-2.476.243-3.456-.243-.98.486-1.496.486-1.496s-.334-.39-.41-1.151c-.128-1.3 7.507-2.718 9.646-1.274Z"/>
  <path fill="#2E2638" d="M63.25 50.955s-1.476 3.456-2.254 3.55c-.778.094-2.064-.872-2.064-1.985 0-1.114-2.624-2.474-3.11.836-.487 3.311 1.559 10.466 7.489 11.213 5.93.747 9.132-12.752-.06-13.614Z"/>
  <path fill="#BA8CFF" fill-opacity=".91" stroke="#2E2638" stroke-linecap="round" stroke-linejoin="round" stroke-miterlimit="10" stroke-width=".227" d="M61.464 72.286a.227.227 0 0 1-.136-.045c-.384-.285-1.037-1.19-1.11-1.292a.262.262 0 0 1 .045-.353.228.228 0 0 1 .333.048c.186.26.73.981 1.004 1.184.107.08.133.237.058.35a.233.233 0 0 1-.194.108Z"/>
  <path fill="#BA8CFF" fill-opacity=".91" stroke="#2E2638" stroke-linecap="round" stroke-linejoin="round" stroke-miterlimit="10" stroke-width=".227" d="M60.407 71.975a.23.23 0 0 1-.161-.066.263.263 0 0 1-.014-.356c.491-.564 1.418-.692 1.458-.698a.242.242 0 0 1 .264.218.25.25 0 0 1-.205.282c-.008 0-.796.112-1.168.54a.23.23 0 0 1-.174.08Z"/>
  <path fill="#BA8CFF" fill-opacity=".91" stroke="#2E2638" stroke-linecap="round" stroke-linejoin="round" stroke-miterlimit="10" stroke-width=".227" d="M61.719 70.894a.23.23 0 0 1-.142-.05c-.46-.367-1.325-1.625-1.362-1.679a.262.262 0 0 1 .052-.351.228.228 0 0 1 .332.055c.237.347.927 1.305 1.263 1.572a.262.262 0 0 1 .047.352.232.232 0 0 1-.19.1Z"/>
  <path fill="#BA8CFF" fill-opacity=".91" stroke="#2E2638" stroke-linecap="round" stroke-linejoin="round" stroke-miterlimit="10" stroke-width=".227" d="M60.407 70.505a.23.23 0 0 1-.168-.074.263.263 0 0 1 0-.355c.56-.595 1.412-.724 1.448-.73.13-.02.25.078.267.216a.25.25 0 0 1-.203.283c-.007 0-.731.113-1.177.586a.229.229 0 0 1-.167.074Zm1.312-1.237a.226.226 0 0 1-.131-.042c-.585-.414-1.247-1.575-1.275-1.624a.26.26 0 0 1 .08-.345.23.23 0 0 1 .326.086c.175.308.72 1.173 1.132 1.464a.261.261 0 0 1 .066.35.234.234 0 0 1-.198.111Z"/>
  <path fill="#BA8CFF" fill-opacity=".91" stroke="#2E2638" stroke-linecap="round" stroke-linejoin="round" stroke-miterlimit="10" stroke-width=".227" d="M60.516 68.881a.23.23 0 0 1-.162-.067.263.263 0 0 1-.011-.356 2.496 2.496 0 0 1 1.339-.773c.129-.022.25.072.271.209.02.137-.067.266-.196.288a2.05 2.05 0 0 0-1.068.62.231.231 0 0 1-.173.08Z"/>
  <path fill="#BA8CFF" fill-opacity=".91" stroke="#2E2638" stroke-linecap="round" stroke-linejoin="round" stroke-miterlimit="10" stroke-width=".227" d="M61.72 67.724a.228.228 0 0 1-.148-.054 3.418 3.418 0 0 1-1.128-1.898c-.023-.137.064-.268.193-.291.128-.025.251.067.274.203.001.01.167.932.955 1.591.103.086.12.244.04.353a.232.232 0 0 1-.187.096Z"/>
  <path fill="#BA8CFF" fill-opacity=".91" stroke="#2E2638" stroke-linecap="round" stroke-linejoin="round" stroke-miterlimit="10" stroke-width=".227" d="M60.516 67.294a.226.226 0 0 1-.112-.03.26.26 0 0 1-.097-.34c.329-.654 1.536-1.047 1.673-1.09a.236.236 0 0 1 .295.17.254.254 0 0 1-.161.313c-.442.139-1.21.49-1.389.845a.235.235 0 0 1-.21.132Z"/>
  <path stroke="#F5F6F7" stroke-linecap="round" stroke-linejoin="round" stroke-miterlimit="10" stroke-width=".227" d="M60.516 64.182s.682.704 3.828 1.236c1.952.33 2.916-.233 2.916-.233m2.06-1.003s-.532 1.34-2.841 1.807m-5.281-6.761s-1.12 2.543.521 4.56m-.565-8.948c1.118.713 1.209 2.887 1.209 2.887"/>
  <path stroke="#F5F6F7" stroke-linecap="round" stroke-linejoin="round" stroke-miterlimit="10" stroke-width=".227" d="M61.543 55.188s1.24.613 1.713 1.997m-3.198 6.147s1.879 1.497 5.289 1.348c3.41-.15 4.16-1.348 4.16-1.348"/>
  <path fill="#BA8CFF" fill-opacity=".91" stroke="#2E2638" stroke-linecap="round" stroke-linejoin="round" stroke-miterlimit="10" stroke-width=".227" d="M70.338 70.046a2.45 2.45 0 0 1-.174.427c-.35.69-1.627 1.269-2.866 1.633.02-.166.038-.333.056-.498.014-.071.026-.14.034-.212.01-.079.014-.158.02-.238.25-1.374.227-2.803.227-4.205a.266.266 0 0 0-.03-.128.45.45 0 0 0 .025-.005c1.908-.332 2.534-1.343 2.534-1.343s.215 0 .275.524c.035.3.02.767-.115 1.504-.242 1.318.26 1.705.014 2.54Z"/>
  <path fill="#F5F6F7" stroke="#2E2638" stroke-linecap="round" stroke-linejoin="round" stroke-miterlimit="10" stroke-width=".227" d="M70.395 69.348c.024.216.02.434-.057.696-.638.485-1.476.822-2.164 1.042.003-.055.008-.11.013-.165.098-1.22.207-2.435.209-3.66a.33.33 0 0 0-.008-.072c.509-.215 1.033-.483 1.36-.63.288-.131.522-.354.691-.559.027.235.024.574-.044 1.065-.019.134-.043.28-.071.438-.166.906.019 1.372.071 1.845Z"/>
  <path fill="#2E2638" d="M69.6 68.543s.351-.253.28-.447c-.07-.194-.01-.725-.134-.802-.124-.078-.735.386-.735.386s.14 1.173 0 2.368c0 0 .651-.11.735-.354.084-.243.193-.8.097-.93a.971.971 0 0 0-.242-.221Zm-.285-.707s.109-.088.153-.088c.045 0 .143.21.154.349.01.139-.23.226-.24.259-.01.033-.067-.52-.067-.52Zm.234 1.725c-.042.1-.167.067-.167.067.083-.177 0-.653 0-.653s.25-.022.292 0c.041.022-.084.487-.125.586Zm.846-.211s-.262.025-.253-.13c.011-.154-.134-.664-.061-.862.072-.196 0-1.062 0-1.172 0-.111.314-.12.314-.12-.019.135-.042.28-.07.438-.167.906.018 1.372.07 1.846Z"/>
  <path fill="#F5F6F7" d="M56.563 57.185s.923.41 1.744.178c.82-.233 0 .173 0 .173l-.275.24s.907.032 1.407-.24c0 0 .052.598-.552.992l1.171-.435-.368.663s.402-.124.826-.228c0 0-.746 1.357-.458 2.684 0 0-.431-.332-.587-.763 0 0-.125.63.125 1.194 0 0-1.282-1.04-1.564-2.229v.338s-1.282-.709-1.469-2.567Zm6.693 9.415s1.434.661 2.19.695c.757.033-.535.642-.368.913.166.27 1.75.179 1 .556-.75.378-1.292.97-1.084 1.16.209.191.25 1.204.125 1.162-.125-.042.328.622.328.622s1.173.602.465.81c-.71.207.124.3.75.21.625-.091-.754 1.059-2.774.705s-.992-.857-.547-.915c.444-.058 1.111-.061.382-.414-.73-.352-1.655-.673-.9-.69.754-.016 1.088-.41.67-.766-.416-.356-.625-.744-.458-1.014.167-.271.694-.797.305-1.065-.388-.268-.278-.716 0-.846s-.272-.3-.518-.658c-.246-.356-.095-.353.434-.465Z" opacity=".2"/>
  <path fill="#F5F6F7" stroke="#2E2638" stroke-linecap="round" stroke-linejoin="round" stroke-miterlimit="10" stroke-width=".227" d="m64.185 33.182.012 1.764a.555.555 0 0 0 .216.44l2.884 2.175a.494.494 0 0 0 .715-.128l1.69-2.523a.566.566 0 0 0-.121-.759l-2.884-2.175a.488.488 0 0 0-.462-.072l-1.574.568a.743.743 0 0 0-.476.71Zm.954.185a.28.28 0 0 1-.405.073.32.32 0 0 1-.068-.43.28.28 0 0 1 .405-.073.32.32 0 0 1 .068.43Z"/>
  <path fill="#2E2638" d="M65.39 35.099c-.248-.188-.296-.427-.126-.68.17-.253.398-.284.646-.097l.794.599c.248.188.296.427.126.68-.169.252-.398.284-.646.096l-.794-.598Zm.983.355c.107.08.183.067.24-.017.054-.08.043-.166-.064-.246l-.828-.625c-.107-.08-.186-.064-.24.017-.056.084-.043.166.064.246l.828.625Zm-.415-2.032.16-.238 1.738 2.832-.16.239-1.738-2.833Zm1.167 1.073c-.249-.188-.296-.427-.127-.68.17-.253.398-.284.647-.097l.793.6c.249.187.296.426.127.679-.17.253-.398.284-.647.096l-.793-.598Zm.982.355c.107.08.184.067.24-.017.054-.08.044-.166-.063-.247l-.828-.625c-.107-.08-.186-.063-.24.018-.057.084-.044.166.063.246l.828.625Z"/>
  <path stroke="#2E2638" stroke-linecap="round" stroke-linejoin="round" stroke-miterlimit="10" stroke-width=".227" d="M60.516 30.7s1.245 2.318 4.267 2.52"/>
  <path fill="#2E2638" stroke="#2E2638" stroke-linecap="round" stroke-linejoin="round" stroke-miterlimit="10" stroke-width=".227" d="m24.84 30.076 2.483 1.94h32.922l1.627-1.94H24.84Z"/>
  <path fill="#BA8CFF" fill-opacity=".91" d="m64.281 52.08-8.932 4.228H31.364l-8.932-4.229 3.542-25.245H60.74l3.542 25.245Z"/>
  <mask id="y" width="43" height="31" x="22" y="26" maskUnits="userSpaceOnUse" style="mask-type:luminance">
    <path fill="#fff" d="m64.281 52.08-8.932 4.228H31.364l-8.932-4.229 3.542-25.245H60.74l3.542 25.245Z"/>
  </mask>
  <g mask="url(#y)">
    <path fill="#F5F6F7" d="m32.372 35.408-.554.043.19-.274a.131.131 0 0 0-.026-.176.114.114 0 0 0-.166.027l-.31.447-1.313.101.951-1.222.46-.142a.127.127 0 0 0 .08-.156.118.118 0 0 0-.148-.086l-.123.039.248-.319a.13.13 0 0 0-.016-.177.114.114 0 0 0-.166.017l-.18.232.025-.124a.126.126 0 0 0-.09-.15c-.065-.016-.127.027-.141.095l-.127.605-.95 1.221-.087-1.413.263-.705a.128.128 0 0 0-.066-.163.117.117 0 0 0-.154.07l-.079.211-.023-.371c-.004-.07-.061-.123-.126-.118a.123.123 0 0 0-.11.134l.03.49-.25-.372a.114.114 0 0 0-.166-.03.13.13 0 0 0-.028.176l.473.701.079 1.295-.755-.867-.131-.68a.12.12 0 0 0-.14-.098.126.126 0 0 0-.092.149l.052.273-.175-.2a.114.114 0 0 0-.168-.008.131.131 0 0 0-.006.178l.279.32h-.382c-.066 0-.119.057-.119.126 0 .07.053.126.119.126h.601l.855.98-1.238.096-.502-.316a.115.115 0 0 0-.162.044.13.13 0 0 0 .041.173l.209.13-.438.034c-.065.005-.114.065-.11.135a.122.122 0 0 0 .118.116h.01l.46-.035-.266.246a.131.131 0 0 0-.011.178.114.114 0 0 0 .167.012l.504-.467 1.165-.09-.86 1.106h-.418c-.066 0-.119.056-.119.126s.053.126.119.126h.221l-.247.318a.131.131 0 0 0 .015.177.114.114 0 0 0 .168-.017l.131-.17-.03.203a.125.125 0 0 0 .099.144.12.12 0 0 0 .135-.105l.093-.623.854-1.096.078 1.282-.429.715a.13.13 0 0 0 .037.174c.02.013.041.02.063.02.04 0 .078-.021.1-.059l.255-.425.042.685a.122.122 0 0 0 .118.118h.008a.123.123 0 0 0 .11-.134l-.04-.665.225.27a.114.114 0 0 0 .167.012.131.131 0 0 0 .01-.178l-.427-.514-.083-1.354.945 1.085v.419c0 .07.053.126.119.126.065 0 .118-.057.118-.126v-.147l.42.481a.115.115 0 0 0 .167.007.131.131 0 0 0 .007-.178l-.416-.476.318.03a.122.122 0 0 0 .13-.114.126.126 0 0 0-.108-.137l-.58-.056-.953-1.092 1.312-.101.305.27a.114.114 0 0 0 .167-.016.131.131 0 0 0-.015-.177l-.117-.103.518-.04a.123.123 0 0 0 .11-.135.122.122 0 0 0-.127-.117Zm4.868 10.037a.115.115 0 0 0 .08-.033.131.131 0 0 0 .007-.178l-.416-.477.318.03c.065.007.123-.044.13-.113a.126.126 0 0 0-.108-.137l-.58-.056-.953-1.093 1.312-.1.305.27a.114.114 0 0 0 .167-.016.131.131 0 0 0-.015-.177l-.117-.103.519-.04c.065-.005.114-.066.11-.135-.006-.069-.063-.121-.127-.116l-.555.043.19-.274a.13.13 0 0 0-.026-.176.114.114 0 0 0-.165.027l-.31.447-1.314.1.951-1.221.46-.143a.127.127 0 0 0 .08-.156.118.118 0 0 0-.147-.085l-.123.038.248-.318a.131.131 0 0 0-.016-.178.114.114 0 0 0-.167.017l-.18.232.025-.124a.126.126 0 0 0-.09-.15.119.119 0 0 0-.141.095l-.127.605-.95 1.221-.087-1.413.264-.704a.129.129 0 0 0-.067-.164.117.117 0 0 0-.154.07l-.078.211-.023-.371a.123.123 0 0 0-.126-.117.121.121 0 0 0-.11.133l.03.49-.252-.372a.114.114 0 0 0-.165-.03.13.13 0 0 0-.027.176l.472.701.08 1.295-.756-.867-.13-.68c-.014-.068-.076-.112-.14-.098a.126.126 0 0 0-.093.149l.053.273-.175-.2a.114.114 0 0 0-.168-.008.131.131 0 0 0-.007.178l.28.32h-.383c-.065 0-.118.057-.118.126 0 .07.053.126.118.126h.602l.855.98-1.238.096-.502-.316a.115.115 0 0 0-.163.044.13.13 0 0 0 .042.173l.208.13-.438.034c-.065.005-.114.066-.11.135a.122.122 0 0 0 .119.116h.009l.461-.035-.266.246a.131.131 0 0 0-.012.178.114.114 0 0 0 .167.012l.505-.467 1.164-.09-.86 1.106h-.417c-.066 0-.12.056-.12.126s.054.125.12.125h.221l-.248.319a.131.131 0 0 0 .016.177.114.114 0 0 0 .167-.017l.132-.17-.03.203a.125.125 0 0 0 .098.144.121.121 0 0 0 .136-.105l.093-.623.853-1.096.078 1.281-.428.716a.13.13 0 0 0 .036.173.114.114 0 0 0 .163-.038l.255-.425.042.685a.122.122 0 0 0 .118.118h.008a.123.123 0 0 0 .111-.134l-.04-.665.224.27a.114.114 0 0 0 .167.012.131.131 0 0 0 .011-.178l-.428-.515-.083-1.353.946 1.084v.42c0 .069.053.125.118.125a.122.122 0 0 0 .119-.125v-.147l.42.48a.108.108 0 0 0 .086.041Zm-.625-10.267h.008l.462-.036-.267.246a.131.131 0 0 0-.011.178.114.114 0 0 0 .167.012l.504-.466 1.165-.09-.86 1.105h-.418c-.065 0-.118.056-.118.126s.053.126.118.126h.222l-.248.318a.131.131 0 0 0 .016.177.114.114 0 0 0 .167-.017l.132-.169-.03.202a.125.125 0 0 0 .098.144.107.107 0 0 0 .019.002.121.121 0 0 0 .117-.106l.093-.623.853-1.096.078 1.281-.429.716a.13.13 0 0 0 .037.173.113.113 0 0 0 .163-.039l.255-.425.042.686a.122.122 0 0 0 .118.117h.008a.121.121 0 0 0 .11-.133l-.04-.665.225.27a.114.114 0 0 0 .167.011.131.131 0 0 0 .01-.177l-.427-.515-.083-1.353.946 1.084v.42c0 .069.053.125.118.125s.119-.056.119-.126v-.147l.42.481a.11.11 0 0 0 .086.04.115.115 0 0 0 .08-.033.131.131 0 0 0 .007-.178l-.416-.476.318.03c.066.007.123-.045.13-.114a.124.124 0 0 0-.108-.137l-.58-.055-.953-1.093 1.312-.101.305.27a.114.114 0 0 0 .167-.016.131.131 0 0 0-.015-.177l-.116-.103.518-.04c.065-.005.114-.065.11-.134-.005-.07-.063-.122-.127-.117l-.555.043.19-.274a.131.131 0 0 0-.025-.176.114.114 0 0 0-.166.027l-.31.447-1.314.1.952-1.221.459-.143a.127.127 0 0 0 .08-.156.118.118 0 0 0-.147-.085l-.123.038.248-.318a.131.131 0 0 0-.016-.178.114.114 0 0 0-.167.017l-.18.232.025-.124a.126.126 0 0 0-.09-.15.119.119 0 0 0-.141.095l-.127.605-.95 1.221-.087-1.413.264-.704a.129.129 0 0 0-.067-.164.117.117 0 0 0-.154.07l-.078.211-.023-.37c-.005-.07-.063-.124-.126-.118a.124.124 0 0 0-.11.133l.03.49-.252-.372a.114.114 0 0 0-.165-.03.131.131 0 0 0-.028.176l.473.702.08 1.294-.756-.867-.131-.68a.12.12 0 0 0-.14-.098.126.126 0 0 0-.093.149l.053.273-.175-.2a.114.114 0 0 0-.168-.007.131.131 0 0 0-.006.177l.279.32h-.382c-.066 0-.119.056-.119.126s.053.126.119.126h.601l.855.98-1.237.096-.503-.316a.115.115 0 0 0-.162.044.13.13 0 0 0 .041.173l.209.13-.438.034a.124.124 0 0 0-.11.135.122.122 0 0 0 .119.117Zm13.427 6.199-.554.043.19-.274a.13.13 0 0 0-.026-.176.114.114 0 0 0-.166.027l-.31.447-1.313.1.951-1.22.46-.144a.127.127 0 0 0 .08-.156.118.118 0 0 0-.147-.085l-.124.038.248-.318a.131.131 0 0 0-.016-.177.114.114 0 0 0-.166.017l-.18.231.025-.124a.126.126 0 0 0-.09-.15.12.12 0 0 0-.141.095l-.127.605-.95 1.221-.087-1.413.264-.704a.128.128 0 0 0-.067-.164.116.116 0 0 0-.154.071l-.079.21-.023-.37a.122.122 0 0 0-.125-.118.121.121 0 0 0-.11.133l.03.49-.252-.372a.114.114 0 0 0-.165-.029.13.13 0 0 0-.027.175l.472.702.08 1.294-.756-.867-.131-.68a.119.119 0 0 0-.14-.097.125.125 0 0 0-.092.148l.052.273-.175-.2a.114.114 0 0 0-.168-.007.132.132 0 0 0-.006.178l.279.32h-.382a.122.122 0 0 0-.119.125c0 .07.053.126.119.126h.601l.855.981-1.238.095-.502-.315a.115.115 0 0 0-.162.044.13.13 0 0 0 .042.172l.208.131-.438.034c-.065.005-.114.065-.11.134a.121.121 0 0 0 .118.117h.01l.46-.036-.266.247a.132.132 0 0 0-.011.177.115.115 0 0 0 .167.012l.505-.466 1.164-.09-.86 1.105h-.418c-.065 0-.118.057-.118.126 0 .07.053.126.118.126h.222l-.248.318a.131.131 0 0 0 .016.177.114.114 0 0 0 .167-.017l.131-.169-.03.202a.125.125 0 0 0 .099.144.109.109 0 0 0 .019.002.121.121 0 0 0 .117-.106l.093-.623.853-1.096.078 1.281-.429.716a.13.13 0 0 0 .037.173.114.114 0 0 0 .163-.038l.255-.425.042.685a.121.121 0 0 0 .118.118h.008a.123.123 0 0 0 .11-.134l-.04-.665.225.27a.114.114 0 0 0 .167.012.131.131 0 0 0 .01-.178l-.427-.514-.083-1.354.945 1.084v.42c0 .069.053.125.119.125.065 0 .118-.056.118-.126v-.146l.42.48a.111.111 0 0 0 .087.041.115.115 0 0 0 .08-.033.131.131 0 0 0 .007-.178l-.416-.477.318.03a.123.123 0 0 0 .13-.113.126.126 0 0 0-.108-.137l-.58-.056-.953-1.093 1.312-.1.305.27a.114.114 0 0 0 .167-.016.131.131 0 0 0-.015-.177l-.117-.104.519-.04c.065-.004.114-.065.11-.134-.005-.07-.065-.122-.128-.117Zm1.158-4.405h.007a.123.123 0 0 0 .11-.134l-.04-.665.225.27a.114.114 0 0 0 .168.012.131.131 0 0 0 .01-.178l-.428-.515-.083-1.353.946 1.084v.42c0 .069.053.125.118.125a.122.122 0 0 0 .119-.126v-.147l.42.481c.023.027.054.04.086.04a.115.115 0 0 0 .08-.033.131.131 0 0 0 .007-.177l-.415-.477.318.03a.122.122 0 0 0 .128-.114c.006-.069-.042-.13-.107-.136l-.58-.056-.953-1.093 1.312-.1.305.27a.114.114 0 0 0 .167-.017.131.131 0 0 0-.015-.177l-.116-.103.518-.04c.065-.005.114-.065.11-.134a.123.123 0 0 0-.127-.117l-.555.043.19-.274a.13.13 0 0 0-.025-.176.114.114 0 0 0-.166.027l-.31.447-1.314.1.952-1.22.459-.144a.127.127 0 0 0 .08-.156.117.117 0 0 0-.147-.085l-.123.038.248-.318a.13.13 0 0 0-.016-.177.114.114 0 0 0-.167.017l-.18.232.026-.125a.126.126 0 0 0-.09-.15.12.12 0 0 0-.142.096l-.126.605-.951 1.221-.086-1.413.263-.705a.129.129 0 0 0-.067-.163.117.117 0 0 0-.154.07l-.078.211-.023-.371a.121.121 0 0 0-.126-.117c-.065.004-.115.064-.11.133l.03.49-.251-.372a.114.114 0 0 0-.166-.03.13.13 0 0 0-.027.176l.472.701.08 1.295-.756-.867-.13-.68a.12.12 0 0 0-.14-.098.126.126 0 0 0-.093.149l.052.273-.175-.2a.114.114 0 0 0-.167-.008.131.131 0 0 0-.007.178l.279.32h-.382c-.065 0-.118.056-.118.126s.053.126.118.126h.601l.855.98-1.237.096-.503-.316a.115.115 0 0 0-.162.044.13.13 0 0 0 .042.173l.208.13-.438.034c-.065.005-.114.066-.11.135a.122.122 0 0 0 .118.116h.01l.46-.035-.266.246a.131.131 0 0 0-.011.178.115.115 0 0 0 .167.012l.504-.467 1.165-.09-.86 1.106h-.418c-.066 0-.119.056-.119.126s.053.125.119.125h.221l-.248.319a.131.131 0 0 0 .016.177.113.113 0 0 0 .167-.017l.132-.17-.03.203a.125.125 0 0 0 .117.145.121.121 0 0 0 .117-.106l.093-.623.854-1.096.078 1.281-.429.716a.13.13 0 0 0 .036.173.114.114 0 0 0 .164-.038l.255-.425.042.685a.122.122 0 0 0 .118.118Zm8.872 3.301-.555.043.19-.274a.13.13 0 0 0-.025-.176.114.114 0 0 0-.166.027l-.31.447-1.313.1.951-1.22.46-.144a.127.127 0 0 0 .08-.156.117.117 0 0 0-.147-.085l-.123.038.247-.318a.13.13 0 0 0-.016-.177.114.114 0 0 0-.166.017l-.18.231.025-.124a.126.126 0 0 0-.09-.15.12.12 0 0 0-.141.096l-.127.605-.95 1.221-.087-1.413.264-.705a.129.129 0 0 0-.067-.163.117.117 0 0 0-.154.07l-.079.211-.022-.371a.122.122 0 0 0-.126-.118.123.123 0 0 0-.11.134l.03.49-.252-.372a.114.114 0 0 0-.165-.03.131.131 0 0 0-.027.176l.472.702.08 1.294-.756-.867-.13-.68c-.014-.068-.078-.111-.14-.098a.126.126 0 0 0-.093.149l.052.273-.175-.2a.114.114 0 0 0-.167-.008.131.131 0 0 0-.007.178l.28.32h-.383c-.065 0-.118.056-.118.126s.053.126.118.126h.601l.855.98-1.237.095-.503-.315a.115.115 0 0 0-.162.044.13.13 0 0 0 .042.172l.208.131-.438.034c-.065.005-.114.065-.11.134a.122.122 0 0 0 .119.117h.008l.462-.036-.267.247a.131.131 0 0 0-.011.177.116.116 0 0 0 .09.044c.027 0 .055-.01.077-.032l.504-.466 1.165-.09-.86 1.105h-.418c-.065 0-.118.057-.118.126 0 .07.053.126.118.126h.222l-.248.318a.131.131 0 0 0 .016.177.114.114 0 0 0 .166-.017l.132-.169-.03.202a.125.125 0 0 0 .099.144.108.108 0 0 0 .018.002.12.12 0 0 0 .117-.106l.093-.623.854-1.096.078 1.281-.429.715a.13.13 0 0 0 .037.174.113.113 0 0 0 .163-.039l.255-.424.042.685a.121.121 0 0 0 .118.117h.008a.121.121 0 0 0 .11-.133l-.04-.665.225.27a.114.114 0 0 0 .167.011.131.131 0 0 0 .01-.177l-.427-.515-.083-1.353.945 1.085v.418c0 .07.053.126.119.126s.119-.056.119-.126v-.147l.419.482a.114.114 0 0 0 .168.007.131.131 0 0 0 .006-.178l-.416-.477.318.03a.123.123 0 0 0 .13-.114c.005-.069-.043-.13-.108-.136l-.58-.056-.953-1.093 1.312-.1.305.27a.12.12 0 0 0 .076.029.116.116 0 0 0 .091-.046.13.13 0 0 0-.015-.177l-.116-.103.517-.04a.124.124 0 0 0 .11-.134.125.125 0 0 0-.127-.117Zm1.81-5.295-.103-.117v.147c0 .07-.052.126-.118.126-.065 0-.119-.057-.119-.126v-.419l-.945-1.085.082 1.353.428.515a.13.13 0 0 1-.01.178.115.115 0 0 1-.167-.011l-.226-.27.041.663a.123.123 0 0 1-.11.135h-.008a.122.122 0 0 1-.119-.118l-.04-.686-.255.426a.12.12 0 0 1-.101.057.112.112 0 0 1-.064-.018.132.132 0 0 1-.036-.175l.428-.714-.077-1.282-.854 1.096-.093.624a.12.12 0 0 1-.117.105l-.019-.001a.125.125 0 0 1-.098-.145l.03-.203-.13.171a.122.122 0 0 1-.093.046.119.119 0 0 1-.076-.029.133.133 0 0 1-.015-.178l.248-.319h-.221c-.067 0-.119-.055-.119-.125s.052-.126.119-.126h.417l.86-1.104-1.165.09-.504.465a.116.116 0 0 1-.168-.011.13.13 0 0 1 .013-.178l.265-.247-.461.035h-.008a.122.122 0 0 1-.119-.115c-.005-.07.045-.131.11-.136l.437-.034-.207-.13a.129.129 0 0 1-.043-.172c.035-.06.108-.08.163-.045l.503.315 1.237-.094-.855-.981h-.6c-.067 0-.119-.057-.119-.126s.052-.126.119-.126h.38l-.278-.32a.13.13 0 0 1 .007-.178.115.115 0 0 1 .167.007l.176.201-.054-.273a.127.127 0 0 1 .093-.148.119.119 0 0 1 .14.098l.13.679.756.867-.079-1.293-.472-.703a.13.13 0 0 1 .026-.175.116.116 0 0 1 .166.029l.252.372-.03-.49a.123.123 0 0 1 .11-.134.122.122 0 0 1 .125.118l.024.372.077-.211a.119.119 0 0 1 .155-.07.13.13 0 0 1 .067.162l-.264.704.087 1.414.874-1.12.045.332v.002l-.742.954.867-.067.035.25-.876.067.953 1.092.087.008.078.553Zm1.234 9.895a.13.13 0 0 1 .027-.174.113.113 0 0 1 .1-.019l.068.482-.195-.289Zm-1.086 1.189c0-.069.054-.126.12-.126h.382l-.28-.32a.132.132 0 0 1 .006-.178.117.117 0 0 1 .17.007l.173.201-.052-.273a.126.126 0 0 1 .093-.148.119.119 0 0 1 .14.097l.13.681.615.705.064.443-.84-.963h-.602c-.065 0-.118-.057-.118-.126Zm1.633 1.618-.803 1.03-.093.624a.12.12 0 0 1-.117.106c-.006 0-.013 0-.019-.002a.123.123 0 0 1-.098-.144l.03-.201-.133.169a.116.116 0 0 1-.091.045.12.12 0 0 1-.075-.028.13.13 0 0 1-.015-.178l.246-.319h-.221a.122.122 0 0 1-.118-.125c0-.07.053-.126.118-.126h.417l.862-1.104-1.165.089-.505.466a.116.116 0 0 1-.167-.011.132.132 0 0 1 .011-.178l.267-.247-.461.036h-.008a.122.122 0 0 1-.119-.116c-.005-.07.044-.131.11-.134l.437-.036-.209-.129a.133.133 0 0 1-.04-.173.115.115 0 0 1 .162-.045l.503.315 1.223-.092.071.507v.001Zm.343 2.44a.075.075 0 0 1-.02.004h-.008a.122.122 0 0 1-.119-.118l-.04-.686-.257.426a.117.117 0 0 1-.1.059.11.11 0 0 1-.063-.02.13.13 0 0 1-.036-.175l.428-.714-.031-.527.246 1.752Zm-12.796.159h.008l.462-.036-.267.246a.131.131 0 0 0-.011.178.115.115 0 0 0 .09.043c.027 0 .055-.01.077-.031l.504-.467 1.165-.09-.86 1.106h-.418c-.066 0-.119.056-.119.126s.053.126.119.126h.221l-.248.318a.131.131 0 0 0 .016.177.114.114 0 0 0 .167-.017l.132-.17-.03.203a.13.13 0 0 0 .023.095h.186a.127.127 0 0 0 .025-.056l.093-.623.853-1.096.079 1.281-.296.494h.28l.042-.068.004.068h.237l-.004-.064.054.064h.316l-.395-.475-.083-1.353.946 1.085v.419c0 .07.053.125.118.125a.122.122 0 0 0 .119-.125v-.147l.411.471h.187a.13.13 0 0 0-.004-.161l-.416-.477.318.03a.123.123 0 0 0 .129-.113.124.124 0 0 0-.108-.137l-.58-.056-.952-1.092 1.311-.101.306.27a.113.113 0 0 0 .166-.016.13.13 0 0 0-.014-.177l-.117-.103.518-.04c.065-.005.115-.066.11-.135-.005-.069-.065-.121-.127-.116l-.555.043.19-.274a.13.13 0 0 0-.025-.176.114.114 0 0 0-.166.027l-.31.447-1.314.1.952-1.221.459-.143a.127.127 0 0 0 .08-.156.117.117 0 0 0-.147-.085l-.123.038.248-.318a.13.13 0 0 0-.016-.177.114.114 0 0 0-.167.017l-.18.231.026-.124a.126.126 0 0 0-.09-.15.12.12 0 0 0-.142.096l-.126.605-.95 1.22-.087-1.413.263-.704a.128.128 0 0 0-.066-.163.117.117 0 0 0-.154.07l-.079.211-.023-.371a.122.122 0 0 0-.126-.118c-.065.005-.114.064-.11.134l.03.49-.25-.373a.114.114 0 0 0-.166-.029.131.131 0 0 0-.028.176l.473.701.08 1.294-.756-.867-.131-.68c-.013-.067-.077-.112-.14-.098-.064.014-.105.08-.093.149l.053.273-.175-.2a.114.114 0 0 0-.168-.008.131.131 0 0 0-.006.178l.279.32h-.382c-.066 0-.119.056-.119.126s.053.126.119.126h.601l.855.98-1.238.096-.502-.316a.115.115 0 0 0-.162.044.13.13 0 0 0 .041.173l.209.13-.438.034a.124.124 0 0 0-.11.135.123.123 0 0 0 .119.117Zm-13.916.957h.009l.461-.036-.266.247a.131.131 0 0 0-.012.177.114.114 0 0 0 .167.012l.505-.466 1.165-.09-.785 1.008h.308l.638-.82.05.82h.237l-.053-.872.76.872h.323l-.916-1.05 1.311-.101.306.27a.114.114 0 0 0 .166-.016.131.131 0 0 0-.015-.178l-.116-.103.518-.04a.123.123 0 0 0 .11-.134.123.123 0 0 0-.127-.116l-.555.042.19-.274a.131.131 0 0 0-.025-.176.114.114 0 0 0-.166.027l-.31.447-1.314.101.952-1.221.459-.143a.127.127 0 0 0 .08-.156.118.118 0 0 0-.147-.086l-.123.039.248-.319a.13.13 0 0 0-.016-.177.114.114 0 0 0-.167.017l-.18.232.026-.125a.126.126 0 0 0-.09-.15.119.119 0 0 0-.142.096l-.126.605-.951 1.22-.086-1.413.263-.704a.129.129 0 0 0-.067-.163.117.117 0 0 0-.154.07l-.078.21-.023-.37c-.004-.07-.063-.123-.126-.118a.123.123 0 0 0-.11.134l.03.49-.251-.372a.114.114 0 0 0-.166-.03.13.13 0 0 0-.027.176l.473.701.079 1.295-.756-.867-.13-.68a.12.12 0 0 0-.14-.098.126.126 0 0 0-.093.148l.053.274-.176-.201a.114.114 0 0 0-.167-.007.131.131 0 0 0-.007.178l.28.32h-.383c-.065 0-.118.056-.118.125 0 .07.053.126.118.126h.602l.855.98-1.238.096-.502-.315a.115.115 0 0 0-.162.044.13.13 0 0 0 .042.172l.208.131-.438.034a.123.123 0 0 0-.11.134.122.122 0 0 0 .118.117Zm-10.818-1.5h.009l.461-.035-.266.246a.131.131 0 0 0-.012.177.114.114 0 0 0 .167.012l.505-.466 1.165-.09-.86 1.106h-.418a.122.122 0 0 0-.119.126c0 .069.053.125.119.125h.221l-.248.319a.131.131 0 0 0 .016.176.114.114 0 0 0 .167-.016l.132-.17-.03.203a.125.125 0 0 0 .099.143.121.121 0 0 0 .136-.105l.092-.622.854-1.096.078 1.281-.429.715a.13.13 0 0 0 .037.174c.02.013.041.02.063.02.04 0 .078-.021.1-.059l.255-.425.038.612h.237l-.037-.607.225.27a.114.114 0 0 0 .167.011.131.131 0 0 0 .01-.177l-.427-.515-.083-1.353.945 1.084v.42c0 .069.053.125.119.125.065 0 .118-.056.118-.126v-.147l.42.482a.115.115 0 0 0 .167.007.131.131 0 0 0 .007-.178l-.416-.477.318.03a.122.122 0 0 0 .13-.114c.005-.069-.043-.13-.108-.136l-.58-.056-.953-1.093 1.312-.1.305.27c.022.02.05.029.076.029a.115.115 0 0 0 .09-.045.131.131 0 0 0-.014-.178l-.117-.103.518-.04a.124.124 0 0 0 .11-.134.122.122 0 0 0-.127-.116l-.554.042.19-.274a.13.13 0 0 0-.026-.175.114.114 0 0 0-.166.026l-.31.447-1.313.101.95-1.221.46-.143a.127.127 0 0 0 .08-.157.118.118 0 0 0-.147-.085l-.123.038.248-.318a.131.131 0 0 0-.016-.177.114.114 0 0 0-.167.017l-.18.232.026-.125a.126.126 0 0 0-.09-.15.119.119 0 0 0-.142.096l-.126.605-.951 1.22-.087-1.413.264-.704a.129.129 0 0 0-.067-.163.116.116 0 0 0-.154.07l-.078.21-.023-.37a.123.123 0 0 0-.126-.118.123.123 0 0 0-.11.134l.03.49-.251-.372a.114.114 0 0 0-.166-.03.13.13 0 0 0-.027.176l.472.7.08 1.295-.756-.866-.13-.68a.12.12 0 0 0-.14-.098.126.126 0 0 0-.093.148l.052.274-.175-.201a.114.114 0 0 0-.167-.007.131.131 0 0 0-.007.177l.28.32H27.1c-.065 0-.118.057-.118.126 0 .07.053.126.118.126h.602l.855.98-1.238.096-.502-.316a.115.115 0 0 0-.163.045.13.13 0 0 0 .042.172l.208.13-.437.034a.124.124 0 0 0-.11.135.122.122 0 0 0 .118.117Zm-.298-7.29a.123.123 0 0 1-.11.134l-.518.04.116.103c.05.045.058.124.016.178a.115.115 0 0 1-.092.045.112.112 0 0 1-.076-.03l-.305-.27-1.312.1.953 1.094.58.055a.124.124 0 0 1 .108.138.122.122 0 0 1-.128.114l-.32-.032.416.478a.13.13 0 0 1-.006.178.117.117 0 0 1-.081.034.117.117 0 0 1-.087-.042l-.419-.48v.146c0 .07-.054.126-.118.126-.067 0-.119-.056-.119-.126v-.42l-.945-1.083.082 1.354.428.515a.132.132 0 0 1-.01.177.115.115 0 0 1-.169-.011l-.224-.27.041.664c.003.068-.046.129-.11.134h-.008c-.062 0-.114-.052-.119-.118l-.043-.686-.17.285.085-.61.06-.1-.014-.227.262-1.867.822-1.057.127-.605a.12.12 0 0 1 .142-.096.126.126 0 0 1 .09.149l-.027.126.18-.233a.115.115 0 0 1 .168-.017c.05.045.057.124.016.178l-.248.319.123-.04c.063-.02.128.02.147.086a.127.127 0 0 1-.08.156l-.46.143-.95 1.22 1.313-.1.31-.446a.113.113 0 0 1 .165-.027c.053.04.064.12.026.176l-.19.274.555-.044a.122.122 0 0 1 .127.118ZM37.49 28.492a.124.124 0 0 1-.112.135l-.517.04.116.102c.05.046.057.124.016.178a.112.112 0 0 1-.168.015l-.305-.27-1.312.1.953 1.094.58.056c.065.006.112.067.108.137a.122.122 0 0 1-.13.114l-.318-.031.416.478a.132.132 0 0 1-.006.177.117.117 0 0 1-.08.034.117.117 0 0 1-.088-.042l-.419-.482v.148c0 .07-.053.126-.118.126-.067 0-.119-.055-.119-.126v-.42l-.945-1.083.082 1.354.429.515a.13.13 0 0 1-.011.176.114.114 0 0 1-.168-.01l-.225-.27.041.664c.004.069-.045.13-.112.134h-.006a.121.121 0 0 1-.119-.117l-.042-.686-.255.424a.115.115 0 0 1-.164.039.13.13 0 0 1-.037-.173l.43-.717-.079-1.281-.853 1.097-.094.622a.12.12 0 0 1-.115.107l-.019-.001a.127.127 0 0 1-.1-.145l.03-.203-.13.17a.115.115 0 0 1-.168.017.13.13 0 0 1-.016-.177l.248-.318h-.22a.124.124 0 0 1-.12-.126c0-.07.054-.126.12-.126h.416l.86-1.105-1.163.088-.505.468a.114.114 0 0 1-.167-.013.132.132 0 0 1 .011-.178l.267-.246-.461.037h-.01a.122.122 0 0 1-.118-.118c-.003-.069.046-.13.11-.134l.438-.034-.208-.13a.13.13 0 0 1-.041-.173.116.116 0 0 1 .163-.044l.5.315 1.238-.095-.855-.98h-.6c-.065 0-.119-.057-.119-.126 0-.07.054-.125.118-.125h.383l-.28-.32a.132.132 0 0 1 .007-.179.107.107 0 0 1 .022-.016.11.11 0 0 1 .115 0c.011.005.02.013.03.023l.176.201-.043-.224h.242l.11.58.756.867-.08-1.295-.102-.152h.387l-.047.129.085 1.412.952-1.22.068-.321h.49l-.11.142.123-.038c.061-.02.127.018.146.085a.127.127 0 0 1-.08.156l-.46.143-.95 1.22 1.313-.1.31-.446a.113.113 0 0 1 .166-.027c.052.04.063.12.026.176l-.19.274.553-.044a.123.123 0 0 1 .128.118Zm-12.213 3.307.02.307a.126.126 0 0 1-.08.126l.06-.433Zm.381-.254a.132.132 0 0 1-.011.178.115.115 0 0 1-.168-.012l-.163-.194v-.002l.046-.324.296.354Zm.582-3.518-.528.677.068-.483.281-.362.127-.604a.118.118 0 0 1 .142-.095.126.126 0 0 1 .09.149l-.027.124.18-.231a.115.115 0 0 1 .168-.017c.05.044.057.124.016.178l-.248.317.123-.037c.063-.02.128.018.147.084a.127.127 0 0 1-.08.156l-.46.144Zm.683 3.316a.129.129 0 0 1-.007.178.108.108 0 0 1-.08.033.115.115 0 0 1-.087-.04l-.42-.481v.147c0 .07-.053.126-.118.126-.066 0-.118-.057-.118-.126v-.419l-.577-.661.044-.319.707.81.58.056a.124.124 0 0 1 .107.136.12.12 0 0 1-.128.114l-.319-.03.416.476Zm.671-2.146c.005.07-.044.13-.109.134l-.518.04.117.103a.132.132 0 0 1 .014.178.12.12 0 0 1-.092.045.113.113 0 0 1-.076-.03l-.305-.27-1.023.079.037-.255.963-.074.31-.448a.116.116 0 0 1 .165-.027.133.133 0 0 1 .026.176l-.19.275.555-.043a.12.12 0 0 1 .126.117Z"/>
  </g>
  <mask id="z" width="43" height="31" x="22" y="26" maskUnits="userSpaceOnUse" style="mask-type:luminance">
    <path fill="#fff" d="m64.281 52.08-8.932 4.228H31.364l-8.932-4.229 3.542-25.245H60.74l3.542 25.245Z"/>
  </mask>
  <g mask="url(#z)">
    <path fill="#F5F6F7" d="m38.676 52.022-.2.092h-.418c-.066 0-.119.02-.119.045 0 .025.053.046.119.046h.221l-.248.114c-.041.02-.034.048.016.063.022.007.05.01.076.01a.233.233 0 0 0 .091-.015l.132-.061-.03.072c-.01.025.034.048.099.052h.018c.057 0 .108-.015.117-.037l.093-.224.34-.157h-.307Zm2.831.343-.416-.172.318.011c.065.003.123-.016.129-.04.006-.026-.042-.048-.107-.05l-.58-.02-.177-.072h-.323l.325.134v.15c0 .025.053.045.119.045.065 0 .118-.02.118-.045v-.053l.42.173a.24.24 0 0 0 .087.015.253.253 0 0 0 .08-.012c.048-.017.051-.046.007-.064Zm-1.265.072-.428-.185-.04-.23h-.237l.038.223-.43.257c-.034.021-.018.05.037.063a.267.267 0 0 0 .164-.014l.255-.153.042.246c.004.024.056.043.118.043h.008c.065-.002.115-.023.11-.048l-.04-.24.225.098a.27.27 0 0 0 .167.004c.049-.016.054-.045.01-.064Zm10.122 2.523a.254.254 0 0 0 .08-.011c.048-.017.051-.046.007-.064l-.416-.172.318.011c.065.003.123-.016.13-.04.005-.026-.043-.048-.108-.05l-.58-.02-.953-.393 1.312-.036.305.097c.022.008.05.01.076.01a.23.23 0 0 0 .091-.015c.042-.02.035-.048-.015-.064l-.116-.037.518-.014c.065-.002.114-.024.11-.049-.006-.024-.063-.043-.128-.041l-.554.015.19-.099c.038-.02.027-.048-.026-.063a.265.265 0 0 0-.165.01l-.31.16-1.314.037.951-.439.46-.051c.062-.008.098-.033.08-.056-.019-.024-.085-.038-.147-.031l-.123.014.247-.115c.042-.019.035-.047-.015-.063a.268.268 0 0 0-.167.006l-.18.083.025-.045c.014-.024-.026-.048-.09-.053-.064-.006-.127.01-.141.034l-.127.217-.95.439-.087-.508.264-.253c.024-.023-.006-.05-.067-.059-.06-.009-.13.003-.154.026l-.079.075-.022-.133c-.005-.025-.063-.043-.126-.042-.066.001-.115.023-.111.048l.03.176-.25-.134a.262.262 0 0 0-.166-.01c-.053.014-.066.043-.027.063l.472.252.08.465-.757-.312-.13-.244c-.013-.024-.075-.04-.14-.035-.064.005-.105.029-.092.053l.052.099-.175-.072a.272.272 0 0 0-.167-.003c-.049.017-.051.045-.007.064l.28.115h-.383c-.066 0-.119.02-.119.045 0 .025.053.045.119.045h.601l.855.353-1.237.034-.502-.114c-.057-.012-.13-.005-.163.016-.033.022-.015.05.042.062l.208.047-.438.012c-.065.002-.114.024-.11.048.005.024.057.042.118.042h.01l.46-.012-.266.088c-.05.017-.054.045-.011.064.023.01.056.015.09.015a.254.254 0 0 0 .077-.01l.504-.168 1.165-.033-.86.398h-.418c-.066 0-.119.02-.119.045 0 .025.053.045.119.045h.221l-.247.114c-.042.02-.035.048.016.064a.26.26 0 0 0 .075.01.233.233 0 0 0 .091-.016l.132-.06-.03.072c-.01.025.034.048.099.052h.018c.058 0 .108-.016.117-.038l.093-.224.854-.394.078.46-.429.258c-.035.02-.019.049.036.062a.28.28 0 0 0 .064.007c.04 0 .078-.007.1-.02l.255-.154.042.247c.004.024.056.042.118.042h.008c.065-.002.115-.023.11-.048l-.04-.24.225.098a.27.27 0 0 0 .167.004c.05-.017.054-.045.01-.064l-.427-.185-.083-.486.945.39v.15c0 .025.053.045.119.045.065 0 .118-.02.118-.045v-.053l.42.173a.23.23 0 0 0 .087.015Zm-15.619.235a.252.252 0 0 0 .08-.012c.049-.017.052-.046.007-.064l-.415-.171.318.01c.064.003.123-.015.128-.04.006-.025-.042-.047-.107-.05l-.58-.02-.952-.392 1.311-.036.306.097c.022.007.049.01.075.01a.232.232 0 0 0 .092-.016c.041-.02.034-.048-.016-.064l-.116-.037.518-.014c.065-.002.114-.023.11-.048-.005-.025-.063-.044-.127-.042l-.555.015.19-.098c.039-.02.027-.049-.025-.063a.264.264 0 0 0-.166.01l-.31.16-1.314.036.952-.439.459-.051c.063-.007.099-.032.08-.056-.018-.024-.084-.038-.147-.03l-.123.013.248-.114c.041-.02.034-.048-.016-.064a.267.267 0 0 0-.167.006l-.18.083.026-.044c.014-.025-.027-.049-.09-.054-.065-.006-.128.01-.142.034l-.126.217-.951.44-.086-.509.263-.253c.024-.023-.006-.05-.067-.058-.06-.01-.13.002-.154.025l-.078.076-.023-.134c-.004-.025-.063-.043-.126-.042-.065.002-.115.023-.11.048l.03.176-.251-.133a.262.262 0 0 0-.166-.01c-.053.014-.065.042-.027.062l.472.252.08.465-.756-.311-.13-.244c-.014-.025-.076-.04-.14-.036-.065.005-.106.03-.093.054l.052.098-.175-.072a.272.272 0 0 0-.167-.003c-.048.017-.051.046-.007.064l.28.115h-.383c-.065 0-.118.02-.118.045 0 .025.053.046.118.046h.602l.855.352-1.238.034-.502-.113c-.056-.013-.13-.006-.163.016-.033.021-.014.049.042.062l.208.047-.438.012c-.065.002-.114.023-.11.048.005.024.057.042.119.042h.009l.461-.013-.267.089c-.049.016-.054.045-.011.063.024.01.056.016.09.016a.258.258 0 0 0 .077-.011l.505-.168 1.164-.032-.86.397h-.418c-.065 0-.118.02-.118.045 0 .026.053.046.118.046h.222l-.248.114c-.042.02-.035.048.016.064a.26.26 0 0 0 .075.01.234.234 0 0 0 .092-.016l.132-.061-.03.073c-.01.024.034.047.098.051h.019c.057 0 .107-.015.117-.037l.093-.224.853-.394.079.46-.43.257c-.034.022-.018.05.037.063a.275.275 0 0 0 .164-.014l.255-.153.041.247c.005.023.057.042.119.042h.008c.065-.002.114-.023.11-.048l-.04-.24.224.098a.27.27 0 0 0 .168.004c.049-.017.053-.045.01-.064l-.428-.185-.082-.486.945.39v.15c0 .025.053.045.118.045.066 0 .119-.02.119-.045v-.053l.42.173a.256.256 0 0 0 .086.014Zm21.78.41a.253.253 0 0 0 .08-.011c.049-.017.052-.046.007-.064l-.416-.172.318.011c.065.002.123-.016.13-.04.005-.026-.043-.048-.108-.05l-.58-.02-.953-.393 1.312-.036.305.097c.022.007.05.01.076.01a.233.233 0 0 0 .091-.015c.042-.02.035-.048-.015-.064l-.116-.037.518-.015c.065-.001.114-.023.11-.048-.005-.025-.063-.044-.127-.042l-.555.016.19-.099c.038-.02.027-.048-.026-.063a.265.265 0 0 0-.165.01l-.31.16-1.314.036.951-.439.46-.05c.062-.008.098-.033.08-.057-.019-.024-.085-.038-.147-.03l-.123.013.248-.114c.041-.02.034-.048-.016-.064a.269.269 0 0 0-.167.006l-.18.084.025-.045c.015-.024-.026-.049-.09-.054-.064-.006-.127.01-.141.034l-.127.218-.95.439-.087-.508.264-.253c.024-.024-.006-.05-.067-.06-.06-.008-.13.003-.154.026l-.079.076-.022-.133c-.005-.025-.063-.044-.126-.043-.066.002-.115.023-.111.048l.03.176-.25-.133a.262.262 0 0 0-.166-.01c-.053.014-.066.042-.027.062l.472.252.08.465-.757-.311-.13-.244c-.013-.025-.075-.04-.14-.035-.064.004-.105.028-.092.053l.052.098-.175-.072a.272.272 0 0 0-.167-.003c-.049.017-.051.046-.007.064l.279.115h-.382c-.066 0-.119.02-.119.045 0 .025.054.045.119.045h.601l.855.353-1.237.034-.502-.113c-.057-.013-.13-.006-.163.016-.033.02-.015.049.042.061l.208.047-.438.013c-.065.001-.114.023-.11.048.005.024.057.042.119.042h.008l.462-.013-.267.089c-.05.016-.054.044-.011.063.023.01.056.016.09.016a.258.258 0 0 0 .077-.011l.504-.168 1.165-.032-.86.397h-.418c-.065 0-.118.02-.118.045 0 .025.053.045.118.045h.222l-.248.115c-.042.019-.035.047.016.063a.26.26 0 0 0 .075.01.233.233 0 0 0 .092-.016l.132-.06-.03.072c-.01.025.033.048.098.052h.019c.057 0 .107-.015.117-.038l.093-.224.853-.393.078.46-.429.257c-.035.021-.018.049.037.062a.275.275 0 0 0 .163-.013l.255-.153.042.246c.004.024.056.042.118.042h.008c.066-.001.115-.023.11-.048l-.04-.239.225.097a.27.27 0 0 0 .167.005c.05-.017.054-.045.01-.064l-.427-.185-.083-.487.946.39v.15c0 .025.053.046.118.046.066 0 .119-.02.119-.045v-.053l.419.173a.23.23 0 0 0 .087.014Zm-14.103 0a.253.253 0 0 0 .08-.011c.049-.017.052-.046.007-.064l-.415-.172.318.011c.064.002.123-.016.129-.04.005-.026-.043-.048-.108-.05l-.58-.02-.952-.393 1.311-.036.305.097c.023.007.05.01.076.01a.232.232 0 0 0 .091-.015c.043-.02.036-.048-.014-.064l-.117-.037.518-.015c.066-.001.115-.023.11-.048-.005-.025-.063-.044-.127-.042l-.555.016.19-.099c.039-.02.028-.048-.025-.063a.265.265 0 0 0-.166.01l-.31.16-1.313.036.95-.439.46-.05c.063-.008.099-.033.08-.057-.018-.024-.084-.038-.147-.03l-.123.013.248-.114c.042-.02.034-.048-.016-.064a.268.268 0 0 0-.167.006l-.18.084.026-.045c.014-.024-.026-.049-.09-.054-.064-.006-.128.01-.142.034l-.126.218-.95.439-.087-.508.263-.253c.024-.024-.006-.05-.066-.06-.061-.008-.13.003-.154.026l-.08.076-.022-.133c-.004-.025-.062-.044-.126-.043-.065.002-.115.023-.11.048l.03.176-.251-.133a.262.262 0 0 0-.166-.01c-.053.014-.065.042-.027.062l.473.252.079.465-.756-.311-.13-.244c-.013-.025-.076-.04-.14-.035-.064.004-.106.028-.093.053l.053.098-.175-.072a.273.273 0 0 0-.168-.003c-.048.017-.051.046-.007.064l.28.115h-.383c-.065 0-.118.02-.118.045 0 .025.053.045.118.045h.602l.855.353-1.238.034-.502-.113c-.056-.013-.129-.006-.162.016-.034.02-.015.049.041.061l.208.047-.437.013c-.066.001-.115.023-.11.048.005.024.056.042.118.042h.009l.461-.013-.266.089c-.05.016-.055.044-.012.063.024.01.056.016.09.016a.257.257 0 0 0 .078-.011l.504-.168 1.165-.032-.86.397h-.418c-.066 0-.119.02-.119.045 0 .025.053.045.119.045h.221l-.248.115c-.041.019-.034.047.016.063a.26.26 0 0 0 .076.01.234.234 0 0 0 .091-.016l.132-.06-.03.072c-.01.025.034.048.098.052h.02c.056 0 .107-.015.116-.038l.093-.224.853-.393.079.46-.43.257c-.034.021-.018.049.037.062a.274.274 0 0 0 .164-.013l.255-.153.042.246c.004.024.056.042.118.042h.008c.065-.001.115-.023.11-.048l-.04-.239.224.097a.27.27 0 0 0 .168.005c.049-.017.053-.045.01-.064l-.428-.185-.082-.487.945.39v.15c0 .025.053.046.118.046.066 0 .119-.02.119-.045v-.053l.42.173c.023.01.054.014.086.014Z"/>
  </g>
  <mask id="A" width="43" height="31" x="22" y="26" maskUnits="userSpaceOnUse" style="mask-type:luminance">
    <path fill="#fff" d="m64.281 52.08-8.932 4.228H31.364l-8.932-4.229 3.542-25.245H60.74l3.542 25.245Z"/>
  </mask>
  <g mask="url(#A)">
    <path fill="#F5F6F7" stroke="#2E2638" stroke-linecap="round" stroke-linejoin="round" stroke-miterlimit="10" stroke-width=".227" d="m39.998 52.078 1.739 4.23h3.24l1.739-4.23h-6.718Z"/>
  </g>
  <mask id="B" width="43" height="31" x="22" y="26" maskUnits="userSpaceOnUse" style="mask-type:luminance">
    <path fill="#fff" d="m64.281 52.08-8.932 4.228H31.364l-8.932-4.229 3.542-25.245H60.74l3.542 25.245Z"/>
  </mask>
  <g mask="url(#B)">
    <path fill="#F5F6F7" stroke="#2E2638" stroke-linecap="round" stroke-linejoin="round" stroke-miterlimit="10" stroke-width=".227" d="M46.715 52.08h-6.717l1.027-22.154h4.665l1.026 22.154Z"/>
  </g>
  <mask id="C" width="43" height="31" x="22" y="26" maskUnits="userSpaceOnUse" style="mask-type:luminance">
    <path fill="#fff" d="m64.281 52.08-8.932 4.228H31.364l-8.932-4.229 3.542-25.245H60.74l3.542 25.245Z"/>
  </mask>
  <g mask="url(#C)">
    <path fill="#000" fill-opacity=".7" d="m25.603 29.478-.326 2.323h36.157v-2.805l-35.831.482Z" opacity=".3"/>
  </g>
  <mask id="D" width="43" height="31" x="22" y="26" maskUnits="userSpaceOnUse" style="mask-type:luminance">
    <path fill="#fff" d="m64.281 52.08-8.932 4.228H31.364l-8.932-4.229 3.542-25.245H60.74l3.542 25.245Z"/>
  </mask>
  <g mask="url(#D)">
    <path fill="#000" fill-opacity=".7" d="m64.281 52.078-8.932 4.229H31.364l-8.932-4.229h41.85Z" opacity=".3"/>
  </g>
  <path stroke="#2E2638" stroke-linecap="round" stroke-linejoin="round" stroke-miterlimit="10" stroke-width=".227" d="m64.281 52.08-8.932 4.228H31.364l-8.932-4.229 3.542-25.245H60.74l3.542 25.245Zm-32.461-.002h32.461m-33.117 0h-1.16m-1.495 0h-1.714m-1.026 0h-3.337"/>
  <path fill="#2E2638" d="M41.036 24.223s-3.556-3.758-5.869-4.003c-2.314-.244-3.782.224-3.782.224s2.85-2.313 6.098-1.258c3.25 1.055 5.674 4.838 5.674 4.838l-2.121.198Z"/>
  <path fill="#F5F6F7" d="M36.664 18.695c-3.44-.982-5.697 1.801-5.725 2.8-.008.286.438.648 1.179 1.024 1.845.935 5.521 1.954 8.603 2.097l2.635-.295.247-.027s-3.501-4.62-6.94-5.6Zm-2.001 2.288a.154.154 0 0 1-.016-.02c-.72-.883.318-2.441 2.392-1.738 1.898.644 4.063 2.596 5.426 4.341.14.176.269.349.389.518 0 0-7.442-2.22-8.191-3.101Z"/>
  <mask id="E" width="14" height="7" x="30" y="18" maskUnits="userSpaceOnUse" style="mask-type:luminance">
    <path fill="#fff" d="M36.664 18.695c-3.44-.982-5.697 1.801-5.725 2.8-.008.286.438.648 1.179 1.024 1.845.935 5.521 1.954 8.603 2.097l2.635-.295.247-.027s-3.501-4.62-6.94-5.6Zm-2.001 2.288a.154.154 0 0 1-.016-.02c-.72-.883.318-2.441 2.392-1.738 1.898.644 4.063 2.596 5.426 4.341.14.176.269.349.389.518 0 0-7.442-2.22-8.191-3.101Z"/>
  </mask>
  <g mask="url(#E)">
    <path fill="#000" fill-opacity=".7" d="m43.356 24.321-2.635.295c-3.082-.142-6.758-1.162-8.603-2.096-.122-.593.168-.998.825-.953.938.062 1.096.36 1.345-.203.076-.17.2-.305.36-.401l.015.02c.75.88 8.19 3.102 8.19 3.102-.12-.17-.249-.343-.388-.519.462.266.787.522.891.755Z" opacity=".3"/>
  </g>
  <path stroke="#2E2638" stroke-linecap="round" stroke-linejoin="round" stroke-miterlimit="10" stroke-width=".227" d="M36.664 18.695c-3.44-.982-5.697 1.801-5.725 2.8-.008.286.438.648 1.179 1.024 1.845.935 5.521 1.954 8.603 2.097l2.635-.295.247-.027s-3.501-4.62-6.94-5.6Zm-2.001 2.288a.154.154 0 0 1-.016-.02c-.72-.883.318-2.441 2.392-1.738 1.898.644 4.063 2.596 5.426 4.341.14.176.269.349.389.518 0 0-7.442-2.22-8.191-3.101Z"/>
  <path fill="#2E2638" d="M45.677 24.223s3.555-3.758 5.869-4.003c2.313-.244 3.782.224 3.782.224s-2.85-2.313-6.099-1.258c-3.248 1.055-5.673 4.838-5.673 4.838l2.12.198Z"/>
  <path fill="#F5F6F7" d="M50.049 18.695c-3.438.98-6.94 5.599-6.94 5.599l.247.027.002.001 2.633.294c3.75-.173 8.376-1.644 9.519-2.682.174-.16.267-.307.264-.44-.029-.998-2.286-3.78-5.725-2.8Zm-5.902 5.302c-.185.057-.288.087-.288.087 1.314-1.857 3.726-4.15 5.815-4.86 2.09-.707 3.127.88 2.376 1.759a.711.711 0 0 1-.12.109c-1.06.828-6.471 2.506-7.783 2.905Z"/>
  <mask id="F" width="13" height="7" x="43" y="18" maskUnits="userSpaceOnUse" style="mask-type:luminance">
    <path fill="#fff" d="M50.049 18.695c-3.438.98-6.94 5.599-6.94 5.599l.247.027.002.001 2.633.294c3.75-.173 8.376-1.644 9.519-2.682.174-.16.267-.307.264-.44-.029-.998-2.286-3.78-5.725-2.8Zm-5.902 5.302c-.185.057-.288.087-.288.087 1.314-1.857 3.726-4.15 5.815-4.86 2.09-.707 3.127.88 2.376 1.759a.711.711 0 0 1-.12.109c-1.06.828-6.471 2.506-7.783 2.905Z"/>
  </mask>
  <g mask="url(#F)">
    <path fill="#000" fill-opacity=".7" d="M55.51 21.934c-1.143 1.038-5.77 2.51-9.519 2.682l-2.633-.294-.002-.001s.305-.124.79-.324c1.313-.399 6.723-2.076 7.784-2.905.175.043.35.11.523.206.656.364-.719 1.062.563.961.855-.065 1.835-.397 2.494-.325Z" opacity=".3"/>
  </g>
  <path stroke="#2E2638" stroke-linecap="round" stroke-linejoin="round" stroke-miterlimit="10" stroke-width=".227" d="M50.049 18.695c-3.438.98-6.94 5.599-6.94 5.599l.247.027.002.001 2.633.294c3.75-.173 8.376-1.644 9.519-2.682.174-.16.267-.307.264-.44-.029-.998-2.286-3.78-5.725-2.8Zm-5.902 5.302c-.185.057-.288.087-.288.087 1.314-1.857 3.726-4.15 5.815-4.86 2.09-.707 3.127.88 2.376 1.759a.714.714 0 0 1-.12.109c-1.06.828-6.471 2.506-7.783 2.905Zm-2.105.297s-3.784-.21-6.785-1.868"/>
  <path stroke="#2E2638" stroke-linecap="round" stroke-linejoin="round" stroke-miterlimit="10" stroke-width=".227" d="M35.558 23.23c1.633.447 3.352.88 5.048.855m-6.318-1.228c.177.057.355.111.533.164m10.129 1.164s3.345-.896 5.033-1.195c1.688-.298.106.47-.541.55"/>
  <path fill="#BA8CFF" fill-opacity=".91" d="M61.872 30.076H24.841l.87-6.19h35.292l.87 6.19Z"/>
  <mask id="G" width="38" height="8" x="24" y="23" maskUnits="userSpaceOnUse" style="mask-type:luminance">
    <path fill="#fff" d="M61.872 30.076H24.841l.87-6.19h35.292l.87 6.19Z"/>
  </mask>
  <g mask="url(#G)">
    <path fill="#F5F6F7" d="M34.993 24.398a.122.122 0 0 1-.109.134l-.518.04.117.104a.13.13 0 0 1 .015.176.117.117 0 0 1-.091.045.11.11 0 0 1-.076-.028l-.305-.27-1.312.1.953 1.092.578.057c.067.005.114.068.108.136-.005.07-.063.121-.128.114l-.318-.03.416.476c.044.05.04.131-.007.178a.12.12 0 0 1-.08.034.113.113 0 0 1-.087-.04l-.42-.482v.148c0 .069-.053.126-.119.126-.065 0-.119-.057-.119-.126v-.42l-.945-1.085.084 1.354.427.515a.13.13 0 0 1-.01.178.115.115 0 0 1-.167-.012l-.226-.27.04.664a.122.122 0 0 1-.11.134h-.008a.122.122 0 0 1-.118-.117l-.041-.686-.255.426a.122.122 0 0 1-.1.058.118.118 0 0 1-.064-.02.132.132 0 0 1-.037-.174l.43-.715-.079-1.281-.853 1.095-.093.624a.121.121 0 0 1-.117.106c-.007 0-.013 0-.02-.002-.064-.01-.107-.075-.097-.144l.03-.201-.131.169a.118.118 0 0 1-.092.045.12.12 0 0 1-.076-.028.133.133 0 0 1-.016-.178l.248-.319h-.221c-.066 0-.119-.055-.119-.126 0-.069.053-.126.119-.126h.417l.86-1.103-1.165.089-.504.466a.116.116 0 0 1-.168-.012.132.132 0 0 1 .013-.178l.265-.246-.461.035h-.008a.122.122 0 0 1-.119-.116.126.126 0 0 1 .111-.136l.436-.033-.207-.131a.129.129 0 0 1-.042-.172c.035-.06.107-.08.163-.045l.502.316 1.238-.094-.522-.599h.323l.26.299-.018-.299h.238l.024.394.307-.394h.308l-.438.562 1.315-.102.308-.447a.049.049 0 0 1 .013-.013.113.113 0 0 1 .153-.014c.005.004.01.007.013.014a.126.126 0 0 1 .013.163l-.19.273.555-.042a.122.122 0 0 1 .126.117Zm-9.305-.31-.008.01.03-.21h.503a.11.11 0 0 1-.067.058l-.458.142Zm.682 3.316a.13.13 0 0 1-.006.178.108.108 0 0 1-.08.034.115.115 0 0 1-.087-.04l-.419-.482v.148c0 .068-.054.125-.118.125a.122.122 0 0 1-.119-.125v-.42l-.209-.24.045-.318.338.389.58.055a.124.124 0 0 1 .107.136c-.006.07-.063.12-.128.114l-.32-.03.417.476Zm.673-2.146c.004.069-.045.13-.11.134l-.518.04.117.103a.132.132 0 0 1 .014.178.116.116 0 0 1-.091.045.112.112 0 0 1-.076-.03l-.305-.27-.592.045.037-.255.53-.04.31-.448a.116.116 0 0 1 .166-.027c.053.042.064.12.026.176l-.19.275.555-.044c.065-.005.122.048.127.118Zm23.301.558a.13.13 0 0 1-.006.178.107.107 0 0 1-.08.033.115.115 0 0 1-.087-.04l-.42-.481v.147c0 .07-.053.126-.118.126-.066 0-.118-.057-.118-.126v-.419l-.946-1.084.082 1.354.429.513a.132.132 0 0 1-.011.178.115.115 0 0 1-.168-.01l-.224-.272.04.666c.004.07-.045.13-.11.133H48.6a.122.122 0 0 1-.118-.117l-.041-.685-.256.425a.114.114 0 0 1-.1.058.11.11 0 0 1-.063-.02.128.128 0 0 1-.036-.173l.428-.716-.078-1.282-.853 1.097-.093.623a.12.12 0 0 1-.117.105l-.02-.001c-.064-.01-.108-.076-.099-.143l.032-.203-.133.17a.115.115 0 0 1-.092.045.109.109 0 0 1-.074-.029.13.13 0 0 1-.016-.178l.247-.317h-.221a.123.123 0 0 1-.119-.125c0-.07.054-.126.119-.126h.417l.861-1.106-1.164.09-.505.466a.11.11 0 0 1-.077.031.118.118 0 0 1-.09-.043.132.132 0 0 1 .01-.178l.268-.246-.462.035-.01.001c-.06 0-.111-.052-.116-.117-.005-.069.044-.13.109-.134l.394-.03h3.276l-1.07.082.952 1.094.58.055a.124.124 0 0 1 .107.136.123.123 0 0 1-.128.114l-.319-.03.415.476Zm.176-1.691a.12.12 0 0 1-.092.045.112.112 0 0 1-.075-.03l-.285-.251h.37l.066.058c.05.046.057.125.016.178Zm-6.714 2.522-.554.042.19-.274a.13.13 0 0 0-.026-.176.114.114 0 0 0-.166.027l-.31.447-1.313.101.95-1.221.46-.143a.127.127 0 0 0 .08-.156.118.118 0 0 0-.147-.086l-.123.039.248-.319a.131.131 0 0 0-.016-.177.114.114 0 0 0-.167.017l-.18.232.026-.125a.126.126 0 0 0-.09-.15.12.12 0 0 0-.142.096l-.126.605-.95 1.221-.087-1.413.263-.705a.129.129 0 0 0-.066-.163.117.117 0 0 0-.154.07l-.079.211-.023-.371a.122.122 0 0 0-.126-.118c-.065.005-.114.065-.11.134l.03.49-.25-.372a.114.114 0 0 0-.166-.03.13.13 0 0 0-.028.176l.473.701.079 1.295-.756-.867-.13-.68a.119.119 0 0 0-.14-.098.126.126 0 0 0-.093.149l.053.273-.175-.2a.114.114 0 0 0-.168-.008.131.131 0 0 0-.006.178l.279.32h-.382c-.066 0-.119.056-.119.126s.053.126.119.126h.601l.855.98-1.238.096-.502-.316a.115.115 0 0 0-.162.044.13.13 0 0 0 .041.173l.209.13-.438.034a.124.124 0 0 0-.11.135.121.121 0 0 0 .118.116h.009l.461-.035-.266.246a.131.131 0 0 0-.011.178.115.115 0 0 0 .167.012l.504-.466 1.165-.09-.86 1.105h-.418c-.066 0-.119.056-.119.126s.053.126.119.126h.221l-.247.318a.131.131 0 0 0 .016.177.114.114 0 0 0 .166-.017l.132-.169-.03.202c-.01.069.034.133.098.144a.121.121 0 0 0 .136-.105l.093-.623.853-1.095.079 1.28-.43.716a.13.13 0 0 0 .037.174.11.11 0 0 0 .064.02c.039 0 .077-.02.1-.058l.255-.426.042.686a.121.121 0 0 0 .118.117h.008c.065-.004.114-.064.11-.133l-.04-.666.225.27a.114.114 0 0 0 .167.011.131.131 0 0 0 .01-.177l-.428-.515-.082-1.353.945 1.084v.419c0 .07.053.126.119.126.065 0 .118-.056.118-.126v-.147l.42.481a.114.114 0 0 0 .168.007.132.132 0 0 0 .006-.178l-.416-.476.318.03a.123.123 0 0 0 .129-.114.125.125 0 0 0-.108-.137l-.58-.055-.952-1.093 1.312-.101.305.27a.114.114 0 0 0 .167-.016.131.131 0 0 0-.015-.177l-.117-.103.518-.04a.123.123 0 0 0 .11-.134c-.005-.07-.064-.122-.127-.116Zm15.336-2.758h.291l-.095.087a.117.117 0 0 1-.167-.012.138.138 0 0 1-.029-.075Zm1.808 0-.635.815-.093.624a.122.122 0 0 1-.117.106l-.019-.002a.127.127 0 0 1-.1-.144l.032-.203-.133.17a.117.117 0 0 1-.091.046.108.108 0 0 1-.075-.03.13.13 0 0 1-.017-.176l.248-.319h-.221a.122.122 0 0 1-.119-.126c0-.068.054-.125.119-.125h.417l.495-.636h.308Zm.266 1.516-.199.334a.115.115 0 0 1-.1.057.107.107 0 0 1-.063-.019.13.13 0 0 1-.036-.174l.344-.576.054.378Zm-3.394 3.685c.005.069-.044.13-.109.134l-.518.04.117.103a.131.131 0 0 1 .014.177.115.115 0 0 1-.092.046.125.125 0 0 1-.075-.029l-.305-.27-1.31.1.597.687h-.323l-.442-.509.032.509h-.24l-.026-.455-.354.455h-.31l.503-.644-1.165.09-.504.466a.116.116 0 0 1-.078.03.118.118 0 0 1-.09-.043.13.13 0 0 1 .011-.176l.267-.246-.461.035h-.008a.122.122 0 0 1-.118-.118.123.123 0 0 1 .109-.134l.438-.034-.21-.13a.132.132 0 0 1-.04-.173.116.116 0 0 1 .163-.044l.5.316 1.24-.094-.855-.982h-.602c-.065 0-.119-.057-.119-.126 0-.07.054-.125.119-.125h.382l-.28-.32a.132.132 0 0 1 .007-.179.116.116 0 0 1 .169.007l.174.201-.053-.273a.127.127 0 0 1 .094-.15c.061-.013.126.03.139.1l.131.68.756.866-.08-1.295-.472-.7a.13.13 0 0 1 .027-.175.113.113 0 0 1 .166.028l.25.372-.03-.49c-.004-.07.045-.129.11-.133a.124.124 0 0 1 .127.117l.022.372.079-.211a.117.117 0 0 1 .155-.07c.06.025.09.098.066.162l-.264.705.087 1.414.95-1.221.126-.606a.12.12 0 0 1 .143-.096.129.129 0 0 1 .09.152l-.027.124.18-.232a.113.113 0 0 1 .168-.017.13.13 0 0 1 .015.177l-.248.318.123-.038c.064-.02.13.018.147.085a.126.126 0 0 1-.08.156l-.459.143-.951 1.22 1.313-.1.31-.446c.04-.055.114-.069.166-.027.052.04.063.12.025.176l-.19.274.555-.042c.062-.006.122.047.127.116Z"/>
  </g>
  <mask id="H" width="38" height="8" x="24" y="23" maskUnits="userSpaceOnUse" style="mask-type:luminance">
    <path fill="#fff" d="M61.872 30.076H24.841l.87-6.19h35.292l.87 6.19Z"/>
  </mask>
  <g mask="url(#H)">
    <path fill="#F5F6F7" stroke="#2E2638" stroke-linecap="round" stroke-linejoin="round" stroke-miterlimit="10" stroke-width=".227" d="M46.027 30.076h-5.341l.154-6.19h5.032l.155 6.19Z"/>
  </g>
  <path stroke="#2E2638" stroke-linecap="round" stroke-linejoin="round" stroke-miterlimit="10" stroke-width=".227" d="M61.872 30.076H24.841l.87-6.19h35.292l.87 6.19ZM32.484 42.941a31.75 31.75 0 0 1-1.1.056m6.166-.788c-1.373.3-2.762.523-4.158.657m12.115-3.326a52.458 52.458 0 0 1-7.033 2.456m18.7-9.363a52.764 52.764 0 0 1-10.67 6.465M57.07 50.17c.41-.014.82-.038 1.23-.07m-14.159-1.35c3.986.828 8.036 1.28 12.093 1.439m-18.963-3.277a61.787 61.787 0 0 0 5.862 1.62"/>
  <path stroke="#2E2638" stroke-linecap="round" stroke-linejoin="round" stroke-miterlimit="10" stroke-width=".227" d="M51.922 28.523c.91-.026 1.82-.077 2.728-.158m-17.847-1.289c3.521.663 7.03 1.293 10.612 1.439 1.031.042 2.064.05 3.096.027m-19.593-2.864c1.623.518 3.283.893 4.95 1.22m-6.458-1.752c.2.078.4.152.6.224"/>
  <path fill="#2E2638" d="M62.047 58.92s-1.02 1.16-.583 3.25c.437 2.088 1.792 2.013 1.792 2.013 3.75.617 6.605-.474 7.208-2.61.688-2.434 1.905-7.66.885-11.146-.797-2.721-1.642-5.876-5.22-7.542-4.848-2.257-5.613 2.237-4.41 6.768.729 2.745 4.41 3.474 4.41 3.474.949.456 1.082 1.337 1.082 1.337"/>
  <path stroke="#F5F6F7" stroke-linecap="round" stroke-linejoin="round" stroke-miterlimit="10" stroke-width=".227" d="M65.346 52.906s0 2.006 1.914 3.043"/>
  <path stroke="#F5F6F7" stroke-linecap="round" stroke-linejoin="round" stroke-miterlimit="10" stroke-width=".227" d="M64.185 52.22s.526.442 1.557.809c.768.273 1.45.807 1.518 1.935m-4.073-3.878c.096.147.198.29.306.427m-1.111-8.294c-.874 2.285-.7 5.12.44 7.252"/>
  <path fill="#F5F6F7" d="M65.347 42.965c-1.155-.233-1.455 1.327-1.32 2.256a9.22 9.22 0 0 0 .384 1.624s-.657-1.06-.688-1.624c0 0-.038 2.017 1.06 3.53 0 0-.66-.352-1.06-.975 0 0 .915 2.902 2.756 3.525 0 0-.257.012-.756-.214 0 0 .493.75 1.607.992 1.114.242 2.177 1.544 2.177 1.544s.04-.439-.496-1.169c0 0 .94.597 1.312 1.36 0 0 .278-2.073-.347-3.624l.594.898s-.438-3.843-1.75-5.203l.5.199s-1.158-1.693-2.174-2.024c-1.016-.332-1.424-.233-1.424-.233s.453-.394 1.252-.166c0 0-.948-.63-1.813-.376l.186-.32Zm-1.624 15.096c-.674.536-1.126 2.522-1.126 2.522s-.031-.332 0-.896c0 0-.438.583-.313 1.668.126 1.086 1.14 1.882 2.321 1.783l-.717.331s.75.579 2.59.04c1.84-.537 2.154-2.196 2.154-2.196s-.532.066-.876-.133c0 0 .375.037.688-.28 0 0-.821-.117-1.145-.317 0 0 .65.1.6-.664-.049-.763-.735-1.393-1.596-1.56-.86-.165-1.08.17-1.08.17s.253-.468 1.08-.468c0 0-1.267-.365-1.892.166 0 0 .375-.431.782-.664 0 0-.595-.199-1.47.498Z" opacity=".2"/>
  <path fill="#2E2638" d="M24.666 58.92s1.02 1.16.583 3.25c-.438 2.088-1.793 2.013-1.793 2.013-3.75.617-6.604-.474-7.207-2.61-.688-2.434-1.906-7.66-.885-11.146.796-2.721 1.641-5.876 5.219-7.542 4.848-2.257 5.614 2.237 4.41 6.768-.728 2.745-4.41 3.474-4.41 3.474-.948.456-1.082 1.337-1.082 1.337"/>
  <path stroke="#F5F6F7" stroke-linecap="round" stroke-linejoin="round" stroke-miterlimit="10" stroke-width=".227" d="M21.366 52.906s0 2.006-1.913 3.043"/>
  <path stroke="#F5F6F7" stroke-linecap="round" stroke-linejoin="round" stroke-miterlimit="10" stroke-width=".227" d="M22.528 52.22s-.527.442-1.557.809c-.769.273-1.45.807-1.518 1.935m4.072-3.878a5.52 5.52 0 0 1-.306.427m1.111-8.294c.875 2.285.702 5.12-.44 7.252"/>
  <path fill="#F5F6F7" d="M21.366 42.965c1.155-.233 1.455 1.327 1.32 2.256-.134.929-.384 1.624-.384 1.624s.657-1.06.688-1.624c0 0 .038 2.017-1.06 3.53 0 0 .66-.352 1.06-.975 0 0-.916 2.902-2.756 3.525 0 0 .257.012.756-.214 0 0-.493.75-1.607.992-1.114.242-2.177 1.544-2.177 1.544s-.04-.439.496-1.169c0 0-.94.597-1.313 1.36 0 0-.277-2.073.348-3.624l-.594.898s.438-3.843 1.75-5.203l-.5.199s1.158-1.693 2.174-2.024c1.016-.332 1.423-.233 1.423-.233s-.452-.394-1.251-.166c0 0 .948-.63 1.813-.376l-.186-.32Zm1.624 15.096c.673.536 1.125 2.522 1.125 2.522s.032-.332 0-.896c0 0 .439.583.313 1.668-.125 1.086-1.14 1.882-2.32 1.783l.717.331s-.75.579-2.591.04c-1.84-.537-2.153-2.196-2.153-2.196s.532.066.875-.133c0 0-.375.037-.687-.28 0 0 .821-.117 1.145-.317 0 0-.65.1-.6-.664.049-.763.734-1.393 1.595-1.56.861-.165 1.08.17 1.08.17s-.252-.468-1.08-.468c0 0 1.268-.365 1.893.166 0 0-.375-.431-.782-.664 0 0 .595-.199 1.47.498Z" opacity=".2"/>
  <path stroke="#2E2638" stroke-linecap="round" stroke-linejoin="round" stroke-miterlimit="10" stroke-width=".227" d="M43.556 19.306v-1.458m0-1.495v-3.216m0-1.597v-1.08m10.096 6.274-.367.815m1.734-3.912c-.352.817-.7 1.637-1.072 2.444M56.234 11a37.97 37.97 0 0 0-.862 1.825m-6.292.905-.814 4.118m1.172-5.936-.23 1.163m8.619 8.687c-.215.224-.432.445-.653.663m3.556-3.62c-.826.728-1.576 1.545-2.332 2.353m6.207-6.301c-1.174 1.19-2.28 2.365-3.318 3.38m7.853 6.303c-2.074.735-3.97 1.573-5.953 2.148m7.565-2.801c-.311.2-.7.306-1.04.436m-31.216-7.825.14.717m-.903-4.59.607 3.085m-6.814 1.39.958.98m-4.832-4.943 3.312 3.388m-4.162 5.959c.285.12.569.244.85.373m-5.041-2.097c1.13.522 2.291.958 3.444 1.419m-5.821-2.408 1.641.683m.706 8.756.638-.028m-5.908.258 4.573-.2m-5.914.262c.205-.004.615-.02.615-.02m49.585 1.675-1.565-.132m6.033.506-3.857-.324m-45.824 5.954 1.907-.593m-3.97 1.235 1.387-.432m48.134 2.999.596.288m-3.575-1.734c.761.37 1.523.738 2.284 1.107m-4.226-2.049 1.342.651"/>
</svg>
