<svg xmlns="http://www.w3.org/2000/svg" width="222" height="221" fill="none" viewBox="0 0 222 221">
  <path fill="#F5F6F7" d="M30.3 74.168s-12.364 31.592 5.01 63.414c17.375 31.823 53.17 48.624 81.817 62.995 28.647 14.37 58.395 7.372 72.531-16.166 14.137-23.538-5.253-40.342-5.276-73.909-.023-33.567 5.077-42.454-13.29-70.813-18.366-28.359-63.45-34.635-97.53-13.602C39.482 47.12 30.3 74.168 30.3 74.168Z" opacity=".7"/>
  <path fill="#BB92E3" d="M34.352 73.893c12.784-23.287 44.938-50.468 89.053-39.146 44.115 11.322 73.919 35.274 69.035 76.948-4.884 41.673-30.547 76.295-85.83 77.309-55.283 1.014-100.288-64.053-72.258-115.111Z"/>
  <path fill="#F5F6F7" d="M34.352 73.893c12.784-23.287 44.938-50.468 89.053-39.146 44.115 11.322 73.919 35.274 69.035 76.948-4.884 41.673-30.547 76.295-85.83 77.309-55.283 1.014-100.288-64.053-72.258-115.111Z" opacity=".7"/>
  <path stroke="#2F2638" stroke-linecap="round" stroke-linejoin="round" stroke-miterlimit="10" stroke-width=".439" d="m198.254 126.655-28.766 4.407a2.012 2.012 0 0 1-2.299-1.665l-2.712-17.334a1.996 1.996 0 0 1 1.682-2.275l28.766-4.407a2.013 2.013 0 0 1 2.3 1.665l2.712 17.335a1.995 1.995 0 0 1-1.683 2.274Zm-33.339-11.792 32.748-5.017"/>
  <path stroke="#2F2638" stroke-linecap="round" stroke-linejoin="round" stroke-miterlimit="10" stroke-width=".439" d="m195.097 115.528-5.289.81 1.18 7.537 5.288-.81-1.179-7.537Z"/>
  <path stroke="#2F2638" stroke-linecap="round" stroke-linejoin="round" stroke-miterlimit="10" stroke-width=".439" d="M191.962 117.593c1.116-1.302 2.95-.431 2.523 3.644l1.635.803.161 1.03-5.289.81-.215-1.373 1.995-.77s-1.862-2.918-.81-4.144Zm-11.476 9.212s3.822.029 2.728-.726c-1.095-.755-1.259-1.519-.329-1.53.931-.012 2.492 1.737 2.37.674-.122-1.063.549-.375.677-.307.129.068 1.235-.365 1.288-.242.054.124-.022.487 3.576-.064m-23.104-6.385 16.039-2.457m-15.757 4.258 9.45-1.448m-8.953 4.624 13.178-2.018m-9.088-9.855 16.082-2.464M19.4 100.216l35.956-7.105 12.557 59.647-38.22 8.113L19.4 100.216Zm8.848 52.142 38.143-6.831m-4.521-5.074-18.213 3.327m15.513-6.321-5.322.776m6.133-6.862-27.188 5.045"/>
  <path stroke="#2F2638" stroke-dasharray=".44 .88" stroke-linecap="round" stroke-linejoin="round" stroke-miterlimit="10" stroke-width=".439" d="m24.102 127.929 37.214-6.503"/>
  <path stroke="#2F2638" stroke-linecap="round" stroke-linejoin="round" stroke-miterlimit="10" stroke-width=".439" d="m63.645 150.826-22.605 4.688m21.933-6.569-10.63 1.885m4.88-33.336-18.64 3.656m17.167-7.748-5.937 1.156m5.585-4.001-27.15 5.177m24.684-19.017-7.33 1.5m-17.353 3.654-6.326 1.215m2.301 3.452a3.262 3.262 0 0 1 1.754-2.038m1.057 6.056c-1.594-.204-2.933-1.515-2.933-3.144m5.402 2.4a3.092 3.092 0 0 1-1.61.74m-.546-6.351c2.447.01 4.053 2.837 2.757 4.907m3.709-4.081c-.59-.187-1.176-.398-1.781-.529m6.812.952c-.502 1.18-3.306.103-4.124-.141m-.677-2.993 5.241 1.233c-.082.345-.149.695-.215 1.044m-7.622-1.044c.56-1.337.34-1.764 1.734-1.436m62.236 94.575 6.94 2.106-5.158-6.01c2.84-3.233 4.517-7.188 4.569-11.294m-14.773 17.85a23.533 23.533 0 0 0 6.508-3.233m-33.292-9.537c2.043 9.745 12.928 15.749 24.313 13.413M61.87 175.58c-.438.827-.81 1.68-1.107 2.553m40.676-.027c-2.043-9.744-12.929-15.749-24.313-13.412-5.502 1.129-10.114 4-13.18 7.766"/>
  <path stroke="#2F2638" stroke-linecap="round" stroke-linejoin="round" stroke-miterlimit="10" stroke-width=".439" d="M89.36 174.536c-3.277-3.534-7.744-1.083-9.6 2.502-3.072-2.645-8.14-3.277-9.853 1.21-2.89 7.563 7.001 12.172 11.575 13.843.519.193.947.352 1.303.473.284-.243.624-.548 1.032-.919 3.618-3.233 11.068-11.15 5.543-17.109Zm27.256-143.859-6.702-2.757 4.547 6.474c-3.141 2.947-5.195 6.723-5.646 10.806m16.442-16.36a23.589 23.589 0 0 0-6.792 2.597m32.209 12.665c-1.085-9.893-11.336-16.908-22.895-15.667m20.174 26.448c.517-.781.969-1.595 1.351-2.436m-40.49-3.851c1.086 9.893 11.336 16.908 22.895 15.667 5.586-.6 10.456-3.019 13.874-6.474"/>
  <path stroke="#2F2638" stroke-linecap="round" stroke-linejoin="round" stroke-miterlimit="10" stroke-width=".439" d="M134.621 54.661c5.126-2.714 7.057-9.025 4.314-14.097-2.744-5.071-9.123-6.982-14.248-4.268-5.125 2.715-7.057 9.026-4.313 14.098 2.743 5.07 9.122 6.982 14.247 4.267Z"/>
  <path stroke="#2F2638" stroke-linecap="round" stroke-linejoin="round" stroke-miterlimit="10" stroke-width=".439" d="m125.651 46.787 3.146 2.94 5.255-8.946"/>
  <path fill="#2E2638" fill-opacity=".7" d="M142.807 144.661s-1.579 18.904.701 23.487c2.281 4.584 3.43 35.921 2.405 39.862 0 0 7.356 1.835 10.266-.771s7.385-.099 14.755-2.65c7.369-2.551 2.052-58.84 2.052-58.84l.228-20.478-12.159-10.714-18.248 30.104Z" opacity=".2"/>
  <path fill="#BB92E3" d="M152.607 153.751c-.066.167-.137.29-.217.364-1.57 1.47-8.272 3.103-14.029 4.279a234.45 234.45 0 0 1-8.888 1.641s-3.158-25.966-3.158-28.696c0-2.733-5.091-46.92-5.091-46.92l12.205-.522 16.22-.694s.098 1.18.262 3.243c1.038 13.157 4.732 62.122 2.696 67.305Z"/>
  <mask id="a" width="33" height="78" x="121" y="83" maskUnits="userSpaceOnUse" style="mask-type:luminance">
    <path fill="#fff" d="M152.607 153.751c-.066.167-.137.29-.217.364-1.57 1.47-8.272 3.103-14.029 4.279a234.45 234.45 0 0 1-8.888 1.641s-3.158-25.966-3.158-28.696c0-2.733-5.091-46.92-5.091-46.92l12.205-.522 16.22-.694s.098 1.18.262 3.243c1.038 13.157 4.732 62.122 2.696 67.305Z"/>
  </mask>
  <g mask="url(#a)">
    <path fill="#2E2638" fill-opacity=".7" d="m152.607 153.751-14.246 2.901-5.38 1.092c-1.459-1.417-2.572-1.443-2.572-1.443l-.426-3.972-.697-6.499-6.129-57.18c1.339-.91 1.987-2.897 1.987-2.897l8.205-.294 14.215-.514 2.346 1.501c1.038 13.157 4.733 62.122 2.697 67.305Z" opacity=".2"/>
  </g>
  <mask id="b" width="33" height="78" x="121" y="83" maskUnits="userSpaceOnUse" style="mask-type:luminance">
    <path fill="#fff" d="M152.607 153.751c-.066.167-.137.29-.217.364-1.57 1.47-8.272 3.103-14.029 4.279a234.45 234.45 0 0 1-8.888 1.641s-3.158-25.966-3.158-28.696c0-2.733-5.091-46.92-5.091-46.92l12.205-.522 16.22-.694s.098 1.18.262 3.243c1.038 13.157 4.732 62.122 2.696 67.305Z"/>
  </mask>
  <g mask="url(#b)">
    <path stroke="#2F2638" stroke-linecap="round" stroke-linejoin="round" stroke-miterlimit="10" stroke-width=".439" d="m152.607 153.751-14.246 2.901-5.38 1.092c-1.459-1.417-2.572-1.443-2.572-1.443l-.426-3.972-.697-6.499-6.129-57.18c1.339-.91 1.987-2.897 1.987-2.897l8.205-.294 14.215-.514 2.346 1.501c1.038 13.157 4.733 62.122 2.697 67.305Z"/>
  </g>
  <mask id="c" width="33" height="78" x="121" y="83" maskUnits="userSpaceOnUse" style="mask-type:luminance">
    <path fill="#fff" d="M152.607 153.751c-.066.167-.137.29-.217.364-1.57 1.47-8.272 3.103-14.029 4.279a234.45 234.45 0 0 1-8.888 1.641s-3.158-25.966-3.158-28.696c0-2.733-5.091-46.92-5.091-46.92l12.205-.522 16.22-.694s.098 1.18.262 3.243c1.038 13.157 4.732 62.122 2.696 67.305Z"/>
  </mask>
  <g mask="url(#c)">
    <path fill="#BB92E3" stroke="#2F2638" stroke-linecap="round" stroke-linejoin="round" stroke-miterlimit="10" stroke-width=".439" d="m131.165 136.918 4.754-.008.004 1.472-1.323.463-3.046.33-.389-2.257Zm.292 3.029 3.494-.119.896.423-.047 1.95-4.078.047-.265-2.301Zm.558 3.119 3.994-.283-.048 1.479-1.927.675-2.042-.114.023-1.757Zm.241 2.495 3.221.16.293.819-.469.9-2.882.181-.497-1.391.334-.669Zm3.716 2.855.459 1.276c.102.284.198.622.021.867-.146.201-.427.257-.676.235-.249-.022-.491-.105-.741-.116-.748-.033-1.439.577-2.175.446-.288-.788-1.013-1.946-.031-2.303.15-.054 3.247-.114 3.143-.405Zm-.015 3.594c.072.303.123.611.152.921.037.4.005.872-.33 1.1-.177.12-.402.143-.615.162l-2.563.228c-.023.002-.059-1.304-.024-1.437.15-.57.044-.523.59-.754.865-.366 1.903.214 2.79-.22Z"/>
  </g>
  <mask id="d" width="33" height="78" x="121" y="83" maskUnits="userSpaceOnUse" style="mask-type:luminance">
    <path fill="#fff" d="M152.607 153.751c-.066.167-.137.29-.217.364-1.57 1.47-8.272 3.103-14.029 4.279a234.45 234.45 0 0 1-8.888 1.641s-3.158-25.966-3.158-28.696c0-2.733-5.091-46.92-5.091-46.92l12.205-.522 16.22-.694s.098 1.18.262 3.243c1.038 13.157 4.732 62.122 2.696 67.305Z"/>
  </mask>
  <g mask="url(#d)">
    <path stroke="#2F2638" stroke-linecap="round" stroke-linejoin="round" stroke-miterlimit="10" stroke-width=".439" d="M126.635 89.943s.968 9.25 1.012 11.079"/>
  </g>
  <mask id="e" width="33" height="78" x="121" y="83" maskUnits="userSpaceOnUse" style="mask-type:luminance">
    <path fill="#fff" d="M152.607 153.751c-.066.167-.137.29-.217.364-1.57 1.47-8.272 3.103-14.029 4.279a234.45 234.45 0 0 1-8.888 1.641s-3.158-25.966-3.158-28.696c0-2.733-5.091-46.92-5.091-46.92l12.205-.522 16.22-.694s.098 1.18.262 3.243c1.038 13.157 4.732 62.122 2.696 67.305Z"/>
  </mask>
  <g mask="url(#e)">
    <path stroke="#2F2638" stroke-linecap="round" stroke-linejoin="round" stroke-miterlimit="10" stroke-width=".439" d="m128.718 90.031.454 5.097"/>
  </g>
  <mask id="f" width="33" height="78" x="121" y="83" maskUnits="userSpaceOnUse" style="mask-type:luminance">
    <path fill="#fff" d="M152.607 153.751c-.066.167-.137.29-.217.364-1.57 1.47-8.272 3.103-14.029 4.279a234.45 234.45 0 0 1-8.888 1.641s-3.158-25.966-3.158-28.696c0-2.733-5.091-46.92-5.091-46.92l12.205-.522 16.22-.694s.098 1.18.262 3.243c1.038 13.157 4.732 62.122 2.696 67.305Z"/>
  </mask>
  <g mask="url(#f)">
    <path fill="#BB92E3" stroke="#2F2638" stroke-linecap="round" stroke-linejoin="round" stroke-miterlimit="10" stroke-width=".439" d="m135.943 88.107.586 5.973.82.076-.267-5.993-1.139-.056Z"/>
  </g>
  <mask id="g" width="33" height="78" x="121" y="83" maskUnits="userSpaceOnUse" style="mask-type:luminance">
    <path fill="#fff" d="M152.607 153.751c-.066.167-.137.29-.217.364-1.57 1.47-8.272 3.103-14.029 4.279a234.45 234.45 0 0 1-8.888 1.641s-3.158-25.966-3.158-28.696c0-2.733-5.091-46.92-5.091-46.92l12.205-.522 16.22-.694s.098 1.18.262 3.243c1.038 13.157 4.732 62.122 2.696 67.305Z"/>
  </mask>
  <g mask="url(#g)">
    <path fill="#2E2638" fill-opacity=".7" d="M152.607 153.751c-.066.167-.137.29-.217.364-1.57 1.47-8.272 3.103-14.029 4.279v-3.941l-8.378-2.124-1.264-.32.568-6.179 2.169-23.618 1.894-36.753.079-1.563 16.22-.693s.098 1.18.262 3.243c1.038 13.157 4.732 62.122 2.696 67.305Z" opacity=".2"/>
  </g>
  <path stroke="#2F2638" stroke-linecap="round" stroke-linejoin="round" stroke-miterlimit="10" stroke-width=".439" d="M152.607 153.751c-.066.167-.137.29-.217.364-1.57 1.47-8.272 3.103-14.029 4.279a234.45 234.45 0 0 1-8.888 1.641s-3.158-25.966-3.158-28.696c0-2.733-5.091-46.92-5.091-46.92l12.205-.522 16.22-.694s.098 1.18.262 3.243c1.038 13.157 4.732 62.122 2.696 67.305Z"/>
  <path fill="#F5F6F7" stroke="#2F2638" stroke-width=".186" d="M167.781 112.145h.001l.004.003a19.54 19.54 0 0 1 3.226 3.836 20.646 20.646 0 0 1 1.884 3.744c1.4 3.675 3.227 6.795 4.82 9.263.797 1.235 1.534 2.305 2.133 3.201.597.894 1.058 1.619 1.295 2.158.123.28.212.788.275 1.456.064.672.104 1.519.125 2.482.044 1.927.016 4.329-.043 6.762-.116 4.87-.349 9.856-.349 11.42 0 1.569-.511 5.969-1.014 10.267-.252 2.152-.502 4.28-.685 6.022-.184 1.744-.302 3.092-.288 3.688.019.863.327 2.926.781 5.407a159.236 159.236 0 0 0 1.647 7.867l.112.498c.315 1.463 1 4.938 1.678 8.329.388 1.939.774 3.851 1.086 5.348.157.749.294 1.394.406 1.886.111.494.195.829.242.961l.033.096-.099.025-23.831 5.903-.129.032.015-.133c.012-.106 0-.405-.03-.863a91.051 91.051 0 0 0-.142-1.752c-.124-1.398-.299-3.19-.478-4.998-.359-3.613-.735-7.302-.748-8.029-.036-1.972-.335-4.25-.626-6.037a73.077 73.077 0 0 0-.525-2.847l-.036-.171-.01-.044-.001-.006c-.396-1.004-.769-2.331-1.172-3.844-.403-1.518-.836-3.225-1.351-4.992-1.031-3.535-2.387-7.299-4.485-10.237-4.226-5.927-4.227-12.903-4.926-18.79-.353-2.951-.485-4.301-.507-5.569-.022-1.265.068-2.45.156-5.061.173-5.229-.177-8.295-.527-11.766-.175-1.736-.439-4.137-.527-6.46-.087-2.318-.001-4.575.532-6.018.534-1.445 1.507-2.351 2.746-2.522 1.234-.17 2.701.396 4.218 1.828.769.728 1.417 2.011 1.957 3.533.54 1.526.977 3.307 1.319 5.04.684 3.463.993 6.755.993 7.486 0 .722-.001 2.207.131 3.728.066.761.164 1.529.311 2.213.14.647.323 1.213.557 1.628.043-.022.103-.051.177-.09a67.554 67.554 0 0 0 2.722-1.48c.745-.429 1.488-.883 2.043-1.28.279-.199.507-.383.665-.54.078-.079.138-.148.176-.208.04-.062.053-.105.053-.131 0-.415-.045-2.469.021-4.466.032-.999.093-1.987.201-2.751.053-.382.119-.711.201-.96.041-.124.086-.232.139-.316a.524.524 0 0 1 .122-.144l-3.488-11.166-.026-.086.084-.03 6.667-2.339.049-.017.04.033Z"/>
  <path fill="#BB92E3" d="M166.449 125.07c-.044.944 1.096 8.466 1.096 8.466.791 1.872-3.522 8.261-3.522 8.261-.931.521-1.337 3.733-1.337 3.733-2.918-.641-9.6-7.29-9.6-7.29s-.803 2.725-1.681 9.47c-.878 6.741 4.737 22.767 7.132 33.83 2.395 11.064 1.264 15.483 1.264 15.483-.071-3.958-1.202-9.133-1.202-9.133-1.579-3.993-2.808-13.196-7.021-19.098-4.209-5.902-4.209-12.845-4.91-18.747-.705-5.903-.528-5.385-.35-10.616.173-5.235-.178-8.307-.528-11.778-.35-3.476-1.051-9.589 0-12.437 1.051-2.844 3.801-3.502 6.813-.658 3.011 2.848 4.24 14.547 4.24 15.991 0 1.444 0 5.955 1.055 7.693 0 0 5.966-3.019 5.966-3.853 0-.834-.178-8.202.7-8.597l-3.508-11.234 6.666-2.339s1.606 1.303 3.211 3.818c-2.164 4.278-4.457 8.447-4.484 9.035Zm11.187 52.562c.292-2.628 1.166-8.89 1.721-12.796-.679 3.05-1.766 4.595-1.766 4.595s1.89-22.394 2.076-23.746c.186-1.356 2.093-7.5 1.393-11.3.931 2.115 0 18.953 0 22.082 0 3.125-2.041 17.567-1.987 19.981.04 1.742 1.941 12.939 3.135 17.946-2.573-3.686-4.865-14.115-4.572-16.762Z" opacity=".4"/>
  <path stroke="#2F2638" stroke-linecap="round" stroke-linejoin="round" stroke-miterlimit="10" stroke-width=".439" d="M185.029 206.774c-1.404-3.993-5.902-27.912-5.957-30.324-.055-2.413 1.985-16.858 1.985-19.983s.931-19.965 0-22.082c-.932-2.117-5.44-7.257-8.247-14.626-1.879-4.934-5.088-7.544-5.088-7.544l-6.668 2.343 3.51 11.23c-.878.396-.702 7.763-.702 8.597 0 .834-5.966 3.853-5.966 3.853-1.053-1.736-1.053-6.25-1.053-7.692 0-1.443-1.228-13.141-4.24-15.989-3.012-2.848-5.761-2.186-6.814.659-1.053 2.845-.351 8.96 0 12.432.351 3.473.702 6.545.527 11.78-.176 5.234-.351 4.713.351 10.616.701 5.903.701 12.847 4.912 18.749 4.212 5.903 5.44 15.104 7.019 19.097 0 0 2.983 21.315 2.601 24.787"/>
  <path stroke="#2F2638" stroke-linecap="round" stroke-linejoin="round" stroke-miterlimit="10" stroke-width=".439" d="M157.896 138.238s1.053 4.861 3.421 7.292"/>
  <path stroke="#2F2638" stroke-linecap="round" stroke-linejoin="round" stroke-miterlimit="10" stroke-width=".439" d="M158.537 140.457s4.448 1.341 6.291 1.427m-.966-7.499s3.159-1.442 5.176-.574m-4.474-8.023s2.456-.223 2.983-1.438m-15.155 45.679s4.715 5.793 6.119 8.745m21.318-34.112c-.789 4.601-1.842 17.187-2.193 19.444m3.703-28.127c.132 4.168-.896 6.338-.896 6.338"/>
  <path fill="#BB92E3" d="m145.065 77.65 32.527 8.48s-11.44 34.321-13.778 38.582l-3.875 29.917s-20.773-.903-30.327-3.76c0 0 6.038-31.163 6.363-35.312.325-4.149 9.09-37.907 9.09-37.907Z"/>
  <mask id="h" width="49" height="78" x="129" y="77" maskUnits="userSpaceOnUse" style="mask-type:luminance">
    <path fill="#fff" d="m145.065 77.65 32.527 8.48s-11.44 34.321-13.778 38.582l-3.875 29.917s-20.773-.903-30.327-3.76c0 0 6.038-31.163 6.363-35.312.325-4.149 9.09-37.907 9.09-37.907Z"/>
  </mask>
  <g mask="url(#h)">
    <path fill="#2E2638" fill-opacity=".7" d="m138.07 113.712 7.165-30.32s3.084-1.515 4.277-2.894l23.299 6.554s.071 2.26 1.404 3.71l-11.756 33.521-2.851 24.711s-3.794.301-4.157 3.079c0 0-12.293.656-20.54-1.495 0 0-.971-2.998-2.456-4.893l5.615-31.973Z" opacity=".2"/>
  </g>
  <mask id="i" width="49" height="78" x="129" y="77" maskUnits="userSpaceOnUse" style="mask-type:luminance">
    <path fill="#fff" d="m145.065 77.65 32.527 8.48s-11.44 34.321-13.778 38.582l-3.875 29.917s-20.773-.903-30.327-3.76c0 0 6.038-31.163 6.363-35.312.325-4.149 9.09-37.907 9.09-37.907Z"/>
  </mask>
  <g mask="url(#i)">
    <path stroke="#2F2638" stroke-linecap="round" stroke-linejoin="round" stroke-miterlimit="10" stroke-width=".439" d="m138.07 113.712 7.165-30.32s3.084-1.515 4.277-2.894l23.299 6.554s.071 2.26 1.404 3.71l-11.756 33.521-2.851 24.711s-3.794.301-4.157 3.079c0 0-12.293.656-20.54-1.495 0 0-.971-2.998-2.456-4.893l5.615-31.973Z"/>
  </g>
  <mask id="j" width="49" height="78" x="129" y="77" maskUnits="userSpaceOnUse" style="mask-type:luminance">
    <path fill="#fff" d="m145.065 77.65 32.527 8.48s-11.44 34.321-13.778 38.582l-3.875 29.917s-20.773-.903-30.327-3.76c0 0 6.038-31.163 6.363-35.312.325-4.149 9.09-37.907 9.09-37.907Z"/>
  </mask>
  <g mask="url(#j)">
    <path fill="#BB92E3" stroke="#2F2638" stroke-linecap="round" stroke-linejoin="round" stroke-miterlimit="10" stroke-width=".439" d="M144.035 115.286s2.114-7.905 9.567-6.479c7.453 1.426 3.242 11.148 3.242 11.148s.045 7.855-6.003 6.771c-5.239-.939-8.035-3.784-6.806-11.44Z"/>
  </g>
  <mask id="k" width="49" height="78" x="129" y="77" maskUnits="userSpaceOnUse" style="mask-type:luminance">
    <path fill="#fff" d="m145.065 77.65 32.527 8.48s-11.44 34.321-13.778 38.582l-3.875 29.917s-20.773-.903-30.327-3.76c0 0 6.038-31.163 6.363-35.312.325-4.149 9.09-37.907 9.09-37.907Z"/>
  </mask>
  <g mask="url(#k)">
    <path stroke="#2F2638" stroke-linecap="round" stroke-linejoin="round" stroke-miterlimit="10" stroke-width=".439" d="M148.07 86.277s-2.252 9.028-2.836 10.764"/>
  </g>
  <mask id="l" width="49" height="78" x="129" y="77" maskUnits="userSpaceOnUse" style="mask-type:luminance">
    <path fill="#fff" d="m145.065 77.65 32.527 8.48s-11.44 34.321-13.778 38.582l-3.875 29.917s-20.773-.903-30.327-3.76c0 0 6.038-31.163 6.363-35.312.325-4.149 9.09-37.907 9.09-37.907Z"/>
  </mask>
  <g mask="url(#l)">
    <path stroke="#2F2638" stroke-linecap="round" stroke-linejoin="round" stroke-miterlimit="10" stroke-width=".439" d="m150.001 87.059-1.316 4.947"/>
  </g>
  <mask id="m" width="49" height="78" x="129" y="77" maskUnits="userSpaceOnUse" style="mask-type:luminance">
    <path fill="#fff" d="m145.065 77.65 32.527 8.48s-11.44 34.321-13.778 38.582l-3.875 29.917s-20.773-.903-30.327-3.76c0 0 6.038-31.163 6.363-35.312.325-4.149 9.09-37.907 9.09-37.907Z"/>
  </mask>
  <g mask="url(#m)">
    <path fill="#BB92E3" stroke="#2F2638" stroke-linecap="round" stroke-linejoin="round" stroke-miterlimit="10" stroke-width=".439" d="m166.45 90.53 4.483 1.562-.492 1.389h-1.403l-2.983-.695.395-2.257Zm-.746 2.952 3.334 1.042.702.695-.702 1.822-3.86-1.302.526-2.257Zm-.526 3.124 3.86 1.052-.544 1.378h-2.044l-1.886-.781.614-1.65Zm-.615 2.429 2.984 1.215v.869l-.747.694-2.777-.781v-1.476l.54-.52Zm2.541 3.921.002 1.355c.001.301-.023.651-.272.824-.205.142-.49.102-.717-.002-.228-.103-.427-.261-.659-.354-.694-.277-1.551.07-2.201-.298-.006-.837-.299-2.168.747-2.18.161-.002 3.1.964 3.1.655Zm-1.227 3.382c-.034.31-.091.617-.168.918-.1.39-.289.824-.682.928-.207.055-.426.003-.634-.05l-2.494-.631c-.022-.006.384-1.249.463-1.364.334-.486.218-.478.81-.515.939-.059 1.722.831 2.705.714Z"/>
  </g>
  <mask id="n" width="49" height="78" x="129" y="77" maskUnits="userSpaceOnUse" style="mask-type:luminance">
    <path fill="#fff" d="m145.065 77.65 32.527 8.48s-11.44 34.321-13.778 38.582l-3.875 29.917s-20.773-.903-30.327-3.76c0 0 6.038-31.163 6.363-35.312.325-4.149 9.09-37.907 9.09-37.907Z"/>
  </mask>
  <g mask="url(#n)">
    <path fill="#BB92E3" stroke="#2F2638" stroke-linecap="round" stroke-linejoin="round" stroke-miterlimit="10" stroke-width=".439" d="m157.457 87.664-1.491 5.816.746.347 1.798-5.729-1.053-.434Z"/>
  </g>
  <mask id="o" width="49" height="78" x="129" y="77" maskUnits="userSpaceOnUse" style="mask-type:luminance">
    <path fill="#fff" d="m145.065 77.65 32.527 8.48s-11.44 34.321-13.778 38.582l-3.875 29.917s-20.773-.903-30.327-3.76c0 0 6.038-31.163 6.363-35.312.325-4.149 9.09-37.907 9.09-37.907Z"/>
  </mask>
  <g mask="url(#o)">
    <path fill="#BB92E3" stroke="#2F2638" stroke-linecap="round" stroke-linejoin="round" stroke-miterlimit="10" stroke-width=".439" d="m138.73 126.717 4.602 1.177-.37 1.425-1.398.119-3.032-.439.198-2.282Zm-.488 3.004 3.412.755.759.632-.541 1.876-3.959-.97.329-2.293Zm-.254 3.156 3.937.721-.422 1.42-2.037.173-1.947-.619.469-1.695Zm-.401 2.475 3.077.958.075.865-.683.754-2.835-.543-.128-1.47.494-.564Zm2.87 3.69.119 1.349c.027.3.034.651-.2.844-.192.159-.479.143-.714.059-.236-.083-.448-.224-.687-.297-.715-.218-1.54.201-2.219-.11-.078-.835-.485-2.135.557-2.236.158-.016 3.17.698 3.144.391Zm-.93 3.476a6.744 6.744 0 0 1-.088.929c-.065.396-.217.845-.599.982-.202.073-.425.039-.637.004l-2.539-.418c-.022-.004.275-1.277.343-1.397.291-.514.176-.495.763-.583.931-.138 1.787.682 2.757.483Z"/>
  </g>
  <mask id="p" width="49" height="78" x="129" y="77" maskUnits="userSpaceOnUse" style="mask-type:luminance">
    <path fill="#fff" d="m145.065 77.65 32.527 8.48s-11.44 34.321-13.778 38.582l-3.875 29.917s-20.773-.903-30.327-3.76c0 0 6.038-31.163 6.363-35.312.325-4.149 9.09-37.907 9.09-37.907Z"/>
  </mask>
  <g mask="url(#p)">
    <path stroke="#2F2638" stroke-linecap="round" stroke-linejoin="round" stroke-miterlimit="10" stroke-width=".439" d="M157.896 146.777s1.053-11.664 1.053-12.82"/>
  </g>
  <mask id="q" width="49" height="78" x="129" y="77" maskUnits="userSpaceOnUse" style="mask-type:luminance">
    <path fill="#fff" d="m145.065 77.65 32.527 8.48s-11.44 34.321-13.778 38.582l-3.875 29.917s-20.773-.903-30.327-3.76c0 0 6.038-31.163 6.363-35.312.325-4.149 9.09-37.907 9.09-37.907Z"/>
  </mask>
  <g mask="url(#q)">
    <path stroke="#2F2638" stroke-linecap="round" stroke-linejoin="round" stroke-miterlimit="10" stroke-width=".439" d="M155.791 146.258s.438-6.059.526-7.11"/>
  </g>
  <mask id="r" width="49" height="78" x="129" y="77" maskUnits="userSpaceOnUse" style="mask-type:luminance">
    <path fill="#fff" d="m145.065 77.65 32.527 8.48s-11.44 34.321-13.778 38.582l-3.875 29.917s-20.773-.903-30.327-3.76c0 0 6.038-31.163 6.363-35.312.325-4.149 9.09-37.907 9.09-37.907Z"/>
  </mask>
  <g mask="url(#r)">
    <path fill="#BB92E3" stroke="#2F2638" stroke-linecap="round" stroke-linejoin="round" stroke-miterlimit="10" stroke-width=".439" d="m147.563 141.883-1.422 6.891h1.422l1.034-6.891h-1.034Z"/>
  </g>
  <mask id="s" width="49" height="78" x="129" y="77" maskUnits="userSpaceOnUse" style="mask-type:luminance">
    <path fill="#fff" d="m145.065 77.65 32.527 8.48s-11.44 34.321-13.778 38.582l-3.875 29.917s-20.773-.903-30.327-3.76c0 0 6.038-31.163 6.363-35.312.325-4.149 9.09-37.907 9.09-37.907Z"/>
  </mask>
  <g mask="url(#s)">
    <path fill="#2E2638" fill-opacity=".7" d="M163.908 124.541c-3.078-.636-5.823-1.571-7.855-2.918 0 0 1.473 4.186 6.693 11.322l-2.807 21.687s-13.559-.588-23.804-2.321c3.149-8.777 8.861-25.409 8.192-28.705-.918-4.524 2.324-9.865 2.324-9.865 10.25-1.825 20.189-9.492 27.01-15.973-3.473 10.172-8.214 23.772-9.753 26.773Z" opacity=".2"/>
  </g>
  <path stroke="#2F2638" stroke-linecap="round" stroke-linejoin="round" stroke-miterlimit="10" stroke-width=".439" d="m145.065 77.65 32.527 8.48s-11.44 34.321-13.778 38.582l-3.875 29.917s-20.773-.903-30.327-3.76c0 0 6.038-31.163 6.363-35.312.325-4.149 9.09-37.907 9.09-37.907Z"/>
  <path fill="#F5F6F7" d="m163.092 145.968-4.582 32.808c-1.02-2.146-3.801-5.806-5.238-7.636-.532-.684-.883-1.11-.883-1.11l-.811-1.237c-4.209-5.903-4.209-12.845-4.91-18.748-.705-5.902-.528-5.384-.35-10.615.173-5.236-.178-8.307-.528-11.779-.351-3.475-1.051-9.588 0-12.436.514-1.396 1.441-2.265 2.603-2.449 1.207-.198 2.675.342 4.209 1.79 3.012 2.848 4.24 14.548 4.24 15.992 0 1.443 0 5.955 1.056 7.692 0 0 2.825 5.297 5.194 7.728Z"/>
  <path fill="#BB92E3" d="M151.228 166.451c.958 1.212 1.61 2.958 2.044 4.687-.532-.684-.882-1.11-.882-1.11l-.812-1.238c-4.209-5.902-4.209-12.844-4.91-18.747-.705-5.902-.528-5.384-.35-10.615.173-5.236-.178-8.308-.528-11.779-.35-3.475-1.051-9.589 0-12.437.515-1.395 1.441-2.264 2.604-2.448 2.235.623 4.426 2.857 5.206 6.679 1.313 6.416-4.67 1.233-6.058 6.67-1.384 5.433.63 6.903 1.459 8.272.825 1.369-.231 4.384-1.459 8.444-1.224 4.063 1.056 20.292 3.686 23.622Z" opacity=".4"/>
  <path stroke="#2F2638" stroke-linecap="round" stroke-linejoin="round" stroke-miterlimit="10" stroke-width=".439" d="M163.092 145.97c-2.369-2.431-5.195-7.731-5.195-7.731-1.053-1.736-1.053-6.249-1.053-7.692 0-1.442-1.228-13.141-4.24-15.988-3.012-2.848-5.761-2.187-6.814.658-1.053 2.845-.351 8.961 0 12.433.351 3.472.701 6.545.526 11.779-.175 5.234-.351 4.714.351 10.616.702 5.903.702 12.847 4.913 18.75l.812 1.238s4.715 5.793 6.118 8.744"/>
  <path stroke="#2F2638" stroke-linecap="round" stroke-linejoin="round" stroke-miterlimit="10" stroke-width=".439" d="M147.563 132.084s4.025-2.058 6.039-1.884"/>
  <path fill="#2E2638" fill-opacity=".7" d="M86.133 75.802s-10.177-11.085-10.879-11.78c-.701-.693-1.228-12.499-3.158-17.707s-2.873-35.763-2.873-35.763-1.837-2.257-7.027-1.042-10.278-1.042-16.068 2.257c-5.79 3.298 5.44 50.52 5.44 50.52L62.96 98.214l23.173-22.413Z" opacity=".2"/>
  <path fill="#F5F6F7" stroke="#2F2638" stroke-width=".186" d="M50.169 6.765v.003l.002.005.005.025.025.097c.02.085.052.21.093.375a423.17 423.17 0 0 0 1.629 6.317c1.062 3.989 2.494 9.133 3.974 13.754 1.407 4.39 2.854 8.303 4.063 10.302 1.891 3.128 3.404 6.169 4.444 8.427.52 1.13.922 2.064 1.194 2.716a54.593 54.593 0 0 1 .388.954l.02.051v.002c1.6 1.667 2.834 4.33 3.733 7.366.898 3.033 1.464 6.45 1.73 9.643l7.48 4.132c2.895.782 6.445 1.996 9.27 3.015a230.474 230.474 0 0 1 4.841 1.81l.072.027.018.008h.005l.001.002.07.027-.011.075h-.001v.004l-.003.016-.01.063-.04.24a261.63 261.63 0 0 1-.734 4.24 255.87 255.87 0 0 1-2.086 10.328c-.867 3.842-1.882 7.807-2.978 11.05-.548 1.621-1.116 3.065-1.697 4.223-.58 1.157-1.178 2.04-1.786 2.53-2.769 2.234-7.073 3.224-10.883 3.088-2.759-.097-5.286-.784-6.781-2.045-1.745-1.469-3.842-2.595-5.816-3.593-1.968-.995-3.821-1.869-5.056-2.83-.635-.493-1.104-1.293-1.476-2.292-.373-1-.654-2.211-.906-3.536-.506-2.656-.899-5.771-1.687-8.632-.786-2.85-1.745-4.317-2.58-5.794-.838-1.484-1.546-2.972-1.81-5.852-.263-2.863-.921-8.676-1.99-14.38-.534-2.851-1.171-5.674-1.912-8.086-.741-2.415-1.585-4.408-2.527-5.61-3.828-4.88-3.925-8.73-5.497-13.659-.392-1.228-1.405-3.267-2.71-5.643-1.304-2.372-2.893-5.072-4.435-7.619a439.956 439.956 0 0 0-5.839-9.365l-.096-.15-.025-.038c-.002-.005-.005-.008-.007-.01v-.003h-.002l.079-.05-.078.049-.075-.114.134-.027L50.06 6.696l.087-.017.022.086Z"/>
  <path fill="#BB92E3" d="M93.122 75.885s-4.56 28.818-9.3 32.636c-2.746 2.217-7.026 3.204-10.823 3.068-9.003-2.203-11.425-7.162-12.644-8.364-1.624-1.602-3.757-11.362-2.586-17.04 1.166-5.68.327-7.782-.639-10.555-2.14-6.144 4.393-9.451 5.067-11.778.674-2.321.432-15.334-2.5-19.564-1.56-2.251-5.585-13.855-3.889-16.917 1.406 4.389 2.857 8.312 4.072 10.322 3.779 6.249 6.045 12.151 6.045 12.151 3.185 3.3 4.928 10.611 5.456 17.014v.004l7.53 4.16c5.788 1.563 14.211 4.863 14.211 4.863Z" opacity=".4"/>
  <path stroke="#2F2638" stroke-linecap="round" stroke-linejoin="round" stroke-miterlimit="10" stroke-width=".439" d="M58.74 73.86s-1.587 1.847-2.99 1.847m6.447 4.396s-1.71 3.592-4.43 4.373m1.403 16.668s3.86-1.65 4.475-4.427M78.91 71.022s-.965 1.215-.965 2.17"/>
  <path stroke="#2F2638" stroke-linecap="round" stroke-linejoin="round" stroke-miterlimit="10" stroke-width=".439" d="M50.078 6.787s6.023 24.65 9.802 30.903c3.78 6.25 6.045 12.152 6.045 12.152 3.185 3.3 4.928 10.615 5.456 17.018m0 0v-.004m0 .004 7.53 4.16c5.789 1.562 14.211 4.862 14.211 4.862s-4.56 28.819-9.3 32.637c-4.737 3.822-14.033 3.993-17.546 1.044-3.508-2.953-8.423-4.515-10.875-6.424-2.457-1.909-2.457-8.68-4.036-14.412-1.58-5.727-3.863-5.902-4.387-11.629-.528-5.731-2.634-23.263-6.449-28.125-3.814-4.862-3.903-8.68-5.482-13.63-1.578-4.95-13.123-22.851-13.123-22.851"/>
  <path fill="#2F2638" stroke="#2F2638" stroke-linecap="round" stroke-linejoin="round" stroke-miterlimit="10" stroke-width=".439" d="M103.791 74.018 57.223 144.94l10.993 1.212 33.392 1.372 3.417-63.082-1.234-10.425Z"/>
  <path fill="#757575" d="m103.789 74.014-4.302 72.299-42.263-1.373 3.335-55.4 1.038-17.202 18.415.733 23.777.943Z"/>
  <mask id="t" width="47" height="75" x="57" y="72" maskUnits="userSpaceOnUse" style="mask-type:luminance">
    <path fill="#fff" d="m103.79 74.014-4.303 72.299-42.263-1.373 3.335-55.4 1.038-17.202 18.415.733 23.778.943Z"/>
  </mask>
  <g mask="url(#t)">
    <path fill="#BFBFBF" stroke="#2F2638" stroke-miterlimit="10" stroke-width=".439" d="M93.162 137.991c2.842 0 5.147-2.28 5.147-5.092s-2.305-5.092-5.147-5.092-5.147 2.28-5.147 5.092 2.305 5.092 5.147 5.092Z"/>
    <path stroke="#2F2638" stroke-linecap="round" stroke-linejoin="round" stroke-miterlimit="10" stroke-width=".439" d="m91.713 129.52 3.486.453m-4.423.384 5.24.507m-5.822 4.599 5.241.506"/>
    <path fill="#2F2638" d="M92.49 131.512c.45.048.574-.156.69-.393l.392.042-.397 3.663-.582-.062.303-2.794-.45-.048.045-.408Zm1.936.153c.231.025.335.174.309.414l-.005.046-.224-.024.006-.062c.012-.107-.027-.152-.103-.16-.075-.008-.122.028-.134.135-.012.109.027.195.167.346.18.194.23.325.211.496-.026.24-.162.364-.395.339-.233-.025-.339-.174-.313-.414l.01-.091.224.024-.012.106c-.011.107.032.151.108.159.075.008.127-.026.139-.133.011-.109-.027-.195-.168-.346-.18-.194-.23-.325-.21-.496.026-.24.16-.363.39-.339Zm.417.058.735.077-.023.214-.249-.026-.138 1.282-.238-.025.139-1.283-.25-.026.024-.213Z"/>
  </g>
  <mask id="u" width="47" height="75" x="57" y="72" maskUnits="userSpaceOnUse" style="mask-type:luminance">
    <path fill="#fff" d="m103.79 74.014-4.303 72.299-42.263-1.373 3.335-55.4 1.038-17.202 18.415.733 23.778.943Z"/>
  </mask>
  <g mask="url(#u)">
    <path fill="#F5F6F7" stroke="#2F2638" stroke-linecap="round" stroke-linejoin="round" stroke-miterlimit="10" stroke-width=".439" d="m81.093 83.073-8.25-1.78a.39.39 0 0 1-.301-.466l1.121-5.088a.395.395 0 0 1 .47-.298l8.25 1.78a.39.39 0 0 1 .301.465l-1.121 5.089a.395.395 0 0 1-.47.298Z"/>
    <path fill="#2F2638" d="M75.558 80.46a.142.142 0 0 0-.028-.03c-.02-.018-.007-.053-.023-.075-.006-.008-.016-.013-.024-.02a.176.176 0 0 1-.05-.07c-.003-.008-.007-.016-.006-.024.003-.017.021-.024.035-.033a.09.09 0 0 0 .04-.057c.001-.009.002-.018.009-.024.007-.005.019-.004.025-.01.005-.005.005-.012.006-.019.008-.083-.053-.144-.105-.208-.13-.157-.155-.24-.132-.344.023-.105.074-.135.148-.12.074.016.108.066.084.17l-.013.06.22.048.01-.046c.044-.199-.013-.343-.17-.412l.023-.109-.19-.041-.024.108c-.17.001-.281.109-.324.306-.037.167.002.298.16.488.13.155.156.24.133.344-.023.105-.078.133-.152.117s-.112-.064-.09-.169l.026-.115-.22-.047-.022.1c-.044.2.013.345.172.415l-.023.106.19.041.023-.106a.72.72 0 0 0 .115-.019.28.28 0 0 0 .092-.056.332.332 0 0 0 .07-.092c.016-.03.022-.043.015-.056Zm1.235-.072a.34.34 0 0 0-.026-.102c-.007-.016-.015-.034-.01-.05.005-.014.018-.024.03-.033.118-.104-.029-.245-.14-.27a.238.238 0 0 0-.229.063l.096-.345.407.087.046-.209-.614-.132c-.007.025-.028.067-.025.093.004.03.037.04.038.073 0 .016-.008.032-.007.049.002.026.026.045.047.061.022.017.044.039.041.065a.078.078 0 0 1-.012.03c-.022.038-.047.077-.088.094-.015.007-.034.012-.041.027-.004.008-.003.017-.004.025-.004.031-.032.052-.059.07-.088.057-.093.155-.12.254l.22.047.01-.044c.024-.105.079-.134.153-.118.074.016.112.066.089.17l-.071.323c-.023.105-.078.132-.152.116s-.112-.063-.09-.168l.03-.136-.22-.048-.026.122c-.052.234.037.394.266.443.228.05.376-.06.428-.293.02-.09.041-.176.033-.264Zm2.894.618a.34.34 0 0 0-.025-.103c-.007-.016-.015-.033-.01-.05.005-.014.018-.023.03-.033.118-.104-.029-.245-.14-.27a.238.238 0 0 0-.229.063l.096-.345.406.088.047-.21-.614-.132c-.007.026-.028.067-.025.093.004.03.037.041.038.073 0 .016-.008.032-.007.049.002.026.026.045.047.062.021.016.043.038.04.064a.075.075 0 0 1-.012.03c-.021.038-.047.078-.087.095-.016.006-.035.011-.041.026-.003.008-.003.017-.004.025-.004.031-.033.052-.06.07-.087.057-.092.156-.118.254l.22.047.01-.044c.022-.104.078-.134.152-.118.074.016.112.066.089.17l-.071.323c-.023.105-.078.132-.153.117-.074-.016-.112-.064-.089-.169l.03-.136-.22-.047-.026.121c-.052.234.037.394.266.443.228.05.376-.059.428-.293.019-.09.04-.176.032-.263Zm-2.389-1.051c.023-.105.078-.135.153-.119.05.01.074.045.083.093a.64.64 0 0 0 .075.02c.005 0 .01.001.013.004.004.005.004.012.005.018.003.025.02.046.041.061.031.02.066.032.096.053.075-.213-.05-.411-.267-.458-.229-.05-.383.058-.435.292-.006.028-.014.057-.019.085-.01.071.012.046.073.074.027.011.094.062.032.085-.007.003-.014.003-.02.007-.007.003-.012.01-.01.017.016.007.031.013.043.024.012.01.02.028.015.043-.005.014-.018.023-.023.037-.004.012 0 .03-.012.035-.006.004-.012.003-.018.006-.01.005-.032.056-.041.068-.015.017-.033.041-.054.052-.06.032-.084.007-.103.087l-.03.141c-.052.234.043.396.272.445.228.049.382-.058.434-.293l.068-.305c-.008-.003-.017-.002-.024-.006a.876.876 0 0 1-.15-.084c-.015-.01-.027-.024-.042-.035l-.087.395c-.023.105-.079.134-.153.118-.074-.015-.111-.065-.088-.17l.13-.599a.195.195 0 0 1 .025-.106l.018-.085Zm1.092.725a.056.056 0 0 0 .019-.02c.01-.021 0-.047.022-.076a.483.483 0 0 0 .1.008l.074-.339c.052-.234-.043-.395-.272-.444-.228-.05-.383.058-.435.292l-.013.061c.032.027.05.07.08.094.03.023.08.018.07.076-.004.028-.027.059-.01.082.01.013.028.017.036.03.008.017-.002.037-.015.05-.013.012-.03.022-.037.039-.01.025-.002.063-.027.074-.04.018-.085-.055-.132-.048-.04.007-.057.041-.07.076-.025.072-.034.154-.05.229-.053.234.043.395.271.444a.355.355 0 0 0 .296-.05.35.35 0 0 0 .097-.121c.037-.076.035-.098-.015-.164-.004-.005-.01-.012-.017-.013-.009 0-.016.008-.024.013-.007.005-.02.007-.023-.001l-.031-.105c-.002-.006-.004-.012-.002-.018.004-.014.02-.018.031-.026.035-.025.017-.084.044-.117.011-.011.023-.018.034-.026Zm-.188.3c-.023.104-.079.134-.153.118-.074-.016-.112-.066-.089-.17l.175-.792c.023-.105.078-.134.152-.118.074.015.112.065.089.17l-.174.791Zm.582.244-.049.223-.225-.048.049-.223.225.048Zm1.852-.39c.027-.02.03-.103.037-.136.052-.234-.044-.395-.273-.444-.228-.05-.383.058-.434.292-.022.097-.042.195-.065.291.058.052-.01.137.025.197.005.01.014.018.014.03.002.034-.065.04-.065.075 0 .006.003.012.004.019.016.057-.038.052-.06.08-.015.018-.016.048-.022.07-.051.235.044.396.272.445.229.05.383-.058.435-.292l.053-.24c.013-.061.08-.225.011-.275-.014-.01-.033-.015-.044-.029-.014-.018-.008-.044 0-.065.025-.066.064.007.112-.018Zm-.269.386c-.017.028-.044.036-.067.07-.021.035-.023.095-.031.135-.024.105-.079.134-.153.118-.074-.016-.112-.066-.089-.17.007-.031.044-.119.031-.147-.01-.022-.044-.016-.059-.05-.017-.037-.006-.101.003-.14a.086.086 0 0 0 .005-.032c-.003-.02-.022-.04-.013-.058.004-.007.011-.011.016-.017.02-.02.011-.055.015-.094.005-.005.013-.002.019 0 .14.05.137-.164.157-.253.023-.105.079-.135.153-.119.074.016.111.066.088.17-.018.085-.063.193-.056.277.04 0 .07.032.072.071 0 .025-.01.05-.001.074.007.019.025.037.016.055-.007.015-.027.017-.043.022a.077.077 0 0 0-.051.056.086.086 0 0 1-.012.032Z"/>
    <path stroke="#2F2638" stroke-linecap="round" stroke-linejoin="round" stroke-miterlimit="10" stroke-width=".439" d="m78.159 77.64 1.5.325m-4.907-1.061 2.678.578m-2.902.44 1.758.379"/>
  </g>
  <mask id="v" width="47" height="75" x="57" y="72" maskUnits="userSpaceOnUse" style="mask-type:luminance">
    <path fill="#fff" d="m103.79 74.014-4.303 72.299-42.263-1.373 3.335-55.4 1.038-17.202 18.415.733 23.778.943Z"/>
  </mask>
  <g mask="url(#v)">
    <path fill="#F5F6F7" d="M59.171 144.3s2.808-.841 7.136-.947c4.328-.106 7.089.705 10.644-1.031 3.556-1.737 5.85 1.388 9.241-.348 3.392-1.736 4.97-4.523 6.93-4.46 1.96.062 4.884-31.023 5.82-36.371.936-5.348 2.939-20.263 3.626-23.287l-3.86 67.391-39.537-.947Z" opacity=".4"/>
  </g>
  <mask id="w" width="47" height="75" x="57" y="72" maskUnits="userSpaceOnUse" style="mask-type:luminance">
    <path fill="#fff" d="m103.79 74.014-4.303 72.299-42.263-1.373 3.335-55.4 1.038-17.202 18.415.733 23.778.943Z"/>
  </mask>
  <g mask="url(#w)">
    <path fill="#BB92E3" stroke="#2F2638" stroke-linecap="round" stroke-linejoin="round" stroke-miterlimit="10" stroke-width=".439" d="m59.347 131.037 10.82 13.021-11.427-.705.607-12.316Z"/>
  </g>
  <mask id="x" width="47" height="75" x="57" y="72" maskUnits="userSpaceOnUse" style="mask-type:luminance">
    <path fill="#fff" d="m103.79 74.014-4.303 72.299-42.263-1.373 3.335-55.4 1.038-17.202 18.415.733 23.778.943Z"/>
  </mask>
  <g mask="url(#x)">
    <path fill="#BB92E3" stroke="#2F2638" stroke-linecap="round" stroke-linejoin="round" stroke-miterlimit="10" stroke-width=".439" d="m88.06 105.273-.175 4.956c-.102 2.895-2.58 5.18-5.504 5.079l-5.147-.177c-2.925-.101-5.235-2.552-5.133-5.447l.228-6.451c.102-2.895 2.579-5.18 5.504-5.08l5.146.178c.142.005.284.014.42.032a4.203 4.203 0 0 0-1.285 2.876c-.083 2.333 1.76 4.289 4.12 4.371a4.315 4.315 0 0 0 1.826-.337Z"/>
    <path fill="#BB92E3" stroke="#2F2638" stroke-linecap="round" stroke-linejoin="round" stroke-miterlimit="10" stroke-width=".439" d="M88.983 101.012c-.047 1.329-1.174 2.369-2.518 2.323-1.343-.047-2.394-1.162-2.347-2.491.047-1.33 1.174-2.37 2.517-2.323 1.344.046 2.395 1.162 2.348 2.491Z"/>
  </g>
  <mask id="y" width="47" height="75" x="57" y="72" maskUnits="userSpaceOnUse" style="mask-type:luminance">
    <path fill="#fff" d="m103.79 74.014-4.303 72.299-42.263-1.373 3.335-55.4 1.038-17.202 18.415.733 23.778.943Z"/>
  </mask>
  <g mask="url(#y)">
    <path fill="#F5F6F7" d="m73.563 110.289 7.562-6.394s-.96-3.431 0-4.514l-3.634-.008c-1.815-.004-3.32 1.39-3.434 3.183l-.494 7.733Z" opacity=".4"/>
  </g>
  <mask id="z" width="47" height="75" x="57" y="72" maskUnits="userSpaceOnUse" style="mask-type:luminance">
    <path fill="#fff" d="m103.79 74.014-4.303 72.299-42.263-1.373 3.335-55.4 1.038-17.202 18.415.733 23.778.943Z"/>
  </mask>
  <g mask="url(#z)">
    <path fill="#F5F6F7" d="m85.52 101.141 1.621-1.768s-1.006-.673-1.62 0c-.615.674 0 1.768 0 1.768Z" opacity=".4"/>
  </g>
  <mask id="A" width="47" height="75" x="57" y="72" maskUnits="userSpaceOnUse" style="mask-type:luminance">
    <path fill="#fff" d="m103.79 74.014-4.303 72.299-42.263-1.373 3.335-55.4 1.038-17.202 18.415.733 23.778.943Z"/>
  </mask>
  <g mask="url(#A)">
    <path stroke="#2F2638" stroke-linecap="round" stroke-linejoin="round" stroke-miterlimit="10" stroke-width=".439" d="m84.73 139.369 12.195.521"/>
  </g>
  <mask id="B" width="47" height="75" x="57" y="72" maskUnits="userSpaceOnUse" style="mask-type:luminance">
    <path fill="#fff" d="m103.79 74.014-4.303 72.299-42.263-1.373 3.335-55.4 1.038-17.202 18.415.733 23.778.943Z"/>
  </mask>
  <g mask="url(#B)">
    <path stroke="#2F2638" stroke-linecap="round" stroke-linejoin="round" stroke-miterlimit="10" stroke-width=".439" d="m80.507 140.586 16.418.868"/>
  </g>
  <mask id="C" width="47" height="75" x="57" y="72" maskUnits="userSpaceOnUse" style="mask-type:luminance">
    <path fill="#fff" d="m103.79 74.014-4.303 72.299-42.263-1.373 3.335-55.4 1.038-17.202 18.415.733 23.778.943Z"/>
  </mask>
  <g mask="url(#C)">
    <path stroke="#2F2638" stroke-linecap="round" stroke-linejoin="round" stroke-miterlimit="10" stroke-width=".439" d="M92.626 144.057h4.299"/>
  </g>
  <mask id="D" width="47" height="75" x="57" y="72" maskUnits="userSpaceOnUse" style="mask-type:luminance">
    <path fill="#fff" d="m103.79 74.014-4.303 72.299-42.263-1.373 3.335-55.4 1.038-17.202 18.415.733 23.778.943Z"/>
  </mask>
  <g mask="url(#D)">
    <path fill="#2E2638" fill-opacity=".7" d="M77.683 99.748c-6.289 2.993-13.101-7.491-15.488-8.935a10.113 10.113 0 0 1-1.636-1.273l1.038-17.202 18.415.733c-.12 2.563-.08 5.393.496 7.034 1.238 3.537 3.46 16.654-2.825 19.643Z" opacity=".2"/>
  </g>
  <mask id="E" width="47" height="75" x="57" y="72" maskUnits="userSpaceOnUse" style="mask-type:luminance">
    <path fill="#fff" d="m103.79 74.014-4.303 72.299-42.263-1.373 3.335-55.4 1.038-17.202 18.415.733 23.778.943Z"/>
  </mask>
  <g mask="url(#E)">
    <path fill="#F5F6F7" d="M70.635 100.283s5.03 2.158 7.31.861c2.282-1.297 4.738-3.728 5.09-9.167 0 0 2.992 7.658-3.046 9.953-6.039 2.295-9.354-1.647-9.354-1.647Z" opacity=".4"/>
  </g>
  <mask id="F" width="47" height="75" x="57" y="72" maskUnits="userSpaceOnUse" style="mask-type:luminance">
    <path fill="#fff" d="m103.79 74.014-4.303 72.299-42.263-1.373 3.335-55.4 1.038-17.202 18.415.733 23.778.943Z"/>
  </mask>
  <g mask="url(#F)">
    <path fill="#F5F6F7" d="M68.676 103.346s10.177 2.711 14.563-2.203c0 0-.585 2.724-5.293 3.505-4.708.782-9.27-1.302-9.27-1.302Z" opacity=".4"/>
  </g>
  <mask id="G" width="47" height="75" x="57" y="72" maskUnits="userSpaceOnUse" style="mask-type:luminance">
    <path fill="#fff" d="m103.79 74.014-4.303 72.299-42.263-1.373 3.335-55.4 1.038-17.202 18.415.733 23.778.943Z"/>
  </mask>
  <g mask="url(#G)">
    <path fill="#F5F6F7" d="M85.082 85.813c-.776-1.364.175 10.903.175 10.903s1.404-8.125-.175-10.903Z" opacity=".4"/>
  </g>
  <path stroke="#2F2638" stroke-linecap="round" stroke-linejoin="round" stroke-miterlimit="10" stroke-width=".439" d="m103.789 74.014-4.302 72.299-42.263-1.373 3.335-55.4 1.038-17.202 18.415.733 23.777.943Z"/>
  <path fill="#F5F6F7" d="m101.653 146.696-1.541-.384 3.677-66.209.651 4.373-2.787 62.22Z" opacity=".4"/>
  <path fill="#F5F6F7" d="M77.683 99.748c-1.091.614-2.564.645-3.788.057-.843-.4-1.641-1.123-2.355-2.396-1.752-3.125-6.493-10.243-7.367-12.31-.878-2.066-2.808-7.828-4.737-10.255-1.934-2.431-2.985-6.078-2.985-6.078l-.7-35.414c1.05 5.12 3.947 10.936 3.947 10.936 4.298 2.255 6.227 5.555 6.227 5.555.43.448.834.966 1.21 1.55 2.866 4.388 4.254 12.282 4.405 18.413.177 6.947 2.457 10.071 6.143 16.145 3.685 6.078 2.394 12.449 0 13.797Z"/>
  <path fill="#BB92E3" d="M77.683 99.746c-1.108.585-2.564.646-3.788.058 2.014-.545 4.657-1.567 4.05-3.09-.954-2.405-3.744 1.163-5.145 0-1.406-1.163-6.494-7.833-3.26-10.77 3.228-2.94 2.204-7.859 0-9.246-2.21-1.39-.777-4.69-.076-9.89.426-3.147-1.078-10.274-2.328-15.417C70 55.779 71.389 63.674 71.54 69.804c.177 6.947 2.457 10.072 6.143 16.145 3.685 6.078 2.394 12.536 0 13.797Z" opacity=".4"/>
  <path stroke="#2F2638" stroke-linecap="round" stroke-linejoin="round" stroke-miterlimit="10" stroke-width=".439" d="M55.75 33.35c1.052 5.12 3.947 10.937 3.947 10.937 4.299 2.257 6.23 5.555 6.23 5.555 3.684 3.82 5.438 13.02 5.614 19.965.175 6.944 2.456 10.069 6.14 16.145 3.686 6.076 2.662 12.36 0 13.797-1.854 1.001-4.386.786-6.14-2.34-1.755-3.124-6.492-10.242-7.37-12.31-.877-2.067-2.807-7.828-4.737-10.258-1.93-2.43-2.982-6.076-2.982-6.076"/>
  <path stroke="#2F2638" stroke-linecap="round" stroke-linejoin="round" stroke-miterlimit="10" stroke-width=".439" d="M67.136 84.474s2.865-.254 4.176-1.326M55.4 69.484s-.557 1.336 2.367 2.626"/>
</svg>
