<svg xmlns="http://www.w3.org/2000/svg" width="28" height="22" fill="none" viewBox="0 0 28 22">
  <path fill="#F6C859" d="m27.338 3.727.008 14.4c0 1.7-1.427 3.091-3.162 3.091l-20.4.017c-1.75 0-3.178-1.392-3.178-3.083l-.017-14.4C.59 2.043 2.017.66 3.76.66L24.168.645c1.743 0 3.17 1.375 3.17 3.082Z"/>
  <path fill="#7D662D" d="M10.905 18.483a.295.295 0 0 1-.274-.161.3.3 0 0 1 .133-.405c.448-.226 1.054-.647 1.411-1.367.448-.922.332-1.926.141-2.015-.05-.024-.232.073-.348.13-.29.146-.697.348-1.162.186-.457-.154-.68-.55-.789-.744-.705-1.254-.921-4.507-.182-6.125.249-.534.58-.857.996-.955.423-.097.771.073 1.045.219.224.113.34.162.415.121.29-.17.282-1.205-.124-2.022-.357-.728-.963-1.15-1.411-1.368a.294.294 0 0 1-.133-.404.309.309 0 0 1 .415-.13c.531.267 1.262.769 1.685 1.65.423.867.622 2.363-.116 2.8-.374.219-.73.04-1.013-.097-.216-.105-.423-.21-.622-.162-.274.065-.457.364-.573.607-.647 1.416-.456 4.49.158 5.59.108.187.232.389.448.462.207.073.407-.016.68-.154.274-.138.573-.283.897-.138.697.332.647 1.78.15 2.816-.432.882-1.154 1.383-1.686 1.65a.945.945 0 0 1-.14.017Z"/>
  <path fill="#7D662D" d="M9.968 8.524H4.4a.303.303 0 0 1-.307-.299.3.3 0 0 1 .3-.3H9.96c.174 0 .307.138.307.3a.29.29 0 0 1-.299.3Zm0 5.438H4.4a.303.303 0 0 1-.307-.3c0-.17.141-.299.307-.299h5.57c.174 0 .306.138.306.3.009.161-.132.299-.307.299Zm7.436 4.512a.28.28 0 0 1-.141-.032c-.531-.267-1.262-.769-1.685-1.65-.506-1.036-.548-2.484.141-2.816.324-.154.631 0 .897.13.282.137.48.226.68.153.233-.08.365-.315.448-.461.614-1.1.797-4.183.15-5.59-.116-.243-.3-.55-.573-.607-.166-.04-.274-.203-.232-.364a.32.32 0 0 1 .373-.227c.415.097.747.413.996.947.747 1.618.531 4.878-.174 6.124-.108.194-.332.59-.789.745-.465.161-.871-.041-1.162-.187-.116-.056-.298-.145-.348-.13-.183.09-.307 1.093.15 2.015.356.729.962 1.15 1.41 1.368.15.073.216.259.133.404a.284.284 0 0 1-.274.178ZM16.158 7.311a.304.304 0 0 1-.29-.202c-.665-1.942.887-3.438 1.385-3.681a.309.309 0 0 1 .415.13.3.3 0 0 1-.132.404c-.225.113-1.652 1.302-1.088 2.953a.292.292 0 0 1-.199.38c-.025.016-.058.016-.091.016Z"/>
  <path fill="#7D662D" d="M23.902 8.519h-5.569a.303.303 0 0 1-.307-.3c0-.162.141-.3.307-.3h5.569c.174 0 .307.138.307.3 0 .162-.141.3-.307.3Zm0 5.427h-5.569a.303.303 0 0 1-.307-.299c0-.17.141-.3.307-.3h5.569c.174 0 .307.138.307.3 0 .17-.133.3-.307.3Z"/>
</svg>
