<svg xmlns="http://www.w3.org/2000/svg" width="253" height="139" fill="none" viewBox="0 0 253 139">
  <path fill="url(#a)" d="M3.59 110.063c-.919-.14-1.82-.273-2.73-.393v-.811c.963.127 1.927.273 2.883.419 8.754 1.297 17.02 2.527 25.92-3.61 8.908-6.13 9.34-13.358 9.802-21.004.455-7.486.918-15.232 10.15-21.595 9.23-6.363 18.092-5.046 26.667-3.77 8.754 1.297 17.02 2.533 25.921-3.597 8.899-6.13 9.339-13.364 9.801-21.003.455-7.487.911-15.233 10.149-21.595 9.232-6.357 18.093-5.047 26.661-3.77 8.753 1.296 17.02 2.533 25.92-3.597 2.298-1.583 4.026-3.232 5.337-4.947h1.095c-1.396 1.941-3.286 3.81-5.838 5.578-9.232 6.357-18.093 5.033-26.668 3.77-8.753-1.31-17.021-2.533-25.92 3.597-8.908 6.13-9.34 13.358-9.802 21.004-.455 7.486-.918 15.232-10.149 21.595-9.232 6.356-18.085 5.046-26.66 3.77-8.754-1.31-17.029-2.533-25.936 3.597-8.908 6.13-9.34 13.357-9.802 21.003-.455 7.487-.91 15.233-10.15 21.596-9.223 6.356-18.084 5.039-26.652 3.763Z"/>
  <path fill="url(#b)" d="M252.371 83.614c-5.829 1.474-11.536.634-17.463-.238l-.097-.015c-8.569-1.276-17.43-2.593-26.661 3.77-9.239 6.356-9.702 14.102-10.149 21.595l-.001.017c-.462 7.633-.9 14.861-9.801 20.987-8.907 6.13-17.174 4.9-25.92 3.597-8.576-1.277-17.437-2.593-26.668 3.77-.355.239-.702.492-1.026.744l-27.184.02c.131-1.363.215-2.719.293-4.075v-.013c.463-7.648.899-14.864 9.802-20.991 8.907-6.13 17.174-4.907 25.935-3.597 8.576 1.277 17.429 2.593 26.66-3.77 9.232-6.356 9.702-14.102 10.149-21.595l.001-.013c.463-7.648.899-14.864 9.801-20.99 8.908-6.13 17.175-4.907 25.92-3.598l.037.006c8.564 1.268 17.413 2.578 26.631-3.775 7.057-4.86 8.985-10.532 9.71-16.27l.031 44.434Z"/>
  <path fill="#3B377A" d="m76.791.85-.013.14c-.12 1.282-.2 2.557-.274 3.831l-.006.104v.017c-.463 7.633-.9 14.861-9.802 20.987-7.357 5.06-14.267 5.106-21.385 4.235l-.227-.049c-10.029-2.147-15.46-2.138-24.508-.11-.037.01-.075.018-.113.026a26.992 26.992 0 0 0-6.355 3.272c-6.329 4.357-8.54 9.369-9.451 14.502-.077.434-.145.869-.205 1.304-.266 1.925-.384 3.861-.5 5.78v.002c-.294 4.92-.579 9.674-3.124 14.062L.782 13.881C.774 6.721 7.522.89 15.836.89L76.79.85Z"/>
  <path fill="#8260F4" d="M180.086.783c-1.319 1.716-3.038 3.365-5.337 4.947-8.907 6.13-17.174 4.9-25.92 3.597-8.568-1.277-17.429-2.593-26.66 3.77-9.239 6.356-9.702 14.102-10.149 21.595l-.001.017c-.462 7.633-.9 14.86-9.801 20.987-8.907 6.13-17.175 4.9-25.92 3.597-8.576-1.277-17.437-2.593-26.668 3.77-9.231 6.362-9.702 14.102-10.149 21.595v.012c-.463 7.648-.9 14.864-9.802 20.991-8.907 6.13-17.175 4.907-25.92 3.611-.964-.147-1.928-.286-2.884-.419L.844 70.589C4.26 65.629 4.584 60.21 4.9 54.926v-.002l.001-.012c.445-7.358.866-14.316 8.824-20.29a28.438 28.438 0 0 1 3.874-2.461l.06-.03a25.234 25.234 0 0 1 2.82-1.269l.214-.024c9.474-1.645 14.903-1.655 24.36.09l.274.034c7.095.851 14.406.791 21.963-4.415a28.31 28.31 0 0 0 1.873-1.403c7.42-6.069 7.854-13.235 8.269-20.179.085-1.383.162-2.759.308-4.115L180.086.783Z"/>
  <path fill="url(#c)" d="M181.181.783c-1.396 1.942-3.285 3.81-5.838 5.579-9.231 6.356-18.092 5.033-26.668 3.77-8.753-1.31-17.02-2.534-25.92 3.596-8.907 6.13-9.339 13.358-9.802 21.004-.455 7.486-.918 15.232-10.149 21.595-9.231 6.357-18.085 5.047-26.66 3.77-8.754-1.31-17.029-2.533-25.936 3.597s-9.34 13.358-9.802 21.004c-.455 7.486-.91 15.232-10.149 21.595-9.231 6.356-18.092 5.046-26.66 3.77-.918-.14-1.82-.273-2.73-.393l.015 15.658c0 2.228.656 4.329 1.82 6.164.039.066.062.119.116.166 2.637 3.743 7.419 6.243 12.887 6.243l38.395-.026h.01a27.14 27.14 0 0 0 2.692-1.636c8.902-6.126 9.339-13.348 9.801-20.989v-.014l.002-.02c.437-7.188.888-14.614 9.106-20.824.334-.252.681-.503 1.042-.752 9.231-6.363 18.092-5.046 26.668-3.77 6.056.897 11.878 1.766 17.839.186 2.655-.704 5.338-1.893 8.081-3.783 8.893-6.125 9.339-13.353 9.801-20.986l.001-.017.003-.04c.454-7.474.924-15.204 10.146-21.555 9.231-6.357 18.092-5.047 26.661-3.77 6.061.898 11.89 1.767 17.857.18 2.65-.704 5.326-1.892 8.063-3.777 4.249-2.926 6.562-6.097 7.881-9.442l1.296-4.96c.355-2.147.486-4.354.617-6.602.293-4.893.601-9.893 3.339-14.54l-33.825.02Z"/>
  <path fill="#A26DF2" d="M245.599 2.791c1.998 1.097 3.664 2.567 4.859 4.322a11.42 11.42 0 0 1 1.851 6.223l.015 14.767c-.26 1.88-.383 3.772-.49 5.652l-.003.046-.001.013v.003c-.394 6.503-.769 12.703-6.36 18.181a22.52 22.52 0 0 1-1.026.945 27.13 27.13 0 0 1-2.415 1.862c-2.723 1.876-5.387 3.062-8.024 3.767-5.963 1.596-11.786.735-17.841-.162l-.013-.002-.042-.006c-8.568-1.277-17.429-2.587-26.66 3.77-9.125 6.284-9.682 13.917-10.133 21.318l-.014.237-.002.04-.001.017c-.463 7.633-.908 14.86-9.801 20.986-2.726 1.878-5.393 3.065-8.032 3.77-5.964 1.594-11.789.731-17.846-.166l-.042-.007c-8.576-1.276-17.437-2.586-26.669 3.77-9.115 6.284-9.681 13.916-10.132 21.315l-.016.26-.001.02v.011c-.085 1.38-.17 2.759-.308 4.105l-50.668.033a26.273 26.273 0 0 0 1.581-1.01c9.222-6.352 9.692-14.081 10.146-21.555v-.001l.003-.04v-.014c.094-1.549.187-3.08.35-4.588.58-5.39 2.048-10.488 7.629-15.038.564-.46 1.171-.914 1.823-1.363 8.907-6.13 17.182-4.907 25.935-3.597 8.576 1.276 17.43 2.586 26.661-3.77 9.222-6.357 9.693-14.094 10.147-21.574l.002-.021.001-.013-.001-.002c.093-1.526.184-3.035.342-4.523.577-5.429 2.042-10.563 7.685-15.141.55-.447 1.141-.889 1.775-1.325 5.226-3.6 10.235-4.664 15.251-4.663 3.526 0 7.056.526 10.669 1.066l.036.006.023.003.007.001c8.555 1.26 17.395 2.56 26.602-3.78.193-.133.383-.267.568-.402 2.787-2.018 4.735-4.168 6.087-6.406.854-1.244 1.412-2.449 1.936-4.261.066-.23.132-.469.197-.72.24-.912.479-1.973.744-3.243l.005-.032c.337-2.087.464-4.192.589-6.28v-.01l.015-.24c.309-5.12.609-10.047 3.448-14.582L237.502.75c2.977 0 5.761.745 8.097 2.041Z"/>
  <path fill="url(#d)" d="m252.332 39.167.039 44.447c-5.829 1.474-11.536.634-17.463-.238l-.097-.015c-8.569-1.276-17.43-2.593-26.661 3.77-9.239 6.356-9.702 14.102-10.149 21.595l-.001.017c-.462 7.633-.9 14.861-9.801 20.987-8.907 6.13-17.174 4.9-25.92 3.597-8.576-1.277-17.437-2.593-26.668 3.77-.355.239-.702.492-1.026.744l-27.184.02c.131-1.363.215-2.719.293-4.075v-.013c.463-7.648.899-14.864 9.802-20.991 8.907-6.13 17.174-4.907 25.935-3.597 8.576 1.277 17.429 2.593 26.66-3.77 9.232-6.356 9.702-14.102 10.149-21.595l.001-.013c.463-7.648.899-14.864 9.801-20.99 8.908-6.13 17.175-4.907 25.92-3.598l.037.006c8.564 1.268 17.413 2.578 26.631-3.775 7.049-4.874 8.977-10.545 9.702-16.283Z"/>
  <path fill="url(#e)" d="M252.371 83.614c-5.829 1.474-11.536.634-17.463-.238l-.097-.015c-8.569-1.276-17.43-2.593-26.661 3.77-9.239 6.356-9.702 14.102-10.149 21.595l-.001.017c-.462 7.633-.9 14.861-9.801 20.987-8.907 6.13-17.174 4.9-25.92 3.597-8.576-1.277-17.437-2.593-26.668 3.77-.355.239-.702.492-1.026.744l-27.184.02c.131-1.363.215-2.719.293-4.075v-.013c.463-7.648.899-14.864 9.802-20.991 8.907-6.13 17.174-4.907 25.935-3.597 8.576 1.277 17.429 2.593 26.66-3.77 9.232-6.356 9.702-14.102 10.149-21.595l.001-.013c.463-7.648.899-14.864 9.801-20.99 8.908-6.13 17.175-4.907 25.92-3.598l.037.006c8.564 1.268 17.413 2.578 26.631-3.775 7.057-4.86 8.985-10.532 9.71-16.27l.031 44.434Z"/>
  <path fill="url(#f)" d="M252.37 84.425v.002l.031 40.343c.008 7.174-6.74 12.992-15.053 12.998l-101.321.06c.047-.04.101-.073.162-.113 8.908-6.13 17.183-4.907 25.936-3.597 3.305.492 6.651.99 10.044 1.052.393.007.786.008 1.18.003 5.035-.066 10.174-1.198 15.436-4.825 9.231-6.356 9.702-14.102 10.149-21.595l.001-.013c.462-7.648.899-14.864 9.801-20.99 5.246-3.611 10.27-4.67 15.301-4.664 3.51.004 7.024.528 10.619 1.066 5.267.778 10.643 1.582 16.14.603a26.073 26.073 0 0 0 1.574-.33Z"/>
  <path fill="url(#g)" d="M252.324 28.103c-.26 1.886-.376 3.779-.49 5.652l-.003.046-.001.013v.003c-.394 6.508-.769 12.704-6.36 18.181a22.52 22.52 0 0 1-1.026.945 27.13 27.13 0 0 1-2.415 1.862c-2.723 1.876-5.387 3.062-8.024 3.767-5.967 1.599-11.79.74-17.841-.162l-.013-.002-.042-.006c-8.568-1.277-17.429-2.587-26.66 3.77-9.125 6.284-9.682 13.917-10.133 21.318l-.016.277-.001.017c-.463 7.633-.901 14.86-9.801 20.986-2.726 1.878-5.393 3.065-8.032 3.77-5.982 1.601-11.82.732-17.888-.173-8.576-1.276-17.437-2.586-26.669 3.77-9.115 6.284-9.681 13.916-10.132 21.315l-.017.28v.011c-.085 1.38-.162 2.752-.308 4.105l.949.013c.131-1.363.215-2.719.293-4.075v-.013c.463-7.648.899-14.864 9.802-20.991 8.907-6.13 17.174-4.907 25.935-3.597 8.576 1.277 17.429 2.593 26.66-3.77 9.232-6.356 9.702-14.102 10.149-21.595l.001-.013c.463-7.648.899-14.864 9.801-20.99 8.908-6.13 17.175-4.907 25.92-3.598l.037.006c8.564 1.268 17.413 2.578 26.631-3.775 7.049-4.874 8.977-10.545 9.702-16.283l-.008-11.064Z"/>
  <path fill="url(#h)" d="M172.169 135.17c.393.007.786.008 1.18.003 5.035-.066 10.174-1.198 15.436-4.825 9.231-6.356 9.702-14.102 10.149-21.595l.001-.013c.462-7.648.899-14.864 9.801-20.99 5.246-3.611 10.27-4.67 15.301-4.664 3.513.004 7.03.528 10.627 1.066l.07.01c5.249.774 10.593 1.562 16.062.593a26.073 26.073 0 0 0 1.574-.33v.002l.008-.002-.007-.811c-5.829 1.474-11.536.634-17.463-.238l-.097-.015c-8.569-1.276-17.43-2.593-26.661 3.77-9.239 6.356-9.702 14.102-10.149 21.595l-.001.017c-.462 7.633-.9 14.861-9.801 20.987-8.907 6.13-17.174 4.9-25.92 3.597-8.576-1.277-17.437-2.593-26.668 3.77-.355.239-.702.492-1.026.744l1.442-.013c.047-.04.101-.073.162-.113 8.908-6.13 17.183-4.907 25.936-3.597 3.305.492 6.651.99 10.044 1.052Z"/>
  <path fill="url(#i)" d="M252.309 13.336a11.42 11.42 0 0 0-1.851-6.223c-1.195-1.755-2.861-3.225-4.859-4.322-2.336-1.296-5.12-2.041-8.097-2.041L216.04.763c-2.839 4.535-3.139 9.462-3.448 14.581-.123 2.17-.253 4.36-.604 6.531l-.005.032c-.309 1.567-.581 2.81-.941 3.963-.524 1.812-1.082 3.017-1.936 4.261-1.359 2.238-3.301 4.388-6.087 6.406-.185.135-.375.269-.568.402-9.208 6.347-18.047 5.047-26.602 3.78l-.007-.001-.023-.003.03.004c8.555 1.26 17.395 2.56 26.602-3.78.193-.133.383-.267.568-.402 2.786-2.018 4.728-4.168 6.087-6.406 1.085-1.944 1.681-3.383 2.133-4.98.24-.913.479-1.974.744-3.244l.005-.032c.337-2.087.464-4.192.589-6.28v-.01l.015-.24c.301-5.12.609-10.047 3.448-14.582h-1.034c-2.738 4.648-3.046 9.648-3.339 14.541-.131 2.248-.262 4.455-.617 6.603l-1.296 4.96c-1.319 3.344-3.632 6.515-7.881 9.44-2.737 1.886-5.413 3.074-8.063 3.778-5.971 1.59-11.799.722-17.857-.18-8.569-1.277-17.43-2.587-26.661 3.77-9.222 6.351-9.692 14.08-10.146 21.555l-.003.04-.001.017c-.462 7.633-.9 14.86-9.801 20.986-2.743 1.89-5.426 3.08-8.081 3.783-5.964 1.583-11.787.716-17.839-.186-8.576-1.276-17.437-2.593-26.668 3.77-.36.249-.708.5-1.042.752-8.218 6.21-8.67 13.636-9.106 20.824l-.001.02-.001.014c-.462 7.641-.9 14.863-9.801 20.989a27.14 27.14 0 0 1-2.692 1.636h-.01l-.013.006h1.697a26.273 26.273 0 0 0 1.581-1.01c9.222-6.352 9.692-14.081 10.146-21.555v-.001l.003-.04v-.014c.094-1.549.187-3.08.35-4.588.579-5.392 2.047-10.488 7.629-15.038.564-.46 1.171-.914 1.823-1.363 8.907-6.13 17.182-4.907 25.935-3.597 8.576 1.276 17.43 2.586 26.661-3.77 9.222-6.357 9.693-14.094 10.147-21.574l.002-.021.001-.013-.001-.002c.093-1.526.184-3.035.342-4.523.577-5.431 2.041-10.563 7.685-15.141.55-.447 1.141-.889 1.775-1.325 5.226-3.6 10.235-4.664 15.251-4.663 3.528 0 7.057.525 10.669 1.066l.036.006.023.003.007.001-.03-.004-.036-.006c-3.613-.54-7.143-1.066-10.669-1.067-5.014.001-10.022 1.066-15.251 4.664-.634.436-1.225.878-1.775 1.325-5.644 4.578-7.108 9.71-7.685 15.141-.158 1.488-.249 2.998-.341 4.525l-.001.013c-.447 7.493-.918 15.239-10.149 21.595-9.231 6.363-18.085 5.046-26.661 3.77-8.753-1.31-17.028-2.533-25.935 3.597-.652.449-1.259.903-1.823 1.363-5.582 4.55-7.05 9.646-7.63 15.038-.162 1.508-.254 3.04-.348 4.59v.012c-.448 7.494-.91 15.239-10.15 21.596-.524.365-1.056.704-1.58 1.01l50.667-.033c.138-1.346.223-2.725.308-4.105v-.011l.001-.02.016-.26c.444-7.406 1.016-15.038 10.132-21.315 9.232-6.363 18.093-5.046 26.669-3.77l.042.007c6.057.897 11.882 1.76 17.846.166 2.638-.706 5.305-1.893 8.032-3.77 8.893-6.125 9.338-13.353 9.801-20.986l.001-.017.002-.04.014-.237c.444-7.407 1.007-15.04 10.133-21.318 9.231-6.363 18.092-5.047 26.66-3.77l.042.006.013.002c6.055.897 11.878 1.758 17.841.162 2.636-.706 5.3-1.893 8.024-3.767a27.13 27.13 0 0 0 2.415-1.862c.36-.312.702-.627 1.026-.945 5.591-5.478 5.966-11.678 6.36-18.18v-.004l.001-.013.003-.046c.107-1.88.23-3.772.49-5.652l-.015-14.767Z"/>
  <path fill="url(#j)" d="M3.951 54.891c-.293 4.92-.578 9.674-3.123 14.062l.016 1.62c3.384-4.94 3.715-10.34 4.038-15.596l.003-.059c.434-7.17.844-13.96 8.236-19.83.196-.155.398-.31.604-.465l.006-.005a29.412 29.412 0 0 1 1.422-1.002 27.77 27.77 0 0 1 2.447-1.455l.058-.03a25.234 25.234 0 0 1 2.82-1.269l.215-.024c8.601-1.2 13.835-1.312 21.262-.351.99.128 2.018.275 3.099.44l.273.035c7.095.851 14.406.791 21.963-4.415a28.31 28.31 0 0 0 1.873-1.403c7.419-6.073 7.853-13.238 8.26-20.185.085-1.383.17-2.766.31-4.116h-.942V.85l-.013.14a150.037 150.037 0 0 0-.274 3.831l-.006.104v.017c-.463 7.633-.9 14.861-9.802 20.987-7.357 5.06-14.267 5.106-21.385 4.235l-.227-.049c-9.326-2.513-14.77-2.315-24.508-.11l-.113.026a26.992 26.992 0 0 0-6.355 3.272c-6.329 4.357-8.54 9.369-9.451 14.502-.077.434-.145.869-.205 1.304-.266 1.925-.384 3.861-.5 5.78v.002Z"/>
  <defs>
    <linearGradient id="a" x1="76.073" x2="118.397" y1="168.487" y2="26.849" gradientUnits="userSpaceOnUse">
      <stop stop-color="#885DF5"/>
      <stop offset=".994" stop-color="#6B7CFE"/>
    </linearGradient>
    <linearGradient id="b" x1="104.428" x2="150.511" y1="178.761" y2="40.031" gradientUnits="userSpaceOnUse">
      <stop stop-color="#885DF5"/>
      <stop offset=".994" stop-color="#6B7CFE"/>
    </linearGradient>
    <linearGradient id="c" x1=".737" x2="252.724" y1="69.603" y2="69.356" gradientUnits="userSpaceOnUse">
      <stop stop-color="#885DF5"/>
      <stop offset=".989" stop-color="#2E3670"/>
    </linearGradient>
    <linearGradient id="d" x1=".697" x2="252.672" y1="69.582" y2="69.32" gradientUnits="userSpaceOnUse">
      <stop stop-color="#885DF5"/>
      <stop offset=".994" stop-color="#5C6BDB"/>
    </linearGradient>
    <linearGradient id="e" x1="104.428" x2="150.511" y1="178.761" y2="40.031" gradientUnits="userSpaceOnUse">
      <stop stop-color="#885DF5"/>
      <stop offset=".994" stop-color="#6B7CFE"/>
    </linearGradient>
    <linearGradient id="f" x1="136.005" x2="252.393" y1="110.487" y2="110.39" gradientUnits="userSpaceOnUse">
      <stop offset=".534" stop-color="#885DF5"/>
      <stop offset=".994" stop-color="#3C4AB6"/>
    </linearGradient>
    <linearGradient id="g" x1="136.005" x2="252.393" y1="110.487" y2="110.39" gradientUnits="userSpaceOnUse">
      <stop stop-color="#885DF5"/>
      <stop offset=".994" stop-color="#6B7CFE"/>
    </linearGradient>
    <linearGradient id="h" x1="136.005" x2="252.393" y1="110.487" y2="110.39" gradientUnits="userSpaceOnUse">
      <stop stop-color="#885DF5"/>
      <stop offset=".994" stop-color="#6B7CFE"/>
    </linearGradient>
    <linearGradient id="i" x1="136.005" x2="252.393" y1="110.487" y2="110.39" gradientUnits="userSpaceOnUse">
      <stop stop-color="#885DF5"/>
      <stop offset=".994" stop-color="#6B7CFE"/>
    </linearGradient>
    <linearGradient id="j" x1="136.005" x2="252.393" y1="110.487" y2="110.39" gradientUnits="userSpaceOnUse">
      <stop stop-color="#885DF5"/>
      <stop offset=".994" stop-color="#6B7CFE"/>
    </linearGradient>
  </defs>
</svg>
