<svg xmlns="http://www.w3.org/2000/svg" width="44" height="14" fill="none" viewBox="0 0 44 14">
  <path fill="#fff" d="M40.773.637h-2.68c-.839 0-1.47.238-1.826 1.081l-5.146 12h3.652s.606-1.61.73-1.95h4.449c.108.45.423 1.95.423 1.95h3.228L40.773.637ZM36.5 9.085c.282-.75 1.361-3.67 1.361-3.67s.299-.767.473-1.236l.233 1.125s.672 3.117.805 3.78H36.5ZM26.49 4.274c-.008.605.747 1.013 1.959 1.618 2 .937 2.93 2.06 2.904 3.56-.016 2.716-2.39 4.47-6.033 4.47-1.56-.016-3.055-.34-3.868-.697l.49-2.93.44.204c1.137.486 1.884.69 3.27.69.996 0 2.066-.4 2.083-1.277.008-.58-.457-.988-1.801-1.627-1.328-.622-3.07-1.67-3.046-3.543.016-2.538 2.44-4.326 5.868-4.326 1.344 0 2.431.29 3.112.554l-.473 2.827-.316-.145a6.49 6.49 0 0 0-2.605-.502c-1.353-.009-1.984.579-1.984 1.124ZM21.436.646 19.27 13.72H15.8l.424-2.538.689-4.173L17.959.655l3.477-.009ZM8.97 7.383C7.81 4.36 5.038 1.848.846.81L.887.545h5.386c.73.034 1.32.264 1.52 1.064L8.97 7.383Z"/>
  <path fill="#fff" d="m16.555.662-5.47 13.047H7.417l-3.112-10.9C6.537 4.281 8.438 6.614 9.11 8.232l.365 1.354L12.878.662h3.677Z"/>
</svg>
